<svg width="264" height="230" viewBox="0 0 264 230" fill="none" xmlns="http://www.w3.org/2000/svg">
<rect x="-0.5" y="0.5" width="264" height="228.897" rx="4.46482" fill="white"/>
<path d="M16.573 21.5451H20.0462C20.9661 21.5451 21.6758 21.7711 22.1753 22.2231C22.6749 22.6751 22.9247 23.3293 22.9247 24.1857C22.9247 24.7963 22.774 25.3157 22.4727 25.7439C22.1714 26.1721 21.7432 26.4774 21.1881 26.6598L22.8771 29.8594H21.3308L19.7251 26.8144H18.0836V29.8594H16.573V21.5451ZM19.7727 25.5655C20.2643 25.5655 20.6608 25.4505 20.9621 25.2205C21.2634 24.9906 21.4141 24.6456 21.4141 24.1857C21.4141 23.2579 20.8669 22.7941 19.7727 22.7941H18.0836V25.5655H19.7727ZM26.8469 30.0378C25.7843 30.0378 24.9438 29.7721 24.3253 29.2409C23.7068 28.7096 23.3975 27.9682 23.3975 27.0166C23.3975 26.0809 23.6711 25.3395 24.2182 24.7923C24.7654 24.2452 25.5464 23.9716 26.5614 23.9716C27.2275 23.9716 27.7945 24.0985 28.2623 24.3522C28.7381 24.606 29.0949 24.9549 29.3328 25.3989C29.5707 25.8351 29.6897 26.3346 29.6897 26.8977V27.5875H24.8248C24.9279 28.436 25.6654 28.8602 27.0372 28.8602C27.402 28.8602 27.7747 28.8285 28.1553 28.7651C28.5359 28.7016 28.869 28.6144 29.1544 28.5034V29.6572C28.8848 29.7682 28.5359 29.8594 28.1077 29.9307C27.6874 30.0021 27.2672 30.0378 26.8469 30.0378ZM28.2742 26.5646C28.2584 26.1126 28.0958 25.7637 27.7866 25.5179C27.4852 25.2721 27.0689 25.1492 26.5376 25.1492C26.0143 25.1492 25.6019 25.276 25.3006 25.5298C24.9993 25.7835 24.8407 26.1285 24.8248 26.5646H28.2742ZM35.8674 29.3003C35.5978 29.5462 35.2687 29.7325 34.8801 29.8594C34.4995 29.9783 34.0911 30.0378 33.655 30.0378C33.0761 30.0378 32.5567 29.9109 32.0968 29.6572C31.6448 29.3955 31.288 29.0347 31.0263 28.5748C30.7726 28.1149 30.6457 27.5875 30.6457 26.9928C30.6457 26.3902 30.7726 25.8628 31.0263 25.4108C31.288 24.9509 31.6448 24.5981 32.0968 24.3522C32.5567 24.0985 33.0761 23.9716 33.655 23.9716C34.1228 23.9716 34.5391 24.043 34.9039 24.1857C35.2687 24.3284 35.6057 24.5465 35.9149 24.8399V24.15H37.3661V32.4643H35.8674V29.3003ZM34.0237 28.8602C34.4519 28.8602 34.8325 28.7453 35.1656 28.5153C35.5066 28.2774 35.7405 27.9642 35.8674 27.5756V26.4219C35.7326 26.0333 35.4986 25.7241 35.1656 25.4941C34.8325 25.2641 34.4519 25.1492 34.0237 25.1492C33.4845 25.1492 33.0404 25.3197 32.6915 25.6606C32.3426 26.0016 32.1682 26.4457 32.1682 26.9928C32.1682 27.54 32.3426 27.988 32.6915 28.3369C33.0404 28.6858 33.4845 28.8602 34.0237 28.8602ZM41.03 30.0378C40.2609 30.0378 39.686 29.8316 39.3053 29.4193C38.9247 28.999 38.7344 28.4439 38.7344 27.7541V24.15H40.2331V27.6113C40.2331 28.4439 40.6217 28.8602 41.3988 28.8602C41.7397 28.8602 42.0609 28.7809 42.3622 28.6223C42.6635 28.4558 42.9173 28.21 43.1235 27.8849V24.15H44.6222V29.8594H43.171V29.0862C42.9014 29.4113 42.5803 29.6532 42.2076 29.8118C41.8349 29.9625 41.4424 30.0378 41.03 30.0378ZM49.2652 30.0378C48.2026 30.0378 47.3621 29.7721 46.7436 29.2409C46.125 28.7096 45.8158 27.9682 45.8158 27.0166C45.8158 26.0809 46.0894 25.3395 46.6365 24.7923C47.1837 24.2452 47.9647 23.9716 48.9797 23.9716C49.6458 23.9716 50.2128 24.0985 50.6806 24.3522C51.1564 24.606 51.5132 24.9549 51.7511 25.3989C51.989 25.8351 52.108 26.3346 52.108 26.8977V27.5875H47.2431C47.3462 28.436 48.0837 28.8602 49.4555 28.8602C49.8203 28.8602 50.193 28.8285 50.5736 28.7651C50.9542 28.7016 51.2872 28.6144 51.5727 28.5034V29.6572C51.3031 29.7682 50.9542 29.8594 50.526 29.9307C50.1057 30.0021 49.6855 30.0378 49.2652 30.0378ZM50.6925 26.5646C50.6767 26.1126 50.5141 25.7637 50.2048 25.5179C49.9035 25.2721 49.4872 25.1492 48.9559 25.1492C48.4326 25.1492 48.0202 25.276 47.7189 25.5298C47.4176 25.7835 47.259 26.1285 47.2431 26.5646H50.6925ZM55.5261 30.0378C55.1138 30.0378 54.6737 29.9902 54.2059 29.8951C53.738 29.7999 53.3732 29.6691 53.1116 29.5025V28.2298C53.4208 28.4201 53.7895 28.5748 54.2177 28.6937C54.6459 28.8047 55.0504 28.8602 55.431 28.8602C55.8116 28.8602 56.0891 28.8285 56.2636 28.7651C56.438 28.6937 56.5253 28.5668 56.5253 28.3845C56.5253 28.2417 56.4777 28.1267 56.3825 28.0395C56.2953 27.9444 56.1486 27.8611 55.9424 27.7897C55.7442 27.7104 55.4349 27.6153 55.0147 27.5043C54.5389 27.3695 54.1622 27.2307 53.8847 27.088C53.6151 26.9452 53.4089 26.7668 53.2662 26.5527C53.1314 26.3307 53.064 26.0452 53.064 25.6963C53.064 25.1254 53.29 24.6972 53.742 24.4117C54.194 24.1183 54.8045 23.9716 55.5737 23.9716C55.9702 23.9716 56.3627 24.0113 56.7513 24.0906C57.1478 24.1619 57.457 24.265 57.679 24.3998V25.6249C57.4411 25.4822 57.1517 25.3672 56.8107 25.28C56.4698 25.1928 56.1209 25.1492 55.764 25.1492C55.3755 25.1492 55.0821 25.1888 54.8838 25.2681C54.6856 25.3395 54.5865 25.4822 54.5865 25.6963C54.5865 25.839 54.638 25.954 54.7411 26.0412C54.8521 26.1205 54.9949 26.1919 55.1693 26.2553C55.3438 26.3109 55.6609 26.3981 56.1209 26.517C56.6125 26.6518 56.9971 26.7985 57.2746 26.9571C57.5522 27.1157 57.7504 27.306 57.8693 27.5281C57.9883 27.7501 58.0478 28.0276 58.0478 28.3607C58.0478 28.8682 57.8297 29.2765 57.3936 29.5858C56.9654 29.8871 56.3429 30.0378 55.5261 30.0378ZM61.3589 30.0378C60.7324 30.0378 60.2567 29.8633 59.9316 29.5144C59.6064 29.1655 59.4439 28.6739 59.4439 28.0395V25.2919H58.5875V24.15H59.4439V22.4372H60.9426V24.15H62.3104V25.2919H60.9426V27.8492C60.9426 28.214 61.01 28.4757 61.1448 28.6342C61.2796 28.7849 61.5254 28.8602 61.8822 28.8602C62.1281 28.8602 62.3699 28.8047 62.6078 28.6937V29.8356C62.2668 29.9704 61.8505 30.0378 61.3589 30.0378ZM71.0653 30.0378C70.3992 30.0378 69.8125 29.9188 69.305 29.681C68.8054 29.4351 68.4168 29.0862 68.1393 28.6342C67.8618 28.1743 67.723 27.6311 67.723 27.0047C67.723 26.3941 67.8578 25.8628 68.1274 25.4108C68.4049 24.9509 68.7975 24.5981 69.305 24.3522C69.8125 24.0985 70.3992 23.9716 71.0653 23.9716C71.7314 23.9716 72.3143 24.0985 72.8138 24.3522C73.3213 24.5981 73.7138 24.9509 73.9914 25.4108C74.2689 25.8628 74.4077 26.3941 74.4077 27.0047C74.4077 27.6311 74.2689 28.1743 73.9914 28.6342C73.7138 29.0862 73.3213 29.4351 72.8138 29.681C72.3143 29.9188 71.7314 30.0378 71.0653 30.0378ZM71.0653 28.8602C71.6125 28.8602 72.0486 28.6898 72.3737 28.3488C72.6988 27.9999 72.8614 27.5518 72.8614 27.0047C72.8614 26.4258 72.6988 25.9738 72.3737 25.6487C72.0565 25.3157 71.6204 25.1492 71.0653 25.1492C70.5103 25.1492 70.0702 25.3157 69.7451 25.6487C69.4279 25.9738 69.2693 26.4258 69.2693 27.0047C69.2693 27.5518 69.4318 27.9999 69.7569 28.3488C70.0821 28.6898 70.5182 28.8602 71.0653 28.8602ZM75.5924 24.15H77.0435V24.9232C77.3131 24.5981 77.6343 24.3602 78.007 24.2095C78.3797 24.0509 78.7722 23.9716 79.1845 23.9716C79.9537 23.9716 80.5286 24.1817 80.9092 24.602C81.2898 25.0144 81.4802 25.5655 81.4802 26.2553V29.8594H79.9815V26.3981C79.9815 25.5655 79.5929 25.1492 78.8158 25.1492C78.4748 25.1492 78.1537 25.2324 77.8523 25.3989C77.551 25.5575 77.2973 25.7994 77.0911 26.1245V29.8594H75.5924V24.15ZM86.0637 30.0378C85.0011 30.0378 84.1606 29.7721 83.5421 29.2409C82.9236 28.7096 82.6143 27.9682 82.6143 27.0166C82.6143 26.0809 82.8879 25.3395 83.435 24.7923C83.9822 24.2452 84.7632 23.9716 85.7782 23.9716C86.4443 23.9716 87.0113 24.0985 87.4792 24.3522C87.9549 24.606 88.3118 24.9549 88.5497 25.3989C88.7875 25.8351 88.9065 26.3346 88.9065 26.8977V27.5875H84.0417C84.1447 28.436 84.8822 28.8602 86.254 28.8602C86.6188 28.8602 86.9915 28.8285 87.3721 28.7651C87.7527 28.7016 88.0858 28.6144 88.3712 28.5034V29.6572C88.1016 29.7682 87.7527 29.8594 87.3245 29.9307C86.9043 30.0021 86.484 30.0378 86.0637 30.0378ZM87.491 26.5646C87.4752 26.1126 87.3126 25.7637 87.0034 25.5179C86.702 25.2721 86.2857 25.1492 85.7545 25.1492C85.2311 25.1492 84.8188 25.276 84.5174 25.5298C84.2161 25.7835 84.0575 26.1285 84.0417 26.5646H87.491ZM96.6822 30.0378C96.0558 30.0378 95.58 29.8633 95.2549 29.5144C94.9298 29.1655 94.7672 28.6739 94.7672 28.0395V25.2919H93.9108V24.15H94.7672V22.4372H96.2659V24.15H97.6338V25.2919H96.2659V27.8492C96.2659 28.214 96.3333 28.4757 96.4681 28.6342C96.6029 28.7849 96.8487 28.8602 97.2056 28.8602C97.4514 28.8602 97.6933 28.8047 97.9311 28.6937V29.8356C97.5902 29.9704 97.1739 30.0378 96.6822 30.0378ZM99.8425 23.1509C99.6046 23.1509 99.4024 23.0716 99.2359 22.913C99.0773 22.7544 98.998 22.5562 98.998 22.3183C98.998 22.0804 99.0773 21.8821 99.2359 21.7236C99.4024 21.557 99.6046 21.4738 99.8425 21.4738C100.08 21.4738 100.283 21.557 100.449 21.7236C100.616 21.8821 100.699 22.0804 100.699 22.3183C100.699 22.5562 100.616 22.7544 100.449 22.913C100.283 23.0716 100.08 23.1509 99.8425 23.1509ZM99.0813 24.15H100.604V29.8594H99.0813V24.15ZM102.123 24.15H103.526V24.8994C103.78 24.5981 104.077 24.3681 104.418 24.2095C104.759 24.0509 105.104 23.9716 105.453 23.9716C105.897 23.9716 106.254 24.0469 106.524 24.1976C106.793 24.3403 106.995 24.5584 107.13 24.8518C107.384 24.5663 107.689 24.3483 108.046 24.1976C108.411 24.0469 108.772 23.9716 109.128 23.9716C109.842 23.9716 110.354 24.15 110.663 24.5069C110.972 24.8637 111.127 25.3871 111.127 26.0769V29.8594H109.688V26.2791C109.688 25.8747 109.604 25.5853 109.438 25.4108C109.279 25.2364 109.021 25.1492 108.665 25.1492C108.411 25.1492 108.177 25.2007 107.963 25.3038C107.757 25.3989 107.566 25.5655 107.392 25.8034C107.408 26.0571 107.416 26.2633 107.416 26.4219V29.8594H105.965V26.2553C105.965 25.843 105.897 25.5575 105.762 25.3989C105.628 25.2324 105.382 25.1492 105.025 25.1492C104.486 25.1492 104.002 25.4545 103.574 26.065V29.8594H102.123V24.15ZM115.707 30.0378C114.644 30.0378 113.804 29.7721 113.185 29.2409C112.567 28.7096 112.258 27.9682 112.258 27.0166C112.258 26.0809 112.531 25.3395 113.078 24.7923C113.625 24.2452 114.406 23.9716 115.421 23.9716C116.088 23.9716 116.655 24.0985 117.122 24.3522C117.598 24.606 117.955 24.9549 118.193 25.3989C118.431 25.8351 118.55 26.3346 118.55 26.8977V27.5875H113.685C113.788 28.436 114.525 28.8602 115.897 28.8602C116.262 28.8602 116.635 28.8285 117.015 28.7651C117.396 28.7016 117.729 28.6144 118.014 28.5034V29.6572C117.745 29.7682 117.396 29.8594 116.968 29.9307C116.548 30.0021 116.127 30.0378 115.707 30.0378ZM117.134 26.5646C117.118 26.1126 116.956 25.7637 116.647 25.5179C116.345 25.2721 115.929 25.1492 115.398 25.1492C114.874 25.1492 114.462 25.276 114.161 25.5298C113.859 25.7835 113.701 26.1285 113.685 26.5646H117.134ZM124.03 24.15H125.481V24.8399C125.79 24.5465 126.127 24.3284 126.492 24.1857C126.857 24.043 127.273 23.9716 127.741 23.9716C128.32 23.9716 128.835 24.0985 129.287 24.3522C129.747 24.5981 130.104 24.9509 130.358 25.4108C130.619 25.8628 130.75 26.3902 130.75 26.9928C130.75 27.5875 130.619 28.1149 130.358 28.5748C130.104 29.0347 129.747 29.3955 129.287 29.6572C128.835 29.9109 128.32 30.0378 127.741 30.0378C127.305 30.0378 126.892 29.9783 126.504 29.8594C126.123 29.7325 125.798 29.5462 125.529 29.3003V32.4643H124.03V24.15ZM127.372 28.8602C127.911 28.8602 128.355 28.6858 128.704 28.3369C129.053 27.988 129.228 27.54 129.228 26.9928C129.228 26.4457 129.053 26.0016 128.704 25.6606C128.355 25.3197 127.911 25.1492 127.372 25.1492C126.944 25.1492 126.563 25.2641 126.23 25.4941C125.897 25.7241 125.663 26.0333 125.529 26.4219V27.5756C125.655 27.9642 125.885 28.2774 126.218 28.5153C126.559 28.7453 126.944 28.8602 127.372 28.8602ZM133.732 30.0378C133.05 30.0378 132.491 29.8594 132.054 29.5025C131.618 29.1378 131.4 28.6501 131.4 28.0395C131.4 27.4051 131.606 26.9095 132.019 26.5527C132.431 26.1959 133.01 26.0175 133.755 26.0175C134.477 26.0175 135.099 26.1642 135.623 26.4576V26.3029C135.623 25.8985 135.496 25.6051 135.242 25.4227C134.996 25.2404 134.596 25.1492 134.041 25.1492C133.692 25.1492 133.347 25.1848 133.006 25.2562C132.665 25.3197 132.364 25.4108 132.102 25.5298V24.3522C132.34 24.2412 132.657 24.15 133.054 24.0787C133.458 24.0073 133.847 23.9716 134.219 23.9716C135.21 23.9716 135.944 24.1857 136.42 24.6139C136.895 25.0342 137.133 25.621 137.133 26.3743V29.8594H135.718V29.3003C135.472 29.5382 135.191 29.7206 134.873 29.8475C134.564 29.9744 134.184 30.0378 133.732 30.0378ZM134.1 28.9435C134.433 28.9435 134.735 28.8801 135.004 28.7532C135.274 28.6184 135.48 28.436 135.623 28.206V27.5756C135.187 27.2664 134.687 27.1118 134.124 27.1118C133.323 27.1118 132.923 27.421 132.923 28.0395C132.923 28.3408 133.022 28.5668 133.22 28.7175C133.426 28.8682 133.72 28.9435 134.1 28.9435ZM139.337 32.2145C139.13 32.2145 138.912 32.1986 138.682 32.1669C138.46 32.1431 138.286 32.1074 138.159 32.0599V30.918C138.357 30.9973 138.603 31.0369 138.896 31.0369C139.198 31.0369 139.424 30.9695 139.574 30.8347C139.725 30.6999 139.856 30.4858 139.967 30.1924L140.193 29.5977L137.731 24.15H139.241L141.002 28.3131L142.655 24.15H144.154L141.656 30.3708C141.402 30.9973 141.093 31.4612 140.728 31.7625C140.371 32.0638 139.907 32.2145 139.337 32.2145ZM145.101 24.15H146.504V24.8994C146.758 24.5981 147.055 24.3681 147.396 24.2095C147.737 24.0509 148.082 23.9716 148.431 23.9716C148.875 23.9716 149.232 24.0469 149.502 24.1976C149.771 24.3403 149.973 24.5584 150.108 24.8518C150.362 24.5663 150.667 24.3483 151.024 24.1976C151.389 24.0469 151.75 23.9716 152.107 23.9716C152.82 23.9716 153.332 24.15 153.641 24.5069C153.95 24.8637 154.105 25.3871 154.105 26.0769V29.8594H152.666V26.2791C152.666 25.8747 152.582 25.5853 152.416 25.4108C152.257 25.2364 152 25.1492 151.643 25.1492C151.389 25.1492 151.155 25.2007 150.941 25.3038C150.735 25.3989 150.544 25.5655 150.37 25.8034C150.386 26.0571 150.394 26.2633 150.394 26.4219V29.8594H148.943V26.2553C148.943 25.843 148.875 25.5575 148.74 25.3989C148.606 25.2324 148.36 25.1492 148.003 25.1492C147.464 25.1492 146.98 25.4545 146.552 26.065V29.8594H145.101V24.15ZM158.685 30.0378C157.622 30.0378 156.782 29.7721 156.163 29.2409C155.545 28.7096 155.236 27.9682 155.236 27.0166C155.236 26.0809 155.509 25.3395 156.056 24.7923C156.604 24.2452 157.385 23.9716 158.4 23.9716C159.066 23.9716 159.633 24.0985 160.1 24.3522C160.576 24.606 160.933 24.9549 161.171 25.3989C161.409 25.8351 161.528 26.3346 161.528 26.8977V27.5875H156.663C156.766 28.436 157.504 28.8602 158.875 28.8602C159.24 28.8602 159.613 28.8285 159.993 28.7651C160.374 28.7016 160.707 28.6144 160.993 28.5034V29.6572C160.723 29.7682 160.374 29.8594 159.946 29.9307C159.526 30.0021 159.105 30.0378 158.685 30.0378ZM160.112 26.5646C160.097 26.1126 159.934 25.7637 159.625 25.5179C159.323 25.2721 158.907 25.1492 158.376 25.1492C157.852 25.1492 157.44 25.276 157.139 25.5298C156.837 25.7835 156.679 26.1285 156.663 26.5646H160.112ZM162.722 24.15H164.173V24.9232C164.442 24.5981 164.764 24.3602 165.136 24.2095C165.509 24.0509 165.902 23.9716 166.314 23.9716C167.083 23.9716 167.658 24.1817 168.039 24.602C168.419 25.0144 168.609 25.5655 168.609 26.2553V29.8594H167.111V26.3981C167.111 25.5655 166.722 25.1492 165.945 25.1492C165.604 25.1492 165.283 25.2324 164.982 25.3989C164.68 25.5575 164.427 25.7994 164.22 26.1245V29.8594H162.722V24.15ZM172.277 30.0378C171.651 30.0378 171.175 29.8633 170.85 29.5144C170.525 29.1655 170.362 28.6739 170.362 28.0395V25.2919H169.506V24.15H170.362V22.4372H171.861V24.15H173.229V25.2919H171.861V27.8492C171.861 28.214 171.928 28.4757 172.063 28.6342C172.198 28.7849 172.444 28.8602 172.801 28.8602C173.046 28.8602 173.288 28.8047 173.526 28.6937V29.8356C173.185 29.9704 172.769 30.0378 172.277 30.0378Z" fill="#363636"/>
<path d="M239.987 25.8458L242.868 28.7265C242.945 28.804 242.945 28.8891 242.868 28.9821L242.334 29.5164C242.241 29.5938 242.156 29.5938 242.078 29.5164L241.59 29.0053L239.197 26.6357L236.317 29.5164C236.239 29.5938 236.154 29.5938 236.061 29.5164L235.527 28.9821C235.449 28.8891 235.449 28.804 235.527 28.7265L238.408 25.8458L235.527 22.9651C235.449 22.8877 235.449 22.8025 235.527 22.7096L236.061 22.1753C236.154 22.0978 236.239 22.0978 236.317 22.1753L239.197 25.056L242.078 22.1753C242.156 22.0978 242.241 22.0978 242.334 22.1753L242.868 22.7096C242.945 22.8025 242.945 22.8877 242.868 22.9651L242.357 23.453L239.987 25.8458Z" fill="#363636"/>
<path d="M16.3748 46.2462H17.1916V51.7891H16.3748V46.2462ZM18.2256 47.9828H19.0027V48.53C19.1824 48.3027 19.4018 48.1361 19.6608 48.0304C19.9252 47.9194 20.2001 47.8639 20.4855 47.8639C20.993 47.8639 21.371 47.9987 21.6195 48.2683C21.8679 48.5379 21.9922 48.9 21.9922 49.3547V51.7891H21.1913V49.434C21.1913 48.8154 20.8952 48.5062 20.3031 48.5062C20.0494 48.5062 19.8115 48.567 19.5895 48.6886C19.3727 48.8049 19.1851 48.9846 19.0265 49.2278V51.7891H18.2256V47.9828ZM22.4655 47.9828H23.3139L24.432 50.7186L25.5501 47.9828H26.3986L24.7809 51.7891H24.0831L22.4655 47.9828ZM27.7382 47.2374C27.606 47.2374 27.495 47.1925 27.4051 47.1026C27.3153 47.0128 27.2703 46.9018 27.2703 46.7696C27.2703 46.6374 27.3153 46.5264 27.4051 46.4365C27.495 46.3467 27.606 46.3017 27.7382 46.3017C27.8756 46.3017 27.9893 46.3467 28.0791 46.4365C28.1743 46.5264 28.2219 46.6374 28.2219 46.7696C28.2219 46.9018 28.1743 47.0128 28.0791 47.1026C27.9893 47.1925 27.8756 47.2374 27.7382 47.2374ZM27.3338 47.9828H28.1505V51.7891H27.3338V47.9828ZM30.7197 51.908C30.3338 51.908 30.0351 51.797 29.8237 51.575C29.6175 51.3529 29.5144 51.0384 29.5144 50.6313V48.6013H28.9356V47.9828H29.5144V46.841H30.3232V47.9828H31.2589V48.6013H30.3232V50.5758C30.3232 50.8296 30.3708 51.0093 30.466 51.115C30.5664 51.2208 30.7462 51.2736 31.0052 51.2736C31.1585 51.2736 31.3118 51.2393 31.4651 51.1705V51.8049C31.2642 51.8736 31.0158 51.908 30.7197 51.908ZM34.312 51.908C33.6089 51.908 33.0565 51.7336 32.6547 51.3847C32.2583 51.0305 32.06 50.5335 32.06 49.8939C32.06 49.2701 32.2371 48.7758 32.5913 48.411C32.9508 48.0463 33.4609 47.8639 34.1217 47.8639C34.5605 47.8639 34.9332 47.9485 35.2398 48.1176C35.5464 48.2815 35.7764 48.5115 35.9297 48.8075C36.0883 49.0983 36.1676 49.4313 36.1676 49.8067V50.2031H32.8213C32.8477 50.5626 32.9984 50.8322 33.2733 51.012C33.5534 51.1864 33.9314 51.2736 34.4072 51.2736C34.6504 51.2736 34.8962 51.2525 35.1447 51.2102C35.3931 51.1626 35.6125 51.1018 35.8028 51.0278V51.6701C35.6336 51.7388 35.409 51.7943 35.1288 51.8366C34.8539 51.8842 34.5816 51.908 34.312 51.908ZM35.4143 49.6401C35.4037 49.2807 35.2847 49.0031 35.0574 48.8075C34.8354 48.6066 34.5182 48.5062 34.1059 48.5062C33.7041 48.5062 33.3922 48.6093 33.1702 48.8154C32.9481 49.0216 32.8318 49.2965 32.8213 49.6401H35.4143ZM41.4449 51.908C41.059 51.908 40.7603 51.797 40.5488 51.575C40.3427 51.3529 40.2396 51.0384 40.2396 50.6313V48.6013H39.6607V47.9828H40.2396V46.841H41.0484V47.9828H41.9841V48.6013H41.0484V50.5758C41.0484 50.8296 41.096 51.0093 41.1911 51.115C41.2916 51.2208 41.4713 51.2736 41.7303 51.2736C41.8837 51.2736 42.037 51.2393 42.1903 51.1705V51.8049C41.9894 51.8736 41.7409 51.908 41.4449 51.908ZM44.9113 51.908C44.4831 51.908 44.1051 51.8287 43.7773 51.6701C43.4548 51.5062 43.2011 51.2736 43.0161 50.9723C42.8363 50.6657 42.7465 50.3062 42.7465 49.8939C42.7465 49.4868 42.8363 49.13 43.0161 48.8234C43.1958 48.5168 43.4496 48.2815 43.7773 48.1176C44.1051 47.9485 44.4831 47.8639 44.9113 47.8639C45.3395 47.8639 45.7174 47.9485 46.0452 48.1176C46.373 48.2815 46.6267 48.5168 46.8064 48.8234C46.9915 49.13 47.084 49.4868 47.084 49.8939C47.084 50.3062 46.9915 50.6657 46.8064 50.9723C46.6267 51.2736 46.373 51.5062 46.0452 51.6701C45.7174 51.8287 45.3395 51.908 44.9113 51.908ZM44.9113 51.2736C45.3236 51.2736 45.6514 51.1468 45.8945 50.893C46.1377 50.6393 46.2593 50.3062 46.2593 49.8939C46.2593 49.4657 46.1377 49.1273 45.8945 48.8789C45.6514 48.6304 45.3236 48.5062 44.9113 48.5062C44.4989 48.5062 44.1712 48.6304 43.928 48.8789C43.6848 49.1273 43.5632 49.4657 43.5632 49.8939C43.5632 50.3062 43.6848 50.6393 43.928 50.893C44.1712 51.1468 44.4989 51.2736 44.9113 51.2736ZM50.8889 47.9828H51.666V48.6648C51.8246 48.4322 52.0466 48.2604 52.3321 48.1494C52.6229 48.0383 52.9585 47.9828 53.3392 47.9828V48.6093C52.9321 48.6093 52.5832 48.6754 52.2925 48.8075C52.0017 48.9397 51.8008 49.1485 51.6898 49.434V51.7891H50.8889V47.9828ZM55.9095 51.908C55.2064 51.908 54.654 51.7336 54.2522 51.3847C53.8557 51.0305 53.6575 50.5335 53.6575 49.8939C53.6575 49.2701 53.8346 48.7758 54.1888 48.411C54.5482 48.0463 55.0584 47.8639 55.7192 47.8639C56.158 47.8639 56.5306 47.9485 56.8373 48.1176C57.1439 48.2815 57.3738 48.5115 57.5271 48.8075C57.6857 49.0983 57.765 49.4313 57.765 49.8067V50.2031H54.4187C54.4451 50.5626 54.5958 50.8322 54.8707 51.012C55.1509 51.1864 55.5289 51.2736 56.0046 51.2736C56.2478 51.2736 56.4936 51.2525 56.7421 51.2102C56.9906 51.1626 57.21 51.1018 57.4003 51.0278V51.6701C57.2311 51.7388 57.0064 51.7943 56.7262 51.8366C56.4514 51.8842 56.1791 51.908 55.9095 51.908ZM57.0117 49.6401C57.0011 49.2807 56.8822 49.0031 56.6549 48.8075C56.4328 48.6066 56.1157 48.5062 55.7033 48.5062C55.3016 48.5062 54.9897 48.6093 54.7676 48.8154C54.5456 49.0216 54.4293 49.2965 54.4187 49.6401H57.0117ZM62.0423 51.2816C61.8678 51.4877 61.6431 51.6437 61.3682 51.7494C61.0934 51.8551 60.7973 51.908 60.4801 51.908C60.0942 51.908 59.7506 51.8234 59.4493 51.6543C59.1479 51.4851 58.9101 51.2472 58.7356 50.9406C58.5664 50.634 58.4819 50.2824 58.4819 49.8859C58.4819 49.4842 58.5664 49.1326 58.7356 48.8313C58.9101 48.5247 59.1479 48.2868 59.4493 48.1176C59.7559 47.9485 60.0995 47.8639 60.4801 47.8639C61.1462 47.8639 61.6749 48.0912 62.0661 48.5458V47.9828H62.8432V53.5257H62.0423V51.2816ZM60.6625 51.2736C60.985 51.2736 61.2731 51.1864 61.5268 51.012C61.7806 50.8375 61.9524 50.6049 62.0423 50.3141V49.4577C61.9365 49.1617 61.7594 48.9291 61.511 48.7599C61.2678 48.5908 60.985 48.5062 60.6625 48.5062C60.4035 48.5062 60.1682 48.5643 59.9568 48.6806C59.7506 48.7917 59.5867 48.9529 59.4651 49.1643C59.3488 49.3705 59.2907 49.6111 59.2907 49.8859C59.2907 50.1608 59.3488 50.404 59.4651 50.6155C59.5867 50.8269 59.7506 50.9908 59.9568 51.1071C60.1682 51.2181 60.4035 51.2736 60.6625 51.2736ZM65.3898 51.908C64.877 51.908 64.4885 51.7706 64.2242 51.4957C63.9651 51.2208 63.8356 50.8534 63.8356 50.3934V47.9828H64.6365V50.3617C64.6365 50.9697 64.9405 51.2736 65.5484 51.2736C66.0823 51.2736 66.5 51.0331 66.8013 50.552V47.9828H67.6022V51.7891H66.8251V51.2498C66.6453 51.4772 66.4312 51.6437 66.1828 51.7494C65.9396 51.8551 65.6753 51.908 65.3898 51.908ZM70.7234 51.908C70.0203 51.908 69.4678 51.7336 69.0661 51.3847C68.6696 51.0305 68.4714 50.5335 68.4714 49.8939C68.4714 49.2701 68.6484 48.7758 69.0026 48.411C69.3621 48.0463 69.8723 47.8639 70.5331 47.8639C70.9718 47.8639 71.3445 47.9485 71.6511 48.1176C71.9578 48.2815 72.1877 48.5115 72.341 48.8075C72.4996 49.0983 72.5789 49.4313 72.5789 49.8067V50.2031H69.2326C69.259 50.5626 69.4097 50.8322 69.6846 51.012C69.9648 51.1864 70.3427 51.2736 70.8185 51.2736C71.0617 51.2736 71.3075 51.2525 71.556 51.2102C71.8044 51.1626 72.0238 51.1018 72.2141 51.0278V51.6701C72.045 51.7388 71.8203 51.7943 71.5401 51.8366C71.2652 51.8842 70.993 51.908 70.7234 51.908ZM71.8256 49.6401C71.815 49.2807 71.6961 49.0031 71.4688 48.8075C71.2467 48.6066 70.9295 48.5062 70.5172 48.5062C70.1154 48.5062 69.8035 48.6093 69.5815 48.8154C69.3595 49.0216 69.2432 49.2965 69.2326 49.6401H71.8256ZM74.8579 51.908C74.5936 51.908 74.3134 51.8736 74.0173 51.8049C73.7213 51.7415 73.4887 51.6543 73.3195 51.5432V50.8613C73.5257 50.9829 73.7636 51.0833 74.0332 51.1626C74.3028 51.2366 74.5645 51.2736 74.8182 51.2736C75.1037 51.2736 75.3125 51.2393 75.4447 51.1705C75.5768 51.1018 75.6429 50.9908 75.6429 50.8375C75.6429 50.7212 75.6112 50.6287 75.5478 50.56C75.4896 50.486 75.3865 50.4199 75.2385 50.3617C75.0958 50.3036 74.879 50.2349 74.5883 50.1556C74.2764 50.0657 74.0279 49.9758 73.8429 49.8859C73.6631 49.7908 73.5257 49.6718 73.4305 49.5291C73.3407 49.3864 73.2957 49.2014 73.2957 48.974C73.2957 48.6093 73.4385 48.3344 73.7239 48.1494C74.0147 47.959 74.4032 47.8639 74.8896 47.8639C75.1433 47.8639 75.3918 47.8877 75.635 47.9353C75.8782 47.9828 76.0738 48.0489 76.2218 48.1335V48.7996C76.0685 48.7097 75.8782 48.6383 75.6508 48.5855C75.4288 48.5326 75.2015 48.5062 74.9689 48.5062C74.6887 48.5062 74.4746 48.5405 74.3266 48.6093C74.1786 48.678 74.1046 48.7996 74.1046 48.974C74.1046 49.0851 74.1363 49.1749 74.1997 49.2436C74.2632 49.3124 74.3636 49.3732 74.501 49.426C74.6438 49.4736 74.8685 49.537 75.1751 49.6163C75.6561 49.7485 75.9892 49.9044 76.1742 50.0842C76.3645 50.2639 76.4597 50.5124 76.4597 50.8296C76.4597 51.1573 76.3249 51.419 76.0553 51.6146C75.7856 51.8102 75.3865 51.908 74.8579 51.908ZM78.6848 51.908C78.2989 51.908 78.0002 51.797 77.7888 51.575C77.5826 51.3529 77.4795 51.0384 77.4795 50.6313V48.6013H76.9006V47.9828H77.4795V46.841H78.2883V47.9828H79.224V48.6013H78.2883V50.5758C78.2883 50.8296 78.3359 51.0093 78.4311 51.115C78.5315 51.2208 78.7112 51.2736 78.9703 51.2736C79.1236 51.2736 79.2769 51.2393 79.4302 51.1705V51.8049C79.2293 51.8736 78.9808 51.908 78.6848 51.908ZM83.1186 47.9828H83.8957V48.5458C84.2869 48.0912 84.8155 47.8639 85.4816 47.8639C85.8623 47.8639 86.2032 47.9485 86.5046 48.1176C86.8112 48.2868 87.0491 48.5247 87.2182 48.8313C87.3927 49.1326 87.4799 49.4842 87.4799 49.8859C87.4799 50.2824 87.3927 50.634 87.2182 50.9406C87.0491 51.2472 86.8138 51.4851 86.5125 51.6543C86.2112 51.8234 85.8675 51.908 85.4816 51.908C85.1644 51.908 84.8684 51.8551 84.5935 51.7494C84.3186 51.6437 84.0939 51.4877 83.9195 51.2816V53.5257H83.1186V47.9828ZM85.2992 51.2736C85.5583 51.2736 85.7909 51.2181 85.9971 51.1071C86.2085 50.9908 86.3724 50.8269 86.4887 50.6155C86.6103 50.404 86.6711 50.1608 86.6711 49.8859C86.6711 49.6111 86.6103 49.3705 86.4887 49.1643C86.3724 48.9529 86.2085 48.7917 85.9971 48.6806C85.7909 48.5643 85.5583 48.5062 85.2992 48.5062C84.9768 48.5062 84.6913 48.5908 84.4428 48.7599C84.1997 48.9291 84.0252 49.1617 83.9195 49.4577V50.3141C84.0094 50.6049 84.1812 50.8375 84.4349 51.012C84.6887 51.1864 84.9768 51.2736 85.2992 51.2736ZM89.516 51.908C89.056 51.908 88.686 51.7917 88.4058 51.5591C88.1309 51.3212 87.9935 51.0014 87.9935 50.5996C87.9935 50.1767 88.1256 49.8516 88.39 49.6243C88.6596 49.3917 89.0402 49.2754 89.5318 49.2754C90.0552 49.2754 90.4992 49.3811 90.864 49.5925V49.3943C90.864 49.093 90.7715 48.871 90.5865 48.7282C90.4067 48.5802 90.1213 48.5062 89.7301 48.5062C89.4975 48.5062 89.2701 48.53 89.0481 48.5776C88.8314 48.6198 88.6358 48.6806 88.4613 48.7599V48.1097C88.6199 48.0357 88.8261 47.9775 89.0798 47.9353C89.3336 47.8877 89.5794 47.8639 89.8173 47.8639C90.4464 47.8639 90.9116 48.004 91.2129 48.2842C91.5195 48.5591 91.6728 48.9423 91.6728 49.434V51.7891H90.9195V51.3609C90.7556 51.5406 90.56 51.678 90.3327 51.7732C90.1107 51.8631 89.8384 51.908 89.516 51.908ZM89.7142 51.2974C89.968 51.2974 90.1979 51.2472 90.4041 51.1468C90.6103 51.0463 90.7636 50.9062 90.864 50.7265V50.2111C90.5204 49.989 90.1371 49.878 89.7142 49.878C89.4076 49.878 89.1776 49.9388 89.0243 50.0604C88.8763 50.1767 88.8023 50.3564 88.8023 50.5996C88.8023 51.0648 89.1063 51.2974 89.7142 51.2974ZM93.1193 53.3591C92.8338 53.3591 92.5959 53.3301 92.4056 53.2719V52.6455C92.5431 52.6983 92.7122 52.7248 92.9131 52.7248C93.0982 52.7248 93.2435 52.6772 93.3493 52.582C93.455 52.4922 93.5501 52.3441 93.6347 52.138L93.8171 51.6939L92.1519 47.9828H92.9766L94.2453 50.9089L95.4268 47.9828H96.2515L94.5387 52.2173C94.3801 52.6137 94.1898 52.9019 93.9678 53.0816C93.751 53.2666 93.4682 53.3591 93.1193 53.3591ZM96.9645 47.9828H97.7257V48.53C97.9055 48.3079 98.109 48.1414 98.3363 48.0304C98.5636 47.9194 98.7989 47.8639 99.0421 47.8639C99.3487 47.8639 99.5919 47.9168 99.7716 48.0225C99.9513 48.1229 100.083 48.2789 100.168 48.4903C100.337 48.2842 100.543 48.1282 100.787 48.0225C101.035 47.9168 101.284 47.8639 101.532 47.8639C101.997 47.8639 102.333 47.9828 102.539 48.2207C102.745 48.4533 102.848 48.7996 102.848 49.2595V51.7891H102.071V49.3626C102.071 49.0507 102.013 48.8313 101.897 48.7044C101.78 48.5723 101.582 48.5062 101.302 48.5062C100.9 48.5062 100.572 48.6806 100.319 49.0295C100.329 49.1088 100.335 49.2384 100.335 49.4181V51.7891H99.5575V49.3626C99.5575 49.0507 99.5046 48.8313 99.3989 48.7044C99.2932 48.5723 99.1029 48.5062 98.828 48.5062C98.4262 48.5062 98.0667 48.7335 97.7495 49.1881V51.7891H96.9645V47.9828ZM105.934 51.908C105.231 51.908 104.679 51.7336 104.277 51.3847C103.881 51.0305 103.682 50.5335 103.682 49.8939C103.682 49.2701 103.859 48.7758 104.214 48.411C104.573 48.0463 105.083 47.8639 105.744 47.8639C106.183 47.8639 106.556 47.9485 106.862 48.1176C107.169 48.2815 107.399 48.5115 107.552 48.8075C107.711 49.0983 107.79 49.4313 107.79 49.8067V50.2031H104.444C104.47 50.5626 104.621 50.8322 104.896 51.012C105.176 51.1864 105.554 51.2736 106.03 51.2736C106.273 51.2736 106.519 51.2525 106.767 51.2102C107.015 51.1626 107.235 51.1018 107.425 51.0278V51.6701C107.256 51.7388 107.031 51.7943 106.751 51.8366C106.476 51.8842 106.204 51.908 105.934 51.908ZM107.037 49.6401C107.026 49.2807 106.907 49.0031 106.68 48.8075C106.458 48.6066 106.141 48.5062 105.728 48.5062C105.326 48.5062 105.015 48.6093 104.793 48.8154C104.571 49.0216 104.454 49.2965 104.444 49.6401H107.037ZM108.665 47.9828H109.442V48.53C109.622 48.3027 109.842 48.1361 110.101 48.0304C110.365 47.9194 110.64 47.8639 110.925 47.8639C111.433 47.8639 111.811 47.9987 112.059 48.2683C112.308 48.5379 112.432 48.9 112.432 49.3547V51.7891H111.631V49.434C111.631 48.8154 111.335 48.5062 110.743 48.5062C110.489 48.5062 110.251 48.567 110.029 48.6886C109.813 48.8049 109.625 48.9846 109.466 49.2278V51.7891H108.665V47.9828ZM114.887 51.908C114.501 51.908 114.202 51.797 113.991 51.575C113.785 51.3529 113.682 51.0384 113.682 50.6313V48.6013H113.103V47.9828H113.682V46.841H114.491V47.9828H115.426V48.6013H114.491V50.5758C114.491 50.8296 114.538 51.0093 114.633 51.115C114.734 51.2208 114.913 51.2736 115.173 51.2736C115.326 51.2736 115.479 51.2393 115.632 51.1705V51.8049C115.432 51.8736 115.183 51.908 114.887 51.908ZM121.684 51.908C121.34 51.908 121.042 51.8551 120.788 51.7494C120.539 51.6384 120.309 51.4666 120.098 51.234V51.7891H119.321V45.9291H120.122V48.4903C120.296 48.2842 120.521 48.1282 120.796 48.0225C121.071 47.9168 121.367 47.8639 121.684 47.8639C122.064 47.8639 122.405 47.9511 122.707 48.1256C123.013 48.2947 123.251 48.5326 123.42 48.8392C123.595 49.1458 123.682 49.4974 123.682 49.8939C123.682 50.2956 123.595 50.6498 123.42 50.9564C123.251 51.2578 123.013 51.493 122.707 51.6622C122.405 51.8261 122.064 51.908 121.684 51.908ZM121.501 51.2736C121.761 51.2736 121.993 51.2181 122.199 51.1071C122.411 50.9908 122.575 50.8269 122.691 50.6155C122.813 50.404 122.873 50.1635 122.873 49.8939C122.873 49.6243 122.813 49.3837 122.691 49.1723C122.575 48.9608 122.411 48.7969 122.199 48.6806C121.993 48.5643 121.761 48.5062 121.501 48.5062C121.179 48.5062 120.891 48.5934 120.637 48.7679C120.383 48.9423 120.212 49.1749 120.122 49.4657V50.3221C120.222 50.6128 120.394 50.8454 120.637 51.0199C120.886 51.1891 121.174 51.2736 121.501 51.2736ZM124.846 53.3591C124.56 53.3591 124.322 53.3301 124.132 53.2719V52.6455C124.269 52.6983 124.439 52.7248 124.639 52.7248C124.824 52.7248 124.97 52.6772 125.076 52.582C125.181 52.4922 125.276 52.3441 125.361 52.138L125.543 51.6939L123.878 47.9828H124.703L125.972 50.9089L127.153 47.9828H127.978L126.265 52.2173C126.106 52.6137 125.916 52.9019 125.694 53.0816C125.477 53.2666 125.195 53.3591 124.846 53.3591ZM133.029 51.908C132.765 51.908 132.485 51.8736 132.189 51.8049C131.893 51.7415 131.66 51.6543 131.491 51.5432V50.8613C131.697 50.9829 131.935 51.0833 132.205 51.1626C132.474 51.2366 132.736 51.2736 132.99 51.2736C133.275 51.2736 133.484 51.2393 133.616 51.1705C133.748 51.1018 133.814 50.9908 133.814 50.8375C133.814 50.7212 133.783 50.6287 133.719 50.56C133.661 50.486 133.558 50.4199 133.41 50.3617C133.267 50.3036 133.05 50.2349 132.76 50.1556C132.448 50.0657 132.199 49.9758 132.014 49.8859C131.835 49.7908 131.697 49.6718 131.602 49.5291C131.512 49.3864 131.467 49.2014 131.467 48.974C131.467 48.6093 131.61 48.3344 131.895 48.1494C132.186 47.959 132.575 47.8639 133.061 47.8639C133.315 47.8639 133.563 47.8877 133.806 47.9353C134.05 47.9828 134.245 48.0489 134.393 48.1335V48.7996C134.24 48.7097 134.05 48.6383 133.822 48.5855C133.6 48.5326 133.373 48.5062 133.14 48.5062C132.86 48.5062 132.646 48.5405 132.498 48.6093C132.35 48.678 132.276 48.7996 132.276 48.974C132.276 49.0851 132.308 49.1749 132.371 49.2436C132.435 49.3124 132.535 49.3732 132.672 49.426C132.815 49.4736 133.04 49.537 133.346 49.6163C133.828 49.7485 134.161 49.9044 134.346 50.0842C134.536 50.2639 134.631 50.5124 134.631 50.8296C134.631 51.1573 134.496 51.419 134.227 51.6146C133.957 51.8102 133.558 51.908 133.029 51.908ZM135.505 45.9291H136.306V48.5062C136.671 48.078 137.157 47.8639 137.765 47.8639C138.273 47.8639 138.651 47.9987 138.899 48.2683C139.148 48.5379 139.272 48.9 139.272 49.3547V51.7891H138.471V49.434C138.471 48.8154 138.175 48.5062 137.583 48.5062C137.329 48.5062 137.091 48.567 136.869 48.6886C136.653 48.8049 136.465 48.9846 136.306 49.2278V51.7891H135.505V45.9291ZM141.508 51.908C141.048 51.908 140.678 51.7917 140.398 51.5591C140.123 51.3212 139.985 51.0014 139.985 50.5996C139.985 50.1767 140.117 49.8516 140.382 49.6243C140.651 49.3917 141.032 49.2754 141.524 49.2754C142.047 49.2754 142.491 49.3811 142.856 49.5925V49.3943C142.856 49.093 142.763 48.871 142.578 48.7282C142.399 48.5802 142.113 48.5062 141.722 48.5062C141.489 48.5062 141.262 48.53 141.04 48.5776C140.823 48.6198 140.628 48.6806 140.453 48.7599V48.1097C140.612 48.0357 140.818 47.9775 141.072 47.9353C141.325 47.8877 141.571 47.8639 141.809 47.8639C142.438 47.8639 142.903 48.004 143.205 48.2842C143.511 48.5591 143.665 48.9423 143.665 49.434V51.7891H142.911V51.3609C142.747 51.5406 142.552 51.678 142.325 51.7732C142.103 51.8631 141.83 51.908 141.508 51.908ZM141.706 51.2974C141.96 51.2974 142.19 51.2472 142.396 51.1468C142.602 51.0463 142.755 50.9062 142.856 50.7265V50.2111C142.512 49.989 142.129 49.878 141.706 49.878C141.399 49.878 141.169 49.9388 141.016 50.0604C140.868 50.1767 140.794 50.3564 140.794 50.5996C140.794 51.0648 141.098 51.2974 141.706 51.2974ZM144.659 47.9828H145.436V48.6648C145.594 48.4322 145.816 48.2604 146.102 48.1494C146.393 48.0383 146.728 47.9828 147.109 47.9828V48.6093C146.702 48.6093 146.353 48.6754 146.062 48.8075C145.771 48.9397 145.57 49.1485 145.459 49.434V51.7891H144.659V47.9828ZM148.294 47.2374C148.161 47.2374 148.05 47.1925 147.961 47.1026C147.871 47.0128 147.826 46.9018 147.826 46.7696C147.826 46.6374 147.871 46.5264 147.961 46.4365C148.05 46.3467 148.161 46.3017 148.294 46.3017C148.431 46.3017 148.545 46.3467 148.635 46.4365C148.73 46.5264 148.777 46.6374 148.777 46.7696C148.777 46.9018 148.73 47.0128 148.635 47.1026C148.545 47.1925 148.431 47.2374 148.294 47.2374ZM147.889 47.9828H148.706V51.7891H147.889V47.9828ZM149.808 47.9828H150.585V48.53C150.765 48.3027 150.984 48.1361 151.243 48.0304C151.508 47.9194 151.783 47.8639 152.068 47.8639C152.576 47.8639 152.954 47.9987 153.202 48.2683C153.451 48.5379 153.575 48.9 153.575 49.3547V51.7891H152.774V49.434C152.774 48.8154 152.478 48.5062 151.886 48.5062C151.632 48.5062 151.394 48.567 151.172 48.6886C150.955 48.8049 150.768 48.9846 150.609 49.2278V51.7891H149.808V47.9828ZM156.553 53.6129C156.294 53.6129 156.04 53.5917 155.792 53.5494C155.549 53.5072 155.343 53.4464 155.173 53.3671V52.7089C155.57 52.8886 156.03 52.9785 156.553 52.9785C157.045 52.9785 157.402 52.8701 157.624 52.6534C157.851 52.4419 157.965 52.1195 157.965 51.686V51.2816C157.616 51.6992 157.103 51.908 156.426 51.908C156.04 51.908 155.694 51.8234 155.388 51.6543C155.081 51.4851 154.84 51.2472 154.666 50.9406C154.491 50.634 154.404 50.2824 154.404 49.8859C154.404 49.4842 154.489 49.1326 154.658 48.8313C154.832 48.5247 155.07 48.2868 155.372 48.1176C155.678 47.9485 156.022 47.8639 156.403 47.8639C156.757 47.8639 157.055 47.9168 157.299 48.0225C157.547 48.1229 157.777 48.2921 157.988 48.53V47.9828H158.766V51.5988C158.766 52.249 158.583 52.7459 158.218 53.0895C157.859 53.4384 157.304 53.6129 156.553 53.6129ZM156.585 51.2736C156.913 51.2736 157.201 51.1864 157.449 51.012C157.703 50.8375 157.875 50.6049 157.965 50.3141V49.4577C157.864 49.1617 157.69 48.9291 157.441 48.7599C157.198 48.5908 156.913 48.5062 156.585 48.5062C156.326 48.5062 156.091 48.5643 155.879 48.6806C155.673 48.7917 155.509 48.9529 155.388 49.1643C155.271 49.3758 155.213 49.6163 155.213 49.8859C155.213 50.1608 155.271 50.404 155.388 50.6155C155.509 50.8216 155.673 50.9829 155.879 51.0992C156.091 51.2155 156.326 51.2736 156.585 51.2736ZM162.733 45.9291H163.533V51.7891H162.733V45.9291ZM165.036 47.2374C164.904 47.2374 164.793 47.1925 164.703 47.1026C164.613 47.0128 164.568 46.9018 164.568 46.7696C164.568 46.6374 164.613 46.5264 164.703 46.4365C164.793 46.3467 164.904 46.3017 165.036 46.3017C165.173 46.3017 165.287 46.3467 165.377 46.4365C165.472 46.5264 165.519 46.6374 165.519 46.7696C165.519 46.9018 165.472 47.0128 165.377 47.1026C165.287 47.1925 165.173 47.2374 165.036 47.2374ZM164.631 47.9828H165.448V51.7891H164.631V47.9828ZM166.55 47.9828H167.327V48.53C167.507 48.3027 167.726 48.1361 167.986 48.0304C168.25 47.9194 168.525 47.8639 168.81 47.8639C169.318 47.8639 169.696 47.9987 169.944 48.2683C170.193 48.5379 170.317 48.9 170.317 49.3547V51.7891H169.516V49.434C169.516 48.8154 169.22 48.5062 168.628 48.5062C168.374 48.5062 168.136 48.567 167.914 48.6886C167.697 48.8049 167.51 48.9846 167.351 49.2278V51.7891H166.55V47.9828ZM171.305 45.9291H172.106V51.7891H171.305V45.9291ZM172.114 49.8622L173.866 47.9828H174.842L173.081 49.8622L175.024 51.7891H174.049L172.114 49.8622Z" fill="#8F8F8F"/>
<path d="M15.8594 79.8984C15.8594 77.7087 17.6345 75.9336 19.8242 75.9336H243.176C245.366 75.9336 247.141 77.7087 247.141 79.8984V103.687C247.141 105.877 245.366 107.652 243.176 107.652H19.8242C17.6345 107.652 15.8594 105.877 15.8594 103.687V79.8984Z" fill="#F7F7F7"/>
<path d="M32.3818 96.7519C35.119 96.7519 37.3378 94.533 37.3378 91.7959C37.3378 89.0587 35.119 86.8398 32.3818 86.8398C29.6447 86.8398 27.4258 89.0587 27.4258 91.7959C27.4258 94.533 29.6447 96.7519 32.3818 96.7519Z" fill="#627EEA"/>
<path d="M32.5352 88.0781V90.8258L34.8574 91.8636L32.5352 88.0781Z" fill="white" fill-opacity="0.602"/>
<path d="M32.5371 88.0781L30.2148 91.8636L32.5371 90.8258V88.0781Z" fill="white"/>
<path d="M32.5352 93.6449V95.5119L34.8587 92.2969L32.5352 93.6449Z" fill="white" fill-opacity="0.602"/>
<path d="M32.5371 95.5119V93.6449L30.2148 92.2969L32.5371 95.5119Z" fill="white"/>
<path d="M32.5352 93.2101L34.8574 91.862L32.5352 90.8242V93.2101Z" fill="white" fill-opacity="0.2"/>
<path d="M30.2148 91.862L32.5371 93.2101V90.8242L30.2148 91.862Z" fill="white" fill-opacity="0.602"/>
<path d="M42.8084 89.2501H46.464V89.9321H43.6172V91.6845H45.7424V92.3586H43.6172V94.1189H46.464V94.793H42.8084V89.2501ZM48.5654 94.9119C48.1795 94.9119 47.8809 94.8009 47.6694 94.5789C47.4632 94.3568 47.3601 94.0423 47.3601 93.6352V91.6053H46.7813V90.9867H47.3601V89.8449H48.169V90.9867H49.1047V91.6053H48.169V93.5797C48.169 93.8335 48.2165 94.0132 48.3117 94.1189C48.4121 94.2247 48.5919 94.2775 48.8509 94.2775C49.0042 94.2775 49.1575 94.2432 49.3108 94.1745V94.8088C49.1099 94.8776 48.8615 94.9119 48.5654 94.9119ZM50.0643 88.933H50.8652V91.5101C51.23 91.0819 51.7163 90.8678 52.3243 90.8678C52.8318 90.8678 53.2098 91.0026 53.4582 91.2722C53.7067 91.5418 53.8309 91.9039 53.8309 92.3586V94.793H53.03V92.4379C53.03 91.8194 52.734 91.5101 52.1419 91.5101C51.8882 91.5101 51.6503 91.5709 51.4282 91.6925C51.2115 91.8088 51.0238 91.9885 50.8652 92.2317V94.793H50.0643V88.933ZM56.9125 94.9119C56.2094 94.9119 55.6569 94.7375 55.2552 94.3886C54.8587 94.0344 54.6604 93.5374 54.6604 92.8978C54.6604 92.274 54.8375 91.7797 55.1917 91.4149C55.5512 91.0502 56.0613 90.8678 56.7221 90.8678C57.1609 90.8678 57.5336 90.9524 57.8402 91.1215C58.1468 91.2854 58.3768 91.5154 58.5301 91.8114C58.6887 92.1022 58.768 92.4352 58.768 92.8106V93.207H55.4217C55.4481 93.5665 55.5988 93.8361 55.8737 94.0159C56.1538 94.1903 56.5318 94.2775 57.0076 94.2775C57.2508 94.2775 57.4966 94.2564 57.7451 94.2141C57.9935 94.1665 58.2129 94.1057 58.4032 94.0317V94.674C58.2341 94.7427 58.0094 94.7983 57.7292 94.8405C57.4543 94.8881 57.1821 94.9119 56.9125 94.9119ZM58.0147 92.644C58.0041 92.2846 57.8852 92.007 57.6578 91.8114C57.4358 91.6105 57.1186 91.5101 56.7063 91.5101C56.3045 91.5101 55.9926 91.6132 55.7706 91.8194C55.5486 92.0255 55.4322 92.3004 55.4217 92.644H58.0147ZM59.6434 90.9867H60.4205V91.6687C60.5791 91.4361 60.8011 91.2643 61.0866 91.1533C61.3774 91.0422 61.713 90.9867 62.0937 90.9867V91.6132C61.6866 91.6132 61.3377 91.6793 61.047 91.8114C60.7562 91.9436 60.5553 92.1524 60.4443 92.4379V94.793H59.6434V90.9867ZM64.664 94.9119C63.9609 94.9119 63.4085 94.7375 63.0067 94.3886C62.6102 94.0344 62.412 93.5374 62.412 92.8978C62.412 92.274 62.5891 91.7797 62.9433 91.4149C63.3027 91.0502 63.8129 90.8678 64.4737 90.8678C64.9125 90.8678 65.2851 90.9524 65.5918 91.1215C65.8984 91.2854 66.1283 91.5154 66.2816 91.8114C66.4402 92.1022 66.5195 92.4352 66.5195 92.8106V93.207H63.1732C63.1996 93.5665 63.3503 93.8361 63.6252 94.0159C63.9054 94.1903 64.2834 94.2775 64.7591 94.2775C65.0023 94.2775 65.2481 94.2564 65.4966 94.2141C65.7451 94.1665 65.9645 94.1057 66.1548 94.0317V94.674C65.9856 94.7427 65.7609 94.7983 65.4807 94.8405C65.2058 94.8881 64.9336 94.9119 64.664 94.9119ZM65.7662 92.644C65.7556 92.2846 65.6367 92.007 65.4094 91.8114C65.1873 91.6105 64.8702 91.5101 64.4578 91.5101C64.0561 91.5101 63.7442 91.6132 63.5221 91.8194C63.3001 92.0255 63.1838 92.3004 63.1732 92.644H65.7662ZM68.9095 94.9119C68.3967 94.9119 68.0082 94.7745 67.7439 94.4996C67.4848 94.2247 67.3553 93.8573 67.3553 93.3974V90.9867H68.1562V93.3656C68.1562 93.9736 68.4602 94.2775 69.0681 94.2775C69.602 94.2775 70.0197 94.037 70.321 93.5559V90.9867H71.1219V94.793H70.3448V94.2538C70.165 94.4811 69.9509 94.6476 69.7025 94.7533C69.4593 94.859 69.195 94.9119 68.9095 94.9119ZM72.1496 90.9867H72.9109V91.5339C73.0906 91.3119 73.2942 91.1453 73.5215 91.0343C73.7488 90.9233 73.984 90.8678 74.2272 90.8678C74.5338 90.8678 74.777 90.9207 74.9567 91.0264C75.1365 91.1268 75.2686 91.2828 75.3532 91.4942C75.5224 91.2881 75.7286 91.1321 75.9717 91.0264C76.2202 90.9207 76.4687 90.8678 76.7171 90.8678C77.1823 90.8678 77.518 90.9867 77.7242 91.2246C77.9304 91.4572 78.0334 91.8035 78.0334 92.2634V94.793H77.2563V92.3665C77.2563 92.0546 77.1982 91.8352 77.0819 91.7083C76.9656 91.5762 76.7673 91.5101 76.4872 91.5101C76.0854 91.5101 75.7576 91.6845 75.5039 92.0335C75.5145 92.1127 75.5197 92.2423 75.5197 92.422V94.793H74.7426V92.3665C74.7426 92.0546 74.6898 91.8352 74.584 91.7083C74.4783 91.5762 74.288 91.5101 74.0131 91.5101C73.6113 91.5101 73.2519 91.7374 72.9347 92.192V94.793H72.1496V90.9867Z" fill="white"/>
<path d="M82.976 96.1727C82.5954 95.7075 82.3046 95.1789 82.1038 94.5868C81.9029 93.9947 81.8024 93.3498 81.8024 92.652C81.8024 91.9594 81.9029 91.3171 82.1038 90.7251C82.3046 90.1277 82.5954 89.5964 82.976 89.1312H83.8245C83.4227 89.644 83.1214 90.1885 82.9205 90.7647C82.7196 91.3409 82.6192 91.97 82.6192 92.652C82.6192 93.3339 82.7196 93.963 82.9205 94.5392C83.1214 95.1154 83.4227 95.6599 83.8245 96.1727H82.976ZM84.5784 89.2501H88.234V89.9321H85.3873V91.6845H87.5124V92.3586H85.3873V94.1189H88.234V94.793H84.5784V89.2501ZM90.4734 89.9321H88.7526V89.2501H93.0109V89.9321H91.2901V94.793H90.4734V89.9321ZM93.7239 89.2501H94.5327V91.629H97.427V89.2501H98.2358V94.793H97.427V92.311H94.5327V94.793H93.7239V89.2501ZM98.9909 96.1727C99.3926 95.6599 99.694 95.1154 99.8949 94.5392C100.096 93.963 100.196 93.3339 100.196 92.652C100.196 91.97 100.096 91.3409 99.8949 90.7647C99.694 90.1885 99.3926 89.644 98.9909 89.1312H99.8393C100.22 89.5964 100.511 90.1277 100.712 90.7251C100.912 91.3171 101.013 91.9594 101.013 92.652C101.013 93.3498 100.912 93.9947 100.712 94.5868C100.511 95.1789 100.22 95.7075 99.8393 96.1727H98.9909Z" fill="#8F8F8F"/>
<path d="M234.658 90.2156L234.364 89.9058C234.287 89.8439 234.163 89.8439 234.101 89.9058L231.282 92.7091L228.479 89.9058C228.417 89.8439 228.293 89.8439 228.216 89.9058L227.921 90.2156C227.844 90.293 227.844 90.4014 227.921 90.4789L231.158 93.7313C231.236 93.7932 231.344 93.7932 231.422 93.7313L234.658 90.4789C234.736 90.4014 234.736 90.293 234.658 90.2156Z" fill="#A6A9AB"/>
<rect x="15.8594" y="118.227" width="231.281" height="31.9296" rx="3.96482" fill="#F7F7F7"/>
<path d="M31.7623 139.429C30.8108 139.429 29.9861 139.197 29.2883 138.731C28.601 138.266 28.0724 137.6 27.7023 136.733C27.3323 135.866 27.1473 134.841 27.1473 133.657C27.1473 132.472 27.327 131.447 27.6865 130.58C28.0565 129.702 28.5852 129.031 29.2724 128.566C29.9702 128.1 30.8002 127.868 31.7623 127.868C32.7244 127.868 33.5491 128.1 34.2364 128.566C34.9342 129.031 35.4628 129.702 35.8223 130.58C36.1923 131.447 36.3774 132.472 36.3774 133.657C36.3774 134.841 36.1923 135.866 35.8223 136.733C35.4522 137.6 34.9183 138.266 34.2205 138.731C33.5333 139.197 32.7139 139.429 31.7623 139.429ZM31.7623 138.002C32.7033 138.002 33.4381 137.616 33.9668 136.844C34.506 136.062 34.7756 135.005 34.7756 133.672C34.7756 132.34 34.5113 131.283 33.9826 130.501C33.454 129.718 32.7139 129.327 31.7623 129.327C30.8108 129.327 30.0707 129.718 29.542 130.501C29.0134 131.283 28.7491 132.34 28.7491 133.672C28.7491 135.005 29.0134 136.062 29.542 136.844C30.0812 137.616 30.8213 138.002 31.7623 138.002Z" fill="#B0B0B0"/>
<path d="M18.9678 162.261C18.8145 162.261 18.6665 162.24 18.5237 162.197C18.381 162.155 18.2145 162.094 18.0242 162.015C17.8339 161.936 17.6673 161.877 17.5246 161.84C17.3872 161.798 17.2471 161.777 17.1043 161.777C16.9193 161.777 16.7528 161.814 16.6048 161.888C16.462 161.962 16.3325 162.084 16.2162 162.253V161.5C16.2902 161.367 16.4065 161.267 16.5651 161.198C16.7237 161.124 16.9034 161.087 17.1043 161.087C17.2629 161.087 17.4136 161.108 17.5563 161.151C17.6991 161.193 17.8735 161.256 18.0797 161.341C18.2964 161.425 18.4629 161.486 18.5792 161.523C18.7008 161.555 18.8304 161.571 18.9678 161.571C19.1528 161.571 19.3193 161.534 19.4674 161.46C19.6154 161.386 19.7475 161.264 19.8638 161.095V161.848C19.7846 161.981 19.6656 162.084 19.507 162.158C19.3484 162.226 19.1687 162.261 18.9678 162.261ZM25.8184 164.56C25.3426 164.56 24.9303 164.444 24.5814 164.211C24.2378 163.979 23.9734 163.646 23.7884 163.212C23.6034 162.779 23.5109 162.266 23.5109 161.674C23.5109 161.082 23.6007 160.569 23.7805 160.136C23.9655 159.697 24.2298 159.361 24.5734 159.129C24.9223 158.896 25.3373 158.78 25.8184 158.78C26.2995 158.78 26.7118 158.896 27.0554 159.129C27.4043 159.361 27.6686 159.697 27.8484 160.136C28.0334 160.569 28.1259 161.082 28.1259 161.674C28.1259 162.266 28.0334 162.779 27.8484 163.212C27.6634 163.646 27.3964 163.979 27.0475 164.211C26.7039 164.444 26.2942 164.56 25.8184 164.56ZM25.8184 163.847C26.2889 163.847 26.6563 163.654 26.9206 163.268C27.1902 162.877 27.325 162.348 27.325 161.682C27.325 161.016 27.1929 160.487 26.9285 160.096C26.6642 159.705 26.2942 159.509 25.8184 159.509C25.3426 159.509 24.9726 159.705 24.7082 160.096C24.4439 160.487 24.3118 161.016 24.3118 161.682C24.3118 162.348 24.4439 162.877 24.7082 163.268C24.9779 163.654 25.3479 163.847 25.8184 163.847ZM34.1841 164.56C33.4282 164.56 32.8572 164.367 32.4713 163.981C32.0854 163.59 31.8924 163.054 31.8924 162.372V158.899H32.7013V162.403C32.7013 162.874 32.8334 163.231 33.0977 163.474C33.3621 163.712 33.7242 163.831 34.1841 163.831C34.6387 163.831 34.9982 163.712 35.2625 163.474C35.5269 163.231 35.659 162.874 35.659 162.403V158.899H36.4679V162.372C36.4679 163.048 36.2749 163.582 35.889 163.974C35.5031 164.365 34.9348 164.56 34.1841 164.56ZM38.9995 164.56C38.6823 164.56 38.3678 164.531 38.0559 164.473C37.7493 164.42 37.4982 164.346 37.3026 164.251V163.522C37.8101 163.759 38.3572 163.878 38.944 163.878C39.7687 163.878 40.181 163.601 40.181 163.046C40.181 162.855 40.1361 162.702 40.0462 162.586C39.9564 162.47 39.8268 162.369 39.6577 162.285C39.4885 162.195 39.2136 162.073 38.833 161.92C38.3096 161.708 37.9317 161.476 37.6991 161.222C37.4664 160.968 37.3501 160.648 37.3501 160.262C37.3501 159.972 37.4294 159.715 37.588 159.493C37.7466 159.266 37.9687 159.092 38.2541 158.97C38.5396 158.843 38.8674 158.78 39.2374 158.78C39.5387 158.78 39.811 158.803 40.0542 158.851C40.2973 158.899 40.5352 158.975 40.7678 159.081V159.779C40.3079 159.573 39.8427 159.47 39.3722 159.47C38.9916 159.47 38.7008 159.538 38.4999 159.676C38.2991 159.813 38.1986 160.009 38.1986 160.262C38.1986 160.437 38.2409 160.585 38.3255 160.707C38.4154 160.823 38.5449 160.929 38.714 161.024C38.8885 161.114 39.1449 161.227 39.4832 161.365C39.8586 161.518 40.1546 161.663 40.3713 161.801C40.5881 161.938 40.752 162.107 40.863 162.308C40.9793 162.504 41.0374 162.75 41.0374 163.046C41.0374 163.527 40.8656 163.9 40.522 164.164C40.1784 164.428 39.6709 164.56 38.9995 164.56ZM41.9061 158.899H43.6903C44.2876 158.899 44.8057 159.01 45.2445 159.232C45.6833 159.454 46.0189 159.771 46.2515 160.183C46.4894 160.596 46.6084 161.082 46.6084 161.642C46.6084 162.562 46.3414 163.26 45.8075 163.736C45.2788 164.206 44.5361 164.441 43.5793 164.441H41.9061V158.899ZM43.5713 163.767C44.3114 163.767 44.8665 163.585 45.2366 163.22C45.6066 162.855 45.7916 162.329 45.7916 161.642C45.7916 161.008 45.6092 160.506 45.2445 160.136C44.885 159.766 44.3696 159.581 43.6982 159.581H42.7149V163.767H43.5713Z" fill="#8F8F8F"/>
<rect x="15.8594" y="188.59" width="231.281" height="24.4497" rx="3.96482" fill="#F0F0F0"/>
<g clip-path="url(#clip0_467_32229)">
<path d="M61.9843 200.208C61.6636 199.887 61.2287 199.707 60.7752 199.707C60.3217 199.707 59.8867 199.887 59.566 200.208L58.3564 201.417C58.0357 201.738 57.8555 202.173 57.8555 202.626C57.8555 203.08 58.0357 203.515 58.3564 203.836C58.6772 204.156 59.1122 204.337 59.5658 204.337C60.0194 204.337 60.4544 204.156 60.7752 203.836L61.3798 203.231" stroke="#B0B0B0" stroke-width="0.991206" stroke-linecap="round" stroke-linejoin="round"/>
<path d="M60.7734 201.418C61.0942 201.739 61.5291 201.919 61.9826 201.919C62.4361 201.919 62.8711 201.739 63.1918 201.418L64.4014 200.209C64.7221 199.888 64.9023 199.453 64.9023 198.999C64.9023 198.546 64.7221 198.111 64.4014 197.79C64.0806 197.469 63.6456 197.289 63.192 197.289C62.7384 197.289 62.3034 197.469 61.9826 197.79L61.378 198.395" stroke="#B0B0B0" stroke-width="0.991206" stroke-linecap="round" stroke-linejoin="round"/>
</g>
<path d="M76.5603 203.935C75.9894 203.935 75.4819 203.816 75.0378 203.579C74.5938 203.341 74.2475 203.005 73.9991 202.571C73.7506 202.133 73.6264 201.625 73.6264 201.049C73.6264 200.473 73.7506 199.965 73.9991 199.526C74.2475 199.088 74.5938 198.749 75.0378 198.511C75.4819 198.274 75.9894 198.155 76.5603 198.155C77.3269 198.155 77.9639 198.345 78.4714 198.726V199.503C78.0115 199.101 77.3982 198.9 76.6317 198.9C76.2141 198.9 75.8387 198.987 75.5057 199.162C75.1726 199.336 74.911 199.587 74.7207 199.915C74.5356 200.237 74.4431 200.615 74.4431 201.049C74.4431 201.482 74.5356 201.863 74.7207 202.191C74.9057 202.519 75.1621 202.77 75.4898 202.944C75.8176 203.119 76.1876 203.206 76.6 203.206C77.081 203.206 77.4749 203.108 77.7815 202.912V201.461H76.7269V200.803H78.5903V203.341C78.3419 203.547 78.0485 203.697 77.7101 203.793C77.3771 203.888 76.9938 203.935 76.5603 203.935ZM81.5546 203.935C80.8515 203.935 80.2991 203.761 79.8973 203.412C79.5008 203.058 79.3026 202.561 79.3026 201.921C79.3026 201.297 79.4797 200.803 79.8339 200.438C80.1933 200.074 80.7035 199.891 81.3643 199.891C81.8031 199.891 82.1757 199.976 82.4824 200.145C82.789 200.309 83.0189 200.539 83.1722 200.835C83.3308 201.126 83.4101 201.459 83.4101 201.834V202.23H80.0638C80.0902 202.59 80.2409 202.86 80.5158 203.039C80.796 203.214 81.174 203.301 81.6497 203.301C81.8929 203.301 82.1387 203.28 82.3872 203.238C82.6357 203.19 82.8551 203.129 83.0454 203.055V203.697C82.8762 203.766 82.6515 203.822 82.3713 203.864C82.0964 203.912 81.8242 203.935 81.5546 203.935ZM82.6568 201.667C82.6462 201.308 82.5273 201.03 82.3 200.835C82.0779 200.634 81.7608 200.534 81.3484 200.534C80.9466 200.534 80.6347 200.637 80.4127 200.843C80.1907 201.049 80.0744 201.324 80.0638 201.667H82.6568ZM84.2855 200.01H85.0627V200.557C85.2424 200.33 85.4618 200.163 85.7208 200.058C85.9851 199.947 86.26 199.891 86.5455 199.891C87.053 199.891 87.431 200.026 87.6794 200.296C87.9279 200.565 88.0521 200.927 88.0521 201.382V203.816H87.2512V201.461C87.2512 200.843 86.9552 200.534 86.3631 200.534C86.1094 200.534 85.8715 200.594 85.6494 200.716C85.4327 200.832 85.245 201.012 85.0864 201.255V203.816H84.2855V200.01ZM91.1337 203.935C90.4306 203.935 89.8781 203.761 89.4764 203.412C89.0799 203.058 88.8816 202.561 88.8816 201.921C88.8816 201.297 89.0587 200.803 89.4129 200.438C89.7724 200.074 90.2825 199.891 90.9434 199.891C91.3821 199.891 91.7548 199.976 92.0614 200.145C92.368 200.309 92.598 200.539 92.7513 200.835C92.9099 201.126 92.9892 201.459 92.9892 201.834V202.23H89.6429C89.6693 202.59 89.82 202.86 90.0949 203.039C90.3751 203.214 90.753 203.301 91.2288 203.301C91.472 203.301 91.7178 203.28 91.9663 203.238C92.2147 203.19 92.4341 203.129 92.6244 203.055V203.697C92.4553 203.766 92.2306 203.822 91.9504 203.864C91.6755 203.912 91.4033 203.935 91.1337 203.935ZM92.2359 201.667C92.2253 201.308 92.1064 201.03 91.8791 200.835C91.657 200.634 91.3398 200.534 90.9275 200.534C90.5257 200.534 90.2138 200.637 89.9918 200.843C89.7698 201.049 89.6535 201.324 89.6429 201.667H92.2359ZM93.8646 200.01H94.6417V200.692C94.8003 200.46 95.0224 200.288 95.3078 200.177C95.5986 200.066 95.9343 200.01 96.3149 200.01V200.637C95.9078 200.637 95.5589 200.703 95.2682 200.835C94.9774 200.967 94.7765 201.176 94.6655 201.461V203.816H93.8646V200.01ZM98.0395 203.935C97.5796 203.935 97.2096 203.819 96.9294 203.586C96.6545 203.349 96.517 203.029 96.517 202.627C96.517 202.204 96.6492 201.879 96.9135 201.652C97.1831 201.419 97.5637 201.303 98.0554 201.303C98.5787 201.303 99.0228 201.408 99.3876 201.62V201.422C99.3876 201.12 99.295 200.898 99.11 200.756C98.9303 200.608 98.6448 200.534 98.2536 200.534C98.021 200.534 97.7937 200.557 97.5717 200.605C97.3549 200.647 97.1593 200.708 96.9849 200.787V200.137C97.1435 200.063 97.3496 200.005 97.6034 199.963C97.8571 199.915 98.103 199.891 98.3408 199.891C98.9699 199.891 99.4351 200.031 99.7365 200.312C100.043 200.586 100.196 200.97 100.196 201.461V203.816H99.4431V203.388C99.2792 203.568 99.0836 203.705 98.8563 203.801C98.6342 203.89 98.362 203.935 98.0395 203.935ZM98.2378 203.325C98.4915 203.325 98.7215 203.275 98.9276 203.174C99.1338 203.074 99.2871 202.934 99.3876 202.754V202.238C99.0439 202.016 98.6607 201.905 98.2378 201.905C97.9311 201.905 97.7012 201.966 97.5479 202.088C97.3999 202.204 97.3259 202.384 97.3259 202.627C97.3259 203.092 97.6298 203.325 98.2378 203.325ZM102.456 203.935C102.07 203.935 101.771 203.824 101.56 203.602C101.354 203.38 101.251 203.066 101.251 202.659V200.629H100.672V200.01H101.251V198.868H102.059V200.01H102.995V200.629H102.059V202.603C102.059 202.857 102.107 203.037 102.202 203.142C102.303 203.248 102.482 203.301 102.741 203.301C102.895 203.301 103.048 203.267 103.201 203.198V203.832C103 203.901 102.752 203.935 102.456 203.935ZM106.048 203.935C105.345 203.935 104.793 203.761 104.391 203.412C103.994 203.058 103.796 202.561 103.796 201.921C103.796 201.297 103.973 200.803 104.327 200.438C104.687 200.074 105.197 199.891 105.858 199.891C106.297 199.891 106.669 199.976 106.976 200.145C107.283 200.309 107.513 200.539 107.666 200.835C107.824 201.126 107.904 201.459 107.904 201.834V202.23H104.557C104.584 202.59 104.735 202.86 105.009 203.039C105.29 203.214 105.668 203.301 106.143 203.301C106.387 203.301 106.632 203.28 106.881 203.238C107.129 203.19 107.349 203.129 107.539 203.055V203.697C107.37 203.766 107.145 203.822 106.865 203.864C106.59 203.912 106.318 203.935 106.048 203.935ZM107.15 201.667C107.14 201.308 107.021 201.03 106.794 200.835C106.572 200.634 106.254 200.534 105.842 200.534C105.44 200.534 105.128 200.637 104.906 200.843C104.684 201.049 104.568 201.324 104.557 201.667H107.15ZM111.714 197.956H112.515V203.816H111.714V197.956ZM114.017 199.265C113.885 199.265 113.774 199.22 113.684 199.13C113.594 199.04 113.549 198.929 113.549 198.797C113.549 198.665 113.594 198.554 113.684 198.464C113.774 198.374 113.885 198.329 114.017 198.329C114.155 198.329 114.268 198.374 114.358 198.464C114.453 198.554 114.501 198.665 114.501 198.797C114.501 198.929 114.453 199.04 114.358 199.13C114.268 199.22 114.155 199.265 114.017 199.265ZM113.613 200.01H114.43V203.816H113.613V200.01ZM115.532 200.01H116.309V200.557C116.489 200.33 116.708 200.163 116.967 200.058C117.231 199.947 117.506 199.891 117.792 199.891C118.299 199.891 118.677 200.026 118.926 200.296C119.174 200.565 119.298 200.927 119.298 201.382V203.816H118.497V201.461C118.497 200.843 118.201 200.534 117.609 200.534C117.356 200.534 117.118 200.594 116.896 200.716C116.679 200.832 116.491 201.012 116.333 201.255V203.816H115.532V200.01ZM120.286 197.956H121.087V203.816H120.286V197.956ZM121.095 201.89L122.848 200.01H123.823L122.063 201.89L124.005 203.816H123.03L121.095 201.89ZM129.203 203.935C128.817 203.935 128.518 203.824 128.307 203.602C128.101 203.38 127.998 203.066 127.998 202.659V200.629H127.419V200.01H127.998V198.868H128.806V200.01H129.742V200.629H128.806V202.603C128.806 202.857 128.854 203.037 128.949 203.142C129.05 203.248 129.229 203.301 129.488 203.301C129.642 203.301 129.795 203.267 129.948 203.198V203.832C129.747 203.901 129.499 203.935 129.203 203.935ZM132.669 203.935C132.241 203.935 131.863 203.856 131.535 203.697C131.213 203.534 130.959 203.301 130.774 203C130.594 202.693 130.505 202.334 130.505 201.921C130.505 201.514 130.594 201.157 130.774 200.851C130.954 200.544 131.208 200.309 131.535 200.145C131.863 199.976 132.241 199.891 132.669 199.891C133.098 199.891 133.476 199.976 133.803 200.145C134.131 200.309 134.385 200.544 134.565 200.851C134.75 201.157 134.842 201.514 134.842 201.921C134.842 202.334 134.75 202.693 134.565 203C134.385 203.301 134.131 203.534 133.803 203.697C133.476 203.856 133.098 203.935 132.669 203.935ZM132.669 203.301C133.082 203.301 133.409 203.174 133.653 202.92C133.896 202.667 134.017 202.334 134.017 201.921C134.017 201.493 133.896 201.155 133.653 200.906C133.409 200.658 133.082 200.534 132.669 200.534C132.257 200.534 131.929 200.658 131.686 200.906C131.443 201.155 131.321 201.493 131.321 201.921C131.321 202.334 131.443 202.667 131.686 202.92C131.929 203.174 132.257 203.301 132.669 203.301ZM138.647 200.01H139.424V200.692C139.583 200.46 139.805 200.288 140.09 200.177C140.381 200.066 140.717 200.01 141.097 200.01V200.637C140.69 200.637 140.341 200.703 140.051 200.835C139.76 200.967 139.559 201.176 139.448 201.461V203.816H138.647V200.01ZM143.668 203.935C142.964 203.935 142.412 203.761 142.01 203.412C141.614 203.058 141.416 202.561 141.416 201.921C141.416 201.297 141.593 200.803 141.947 200.438C142.306 200.074 142.816 199.891 143.477 199.891C143.916 199.891 144.289 199.976 144.595 200.145C144.902 200.309 145.132 200.539 145.285 200.835C145.444 201.126 145.523 201.459 145.523 201.834V202.23H142.177C142.203 202.59 142.354 202.86 142.629 203.039C142.909 203.214 143.287 203.301 143.763 203.301C144.006 203.301 144.252 203.28 144.5 203.238C144.749 203.19 144.968 203.129 145.158 203.055V203.697C144.989 203.766 144.765 203.822 144.484 203.864C144.209 203.912 143.937 203.935 143.668 203.935ZM144.77 201.667C144.759 201.308 144.64 201.03 144.413 200.835C144.191 200.634 143.874 200.534 143.461 200.534C143.06 200.534 142.748 200.637 142.526 200.843C142.304 201.049 142.187 201.324 142.177 201.667H144.77ZM149.8 203.309C149.626 203.515 149.401 203.671 149.126 203.777C148.851 203.882 148.555 203.935 148.238 203.935C147.852 203.935 147.509 203.851 147.207 203.682C146.906 203.512 146.668 203.275 146.494 202.968C146.325 202.661 146.24 202.31 146.24 201.913C146.24 201.512 146.325 201.16 146.494 200.859C146.668 200.552 146.906 200.314 147.207 200.145C147.514 199.976 147.858 199.891 148.238 199.891C148.904 199.891 149.433 200.119 149.824 200.573V200.01H150.601V205.553H149.8V203.309ZM148.421 203.301C148.743 203.301 149.031 203.214 149.285 203.039C149.539 202.865 149.71 202.632 149.8 202.341V201.485C149.695 201.189 149.518 200.956 149.269 200.787C149.026 200.618 148.743 200.534 148.421 200.534C148.162 200.534 147.926 200.592 147.715 200.708C147.509 200.819 147.345 200.98 147.223 201.192C147.107 201.398 147.049 201.638 147.049 201.913C147.049 202.188 147.107 202.431 147.223 202.643C147.345 202.854 147.509 203.018 147.715 203.134C147.926 203.245 148.162 203.301 148.421 203.301ZM153.148 203.935C152.635 203.935 152.247 203.798 151.982 203.523C151.723 203.248 151.594 202.881 151.594 202.421V200.01H152.395V202.389C152.395 202.997 152.699 203.301 153.307 203.301C153.84 203.301 154.258 203.06 154.559 202.579V200.01H155.36V203.816H154.583V203.277C154.403 203.505 154.189 203.671 153.941 203.777C153.698 203.882 153.433 203.935 153.148 203.935ZM158.481 203.935C157.778 203.935 157.226 203.761 156.824 203.412C156.428 203.058 156.229 202.561 156.229 201.921C156.229 201.297 156.407 200.803 156.761 200.438C157.12 200.074 157.63 199.891 158.291 199.891C158.73 199.891 159.103 199.976 159.409 200.145C159.716 200.309 159.946 200.539 160.099 200.835C160.258 201.126 160.337 201.459 160.337 201.834V202.23H156.991C157.017 202.59 157.168 202.86 157.443 203.039C157.723 203.214 158.101 203.301 158.577 203.301C158.82 203.301 159.066 203.28 159.314 203.238C159.563 203.19 159.782 203.129 159.972 203.055V203.697C159.803 203.766 159.578 203.822 159.298 203.864C159.023 203.912 158.751 203.935 158.481 203.935ZM159.584 201.667C159.573 201.308 159.454 201.03 159.227 200.835C159.005 200.634 158.688 200.534 158.275 200.534C157.874 200.534 157.562 200.637 157.34 200.843C157.118 201.049 157.001 201.324 156.991 201.667H159.584ZM162.616 203.935C162.352 203.935 162.071 203.901 161.775 203.832C161.479 203.769 161.247 203.682 161.078 203.571V202.889C161.284 203.01 161.522 203.111 161.791 203.19C162.061 203.264 162.323 203.301 162.576 203.301C162.862 203.301 163.071 203.267 163.203 203.198C163.335 203.129 163.401 203.018 163.401 202.865C163.401 202.749 163.369 202.656 163.306 202.587C163.248 202.513 163.145 202.447 162.997 202.389C162.854 202.331 162.637 202.262 162.346 202.183C162.034 202.093 161.786 202.003 161.601 201.913C161.421 201.818 161.284 201.699 161.189 201.556C161.099 201.414 161.054 201.229 161.054 201.001C161.054 200.637 161.197 200.362 161.482 200.177C161.773 199.986 162.161 199.891 162.648 199.891C162.901 199.891 163.15 199.915 163.393 199.963C163.636 200.01 163.832 200.076 163.98 200.161V200.827C163.827 200.737 163.636 200.666 163.409 200.613C163.187 200.56 162.96 200.534 162.727 200.534C162.447 200.534 162.233 200.568 162.085 200.637C161.937 200.705 161.863 200.827 161.863 201.001C161.863 201.112 161.894 201.202 161.958 201.271C162.021 201.34 162.122 201.401 162.259 201.453C162.402 201.501 162.627 201.564 162.933 201.644C163.414 201.776 163.747 201.932 163.932 202.112C164.123 202.291 164.218 202.54 164.218 202.857C164.218 203.185 164.083 203.446 163.813 203.642C163.544 203.838 163.145 203.935 162.616 203.935ZM166.443 203.935C166.057 203.935 165.758 203.824 165.547 203.602C165.341 203.38 165.238 203.066 165.238 202.659V200.629H164.659V200.01H165.238V198.868H166.046V200.01H166.982V200.629H166.046V202.603C166.046 202.857 166.094 203.037 166.189 203.142C166.29 203.248 166.469 203.301 166.728 203.301C166.882 203.301 167.035 203.267 167.188 203.198V203.832C166.987 203.901 166.739 203.935 166.443 203.935ZM170.877 200.01H171.654V200.573C172.045 200.119 172.574 199.891 173.24 199.891C173.62 199.891 173.961 199.976 174.263 200.145C174.569 200.314 174.807 200.552 174.976 200.859C175.151 201.16 175.238 201.512 175.238 201.913C175.238 202.31 175.151 202.661 174.976 202.968C174.807 203.275 174.572 203.512 174.271 203.682C173.969 203.851 173.626 203.935 173.24 203.935C172.923 203.935 172.626 203.882 172.352 203.777C172.077 203.671 171.852 203.515 171.678 203.309V205.553H170.877V200.01ZM173.057 203.301C173.316 203.301 173.549 203.245 173.755 203.134C173.967 203.018 174.13 202.854 174.247 202.643C174.368 202.431 174.429 202.188 174.429 201.913C174.429 201.638 174.368 201.398 174.247 201.192C174.13 200.98 173.967 200.819 173.755 200.708C173.549 200.592 173.316 200.534 173.057 200.534C172.735 200.534 172.449 200.618 172.201 200.787C171.958 200.956 171.783 201.189 171.678 201.485V202.341C171.767 202.632 171.939 202.865 172.193 203.039C172.447 203.214 172.735 203.301 173.057 203.301ZM177.274 203.935C176.814 203.935 176.444 203.819 176.164 203.586C175.889 203.349 175.752 203.029 175.752 202.627C175.752 202.204 175.884 201.879 176.148 201.652C176.418 201.419 176.798 201.303 177.29 201.303C177.813 201.303 178.257 201.408 178.622 201.62V201.422C178.622 201.12 178.53 200.898 178.345 200.756C178.165 200.608 177.879 200.534 177.488 200.534C177.256 200.534 177.028 200.557 176.806 200.605C176.589 200.647 176.394 200.708 176.219 200.787V200.137C176.378 200.063 176.584 200.005 176.838 199.963C177.092 199.915 177.337 199.891 177.575 199.891C178.204 199.891 178.67 200.031 178.971 200.312C179.278 200.586 179.431 200.97 179.431 201.461V203.816H178.678V203.388C178.514 203.568 178.318 203.705 178.091 203.801C177.869 203.89 177.597 203.935 177.274 203.935ZM177.472 203.325C177.726 203.325 177.956 203.275 178.162 203.174C178.368 203.074 178.522 202.934 178.622 202.754V202.238C178.278 202.016 177.895 201.905 177.472 201.905C177.166 201.905 176.936 201.966 176.782 202.088C176.634 202.204 176.56 202.384 176.56 202.627C176.56 203.092 176.864 203.325 177.472 203.325ZM180.877 205.386C180.592 205.386 180.354 205.357 180.164 205.299V204.673C180.301 204.726 180.47 204.752 180.671 204.752C180.856 204.752 181.002 204.705 181.107 204.609C181.213 204.52 181.308 204.371 181.393 204.165L181.575 203.721L179.91 200.01H180.735L182.003 202.936L183.185 200.01H184.01L182.297 204.245C182.138 204.641 181.948 204.929 181.726 205.109C181.509 205.294 181.226 205.386 180.877 205.386ZM184.723 200.01H185.484V200.557C185.664 200.335 185.867 200.169 186.094 200.058C186.322 199.947 186.557 199.891 186.8 199.891C187.107 199.891 187.35 199.944 187.53 200.05C187.709 200.15 187.842 200.306 187.926 200.518C188.095 200.312 188.302 200.156 188.545 200.05C188.793 199.944 189.042 199.891 189.29 199.891C189.755 199.891 190.091 200.01 190.297 200.248C190.503 200.481 190.606 200.827 190.606 201.287V203.816H189.829V201.39C189.829 201.078 189.771 200.859 189.655 200.732C189.539 200.6 189.34 200.534 189.06 200.534C188.658 200.534 188.331 200.708 188.077 201.057C188.087 201.136 188.093 201.266 188.093 201.445V203.816H187.316V201.39C187.316 201.078 187.263 200.859 187.157 200.732C187.051 200.6 186.861 200.534 186.586 200.534C186.184 200.534 185.825 200.761 185.508 201.215V203.816H184.723V200.01ZM193.693 203.935C192.989 203.935 192.437 203.761 192.035 203.412C191.639 203.058 191.44 202.561 191.44 201.921C191.44 201.297 191.618 200.803 191.972 200.438C192.331 200.074 192.841 199.891 193.502 199.891C193.941 199.891 194.314 199.976 194.62 200.145C194.927 200.309 195.157 200.539 195.31 200.835C195.469 201.126 195.548 201.459 195.548 201.834V202.23H192.202C192.228 202.59 192.379 202.86 192.654 203.039C192.934 203.214 193.312 203.301 193.788 203.301C194.031 203.301 194.277 203.28 194.525 203.238C194.774 203.19 194.993 203.129 195.183 203.055V203.697C195.014 203.766 194.789 203.822 194.509 203.864C194.234 203.912 193.962 203.935 193.693 203.935ZM194.795 201.667C194.784 201.308 194.665 201.03 194.438 200.835C194.216 200.634 193.899 200.534 193.486 200.534C193.085 200.534 192.773 200.637 192.551 200.843C192.329 201.049 192.212 201.324 192.202 201.667H194.795ZM196.423 200.01H197.201V200.557C197.38 200.33 197.6 200.163 197.859 200.058C198.123 199.947 198.398 199.891 198.683 199.891C199.191 199.891 199.569 200.026 199.817 200.296C200.066 200.565 200.19 200.927 200.19 201.382V203.816H199.389V201.461C199.389 200.843 199.093 200.534 198.501 200.534C198.247 200.534 198.009 200.594 197.787 200.716C197.571 200.832 197.383 201.012 197.224 201.255V203.816H196.423V200.01ZM202.645 203.935C202.259 203.935 201.961 203.824 201.749 203.602C201.543 203.38 201.44 203.066 201.44 202.659V200.629H200.861V200.01H201.44V198.868H202.249V200.01H203.184V200.629H202.249V202.603C202.249 202.857 202.296 203.037 202.391 203.142C202.492 203.248 202.672 203.301 202.931 203.301C203.084 203.301 203.237 203.267 203.391 203.198V203.832C203.19 203.901 202.941 203.935 202.645 203.935Z" fill="#B0B0B0"/>
<rect x="-0.5" y="0.5" width="264" height="228.897" rx="4.46482" stroke="#F0F0F0"/>
<defs>
<clipPath id="clip0_467_32229">
<rect width="10.5729" height="10.5729" fill="white" transform="translate(56.0898 195.527)"/>
</clipPath>
</defs>
</svg>
