<svg width="264" height="230" viewBox="0 0 264 230" fill="none" xmlns="http://www.w3.org/2000/svg">
<rect x="-0.165201" y="0.834799" width="263.33" height="228.227" rx="4.13003" fill="#27292B"/>
<path d="M16.573 21.5451H20.0462C20.9661 21.5451 21.6758 21.7711 22.1753 22.2231C22.6749 22.6751 22.9247 23.3293 22.9247 24.1857C22.9247 24.7963 22.774 25.3157 22.4727 25.7439C22.1714 26.1721 21.7432 26.4774 21.1881 26.6598L22.8771 29.8594H21.3308L19.7251 26.8144H18.0836V29.8594H16.573V21.5451ZM19.7727 25.5655C20.2643 25.5655 20.6608 25.4505 20.9621 25.2205C21.2634 24.9906 21.4141 24.6456 21.4141 24.1857C21.4141 23.2579 20.8669 22.7941 19.7727 22.7941H18.0836V25.5655H19.7727ZM26.8469 30.0378C25.7843 30.0378 24.9438 29.7721 24.3253 29.2409C23.7068 28.7096 23.3975 27.9682 23.3975 27.0166C23.3975 26.0809 23.6711 25.3395 24.2182 24.7923C24.7654 24.2452 25.5464 23.9716 26.5614 23.9716C27.2275 23.9716 27.7945 24.0985 28.2623 24.3522C28.7381 24.606 29.0949 24.9549 29.3328 25.3989C29.5707 25.8351 29.6897 26.3346 29.6897 26.8977V27.5875H24.8248C24.9279 28.436 25.6654 28.8602 27.0372 28.8602C27.402 28.8602 27.7747 28.8285 28.1553 28.7651C28.5359 28.7016 28.869 28.6144 29.1544 28.5034V29.6572C28.8848 29.7682 28.5359 29.8594 28.1077 29.9307C27.6874 30.0021 27.2672 30.0378 26.8469 30.0378ZM28.2742 26.5646C28.2584 26.1126 28.0958 25.7637 27.7866 25.5179C27.4852 25.2721 27.0689 25.1492 26.5376 25.1492C26.0143 25.1492 25.6019 25.276 25.3006 25.5298C24.9993 25.7835 24.8407 26.1285 24.8248 26.5646H28.2742ZM35.8674 29.3003C35.5978 29.5462 35.2687 29.7325 34.8801 29.8594C34.4995 29.9783 34.0911 30.0378 33.655 30.0378C33.0761 30.0378 32.5567 29.9109 32.0968 29.6572C31.6448 29.3955 31.288 29.0347 31.0263 28.5748C30.7726 28.1149 30.6457 27.5875 30.6457 26.9928C30.6457 26.3902 30.7726 25.8628 31.0263 25.4108C31.288 24.9509 31.6448 24.5981 32.0968 24.3522C32.5567 24.0985 33.0761 23.9716 33.655 23.9716C34.1228 23.9716 34.5391 24.043 34.9039 24.1857C35.2687 24.3284 35.6057 24.5465 35.9149 24.8399V24.15H37.3661V32.4643H35.8674V29.3003ZM34.0237 28.8602C34.4519 28.8602 34.8325 28.7453 35.1656 28.5153C35.5066 28.2774 35.7405 27.9642 35.8674 27.5756V26.4219C35.7326 26.0333 35.4986 25.7241 35.1656 25.4941C34.8325 25.2641 34.4519 25.1492 34.0237 25.1492C33.4845 25.1492 33.0404 25.3197 32.6915 25.6606C32.3426 26.0016 32.1682 26.4457 32.1682 26.9928C32.1682 27.54 32.3426 27.988 32.6915 28.3369C33.0404 28.6858 33.4845 28.8602 34.0237 28.8602ZM41.03 30.0378C40.2609 30.0378 39.686 29.8316 39.3053 29.4193C38.9247 28.999 38.7344 28.4439 38.7344 27.7541V24.15H40.2331V27.6113C40.2331 28.4439 40.6217 28.8602 41.3988 28.8602C41.7397 28.8602 42.0609 28.7809 42.3622 28.6223C42.6635 28.4558 42.9173 28.21 43.1235 27.8849V24.15H44.6222V29.8594H43.171V29.0862C42.9014 29.4113 42.5803 29.6532 42.2076 29.8118C41.8349 29.9625 41.4424 30.0378 41.03 30.0378ZM49.2652 30.0378C48.2026 30.0378 47.3621 29.7721 46.7436 29.2409C46.125 28.7096 45.8158 27.9682 45.8158 27.0166C45.8158 26.0809 46.0894 25.3395 46.6365 24.7923C47.1837 24.2452 47.9647 23.9716 48.9797 23.9716C49.6458 23.9716 50.2128 24.0985 50.6806 24.3522C51.1564 24.606 51.5132 24.9549 51.7511 25.3989C51.989 25.8351 52.108 26.3346 52.108 26.8977V27.5875H47.2431C47.3462 28.436 48.0837 28.8602 49.4555 28.8602C49.8203 28.8602 50.193 28.8285 50.5736 28.7651C50.9542 28.7016 51.2872 28.6144 51.5727 28.5034V29.6572C51.3031 29.7682 50.9542 29.8594 50.526 29.9307C50.1057 30.0021 49.6855 30.0378 49.2652 30.0378ZM50.6925 26.5646C50.6767 26.1126 50.5141 25.7637 50.2048 25.5179C49.9035 25.2721 49.4872 25.1492 48.9559 25.1492C48.4326 25.1492 48.0202 25.276 47.7189 25.5298C47.4176 25.7835 47.259 26.1285 47.2431 26.5646H50.6925ZM55.5261 30.0378C55.1138 30.0378 54.6737 29.9902 54.2059 29.8951C53.738 29.7999 53.3732 29.6691 53.1116 29.5025V28.2298C53.4208 28.4201 53.7895 28.5748 54.2177 28.6937C54.6459 28.8047 55.0504 28.8602 55.431 28.8602C55.8116 28.8602 56.0891 28.8285 56.2636 28.7651C56.438 28.6937 56.5253 28.5668 56.5253 28.3845C56.5253 28.2417 56.4777 28.1267 56.3825 28.0395C56.2953 27.9444 56.1486 27.8611 55.9424 27.7897C55.7442 27.7104 55.4349 27.6153 55.0147 27.5043C54.5389 27.3695 54.1622 27.2307 53.8847 27.088C53.6151 26.9452 53.4089 26.7668 53.2662 26.5527C53.1314 26.3307 53.064 26.0452 53.064 25.6963C53.064 25.1254 53.29 24.6972 53.742 24.4117C54.194 24.1183 54.8045 23.9716 55.5737 23.9716C55.9702 23.9716 56.3627 24.0113 56.7513 24.0906C57.1478 24.1619 57.457 24.265 57.679 24.3998V25.6249C57.4411 25.4822 57.1517 25.3672 56.8107 25.28C56.4698 25.1928 56.1209 25.1492 55.764 25.1492C55.3755 25.1492 55.0821 25.1888 54.8838 25.2681C54.6856 25.3395 54.5865 25.4822 54.5865 25.6963C54.5865 25.839 54.638 25.954 54.7411 26.0412C54.8521 26.1205 54.9949 26.1919 55.1693 26.2553C55.3438 26.3109 55.6609 26.3981 56.1209 26.517C56.6125 26.6518 56.9971 26.7985 57.2746 26.9571C57.5522 27.1157 57.7504 27.306 57.8693 27.5281C57.9883 27.7501 58.0478 28.0276 58.0478 28.3607C58.0478 28.8682 57.8297 29.2765 57.3936 29.5858C56.9654 29.8871 56.3429 30.0378 55.5261 30.0378ZM61.3589 30.0378C60.7324 30.0378 60.2567 29.8633 59.9316 29.5144C59.6064 29.1655 59.4439 28.6739 59.4439 28.0395V25.2919H58.5875V24.15H59.4439V22.4372H60.9426V24.15H62.3104V25.2919H60.9426V27.8492C60.9426 28.214 61.01 28.4757 61.1448 28.6342C61.2796 28.7849 61.5254 28.8602 61.8822 28.8602C62.1281 28.8602 62.3699 28.8047 62.6078 28.6937V29.8356C62.2668 29.9704 61.8505 30.0378 61.3589 30.0378ZM71.0653 30.0378C70.3992 30.0378 69.8125 29.9188 69.305 29.681C68.8054 29.4351 68.4168 29.0862 68.1393 28.6342C67.8618 28.1743 67.723 27.6311 67.723 27.0047C67.723 26.3941 67.8578 25.8628 68.1274 25.4108C68.4049 24.9509 68.7975 24.5981 69.305 24.3522C69.8125 24.0985 70.3992 23.9716 71.0653 23.9716C71.7314 23.9716 72.3143 24.0985 72.8138 24.3522C73.3213 24.5981 73.7138 24.9509 73.9914 25.4108C74.2689 25.8628 74.4077 26.3941 74.4077 27.0047C74.4077 27.6311 74.2689 28.1743 73.9914 28.6342C73.7138 29.0862 73.3213 29.4351 72.8138 29.681C72.3143 29.9188 71.7314 30.0378 71.0653 30.0378ZM71.0653 28.8602C71.6125 28.8602 72.0486 28.6898 72.3737 28.3488C72.6988 27.9999 72.8614 27.5518 72.8614 27.0047C72.8614 26.4258 72.6988 25.9738 72.3737 25.6487C72.0565 25.3157 71.6204 25.1492 71.0653 25.1492C70.5103 25.1492 70.0702 25.3157 69.7451 25.6487C69.4279 25.9738 69.2693 26.4258 69.2693 27.0047C69.2693 27.5518 69.4318 27.9999 69.7569 28.3488C70.0821 28.6898 70.5182 28.8602 71.0653 28.8602ZM75.5924 24.15H77.0435V24.9232C77.3131 24.5981 77.6343 24.3602 78.007 24.2095C78.3797 24.0509 78.7722 23.9716 79.1845 23.9716C79.9537 23.9716 80.5286 24.1817 80.9092 24.602C81.2898 25.0144 81.4802 25.5655 81.4802 26.2553V29.8594H79.9815V26.3981C79.9815 25.5655 79.5929 25.1492 78.8158 25.1492C78.4748 25.1492 78.1537 25.2324 77.8523 25.3989C77.551 25.5575 77.2973 25.7994 77.0911 26.1245V29.8594H75.5924V24.15ZM86.0637 30.0378C85.0011 30.0378 84.1606 29.7721 83.5421 29.2409C82.9236 28.7096 82.6143 27.9682 82.6143 27.0166C82.6143 26.0809 82.8879 25.3395 83.435 24.7923C83.9822 24.2452 84.7632 23.9716 85.7782 23.9716C86.4443 23.9716 87.0113 24.0985 87.4792 24.3522C87.9549 24.606 88.3118 24.9549 88.5497 25.3989C88.7875 25.8351 88.9065 26.3346 88.9065 26.8977V27.5875H84.0417C84.1447 28.436 84.8822 28.8602 86.254 28.8602C86.6188 28.8602 86.9915 28.8285 87.3721 28.7651C87.7527 28.7016 88.0858 28.6144 88.3712 28.5034V29.6572C88.1016 29.7682 87.7527 29.8594 87.3245 29.9307C86.9043 30.0021 86.484 30.0378 86.0637 30.0378ZM87.491 26.5646C87.4752 26.1126 87.3126 25.7637 87.0034 25.5179C86.702 25.2721 86.2857 25.1492 85.7545 25.1492C85.2311 25.1492 84.8188 25.276 84.5174 25.5298C84.2161 25.7835 84.0575 26.1285 84.0417 26.5646H87.491ZM96.6822 30.0378C96.0558 30.0378 95.58 29.8633 95.2549 29.5144C94.9298 29.1655 94.7672 28.6739 94.7672 28.0395V25.2919H93.9108V24.15H94.7672V22.4372H96.2659V24.15H97.6338V25.2919H96.2659V27.8492C96.2659 28.214 96.3333 28.4757 96.4681 28.6342C96.6029 28.7849 96.8487 28.8602 97.2056 28.8602C97.4514 28.8602 97.6933 28.8047 97.9311 28.6937V29.8356C97.5902 29.9704 97.1739 30.0378 96.6822 30.0378ZM99.8425 23.1509C99.6046 23.1509 99.4024 23.0716 99.2359 22.913C99.0773 22.7544 98.998 22.5562 98.998 22.3183C98.998 22.0804 99.0773 21.8821 99.2359 21.7236C99.4024 21.557 99.6046 21.4738 99.8425 21.4738C100.08 21.4738 100.283 21.557 100.449 21.7236C100.616 21.8821 100.699 22.0804 100.699 22.3183C100.699 22.5562 100.616 22.7544 100.449 22.913C100.283 23.0716 100.08 23.1509 99.8425 23.1509ZM99.0813 24.15H100.604V29.8594H99.0813V24.15ZM102.123 24.15H103.526V24.8994C103.78 24.5981 104.077 24.3681 104.418 24.2095C104.759 24.0509 105.104 23.9716 105.453 23.9716C105.897 23.9716 106.254 24.0469 106.524 24.1976C106.793 24.3403 106.995 24.5584 107.13 24.8518C107.384 24.5663 107.689 24.3483 108.046 24.1976C108.411 24.0469 108.772 23.9716 109.128 23.9716C109.842 23.9716 110.354 24.15 110.663 24.5069C110.972 24.8637 111.127 25.3871 111.127 26.0769V29.8594H109.688V26.2791C109.688 25.8747 109.604 25.5853 109.438 25.4108C109.279 25.2364 109.021 25.1492 108.665 25.1492C108.411 25.1492 108.177 25.2007 107.963 25.3038C107.757 25.3989 107.566 25.5655 107.392 25.8034C107.408 26.0571 107.416 26.2633 107.416 26.4219V29.8594H105.965V26.2553C105.965 25.843 105.897 25.5575 105.762 25.3989C105.628 25.2324 105.382 25.1492 105.025 25.1492C104.486 25.1492 104.002 25.4545 103.574 26.065V29.8594H102.123V24.15ZM115.707 30.0378C114.644 30.0378 113.804 29.7721 113.185 29.2409C112.567 28.7096 112.258 27.9682 112.258 27.0166C112.258 26.0809 112.531 25.3395 113.078 24.7923C113.625 24.2452 114.406 23.9716 115.421 23.9716C116.088 23.9716 116.655 24.0985 117.122 24.3522C117.598 24.606 117.955 24.9549 118.193 25.3989C118.431 25.8351 118.55 26.3346 118.55 26.8977V27.5875H113.685C113.788 28.436 114.525 28.8602 115.897 28.8602C116.262 28.8602 116.635 28.8285 117.015 28.7651C117.396 28.7016 117.729 28.6144 118.014 28.5034V29.6572C117.745 29.7682 117.396 29.8594 116.968 29.9307C116.548 30.0021 116.127 30.0378 115.707 30.0378ZM117.134 26.5646C117.118 26.1126 116.956 25.7637 116.647 25.5179C116.345 25.2721 115.929 25.1492 115.398 25.1492C114.874 25.1492 114.462 25.276 114.161 25.5298C113.859 25.7835 113.701 26.1285 113.685 26.5646H117.134ZM124.03 24.15H125.481V24.8399C125.79 24.5465 126.127 24.3284 126.492 24.1857C126.857 24.043 127.273 23.9716 127.741 23.9716C128.32 23.9716 128.835 24.0985 129.287 24.3522C129.747 24.5981 130.104 24.9509 130.358 25.4108C130.619 25.8628 130.75 26.3902 130.75 26.9928C130.75 27.5875 130.619 28.1149 130.358 28.5748C130.104 29.0347 129.747 29.3955 129.287 29.6572C128.835 29.9109 128.32 30.0378 127.741 30.0378C127.305 30.0378 126.892 29.9783 126.504 29.8594C126.123 29.7325 125.798 29.5462 125.529 29.3003V32.4643H124.03V24.15ZM127.372 28.8602C127.911 28.8602 128.355 28.6858 128.704 28.3369C129.053 27.988 129.228 27.54 129.228 26.9928C129.228 26.4457 129.053 26.0016 128.704 25.6606C128.355 25.3197 127.911 25.1492 127.372 25.1492C126.944 25.1492 126.563 25.2641 126.23 25.4941C125.897 25.7241 125.663 26.0333 125.529 26.4219V27.5756C125.655 27.9642 125.885 28.2774 126.218 28.5153C126.559 28.7453 126.944 28.8602 127.372 28.8602ZM133.732 30.0378C133.05 30.0378 132.491 29.8594 132.054 29.5025C131.618 29.1378 131.4 28.6501 131.4 28.0395C131.4 27.4051 131.606 26.9095 132.019 26.5527C132.431 26.1959 133.01 26.0175 133.755 26.0175C134.477 26.0175 135.099 26.1642 135.623 26.4576V26.3029C135.623 25.8985 135.496 25.6051 135.242 25.4227C134.996 25.2404 134.596 25.1492 134.041 25.1492C133.692 25.1492 133.347 25.1848 133.006 25.2562C132.665 25.3197 132.364 25.4108 132.102 25.5298V24.3522C132.34 24.2412 132.657 24.15 133.054 24.0787C133.458 24.0073 133.847 23.9716 134.219 23.9716C135.21 23.9716 135.944 24.1857 136.42 24.6139C136.895 25.0342 137.133 25.621 137.133 26.3743V29.8594H135.718V29.3003C135.472 29.5382 135.191 29.7206 134.873 29.8475C134.564 29.9744 134.184 30.0378 133.732 30.0378ZM134.1 28.9435C134.433 28.9435 134.735 28.8801 135.004 28.7532C135.274 28.6184 135.48 28.436 135.623 28.206V27.5756C135.187 27.2664 134.687 27.1118 134.124 27.1118C133.323 27.1118 132.923 27.421 132.923 28.0395C132.923 28.3408 133.022 28.5668 133.22 28.7175C133.426 28.8682 133.72 28.9435 134.1 28.9435ZM139.337 32.2145C139.13 32.2145 138.912 32.1986 138.682 32.1669C138.46 32.1431 138.286 32.1074 138.159 32.0599V30.918C138.357 30.9973 138.603 31.0369 138.896 31.0369C139.198 31.0369 139.424 30.9695 139.574 30.8347C139.725 30.6999 139.856 30.4858 139.967 30.1924L140.193 29.5977L137.731 24.15H139.241L141.002 28.3131L142.655 24.15H144.154L141.656 30.3708C141.402 30.9973 141.093 31.4612 140.728 31.7625C140.371 32.0638 139.907 32.2145 139.337 32.2145ZM145.101 24.15H146.504V24.8994C146.758 24.5981 147.055 24.3681 147.396 24.2095C147.737 24.0509 148.082 23.9716 148.431 23.9716C148.875 23.9716 149.232 24.0469 149.502 24.1976C149.771 24.3403 149.973 24.5584 150.108 24.8518C150.362 24.5663 150.667 24.3483 151.024 24.1976C151.389 24.0469 151.75 23.9716 152.107 23.9716C152.82 23.9716 153.332 24.15 153.641 24.5069C153.95 24.8637 154.105 25.3871 154.105 26.0769V29.8594H152.666V26.2791C152.666 25.8747 152.582 25.5853 152.416 25.4108C152.257 25.2364 152 25.1492 151.643 25.1492C151.389 25.1492 151.155 25.2007 150.941 25.3038C150.735 25.3989 150.544 25.5655 150.37 25.8034C150.386 26.0571 150.394 26.2633 150.394 26.4219V29.8594H148.943V26.2553C148.943 25.843 148.875 25.5575 148.74 25.3989C148.606 25.2324 148.36 25.1492 148.003 25.1492C147.464 25.1492 146.98 25.4545 146.552 26.065V29.8594H145.101V24.15ZM158.685 30.0378C157.622 30.0378 156.782 29.7721 156.163 29.2409C155.545 28.7096 155.236 27.9682 155.236 27.0166C155.236 26.0809 155.509 25.3395 156.056 24.7923C156.604 24.2452 157.385 23.9716 158.4 23.9716C159.066 23.9716 159.633 24.0985 160.1 24.3522C160.576 24.606 160.933 24.9549 161.171 25.3989C161.409 25.8351 161.528 26.3346 161.528 26.8977V27.5875H156.663C156.766 28.436 157.504 28.8602 158.875 28.8602C159.24 28.8602 159.613 28.8285 159.993 28.7651C160.374 28.7016 160.707 28.6144 160.993 28.5034V29.6572C160.723 29.7682 160.374 29.8594 159.946 29.9307C159.526 30.0021 159.105 30.0378 158.685 30.0378ZM160.112 26.5646C160.097 26.1126 159.934 25.7637 159.625 25.5179C159.323 25.2721 158.907 25.1492 158.376 25.1492C157.852 25.1492 157.44 25.276 157.139 25.5298C156.837 25.7835 156.679 26.1285 156.663 26.5646H160.112ZM162.722 24.15H164.173V24.9232C164.442 24.5981 164.764 24.3602 165.136 24.2095C165.509 24.0509 165.902 23.9716 166.314 23.9716C167.083 23.9716 167.658 24.1817 168.039 24.602C168.419 25.0144 168.609 25.5655 168.609 26.2553V29.8594H167.111V26.3981C167.111 25.5655 166.722 25.1492 165.945 25.1492C165.604 25.1492 165.283 25.2324 164.982 25.3989C164.68 25.5575 164.427 25.7994 164.22 26.1245V29.8594H162.722V24.15ZM172.277 30.0378C171.651 30.0378 171.175 29.8633 170.85 29.5144C170.525 29.1655 170.362 28.6739 170.362 28.0395V25.2919H169.506V24.15H170.362V22.4372H171.861V24.15H173.229V25.2919H171.861V27.8492C171.861 28.214 171.928 28.4757 172.063 28.6342C172.198 28.7849 172.444 28.8602 172.801 28.8602C173.046 28.8602 173.288 28.8047 173.526 28.6937V29.8356C173.185 29.9704 172.769 30.0378 172.277 30.0378Z" fill="white"/>
<path d="M239.989 25.8478L242.87 28.7285C242.947 28.8059 242.947 28.8911 242.87 28.984L242.336 29.5183C242.243 29.5958 242.157 29.5958 242.08 29.5183L241.592 29.0072L239.199 26.6376L236.319 29.5183C236.241 29.5958 236.156 29.5958 236.063 29.5183L235.529 28.984C235.451 28.8911 235.451 28.8059 235.529 28.7285L238.409 25.8478L235.529 22.9671C235.451 22.8896 235.451 22.8045 235.529 22.7115L236.063 22.1772C236.156 22.0998 236.241 22.0998 236.319 22.1772L239.199 25.0579L242.08 22.1772C242.157 22.0998 242.243 22.0998 242.336 22.1772L242.87 22.7115C242.947 22.8045 242.947 22.8896 242.87 22.9671L242.359 23.4549L239.989 25.8478Z" fill="white"/>
<path d="M16.3748 46.2462H17.1916V51.7891H16.3748V46.2462ZM18.2256 47.9828H19.0027V48.53C19.1824 48.3027 19.4018 48.1361 19.6608 48.0304C19.9252 47.9194 20.2001 47.8639 20.4855 47.8639C20.993 47.8639 21.371 47.9987 21.6195 48.2683C21.8679 48.5379 21.9922 48.9 21.9922 49.3547V51.7891H21.1913V49.434C21.1913 48.8154 20.8952 48.5062 20.3031 48.5062C20.0494 48.5062 19.8115 48.567 19.5895 48.6886C19.3727 48.8049 19.1851 48.9846 19.0265 49.2278V51.7891H18.2256V47.9828ZM22.4655 47.9828H23.3139L24.432 50.7186L25.5501 47.9828H26.3986L24.7809 51.7891H24.0831L22.4655 47.9828ZM27.7382 47.2374C27.606 47.2374 27.495 47.1925 27.4051 47.1026C27.3153 47.0128 27.2703 46.9018 27.2703 46.7696C27.2703 46.6374 27.3153 46.5264 27.4051 46.4365C27.495 46.3467 27.606 46.3017 27.7382 46.3017C27.8756 46.3017 27.9893 46.3467 28.0791 46.4365C28.1743 46.5264 28.2219 46.6374 28.2219 46.7696C28.2219 46.9018 28.1743 47.0128 28.0791 47.1026C27.9893 47.1925 27.8756 47.2374 27.7382 47.2374ZM27.3338 47.9828H28.1505V51.7891H27.3338V47.9828ZM30.7197 51.908C30.3338 51.908 30.0351 51.797 29.8237 51.575C29.6175 51.3529 29.5144 51.0384 29.5144 50.6313V48.6013H28.9356V47.9828H29.5144V46.841H30.3232V47.9828H31.2589V48.6013H30.3232V50.5758C30.3232 50.8296 30.3708 51.0093 30.466 51.115C30.5664 51.2208 30.7462 51.2736 31.0052 51.2736C31.1585 51.2736 31.3118 51.2393 31.4651 51.1705V51.8049C31.2642 51.8736 31.0158 51.908 30.7197 51.908ZM34.312 51.908C33.6089 51.908 33.0565 51.7336 32.6547 51.3847C32.2583 51.0305 32.06 50.5335 32.06 49.8939C32.06 49.2701 32.2371 48.7758 32.5913 48.411C32.9508 48.0463 33.4609 47.8639 34.1217 47.8639C34.5605 47.8639 34.9332 47.9485 35.2398 48.1176C35.5464 48.2815 35.7764 48.5115 35.9297 48.8075C36.0883 49.0983 36.1676 49.4313 36.1676 49.8067V50.2031H32.8213C32.8477 50.5626 32.9984 50.8322 33.2733 51.012C33.5534 51.1864 33.9314 51.2736 34.4072 51.2736C34.6504 51.2736 34.8962 51.2525 35.1447 51.2102C35.3931 51.1626 35.6125 51.1018 35.8028 51.0278V51.6701C35.6336 51.7388 35.409 51.7943 35.1288 51.8366C34.8539 51.8842 34.5816 51.908 34.312 51.908ZM35.4143 49.6401C35.4037 49.2807 35.2847 49.0031 35.0574 48.8075C34.8354 48.6066 34.5182 48.5062 34.1059 48.5062C33.7041 48.5062 33.3922 48.6093 33.1702 48.8154C32.9481 49.0216 32.8318 49.2965 32.8213 49.6401H35.4143ZM41.4449 51.908C41.059 51.908 40.7603 51.797 40.5488 51.575C40.3427 51.3529 40.2396 51.0384 40.2396 50.6313V48.6013H39.6607V47.9828H40.2396V46.841H41.0484V47.9828H41.9841V48.6013H41.0484V50.5758C41.0484 50.8296 41.096 51.0093 41.1911 51.115C41.2916 51.2208 41.4713 51.2736 41.7303 51.2736C41.8837 51.2736 42.037 51.2393 42.1903 51.1705V51.8049C41.9894 51.8736 41.7409 51.908 41.4449 51.908ZM44.9113 51.908C44.4831 51.908 44.1051 51.8287 43.7773 51.6701C43.4548 51.5062 43.2011 51.2736 43.0161 50.9723C42.8363 50.6657 42.7465 50.3062 42.7465 49.8939C42.7465 49.4868 42.8363 49.13 43.0161 48.8234C43.1958 48.5168 43.4496 48.2815 43.7773 48.1176C44.1051 47.9485 44.4831 47.8639 44.9113 47.8639C45.3395 47.8639 45.7174 47.9485 46.0452 48.1176C46.373 48.2815 46.6267 48.5168 46.8064 48.8234C46.9915 49.13 47.084 49.4868 47.084 49.8939C47.084 50.3062 46.9915 50.6657 46.8064 50.9723C46.6267 51.2736 46.373 51.5062 46.0452 51.6701C45.7174 51.8287 45.3395 51.908 44.9113 51.908ZM44.9113 51.2736C45.3236 51.2736 45.6514 51.1468 45.8945 50.893C46.1377 50.6393 46.2593 50.3062 46.2593 49.8939C46.2593 49.4657 46.1377 49.1273 45.8945 48.8789C45.6514 48.6304 45.3236 48.5062 44.9113 48.5062C44.4989 48.5062 44.1712 48.6304 43.928 48.8789C43.6848 49.1273 43.5632 49.4657 43.5632 49.8939C43.5632 50.3062 43.6848 50.6393 43.928 50.893C44.1712 51.1468 44.4989 51.2736 44.9113 51.2736ZM50.8889 47.9828H51.666V48.6648C51.8246 48.4322 52.0466 48.2604 52.3321 48.1494C52.6229 48.0383 52.9585 47.9828 53.3392 47.9828V48.6093C52.9321 48.6093 52.5832 48.6754 52.2925 48.8075C52.0017 48.9397 51.8008 49.1485 51.6898 49.434V51.7891H50.8889V47.9828ZM55.9095 51.908C55.2064 51.908 54.654 51.7336 54.2522 51.3847C53.8557 51.0305 53.6575 50.5335 53.6575 49.8939C53.6575 49.2701 53.8346 48.7758 54.1888 48.411C54.5482 48.0463 55.0584 47.8639 55.7192 47.8639C56.158 47.8639 56.5306 47.9485 56.8373 48.1176C57.1439 48.2815 57.3738 48.5115 57.5271 48.8075C57.6857 49.0983 57.765 49.4313 57.765 49.8067V50.2031H54.4187C54.4451 50.5626 54.5958 50.8322 54.8707 51.012C55.1509 51.1864 55.5289 51.2736 56.0046 51.2736C56.2478 51.2736 56.4936 51.2525 56.7421 51.2102C56.9906 51.1626 57.21 51.1018 57.4003 51.0278V51.6701C57.2311 51.7388 57.0064 51.7943 56.7262 51.8366C56.4514 51.8842 56.1791 51.908 55.9095 51.908ZM57.0117 49.6401C57.0011 49.2807 56.8822 49.0031 56.6549 48.8075C56.4328 48.6066 56.1157 48.5062 55.7033 48.5062C55.3016 48.5062 54.9897 48.6093 54.7676 48.8154C54.5456 49.0216 54.4293 49.2965 54.4187 49.6401H57.0117ZM62.0423 51.2816C61.8678 51.4877 61.6431 51.6437 61.3682 51.7494C61.0934 51.8551 60.7973 51.908 60.4801 51.908C60.0942 51.908 59.7506 51.8234 59.4493 51.6543C59.1479 51.4851 58.9101 51.2472 58.7356 50.9406C58.5664 50.634 58.4819 50.2824 58.4819 49.8859C58.4819 49.4842 58.5664 49.1326 58.7356 48.8313C58.9101 48.5247 59.1479 48.2868 59.4493 48.1176C59.7559 47.9485 60.0995 47.8639 60.4801 47.8639C61.1462 47.8639 61.6749 48.0912 62.0661 48.5458V47.9828H62.8432V53.5257H62.0423V51.2816ZM60.6625 51.2736C60.985 51.2736 61.2731 51.1864 61.5268 51.012C61.7806 50.8375 61.9524 50.6049 62.0423 50.3141V49.4577C61.9365 49.1617 61.7594 48.9291 61.511 48.7599C61.2678 48.5908 60.985 48.5062 60.6625 48.5062C60.4035 48.5062 60.1682 48.5643 59.9568 48.6806C59.7506 48.7917 59.5867 48.9529 59.4651 49.1643C59.3488 49.3705 59.2907 49.6111 59.2907 49.8859C59.2907 50.1608 59.3488 50.404 59.4651 50.6155C59.5867 50.8269 59.7506 50.9908 59.9568 51.1071C60.1682 51.2181 60.4035 51.2736 60.6625 51.2736ZM65.3898 51.908C64.877 51.908 64.4885 51.7706 64.2242 51.4957C63.9651 51.2208 63.8356 50.8534 63.8356 50.3934V47.9828H64.6365V50.3617C64.6365 50.9697 64.9405 51.2736 65.5484 51.2736C66.0823 51.2736 66.5 51.0331 66.8013 50.552V47.9828H67.6022V51.7891H66.8251V51.2498C66.6453 51.4772 66.4312 51.6437 66.1828 51.7494C65.9396 51.8551 65.6753 51.908 65.3898 51.908ZM70.7234 51.908C70.0203 51.908 69.4678 51.7336 69.0661 51.3847C68.6696 51.0305 68.4714 50.5335 68.4714 49.8939C68.4714 49.2701 68.6484 48.7758 69.0026 48.411C69.3621 48.0463 69.8723 47.8639 70.5331 47.8639C70.9718 47.8639 71.3445 47.9485 71.6511 48.1176C71.9578 48.2815 72.1877 48.5115 72.341 48.8075C72.4996 49.0983 72.5789 49.4313 72.5789 49.8067V50.2031H69.2326C69.259 50.5626 69.4097 50.8322 69.6846 51.012C69.9648 51.1864 70.3427 51.2736 70.8185 51.2736C71.0617 51.2736 71.3075 51.2525 71.556 51.2102C71.8044 51.1626 72.0238 51.1018 72.2141 51.0278V51.6701C72.045 51.7388 71.8203 51.7943 71.5401 51.8366C71.2652 51.8842 70.993 51.908 70.7234 51.908ZM71.8256 49.6401C71.815 49.2807 71.6961 49.0031 71.4688 48.8075C71.2467 48.6066 70.9295 48.5062 70.5172 48.5062C70.1154 48.5062 69.8035 48.6093 69.5815 48.8154C69.3595 49.0216 69.2432 49.2965 69.2326 49.6401H71.8256ZM74.8579 51.908C74.5936 51.908 74.3134 51.8736 74.0173 51.8049C73.7213 51.7415 73.4887 51.6543 73.3195 51.5432V50.8613C73.5257 50.9829 73.7636 51.0833 74.0332 51.1626C74.3028 51.2366 74.5645 51.2736 74.8182 51.2736C75.1037 51.2736 75.3125 51.2393 75.4447 51.1705C75.5768 51.1018 75.6429 50.9908 75.6429 50.8375C75.6429 50.7212 75.6112 50.6287 75.5478 50.56C75.4896 50.486 75.3865 50.4199 75.2385 50.3617C75.0958 50.3036 74.879 50.2349 74.5883 50.1556C74.2764 50.0657 74.0279 49.9758 73.8429 49.8859C73.6631 49.7908 73.5257 49.6718 73.4305 49.5291C73.3407 49.3864 73.2957 49.2014 73.2957 48.974C73.2957 48.6093 73.4385 48.3344 73.7239 48.1494C74.0147 47.959 74.4032 47.8639 74.8896 47.8639C75.1433 47.8639 75.3918 47.8877 75.635 47.9353C75.8782 47.9828 76.0738 48.0489 76.2218 48.1335V48.7996C76.0685 48.7097 75.8782 48.6383 75.6508 48.5855C75.4288 48.5326 75.2015 48.5062 74.9689 48.5062C74.6887 48.5062 74.4746 48.5405 74.3266 48.6093C74.1786 48.678 74.1046 48.7996 74.1046 48.974C74.1046 49.0851 74.1363 49.1749 74.1997 49.2436C74.2632 49.3124 74.3636 49.3732 74.501 49.426C74.6438 49.4736 74.8685 49.537 75.1751 49.6163C75.6561 49.7485 75.9892 49.9044 76.1742 50.0842C76.3645 50.2639 76.4597 50.5124 76.4597 50.8296C76.4597 51.1573 76.3249 51.419 76.0553 51.6146C75.7856 51.8102 75.3865 51.908 74.8579 51.908ZM78.6848 51.908C78.2989 51.908 78.0002 51.797 77.7888 51.575C77.5826 51.3529 77.4795 51.0384 77.4795 50.6313V48.6013H76.9006V47.9828H77.4795V46.841H78.2883V47.9828H79.224V48.6013H78.2883V50.5758C78.2883 50.8296 78.3359 51.0093 78.4311 51.115C78.5315 51.2208 78.7112 51.2736 78.9703 51.2736C79.1236 51.2736 79.2769 51.2393 79.4302 51.1705V51.8049C79.2293 51.8736 78.9808 51.908 78.6848 51.908ZM83.1186 47.9828H83.8957V48.5458C84.2869 48.0912 84.8155 47.8639 85.4816 47.8639C85.8623 47.8639 86.2032 47.9485 86.5046 48.1176C86.8112 48.2868 87.0491 48.5247 87.2182 48.8313C87.3927 49.1326 87.4799 49.4842 87.4799 49.8859C87.4799 50.2824 87.3927 50.634 87.2182 50.9406C87.0491 51.2472 86.8138 51.4851 86.5125 51.6543C86.2112 51.8234 85.8675 51.908 85.4816 51.908C85.1644 51.908 84.8684 51.8551 84.5935 51.7494C84.3186 51.6437 84.0939 51.4877 83.9195 51.2816V53.5257H83.1186V47.9828ZM85.2992 51.2736C85.5583 51.2736 85.7909 51.2181 85.9971 51.1071C86.2085 50.9908 86.3724 50.8269 86.4887 50.6155C86.6103 50.404 86.6711 50.1608 86.6711 49.8859C86.6711 49.6111 86.6103 49.3705 86.4887 49.1643C86.3724 48.9529 86.2085 48.7917 85.9971 48.6806C85.7909 48.5643 85.5583 48.5062 85.2992 48.5062C84.9768 48.5062 84.6913 48.5908 84.4428 48.7599C84.1997 48.9291 84.0252 49.1617 83.9195 49.4577V50.3141C84.0094 50.6049 84.1812 50.8375 84.4349 51.012C84.6887 51.1864 84.9768 51.2736 85.2992 51.2736ZM89.516 51.908C89.056 51.908 88.686 51.7917 88.4058 51.5591C88.1309 51.3212 87.9935 51.0014 87.9935 50.5996C87.9935 50.1767 88.1256 49.8516 88.39 49.6243C88.6596 49.3917 89.0402 49.2754 89.5318 49.2754C90.0552 49.2754 90.4992 49.3811 90.864 49.5925V49.3943C90.864 49.093 90.7715 48.871 90.5865 48.7282C90.4067 48.5802 90.1213 48.5062 89.7301 48.5062C89.4975 48.5062 89.2701 48.53 89.0481 48.5776C88.8314 48.6198 88.6358 48.6806 88.4613 48.7599V48.1097C88.6199 48.0357 88.8261 47.9775 89.0798 47.9353C89.3336 47.8877 89.5794 47.8639 89.8173 47.8639C90.4464 47.8639 90.9116 48.004 91.2129 48.2842C91.5195 48.5591 91.6728 48.9423 91.6728 49.434V51.7891H90.9195V51.3609C90.7556 51.5406 90.56 51.678 90.3327 51.7732C90.1107 51.8631 89.8384 51.908 89.516 51.908ZM89.7142 51.2974C89.968 51.2974 90.1979 51.2472 90.4041 51.1468C90.6103 51.0463 90.7636 50.9062 90.864 50.7265V50.2111C90.5204 49.989 90.1371 49.878 89.7142 49.878C89.4076 49.878 89.1776 49.9388 89.0243 50.0604C88.8763 50.1767 88.8023 50.3564 88.8023 50.5996C88.8023 51.0648 89.1063 51.2974 89.7142 51.2974ZM93.1193 53.3591C92.8338 53.3591 92.5959 53.3301 92.4056 53.2719V52.6455C92.5431 52.6983 92.7122 52.7248 92.9131 52.7248C93.0982 52.7248 93.2435 52.6772 93.3493 52.582C93.455 52.4922 93.5501 52.3441 93.6347 52.138L93.8171 51.6939L92.1519 47.9828H92.9766L94.2453 50.9089L95.4268 47.9828H96.2515L94.5387 52.2173C94.3801 52.6137 94.1898 52.9019 93.9678 53.0816C93.751 53.2666 93.4682 53.3591 93.1193 53.3591ZM96.9645 47.9828H97.7257V48.53C97.9055 48.3079 98.109 48.1414 98.3363 48.0304C98.5636 47.9194 98.7989 47.8639 99.0421 47.8639C99.3487 47.8639 99.5919 47.9168 99.7716 48.0225C99.9513 48.1229 100.083 48.2789 100.168 48.4903C100.337 48.2842 100.543 48.1282 100.787 48.0225C101.035 47.9168 101.284 47.8639 101.532 47.8639C101.997 47.8639 102.333 47.9828 102.539 48.2207C102.745 48.4533 102.848 48.7996 102.848 49.2595V51.7891H102.071V49.3626C102.071 49.0507 102.013 48.8313 101.897 48.7044C101.78 48.5723 101.582 48.5062 101.302 48.5062C100.9 48.5062 100.572 48.6806 100.319 49.0295C100.329 49.1088 100.335 49.2384 100.335 49.4181V51.7891H99.5575V49.3626C99.5575 49.0507 99.5046 48.8313 99.3989 48.7044C99.2932 48.5723 99.1029 48.5062 98.828 48.5062C98.4262 48.5062 98.0667 48.7335 97.7495 49.1881V51.7891H96.9645V47.9828ZM105.934 51.908C105.231 51.908 104.679 51.7336 104.277 51.3847C103.881 51.0305 103.682 50.5335 103.682 49.8939C103.682 49.2701 103.859 48.7758 104.214 48.411C104.573 48.0463 105.083 47.8639 105.744 47.8639C106.183 47.8639 106.556 47.9485 106.862 48.1176C107.169 48.2815 107.399 48.5115 107.552 48.8075C107.711 49.0983 107.79 49.4313 107.79 49.8067V50.2031H104.444C104.47 50.5626 104.621 50.8322 104.896 51.012C105.176 51.1864 105.554 51.2736 106.03 51.2736C106.273 51.2736 106.519 51.2525 106.767 51.2102C107.015 51.1626 107.235 51.1018 107.425 51.0278V51.6701C107.256 51.7388 107.031 51.7943 106.751 51.8366C106.476 51.8842 106.204 51.908 105.934 51.908ZM107.037 49.6401C107.026 49.2807 106.907 49.0031 106.68 48.8075C106.458 48.6066 106.141 48.5062 105.728 48.5062C105.326 48.5062 105.015 48.6093 104.793 48.8154C104.571 49.0216 104.454 49.2965 104.444 49.6401H107.037ZM108.665 47.9828H109.442V48.53C109.622 48.3027 109.842 48.1361 110.101 48.0304C110.365 47.9194 110.64 47.8639 110.925 47.8639C111.433 47.8639 111.811 47.9987 112.059 48.2683C112.308 48.5379 112.432 48.9 112.432 49.3547V51.7891H111.631V49.434C111.631 48.8154 111.335 48.5062 110.743 48.5062C110.489 48.5062 110.251 48.567 110.029 48.6886C109.813 48.8049 109.625 48.9846 109.466 49.2278V51.7891H108.665V47.9828ZM114.887 51.908C114.501 51.908 114.202 51.797 113.991 51.575C113.785 51.3529 113.682 51.0384 113.682 50.6313V48.6013H113.103V47.9828H113.682V46.841H114.491V47.9828H115.426V48.6013H114.491V50.5758C114.491 50.8296 114.538 51.0093 114.633 51.115C114.734 51.2208 114.913 51.2736 115.173 51.2736C115.326 51.2736 115.479 51.2393 115.632 51.1705V51.8049C115.432 51.8736 115.183 51.908 114.887 51.908ZM121.684 51.908C121.34 51.908 121.042 51.8551 120.788 51.7494C120.539 51.6384 120.309 51.4666 120.098 51.234V51.7891H119.321V45.9291H120.122V48.4903C120.296 48.2842 120.521 48.1282 120.796 48.0225C121.071 47.9168 121.367 47.8639 121.684 47.8639C122.064 47.8639 122.405 47.9511 122.707 48.1256C123.013 48.2947 123.251 48.5326 123.42 48.8392C123.595 49.1458 123.682 49.4974 123.682 49.8939C123.682 50.2956 123.595 50.6498 123.42 50.9564C123.251 51.2578 123.013 51.493 122.707 51.6622C122.405 51.8261 122.064 51.908 121.684 51.908ZM121.501 51.2736C121.761 51.2736 121.993 51.2181 122.199 51.1071C122.411 50.9908 122.575 50.8269 122.691 50.6155C122.813 50.404 122.873 50.1635 122.873 49.8939C122.873 49.6243 122.813 49.3837 122.691 49.1723C122.575 48.9608 122.411 48.7969 122.199 48.6806C121.993 48.5643 121.761 48.5062 121.501 48.5062C121.179 48.5062 120.891 48.5934 120.637 48.7679C120.383 48.9423 120.212 49.1749 120.122 49.4657V50.3221C120.222 50.6128 120.394 50.8454 120.637 51.0199C120.886 51.1891 121.174 51.2736 121.501 51.2736ZM124.846 53.3591C124.56 53.3591 124.322 53.3301 124.132 53.2719V52.6455C124.269 52.6983 124.439 52.7248 124.639 52.7248C124.824 52.7248 124.97 52.6772 125.076 52.582C125.181 52.4922 125.276 52.3441 125.361 52.138L125.543 51.6939L123.878 47.9828H124.703L125.972 50.9089L127.153 47.9828H127.978L126.265 52.2173C126.106 52.6137 125.916 52.9019 125.694 53.0816C125.477 53.2666 125.195 53.3591 124.846 53.3591ZM133.029 51.908C132.765 51.908 132.485 51.8736 132.189 51.8049C131.893 51.7415 131.66 51.6543 131.491 51.5432V50.8613C131.697 50.9829 131.935 51.0833 132.205 51.1626C132.474 51.2366 132.736 51.2736 132.99 51.2736C133.275 51.2736 133.484 51.2393 133.616 51.1705C133.748 51.1018 133.814 50.9908 133.814 50.8375C133.814 50.7212 133.783 50.6287 133.719 50.56C133.661 50.486 133.558 50.4199 133.41 50.3617C133.267 50.3036 133.05 50.2349 132.76 50.1556C132.448 50.0657 132.199 49.9758 132.014 49.8859C131.835 49.7908 131.697 49.6718 131.602 49.5291C131.512 49.3864 131.467 49.2014 131.467 48.974C131.467 48.6093 131.61 48.3344 131.895 48.1494C132.186 47.959 132.575 47.8639 133.061 47.8639C133.315 47.8639 133.563 47.8877 133.806 47.9353C134.05 47.9828 134.245 48.0489 134.393 48.1335V48.7996C134.24 48.7097 134.05 48.6383 133.822 48.5855C133.6 48.5326 133.373 48.5062 133.14 48.5062C132.86 48.5062 132.646 48.5405 132.498 48.6093C132.35 48.678 132.276 48.7996 132.276 48.974C132.276 49.0851 132.308 49.1749 132.371 49.2436C132.435 49.3124 132.535 49.3732 132.672 49.426C132.815 49.4736 133.04 49.537 133.346 49.6163C133.828 49.7485 134.161 49.9044 134.346 50.0842C134.536 50.2639 134.631 50.5124 134.631 50.8296C134.631 51.1573 134.496 51.419 134.227 51.6146C133.957 51.8102 133.558 51.908 133.029 51.908ZM135.505 45.9291H136.306V48.5062C136.671 48.078 137.157 47.8639 137.765 47.8639C138.273 47.8639 138.651 47.9987 138.899 48.2683C139.148 48.5379 139.272 48.9 139.272 49.3547V51.7891H138.471V49.434C138.471 48.8154 138.175 48.5062 137.583 48.5062C137.329 48.5062 137.091 48.567 136.869 48.6886C136.653 48.8049 136.465 48.9846 136.306 49.2278V51.7891H135.505V45.9291ZM141.508 51.908C141.048 51.908 140.678 51.7917 140.398 51.5591C140.123 51.3212 139.985 51.0014 139.985 50.5996C139.985 50.1767 140.117 49.8516 140.382 49.6243C140.651 49.3917 141.032 49.2754 141.524 49.2754C142.047 49.2754 142.491 49.3811 142.856 49.5925V49.3943C142.856 49.093 142.763 48.871 142.578 48.7282C142.399 48.5802 142.113 48.5062 141.722 48.5062C141.489 48.5062 141.262 48.53 141.04 48.5776C140.823 48.6198 140.628 48.6806 140.453 48.7599V48.1097C140.612 48.0357 140.818 47.9775 141.072 47.9353C141.325 47.8877 141.571 47.8639 141.809 47.8639C142.438 47.8639 142.903 48.004 143.205 48.2842C143.511 48.5591 143.665 48.9423 143.665 49.434V51.7891H142.911V51.3609C142.747 51.5406 142.552 51.678 142.325 51.7732C142.103 51.8631 141.83 51.908 141.508 51.908ZM141.706 51.2974C141.96 51.2974 142.19 51.2472 142.396 51.1468C142.602 51.0463 142.755 50.9062 142.856 50.7265V50.2111C142.512 49.989 142.129 49.878 141.706 49.878C141.399 49.878 141.169 49.9388 141.016 50.0604C140.868 50.1767 140.794 50.3564 140.794 50.5996C140.794 51.0648 141.098 51.2974 141.706 51.2974ZM144.659 47.9828H145.436V48.6648C145.594 48.4322 145.816 48.2604 146.102 48.1494C146.393 48.0383 146.728 47.9828 147.109 47.9828V48.6093C146.702 48.6093 146.353 48.6754 146.062 48.8075C145.771 48.9397 145.57 49.1485 145.459 49.434V51.7891H144.659V47.9828ZM148.294 47.2374C148.161 47.2374 148.05 47.1925 147.961 47.1026C147.871 47.0128 147.826 46.9018 147.826 46.7696C147.826 46.6374 147.871 46.5264 147.961 46.4365C148.05 46.3467 148.161 46.3017 148.294 46.3017C148.431 46.3017 148.545 46.3467 148.635 46.4365C148.73 46.5264 148.777 46.6374 148.777 46.7696C148.777 46.9018 148.73 47.0128 148.635 47.1026C148.545 47.1925 148.431 47.2374 148.294 47.2374ZM147.889 47.9828H148.706V51.7891H147.889V47.9828ZM149.808 47.9828H150.585V48.53C150.765 48.3027 150.984 48.1361 151.243 48.0304C151.508 47.9194 151.783 47.8639 152.068 47.8639C152.576 47.8639 152.954 47.9987 153.202 48.2683C153.451 48.5379 153.575 48.9 153.575 49.3547V51.7891H152.774V49.434C152.774 48.8154 152.478 48.5062 151.886 48.5062C151.632 48.5062 151.394 48.567 151.172 48.6886C150.955 48.8049 150.768 48.9846 150.609 49.2278V51.7891H149.808V47.9828ZM156.553 53.6129C156.294 53.6129 156.04 53.5917 155.792 53.5494C155.549 53.5072 155.343 53.4464 155.173 53.3671V52.7089C155.57 52.8886 156.03 52.9785 156.553 52.9785C157.045 52.9785 157.402 52.8701 157.624 52.6534C157.851 52.4419 157.965 52.1195 157.965 51.686V51.2816C157.616 51.6992 157.103 51.908 156.426 51.908C156.04 51.908 155.694 51.8234 155.388 51.6543C155.081 51.4851 154.84 51.2472 154.666 50.9406C154.491 50.634 154.404 50.2824 154.404 49.8859C154.404 49.4842 154.489 49.1326 154.658 48.8313C154.832 48.5247 155.07 48.2868 155.372 48.1176C155.678 47.9485 156.022 47.8639 156.403 47.8639C156.757 47.8639 157.055 47.9168 157.299 48.0225C157.547 48.1229 157.777 48.2921 157.988 48.53V47.9828H158.766V51.5988C158.766 52.249 158.583 52.7459 158.218 53.0895C157.859 53.4384 157.304 53.6129 156.553 53.6129ZM156.585 51.2736C156.913 51.2736 157.201 51.1864 157.449 51.012C157.703 50.8375 157.875 50.6049 157.965 50.3141V49.4577C157.864 49.1617 157.69 48.9291 157.441 48.7599C157.198 48.5908 156.913 48.5062 156.585 48.5062C156.326 48.5062 156.091 48.5643 155.879 48.6806C155.673 48.7917 155.509 48.9529 155.388 49.1643C155.271 49.3758 155.213 49.6163 155.213 49.8859C155.213 50.1608 155.271 50.404 155.388 50.6155C155.509 50.8216 155.673 50.9829 155.879 51.0992C156.091 51.2155 156.326 51.2736 156.585 51.2736ZM162.733 45.9291H163.533V51.7891H162.733V45.9291ZM165.036 47.2374C164.904 47.2374 164.793 47.1925 164.703 47.1026C164.613 47.0128 164.568 46.9018 164.568 46.7696C164.568 46.6374 164.613 46.5264 164.703 46.4365C164.793 46.3467 164.904 46.3017 165.036 46.3017C165.173 46.3017 165.287 46.3467 165.377 46.4365C165.472 46.5264 165.519 46.6374 165.519 46.7696C165.519 46.9018 165.472 47.0128 165.377 47.1026C165.287 47.1925 165.173 47.2374 165.036 47.2374ZM164.631 47.9828H165.448V51.7891H164.631V47.9828ZM166.55 47.9828H167.327V48.53C167.507 48.3027 167.726 48.1361 167.986 48.0304C168.25 47.9194 168.525 47.8639 168.81 47.8639C169.318 47.8639 169.696 47.9987 169.944 48.2683C170.193 48.5379 170.317 48.9 170.317 49.3547V51.7891H169.516V49.434C169.516 48.8154 169.22 48.5062 168.628 48.5062C168.374 48.5062 168.136 48.567 167.914 48.6886C167.697 48.8049 167.51 48.9846 167.351 49.2278V51.7891H166.55V47.9828ZM171.305 45.9291H172.106V51.7891H171.305V45.9291ZM172.114 49.8622L173.866 47.9828H174.842L173.081 49.8622L175.024 51.7891H174.049L172.114 49.8622Z" fill="#A6A9AB"/>
<path d="M15.8594 81.9346C15.8594 78.6209 18.5457 75.9346 21.8594 75.9346H241.141C244.454 75.9346 247.141 78.6209 247.141 81.9346V101.653C247.141 104.967 244.454 107.653 241.141 107.653H21.8594C18.5457 107.653 15.8594 104.967 15.8594 101.653V81.9346Z" fill="#333638"/>
<path d="M37.8056 96.75C40.5428 96.75 42.7617 94.5311 42.7617 91.7939C42.7617 89.0568 40.5428 86.8379 37.8056 86.8379C35.0685 86.8379 32.8496 89.0568 32.8496 91.7939C32.8496 94.5311 35.0685 96.75 37.8056 96.75Z" fill="#627EEA"/>
<path d="M37.9609 88.0762V90.8238L40.2831 91.8616L37.9609 88.0762Z" fill="white" fill-opacity="0.602"/>
<path d="M37.9609 88.0762L35.6387 91.8616L37.9609 90.8238V88.0762Z" fill="white"/>
<path d="M37.9609 93.642V95.509L40.2845 92.2939L37.9609 93.642Z" fill="white" fill-opacity="0.602"/>
<path d="M37.9609 95.509V93.642L35.6387 92.2939L37.9609 95.509Z" fill="white"/>
<path d="M37.9609 93.2101L40.2831 91.862L37.9609 90.8242V93.2101Z" fill="white" fill-opacity="0.2"/>
<path d="M35.6387 91.862L37.9609 93.2101V90.8242L35.6387 91.862Z" fill="white" fill-opacity="0.602"/>
<path d="M48.2342 89.2511H51.8897V89.9331H49.043V91.6855H51.1681V92.3595H49.043V94.1199H51.8897V94.7939H48.2342V89.2511ZM53.9912 94.9129C53.6053 94.9129 53.3066 94.8019 53.0952 94.5798C52.889 94.3578 52.7859 94.0433 52.7859 93.6362V91.6062H52.2071V90.9877H52.7859V89.8458H53.5947V90.9877H54.5304V91.6062H53.5947V93.5807C53.5947 93.8345 53.6423 94.0142 53.7375 94.1199C53.8379 94.2257 54.0177 94.2785 54.2767 94.2785C54.43 94.2785 54.5833 94.2442 54.7366 94.1754V94.8098C54.5357 94.8785 54.2873 94.9129 53.9912 94.9129ZM55.4901 88.9339H56.291V91.5111C56.6558 91.0829 57.1421 90.8688 57.7501 90.8688C58.2576 90.8688 58.6355 91.0036 58.884 91.2732C59.1325 91.5428 59.2567 91.9049 59.2567 92.3595V94.7939H58.4558V92.4388C58.4558 91.8203 58.1598 91.5111 57.5677 91.5111C57.3139 91.5111 57.076 91.5719 56.854 91.6935C56.6373 91.8098 56.4496 91.9895 56.291 92.2327V94.7939H55.4901V88.9339ZM62.3382 94.9129C61.6351 94.9129 61.0827 94.7384 60.6809 94.3895C60.2845 94.0353 60.0862 93.5384 60.0862 92.8988C60.0862 92.275 60.2633 91.7807 60.6175 91.4159C60.977 91.0512 61.4871 90.8688 62.1479 90.8688C62.5867 90.8688 62.9594 90.9534 63.266 91.1225C63.5726 91.2864 63.8026 91.5164 63.9559 91.8124C64.1145 92.1032 64.1938 92.4362 64.1938 92.8115V93.208H60.8475C60.8739 93.5675 61.0246 93.8371 61.2994 94.0168C61.5796 94.1913 61.9576 94.2785 62.4334 94.2785C62.6766 94.2785 62.9224 94.2574 63.1708 94.2151C63.4193 94.1675 63.6387 94.1067 63.829 94.0327V94.675C63.6598 94.7437 63.4352 94.7992 63.155 94.8415C62.8801 94.8891 62.6078 94.9129 62.3382 94.9129ZM63.4405 92.645C63.4299 92.2855 63.3109 92.008 63.0836 91.8124C62.8616 91.6115 62.5444 91.5111 62.1321 91.5111C61.7303 91.5111 61.4184 91.6142 61.1964 91.8203C60.9743 92.0265 60.858 92.3014 60.8475 92.645H63.4405ZM65.0692 90.9877H65.8463V91.6697C66.0049 91.4371 66.2269 91.2653 66.5124 91.1542C66.8031 91.0432 67.1388 90.9877 67.5195 90.9877V91.6142C67.1124 91.6142 66.7635 91.6802 66.4727 91.8124C66.182 91.9446 65.9811 92.1534 65.8701 92.4388V94.7939H65.0692V90.9877ZM70.0898 94.9129C69.3867 94.9129 68.8342 94.7384 68.4325 94.3895C68.036 94.0353 67.8378 93.5384 67.8378 92.8988C67.8378 92.275 68.0148 91.7807 68.369 91.4159C68.7285 91.0512 69.2387 90.8688 69.8995 90.8688C70.3382 90.8688 70.7109 90.9534 71.0175 91.1225C71.3242 91.2864 71.5541 91.5164 71.7074 91.8124C71.866 92.1032 71.9453 92.4362 71.9453 92.8115V93.208H68.599C68.6254 93.5675 68.7761 93.8371 69.051 94.0168C69.3312 94.1913 69.7091 94.2785 70.1849 94.2785C70.4281 94.2785 70.6739 94.2574 70.9224 94.2151C71.1708 94.1675 71.3902 94.1067 71.5805 94.0327V94.675C71.4114 94.7437 71.1867 94.7992 70.9065 94.8415C70.6316 94.8891 70.3594 94.9129 70.0898 94.9129ZM71.192 92.645C71.1814 92.2855 71.0625 92.008 70.8352 91.8124C70.6131 91.6115 70.2959 91.5111 69.8836 91.5111C69.4818 91.5111 69.1699 91.6142 68.9479 91.8203C68.7259 92.0265 68.6096 92.3014 68.599 92.645H71.192ZM74.3353 94.9129C73.8225 94.9129 73.434 94.7754 73.1696 94.5005C72.9106 94.2257 72.7811 93.8582 72.7811 93.3983V90.9877H73.582V93.3666C73.582 93.9745 73.8859 94.2785 74.4939 94.2785C75.0278 94.2785 75.4454 94.038 75.7468 93.5569V90.9877H76.5477V94.7939H75.7706V94.2547C75.5908 94.482 75.3767 94.6486 75.1283 94.7543C74.8851 94.86 74.6208 94.9129 74.3353 94.9129ZM77.5754 90.9877H78.3367V91.5349C78.5164 91.3128 78.7199 91.1463 78.9473 91.0353C79.1746 90.9243 79.4098 90.8688 79.653 90.8688C79.9596 90.8688 80.2028 90.9216 80.3825 91.0274C80.5623 91.1278 80.6944 91.2838 80.779 91.4952C80.9482 91.289 81.1543 91.1331 81.3975 91.0274C81.646 90.9216 81.8944 90.8688 82.1429 90.8688C82.6081 90.8688 82.9438 90.9877 83.15 91.2256C83.3561 91.4582 83.4592 91.8045 83.4592 92.2644V94.7939H82.6821V92.3675C82.6821 92.0556 82.624 91.8362 82.5077 91.7093C82.3914 91.5772 82.1931 91.5111 81.9129 91.5111C81.5112 91.5111 81.1834 91.6855 80.9297 92.0344C80.9402 92.1137 80.9455 92.2432 80.9455 92.423V94.7939H80.1684V92.3675C80.1684 92.0556 80.1156 91.8362 80.0098 91.7093C79.9041 91.5772 79.7138 91.5111 79.4389 91.5111C79.0371 91.5111 78.6776 91.7384 78.3605 92.193V94.7939H77.5754V90.9877Z" fill="white"/>
<path d="M88.4018 96.1737C88.0212 95.7085 87.7304 95.1799 87.5295 94.5878C87.3287 93.9957 87.2282 93.3507 87.2282 92.6529C87.2282 91.9604 87.3287 91.3181 87.5295 90.726C87.7304 90.1287 88.0212 89.5974 88.4018 89.1322H89.2503C88.8485 89.645 88.5472 90.1895 88.3463 90.7657C88.1454 91.3419 88.045 91.971 88.045 92.6529C88.045 93.3349 88.1454 93.964 88.3463 94.5402C88.5472 95.1164 88.8485 95.6609 89.2503 96.1737H88.4018ZM90.0042 89.2511H93.6598V89.9331H90.813V91.6855H92.9382V92.3595H90.813V94.1199H93.6598V94.7939H90.0042V89.2511ZM95.8992 89.9331H94.1784V89.2511H98.4367V89.9331H96.7159V94.7939H95.8992V89.9331ZM99.1496 89.2511H99.9585V91.63H102.853V89.2511H103.662V94.7939H102.853V92.312H99.9585V94.7939H99.1496V89.2511ZM104.417 96.1737C104.818 95.6609 105.12 95.1164 105.321 94.5402C105.522 93.964 105.622 93.3349 105.622 92.6529C105.622 91.971 105.522 91.3419 105.321 90.7657C105.12 90.1895 104.818 89.645 104.417 89.1322H105.265C105.646 89.5974 105.937 90.1287 106.137 90.726C106.338 91.3181 106.439 91.9604 106.439 92.6529C106.439 93.3507 106.338 93.9957 106.137 94.5878C105.937 95.1799 105.646 95.7085 105.265 96.1737H104.417Z" fill="#A6A9AB"/>
<path d="M229.231 90.2146L228.936 89.9049C228.859 89.8429 228.735 89.8429 228.673 89.9049L225.854 92.7081L223.051 89.9049C222.989 89.8429 222.865 89.8429 222.788 89.9049L222.494 90.2146C222.416 90.292 222.416 90.4005 222.494 90.4779L225.731 93.7303C225.808 93.7923 225.916 93.7923 225.994 93.7303L229.231 90.4779C229.308 90.4005 229.308 90.292 229.231 90.2146Z" fill="#A6A9AB"/>
<rect x="15.8594" y="118.226" width="231.281" height="31.9296" rx="3.96482" fill="#333638"/>
<path d="M31.7604 139.428C30.8088 139.428 29.9841 139.196 29.2863 138.731C28.5991 138.265 28.0704 137.599 27.7004 136.732C27.3303 135.865 27.1453 134.84 27.1453 133.656C27.1453 132.471 27.325 131.446 27.6845 130.579C28.0546 129.701 28.5832 129.03 29.2705 128.565C29.9683 128.099 30.7982 127.867 31.7604 127.867C32.7225 127.867 33.5472 128.099 34.2344 128.565C34.9322 129.03 35.4609 129.701 35.8203 130.579C36.1904 131.446 36.3754 132.471 36.3754 133.656C36.3754 134.84 36.1904 135.865 35.8203 136.732C35.4503 137.599 34.9164 138.265 34.2186 138.731C33.5313 139.196 32.7119 139.428 31.7604 139.428ZM31.7604 138.001C32.7013 138.001 33.4362 137.615 33.9648 136.843C34.504 136.061 34.7736 135.004 34.7736 133.671C34.7736 132.339 34.5093 131.282 33.9807 130.5C33.452 129.717 32.7119 129.326 31.7604 129.326C30.8088 129.326 30.0687 129.717 29.5401 130.5C29.0114 131.282 28.7471 132.339 28.7471 133.671C28.7471 135.004 29.0114 136.061 29.5401 136.843C30.0793 137.615 30.8194 138.001 31.7604 138.001Z" fill="#A6A9AB"/>
<path d="M18.9678 162.261C18.8145 162.261 18.6665 162.24 18.5237 162.197C18.381 162.155 18.2145 162.094 18.0242 162.015C17.8339 161.936 17.6673 161.877 17.5246 161.84C17.3872 161.798 17.2471 161.777 17.1043 161.777C16.9193 161.777 16.7528 161.814 16.6048 161.888C16.462 161.962 16.3325 162.084 16.2162 162.253V161.5C16.2902 161.367 16.4065 161.267 16.5651 161.198C16.7237 161.124 16.9034 161.087 17.1043 161.087C17.2629 161.087 17.4136 161.108 17.5563 161.151C17.6991 161.193 17.8735 161.256 18.0797 161.341C18.2964 161.425 18.4629 161.486 18.5792 161.523C18.7008 161.555 18.8304 161.571 18.9678 161.571C19.1528 161.571 19.3193 161.534 19.4674 161.46C19.6154 161.386 19.7475 161.264 19.8638 161.095V161.848C19.7846 161.981 19.6656 162.084 19.507 162.158C19.3484 162.226 19.1687 162.261 18.9678 162.261ZM25.8184 164.56C25.3426 164.56 24.9303 164.444 24.5814 164.211C24.2378 163.979 23.9734 163.646 23.7884 163.212C23.6034 162.779 23.5109 162.266 23.5109 161.674C23.5109 161.082 23.6007 160.569 23.7805 160.136C23.9655 159.697 24.2298 159.361 24.5734 159.129C24.9223 158.896 25.3373 158.78 25.8184 158.78C26.2995 158.78 26.7118 158.896 27.0554 159.129C27.4043 159.361 27.6686 159.697 27.8484 160.136C28.0334 160.569 28.1259 161.082 28.1259 161.674C28.1259 162.266 28.0334 162.779 27.8484 163.212C27.6634 163.646 27.3964 163.979 27.0475 164.211C26.7039 164.444 26.2942 164.56 25.8184 164.56ZM25.8184 163.847C26.2889 163.847 26.6563 163.654 26.9206 163.268C27.1902 162.877 27.325 162.348 27.325 161.682C27.325 161.016 27.1929 160.487 26.9285 160.096C26.6642 159.705 26.2942 159.509 25.8184 159.509C25.3426 159.509 24.9726 159.705 24.7082 160.096C24.4439 160.487 24.3118 161.016 24.3118 161.682C24.3118 162.348 24.4439 162.877 24.7082 163.268C24.9779 163.654 25.3479 163.847 25.8184 163.847ZM34.1841 164.56C33.4282 164.56 32.8572 164.367 32.4713 163.981C32.0854 163.59 31.8924 163.054 31.8924 162.372V158.899H32.7013V162.403C32.7013 162.874 32.8334 163.231 33.0977 163.474C33.3621 163.712 33.7242 163.831 34.1841 163.831C34.6387 163.831 34.9982 163.712 35.2625 163.474C35.5269 163.231 35.659 162.874 35.659 162.403V158.899H36.4679V162.372C36.4679 163.048 36.2749 163.582 35.889 163.974C35.5031 164.365 34.9348 164.56 34.1841 164.56ZM38.9995 164.56C38.6823 164.56 38.3678 164.531 38.0559 164.473C37.7493 164.42 37.4982 164.346 37.3026 164.251V163.522C37.8101 163.759 38.3572 163.878 38.944 163.878C39.7687 163.878 40.181 163.601 40.181 163.046C40.181 162.855 40.1361 162.702 40.0462 162.586C39.9564 162.47 39.8268 162.369 39.6577 162.285C39.4885 162.195 39.2136 162.073 38.833 161.92C38.3096 161.708 37.9317 161.476 37.6991 161.222C37.4664 160.968 37.3501 160.648 37.3501 160.262C37.3501 159.972 37.4294 159.715 37.588 159.493C37.7466 159.266 37.9687 159.092 38.2541 158.97C38.5396 158.843 38.8674 158.78 39.2374 158.78C39.5387 158.78 39.811 158.803 40.0542 158.851C40.2973 158.899 40.5352 158.975 40.7678 159.081V159.779C40.3079 159.573 39.8427 159.47 39.3722 159.47C38.9916 159.47 38.7008 159.538 38.4999 159.676C38.2991 159.813 38.1986 160.009 38.1986 160.262C38.1986 160.437 38.2409 160.585 38.3255 160.707C38.4154 160.823 38.5449 160.929 38.714 161.024C38.8885 161.114 39.1449 161.227 39.4832 161.365C39.8586 161.518 40.1546 161.663 40.3713 161.801C40.5881 161.938 40.752 162.107 40.863 162.308C40.9793 162.504 41.0374 162.75 41.0374 163.046C41.0374 163.527 40.8656 163.9 40.522 164.164C40.1784 164.428 39.6709 164.56 38.9995 164.56ZM41.9061 158.899H43.6903C44.2876 158.899 44.8057 159.01 45.2445 159.232C45.6833 159.454 46.0189 159.771 46.2515 160.183C46.4894 160.596 46.6084 161.082 46.6084 161.642C46.6084 162.562 46.3414 163.26 45.8075 163.736C45.2788 164.206 44.5361 164.441 43.5793 164.441H41.9061V158.899ZM43.5713 163.767C44.3114 163.767 44.8665 163.585 45.2366 163.22C45.6066 162.855 45.7916 162.329 45.7916 161.642C45.7916 161.008 45.6092 160.506 45.2445 160.136C44.885 159.766 44.3696 159.581 43.6982 159.581H42.7149V163.767H43.5713Z" fill="#A6A9AB"/>
<rect x="15.8594" y="188.588" width="231.281" height="24.4497" rx="3.96482" fill="#494B4D"/>
<g clip-path="url(#clip0_340_18678)">
<path d="M61.9804 200.208C61.6597 199.887 61.2248 199.707 60.7713 199.707C60.3178 199.707 59.8828 199.887 59.5621 200.208L58.3525 201.417C58.0318 201.738 57.8516 202.173 57.8516 202.626C57.8516 203.08 58.0318 203.515 58.3525 203.836C58.6732 204.156 59.1083 204.337 59.5619 204.337C60.0155 204.337 60.4505 204.156 60.7713 203.836L61.3758 203.231" stroke="#C4C7C9" stroke-width="0.991206" stroke-linecap="round" stroke-linejoin="round"/>
<path d="M60.7715 201.417C61.0922 201.738 61.5272 201.918 61.9807 201.918C62.4342 201.918 62.8691 201.738 63.1898 201.417L64.3994 200.208C64.7202 199.887 64.9004 199.452 64.9004 198.998C64.9004 198.545 64.7202 198.11 64.3994 197.789C64.0787 197.468 63.6436 197.288 63.19 197.288C62.7364 197.288 62.3014 197.468 61.9807 197.789L61.3761 198.394" stroke="#C4C7C9" stroke-width="0.991206" stroke-linecap="round" stroke-linejoin="round"/>
</g>
<path d="M76.5603 203.931C75.9894 203.931 75.4819 203.812 75.0378 203.575C74.5938 203.337 74.2475 203.001 73.9991 202.568C73.7506 202.129 73.6264 201.621 73.6264 201.045C73.6264 200.469 73.7506 199.961 73.9991 199.523C74.2475 199.084 74.5938 198.745 75.0378 198.508C75.4819 198.27 75.9894 198.151 76.5603 198.151C77.3269 198.151 77.9639 198.341 78.4714 198.722V199.499C78.0115 199.097 77.3982 198.896 76.6317 198.896C76.2141 198.896 75.8387 198.983 75.5057 199.158C75.1726 199.332 74.911 199.583 74.7207 199.911C74.5356 200.234 74.4431 200.612 74.4431 201.045C74.4431 201.479 74.5356 201.859 74.7207 202.187C74.9057 202.515 75.1621 202.766 75.4898 202.94C75.8176 203.115 76.1876 203.202 76.6 203.202C77.081 203.202 77.4749 203.104 77.7815 202.909V201.457H76.7269V200.799H78.5903V203.337C78.3419 203.543 78.0485 203.694 77.7101 203.789C77.3771 203.884 76.9938 203.931 76.5603 203.931ZM81.5546 203.931C80.8515 203.931 80.2991 203.757 79.8973 203.408C79.5008 203.054 79.3026 202.557 79.3026 201.917C79.3026 201.294 79.4797 200.799 79.8339 200.434C80.1933 200.07 80.7035 199.887 81.3643 199.887C81.8031 199.887 82.1757 199.972 82.4824 200.141C82.789 200.305 83.0189 200.535 83.1722 200.831C83.3308 201.122 83.4101 201.455 83.4101 201.83V202.227H80.0638C80.0902 202.586 80.2409 202.856 80.5158 203.035C80.796 203.21 81.174 203.297 81.6497 203.297C81.8929 203.297 82.1387 203.276 82.3872 203.234C82.6357 203.186 82.8551 203.125 83.0454 203.051V203.694C82.8762 203.762 82.6515 203.818 82.3713 203.86C82.0964 203.908 81.8242 203.931 81.5546 203.931ZM82.6568 201.664C82.6462 201.304 82.5273 201.027 82.3 200.831C82.0779 200.63 81.7608 200.53 81.3484 200.53C80.9466 200.53 80.6347 200.633 80.4127 200.839C80.1907 201.045 80.0744 201.32 80.0638 201.664H82.6568ZM84.2855 200.006H85.0627V200.553C85.2424 200.326 85.4618 200.16 85.7208 200.054C85.9851 199.943 86.26 199.887 86.5455 199.887C87.053 199.887 87.431 200.022 87.6794 200.292C87.9279 200.561 88.0521 200.923 88.0521 201.378V203.812H87.2512V201.457C87.2512 200.839 86.9552 200.53 86.3631 200.53C86.1094 200.53 85.8715 200.59 85.6494 200.712C85.4327 200.828 85.245 201.008 85.0864 201.251V203.812H84.2855V200.006ZM91.1337 203.931C90.4306 203.931 89.8781 203.757 89.4764 203.408C89.0799 203.054 88.8816 202.557 88.8816 201.917C88.8816 201.294 89.0587 200.799 89.4129 200.434C89.7724 200.07 90.2825 199.887 90.9434 199.887C91.3821 199.887 91.7548 199.972 92.0614 200.141C92.368 200.305 92.598 200.535 92.7513 200.831C92.9099 201.122 92.9892 201.455 92.9892 201.83V202.227H89.6429C89.6693 202.586 89.82 202.856 90.0949 203.035C90.3751 203.21 90.753 203.297 91.2288 203.297C91.472 203.297 91.7178 203.276 91.9663 203.234C92.2147 203.186 92.4341 203.125 92.6244 203.051V203.694C92.4553 203.762 92.2306 203.818 91.9504 203.86C91.6755 203.908 91.4033 203.931 91.1337 203.931ZM92.2359 201.664C92.2253 201.304 92.1064 201.027 91.8791 200.831C91.657 200.63 91.3398 200.53 90.9275 200.53C90.5257 200.53 90.2138 200.633 89.9918 200.839C89.7698 201.045 89.6535 201.32 89.6429 201.664H92.2359ZM93.8646 200.006H94.6417V200.688C94.8003 200.456 95.0224 200.284 95.3078 200.173C95.5986 200.062 95.9343 200.006 96.3149 200.006V200.633C95.9078 200.633 95.5589 200.699 95.2682 200.831C94.9774 200.963 94.7765 201.172 94.6655 201.457V203.812H93.8646V200.006ZM98.0395 203.931C97.5796 203.931 97.2096 203.815 96.9294 203.583C96.6545 203.345 96.517 203.025 96.517 202.623C96.517 202.2 96.6492 201.875 96.9135 201.648C97.1831 201.415 97.5637 201.299 98.0554 201.299C98.5787 201.299 99.0228 201.405 99.3876 201.616V201.418C99.3876 201.116 99.295 200.894 99.11 200.752C98.9303 200.604 98.6448 200.53 98.2536 200.53C98.021 200.53 97.7937 200.553 97.5717 200.601C97.3549 200.643 97.1593 200.704 96.9849 200.783V200.133C97.1435 200.059 97.3496 200.001 97.6034 199.959C97.8571 199.911 98.103 199.887 98.3408 199.887C98.9699 199.887 99.4351 200.027 99.7365 200.308C100.043 200.582 100.196 200.966 100.196 201.457V203.812H99.4431V203.384C99.2792 203.564 99.0836 203.701 98.8563 203.797C98.6342 203.887 98.362 203.931 98.0395 203.931ZM98.2378 203.321C98.4915 203.321 98.7215 203.271 98.9276 203.17C99.1338 203.07 99.2871 202.93 99.3876 202.75V202.235C99.0439 202.012 98.6607 201.901 98.2378 201.901C97.9311 201.901 97.7012 201.962 97.5479 202.084C97.3999 202.2 97.3259 202.38 97.3259 202.623C97.3259 203.088 97.6298 203.321 98.2378 203.321ZM102.456 203.931C102.07 203.931 101.771 203.82 101.56 203.598C101.354 203.376 101.251 203.062 101.251 202.655V200.625H100.672V200.006H101.251V198.864H102.059V200.006H102.995V200.625H102.059V202.599C102.059 202.853 102.107 203.033 102.202 203.138C102.303 203.244 102.482 203.297 102.741 203.297C102.895 203.297 103.048 203.263 103.201 203.194V203.828C103 203.897 102.752 203.931 102.456 203.931ZM106.048 203.931C105.345 203.931 104.793 203.757 104.391 203.408C103.994 203.054 103.796 202.557 103.796 201.917C103.796 201.294 103.973 200.799 104.327 200.434C104.687 200.07 105.197 199.887 105.858 199.887C106.297 199.887 106.669 199.972 106.976 200.141C107.283 200.305 107.513 200.535 107.666 200.831C107.824 201.122 107.904 201.455 107.904 201.83V202.227H104.557C104.584 202.586 104.735 202.856 105.009 203.035C105.29 203.21 105.668 203.297 106.143 203.297C106.387 203.297 106.632 203.276 106.881 203.234C107.129 203.186 107.349 203.125 107.539 203.051V203.694C107.37 203.762 107.145 203.818 106.865 203.86C106.59 203.908 106.318 203.931 106.048 203.931ZM107.15 201.664C107.14 201.304 107.021 201.027 106.794 200.831C106.572 200.63 106.254 200.53 105.842 200.53C105.44 200.53 105.128 200.633 104.906 200.839C104.684 201.045 104.568 201.32 104.557 201.664H107.15ZM111.714 197.952H112.515V203.812H111.714V197.952ZM114.017 199.261C113.885 199.261 113.774 199.216 113.684 199.126C113.594 199.036 113.549 198.925 113.549 198.793C113.549 198.661 113.594 198.55 113.684 198.46C113.774 198.37 113.885 198.325 114.017 198.325C114.155 198.325 114.268 198.37 114.358 198.46C114.453 198.55 114.501 198.661 114.501 198.793C114.501 198.925 114.453 199.036 114.358 199.126C114.268 199.216 114.155 199.261 114.017 199.261ZM113.613 200.006H114.43V203.812H113.613V200.006ZM115.532 200.006H116.309V200.553C116.489 200.326 116.708 200.16 116.967 200.054C117.231 199.943 117.506 199.887 117.792 199.887C118.299 199.887 118.677 200.022 118.926 200.292C119.174 200.561 119.298 200.923 119.298 201.378V203.812H118.497V201.457C118.497 200.839 118.201 200.53 117.609 200.53C117.356 200.53 117.118 200.59 116.896 200.712C116.679 200.828 116.491 201.008 116.333 201.251V203.812H115.532V200.006ZM120.286 197.952H121.087V203.812H120.286V197.952ZM121.095 201.886L122.848 200.006H123.823L122.063 201.886L124.005 203.812H123.03L121.095 201.886ZM129.203 203.931C128.817 203.931 128.518 203.82 128.307 203.598C128.101 203.376 127.998 203.062 127.998 202.655V200.625H127.419V200.006H127.998V198.864H128.806V200.006H129.742V200.625H128.806V202.599C128.806 202.853 128.854 203.033 128.949 203.138C129.05 203.244 129.229 203.297 129.488 203.297C129.642 203.297 129.795 203.263 129.948 203.194V203.828C129.747 203.897 129.499 203.931 129.203 203.931ZM132.669 203.931C132.241 203.931 131.863 203.852 131.535 203.694C131.213 203.53 130.959 203.297 130.774 202.996C130.594 202.689 130.505 202.33 130.505 201.917C130.505 201.51 130.594 201.153 130.774 200.847C130.954 200.54 131.208 200.305 131.535 200.141C131.863 199.972 132.241 199.887 132.669 199.887C133.098 199.887 133.476 199.972 133.803 200.141C134.131 200.305 134.385 200.54 134.565 200.847C134.75 201.153 134.842 201.51 134.842 201.917C134.842 202.33 134.75 202.689 134.565 202.996C134.385 203.297 134.131 203.53 133.803 203.694C133.476 203.852 133.098 203.931 132.669 203.931ZM132.669 203.297C133.082 203.297 133.409 203.17 133.653 202.916C133.896 202.663 134.017 202.33 134.017 201.917C134.017 201.489 133.896 201.151 133.653 200.902C133.409 200.654 133.082 200.53 132.669 200.53C132.257 200.53 131.929 200.654 131.686 200.902C131.443 201.151 131.321 201.489 131.321 201.917C131.321 202.33 131.443 202.663 131.686 202.916C131.929 203.17 132.257 203.297 132.669 203.297ZM138.647 200.006H139.424V200.688C139.583 200.456 139.805 200.284 140.09 200.173C140.381 200.062 140.717 200.006 141.097 200.006V200.633C140.69 200.633 140.341 200.699 140.051 200.831C139.76 200.963 139.559 201.172 139.448 201.457V203.812H138.647V200.006ZM143.668 203.931C142.964 203.931 142.412 203.757 142.01 203.408C141.614 203.054 141.416 202.557 141.416 201.917C141.416 201.294 141.593 200.799 141.947 200.434C142.306 200.07 142.816 199.887 143.477 199.887C143.916 199.887 144.289 199.972 144.595 200.141C144.902 200.305 145.132 200.535 145.285 200.831C145.444 201.122 145.523 201.455 145.523 201.83V202.227H142.177C142.203 202.586 142.354 202.856 142.629 203.035C142.909 203.21 143.287 203.297 143.763 203.297C144.006 203.297 144.252 203.276 144.5 203.234C144.749 203.186 144.968 203.125 145.158 203.051V203.694C144.989 203.762 144.765 203.818 144.484 203.86C144.209 203.908 143.937 203.931 143.668 203.931ZM144.77 201.664C144.759 201.304 144.64 201.027 144.413 200.831C144.191 200.63 143.874 200.53 143.461 200.53C143.06 200.53 142.748 200.633 142.526 200.839C142.304 201.045 142.187 201.32 142.177 201.664H144.77ZM149.8 203.305C149.626 203.511 149.401 203.667 149.126 203.773C148.851 203.879 148.555 203.931 148.238 203.931C147.852 203.931 147.509 203.847 147.207 203.678C146.906 203.509 146.668 203.271 146.494 202.964C146.325 202.657 146.24 202.306 146.24 201.909C146.24 201.508 146.325 201.156 146.494 200.855C146.668 200.548 146.906 200.31 147.207 200.141C147.514 199.972 147.858 199.887 148.238 199.887C148.904 199.887 149.433 200.115 149.824 200.569V200.006H150.601V205.549H149.8V203.305ZM148.421 203.297C148.743 203.297 149.031 203.21 149.285 203.035C149.539 202.861 149.71 202.628 149.8 202.338V201.481C149.695 201.185 149.518 200.953 149.269 200.783C149.026 200.614 148.743 200.53 148.421 200.53C148.162 200.53 147.926 200.588 147.715 200.704C147.509 200.815 147.345 200.976 147.223 201.188C147.107 201.394 147.049 201.634 147.049 201.909C147.049 202.184 147.107 202.427 147.223 202.639C147.345 202.85 147.509 203.014 147.715 203.131C147.926 203.242 148.162 203.297 148.421 203.297ZM153.148 203.931C152.635 203.931 152.247 203.794 151.982 203.519C151.723 203.244 151.594 202.877 151.594 202.417V200.006H152.395V202.385C152.395 202.993 152.699 203.297 153.307 203.297C153.84 203.297 154.258 203.057 154.559 202.575V200.006H155.36V203.812H154.583V203.273C154.403 203.501 154.189 203.667 153.941 203.773C153.698 203.879 153.433 203.931 153.148 203.931ZM158.481 203.931C157.778 203.931 157.226 203.757 156.824 203.408C156.428 203.054 156.229 202.557 156.229 201.917C156.229 201.294 156.407 200.799 156.761 200.434C157.12 200.07 157.63 199.887 158.291 199.887C158.73 199.887 159.103 199.972 159.409 200.141C159.716 200.305 159.946 200.535 160.099 200.831C160.258 201.122 160.337 201.455 160.337 201.83V202.227H156.991C157.017 202.586 157.168 202.856 157.443 203.035C157.723 203.21 158.101 203.297 158.577 203.297C158.82 203.297 159.066 203.276 159.314 203.234C159.563 203.186 159.782 203.125 159.972 203.051V203.694C159.803 203.762 159.578 203.818 159.298 203.86C159.023 203.908 158.751 203.931 158.481 203.931ZM159.584 201.664C159.573 201.304 159.454 201.027 159.227 200.831C159.005 200.63 158.688 200.53 158.275 200.53C157.874 200.53 157.562 200.633 157.34 200.839C157.118 201.045 157.001 201.32 156.991 201.664H159.584ZM162.616 203.931C162.352 203.931 162.071 203.897 161.775 203.828C161.479 203.765 161.247 203.678 161.078 203.567V202.885C161.284 203.006 161.522 203.107 161.791 203.186C162.061 203.26 162.323 203.297 162.576 203.297C162.862 203.297 163.071 203.263 163.203 203.194C163.335 203.125 163.401 203.014 163.401 202.861C163.401 202.745 163.369 202.652 163.306 202.583C163.248 202.509 163.145 202.443 162.997 202.385C162.854 202.327 162.637 202.258 162.346 202.179C162.034 202.089 161.786 201.999 161.601 201.909C161.421 201.814 161.284 201.695 161.189 201.553C161.099 201.41 161.054 201.225 161.054 200.997C161.054 200.633 161.197 200.358 161.482 200.173C161.773 199.982 162.161 199.887 162.648 199.887C162.901 199.887 163.15 199.911 163.393 199.959C163.636 200.006 163.832 200.072 163.98 200.157V200.823C163.827 200.733 163.636 200.662 163.409 200.609C163.187 200.556 162.96 200.53 162.727 200.53C162.447 200.53 162.233 200.564 162.085 200.633C161.937 200.701 161.863 200.823 161.863 200.997C161.863 201.108 161.894 201.198 161.958 201.267C162.021 201.336 162.122 201.397 162.259 201.449C162.402 201.497 162.627 201.56 162.933 201.64C163.414 201.772 163.747 201.928 163.932 202.108C164.123 202.287 164.218 202.536 164.218 202.853C164.218 203.181 164.083 203.442 163.813 203.638C163.544 203.834 163.145 203.931 162.616 203.931ZM166.443 203.931C166.057 203.931 165.758 203.82 165.547 203.598C165.341 203.376 165.238 203.062 165.238 202.655V200.625H164.659V200.006H165.238V198.864H166.046V200.006H166.982V200.625H166.046V202.599C166.046 202.853 166.094 203.033 166.189 203.138C166.29 203.244 166.469 203.297 166.728 203.297C166.882 203.297 167.035 203.263 167.188 203.194V203.828C166.987 203.897 166.739 203.931 166.443 203.931ZM170.877 200.006H171.654V200.569C172.045 200.115 172.574 199.887 173.24 199.887C173.62 199.887 173.961 199.972 174.263 200.141C174.569 200.31 174.807 200.548 174.976 200.855C175.151 201.156 175.238 201.508 175.238 201.909C175.238 202.306 175.151 202.657 174.976 202.964C174.807 203.271 174.572 203.509 174.271 203.678C173.969 203.847 173.626 203.931 173.24 203.931C172.923 203.931 172.626 203.879 172.352 203.773C172.077 203.667 171.852 203.511 171.678 203.305V205.549H170.877V200.006ZM173.057 203.297C173.316 203.297 173.549 203.242 173.755 203.131C173.967 203.014 174.13 202.85 174.247 202.639C174.368 202.427 174.429 202.184 174.429 201.909C174.429 201.634 174.368 201.394 174.247 201.188C174.13 200.976 173.967 200.815 173.755 200.704C173.549 200.588 173.316 200.53 173.057 200.53C172.735 200.53 172.449 200.614 172.201 200.783C171.958 200.953 171.783 201.185 171.678 201.481V202.338C171.767 202.628 171.939 202.861 172.193 203.035C172.447 203.21 172.735 203.297 173.057 203.297ZM177.274 203.931C176.814 203.931 176.444 203.815 176.164 203.583C175.889 203.345 175.752 203.025 175.752 202.623C175.752 202.2 175.884 201.875 176.148 201.648C176.418 201.415 176.798 201.299 177.29 201.299C177.813 201.299 178.257 201.405 178.622 201.616V201.418C178.622 201.116 178.53 200.894 178.345 200.752C178.165 200.604 177.879 200.53 177.488 200.53C177.256 200.53 177.028 200.553 176.806 200.601C176.589 200.643 176.394 200.704 176.219 200.783V200.133C176.378 200.059 176.584 200.001 176.838 199.959C177.092 199.911 177.337 199.887 177.575 199.887C178.204 199.887 178.67 200.027 178.971 200.308C179.278 200.582 179.431 200.966 179.431 201.457V203.812H178.678V203.384C178.514 203.564 178.318 203.701 178.091 203.797C177.869 203.887 177.597 203.931 177.274 203.931ZM177.472 203.321C177.726 203.321 177.956 203.271 178.162 203.17C178.368 203.07 178.522 202.93 178.622 202.75V202.235C178.278 202.012 177.895 201.901 177.472 201.901C177.166 201.901 176.936 201.962 176.782 202.084C176.634 202.2 176.56 202.38 176.56 202.623C176.56 203.088 176.864 203.321 177.472 203.321ZM180.877 205.383C180.592 205.383 180.354 205.353 180.164 205.295V204.669C180.301 204.722 180.47 204.748 180.671 204.748C180.856 204.748 181.002 204.701 181.107 204.605C181.213 204.516 181.308 204.368 181.393 204.161L181.575 203.717L179.91 200.006H180.735L182.003 202.932L183.185 200.006H184.01L182.297 204.241C182.138 204.637 181.948 204.925 181.726 205.105C181.509 205.29 181.226 205.383 180.877 205.383ZM184.723 200.006H185.484V200.553C185.664 200.331 185.867 200.165 186.094 200.054C186.322 199.943 186.557 199.887 186.8 199.887C187.107 199.887 187.35 199.94 187.53 200.046C187.709 200.146 187.842 200.302 187.926 200.514C188.095 200.308 188.302 200.152 188.545 200.046C188.793 199.94 189.042 199.887 189.29 199.887C189.755 199.887 190.091 200.006 190.297 200.244C190.503 200.477 190.606 200.823 190.606 201.283V203.812H189.829V201.386C189.829 201.074 189.771 200.855 189.655 200.728C189.539 200.596 189.34 200.53 189.06 200.53C188.658 200.53 188.331 200.704 188.077 201.053C188.087 201.132 188.093 201.262 188.093 201.442V203.812H187.316V201.386C187.316 201.074 187.263 200.855 187.157 200.728C187.051 200.596 186.861 200.53 186.586 200.53C186.184 200.53 185.825 200.757 185.508 201.212V203.812H184.723V200.006ZM193.693 203.931C192.989 203.931 192.437 203.757 192.035 203.408C191.639 203.054 191.44 202.557 191.44 201.917C191.44 201.294 191.618 200.799 191.972 200.434C192.331 200.07 192.841 199.887 193.502 199.887C193.941 199.887 194.314 199.972 194.62 200.141C194.927 200.305 195.157 200.535 195.31 200.831C195.469 201.122 195.548 201.455 195.548 201.83V202.227H192.202C192.228 202.586 192.379 202.856 192.654 203.035C192.934 203.21 193.312 203.297 193.788 203.297C194.031 203.297 194.277 203.276 194.525 203.234C194.774 203.186 194.993 203.125 195.183 203.051V203.694C195.014 203.762 194.789 203.818 194.509 203.86C194.234 203.908 193.962 203.931 193.693 203.931ZM194.795 201.664C194.784 201.304 194.665 201.027 194.438 200.831C194.216 200.63 193.899 200.53 193.486 200.53C193.085 200.53 192.773 200.633 192.551 200.839C192.329 201.045 192.212 201.32 192.202 201.664H194.795ZM196.423 200.006H197.201V200.553C197.38 200.326 197.6 200.16 197.859 200.054C198.123 199.943 198.398 199.887 198.683 199.887C199.191 199.887 199.569 200.022 199.817 200.292C200.066 200.561 200.19 200.923 200.19 201.378V203.812H199.389V201.457C199.389 200.839 199.093 200.53 198.501 200.53C198.247 200.53 198.009 200.59 197.787 200.712C197.571 200.828 197.383 201.008 197.224 201.251V203.812H196.423V200.006ZM202.645 203.931C202.259 203.931 201.961 203.82 201.749 203.598C201.543 203.376 201.44 203.062 201.44 202.655V200.625H200.861V200.006H201.44V198.864H202.249V200.006H203.184V200.625H202.249V202.599C202.249 202.853 202.296 203.033 202.391 203.138C202.492 203.244 202.672 203.297 202.931 203.297C203.084 203.297 203.237 203.263 203.391 203.194V203.828C203.19 203.897 202.941 203.931 202.645 203.931Z" fill="#C4C7C9"/>
<rect x="-0.165201" y="0.834799" width="263.33" height="228.227" rx="4.13003" stroke="url(#paint0_linear_340_18678)" stroke-width="0.330402"/>
<rect x="-0.165201" y="0.834799" width="263.33" height="228.227" rx="4.13003" stroke="url(#paint1_radial_340_18678)" stroke-width="0.330402"/>
<defs>
<linearGradient id="paint0_linear_340_18678" x1="17.3948" y1="66.5788" x2="74.0068" y2="172.924" gradientUnits="userSpaceOnUse">
<stop stop-color="#4B4B4B"/>
<stop offset="1" stop-color="#523E35" stop-opacity="0"/>
</linearGradient>
<radialGradient id="paint1_radial_340_18678" cx="0" cy="0" r="1" gradientTransform="translate(318.508 298.095) rotate(-152.201) scale(214.422 98.0962)">
<stop stop-color="white"/>
<stop offset="1" stop-color="white" stop-opacity="0"/>
</radialGradient>
<clipPath id="clip0_340_18678">
<rect width="10.5729" height="10.5729" fill="white" transform="translate(56.0879 195.526)"/>
</clipPath>
</defs>
</svg>
