<svg width="291" height="239" viewBox="0 0 291 239" fill="none" xmlns="http://www.w3.org/2000/svg">
<rect x="-0.182161" y="0.71823" width="290.364" height="237.349" rx="4.55402" fill="#27292B"/>
<path d="M18.2752 23.2199H22.105C23.1192 23.2199 23.9018 23.4691 24.4527 23.9675C25.0035 24.4659 25.2789 25.1872 25.2789 26.1316C25.2789 26.8048 25.1128 27.3775 24.7805 27.8497C24.4483 28.3219 23.9761 28.6585 23.3641 28.8596L25.2265 32.3877H23.5214L21.7508 29.0301H19.9409V32.3877H18.2752V23.2199ZM21.8033 27.653C22.3454 27.653 22.7826 27.5262 23.1149 27.2726C23.4471 27.0191 23.6133 26.6387 23.6133 26.1316C23.6133 25.1085 23.0099 24.597 21.8033 24.597H19.9409V27.653H21.8033ZM29.6038 32.5844C28.4321 32.5844 27.5053 32.2915 26.8233 31.7057C26.1413 31.1199 25.8003 30.3023 25.8003 29.2531C25.8003 28.2213 26.1019 27.4038 26.7053 26.8005C27.3086 26.1971 28.1698 25.8955 29.289 25.8955C30.0235 25.8955 30.6487 26.0354 31.1646 26.3152C31.6892 26.595 32.0826 26.9797 32.345 27.4694C32.6073 27.9503 32.7384 28.5011 32.7384 29.1219V29.8826H27.3741C27.4878 30.8182 28.301 31.286 29.8136 31.286C30.2159 31.286 30.6268 31.251 31.0465 31.1811C31.4662 31.1111 31.8334 31.0149 32.1482 30.8925V32.1647C31.8509 32.2871 31.4662 32.3877 30.994 32.4664C30.5306 32.5451 30.0672 32.5844 29.6038 32.5844ZM31.1777 28.7547C31.1602 28.2563 30.9809 27.8716 30.6399 27.6005C30.3077 27.3295 29.8486 27.1939 29.2628 27.1939C28.6857 27.1939 28.231 27.3338 27.8988 27.6136C27.5665 27.8934 27.3916 28.2738 27.3741 28.7547H31.1777ZM39.5503 31.7713C39.253 32.0423 38.8902 32.2478 38.4617 32.3877C38.042 32.5189 37.5917 32.5844 37.1108 32.5844C36.4725 32.5844 35.8998 32.4445 35.3927 32.1647C34.8943 31.8762 34.5008 31.4783 34.2123 30.9712C33.9325 30.4641 33.7926 29.8826 33.7926 29.2268C33.7926 28.5623 33.9325 27.9809 34.2123 27.4825C34.5008 26.9753 34.8943 26.5862 35.3927 26.3152C35.8998 26.0354 36.4725 25.8955 37.1108 25.8955C37.6267 25.8955 38.0858 25.9742 38.488 26.1316C38.8902 26.289 39.2618 26.5294 39.6028 26.8529V26.0922H41.2029V35.26H39.5503V31.7713ZM37.5174 31.286C37.9896 31.286 38.4093 31.1592 38.7765 30.9056C39.1525 30.6433 39.4104 30.2979 39.5503 29.8695V28.5973C39.4017 28.1689 39.1437 27.8278 38.7765 27.5743C38.4093 27.3207 37.9896 27.1939 37.5174 27.1939C36.9228 27.1939 36.4332 27.3819 36.0485 27.7579C35.6637 28.1339 35.4714 28.6235 35.4714 29.2268C35.4714 29.8302 35.6637 30.3242 36.0485 30.7089C36.4332 31.0936 36.9228 31.286 37.5174 31.286ZM45.243 32.5844C44.3949 32.5844 43.7609 32.3571 43.3412 31.9024C42.9215 31.439 42.7117 30.8269 42.7117 30.0662V26.0922H44.3643V29.9089C44.3643 30.8269 44.7927 31.286 45.6496 31.286C46.0256 31.286 46.3797 31.1985 46.7119 31.0237C47.0442 30.8401 47.324 30.569 47.5513 30.2105V26.0922H49.2039V32.3877H47.6038V31.5352C47.3065 31.8937 46.9524 32.1604 46.5414 32.3352C46.1305 32.5014 45.6977 32.5844 45.243 32.5844ZM54.3236 32.5844C53.1519 32.5844 52.2251 32.2915 51.5431 31.7057C50.8611 31.1199 50.5201 30.3023 50.5201 29.2531C50.5201 28.2213 50.8217 27.4038 51.425 26.8005C52.0284 26.1971 52.8896 25.8955 54.0088 25.8955C54.7433 25.8955 55.3685 26.0354 55.8843 26.3152C56.409 26.595 56.8024 26.9797 57.0647 27.4694C57.3271 27.9503 57.4582 28.5011 57.4582 29.1219V29.8826H52.0939C52.2076 30.8182 53.0208 31.286 54.5334 31.286C54.9356 31.286 55.3466 31.251 55.7663 31.1811C56.186 31.1111 56.5532 31.0149 56.868 30.8925V32.1647C56.5707 32.2871 56.186 32.3877 55.7138 32.4664C55.2504 32.5451 54.787 32.5844 54.3236 32.5844ZM55.8975 28.7547C55.88 28.2563 55.7007 27.8716 55.3597 27.6005C55.0275 27.3295 54.5684 27.1939 53.9826 27.1939C53.4055 27.1939 52.9508 27.3338 52.6186 27.6136C52.2863 27.8934 52.1114 28.2738 52.0939 28.7547H55.8975ZM61.2273 32.5844C60.7726 32.5844 60.2873 32.532 59.7715 32.427C59.2556 32.3221 58.8534 32.1778 58.5648 31.9942V30.5909C58.9058 30.8007 59.3124 30.9712 59.7846 31.1024C60.2567 31.2248 60.7027 31.286 61.1224 31.286C61.5421 31.286 61.8481 31.251 62.0405 31.1811C62.2328 31.1024 62.329 30.9625 62.329 30.7614C62.329 30.604 62.2765 30.4772 62.1716 30.381C62.0754 30.2761 61.9137 30.1843 61.6863 30.1056C61.4678 30.0181 61.1267 29.9132 60.6633 29.7908C60.1387 29.6422 59.7234 29.4892 59.4173 29.3318C59.1201 29.1744 58.8927 28.9776 58.7353 28.7416C58.5867 28.4967 58.5124 28.182 58.5124 27.7972C58.5124 27.1677 58.7616 26.6955 59.26 26.3808C59.7584 26.0572 60.4316 25.8955 61.2798 25.8955C61.7169 25.8955 62.1498 25.9392 62.5782 26.0266C63.0154 26.1053 63.3564 26.219 63.6012 26.3676V27.7185C63.3389 27.5612 63.0198 27.4344 62.6438 27.3382C62.2678 27.242 61.8831 27.1939 61.4896 27.1939C61.0612 27.1939 60.7377 27.2376 60.5191 27.3251C60.3005 27.4038 60.1912 27.5612 60.1912 27.7972C60.1912 27.9546 60.248 28.0814 60.3617 28.1776C60.4841 28.265 60.6415 28.3437 60.8338 28.4137C61.0262 28.4749 61.3759 28.5711 61.8831 28.7022C62.4252 28.8509 62.8493 29.0126 63.1553 29.1875C63.4613 29.3624 63.6799 29.5722 63.8111 29.817C63.9422 30.0619 64.0078 30.3679 64.0078 30.7351C64.0078 31.2947 63.7673 31.745 63.2864 32.086C62.8143 32.4183 62.1279 32.5844 61.2273 32.5844ZM67.6589 32.5844C66.9681 32.5844 66.4435 32.3921 66.085 32.0073C65.7265 31.6226 65.5472 31.0805 65.5472 30.381V27.3513H64.6029V26.0922H65.5472V24.2036H67.1998V26.0922H68.7081V27.3513H67.1998V30.1712C67.1998 30.5734 67.2741 30.8619 67.4228 31.0368C67.5714 31.2029 67.8425 31.286 68.2359 31.286C68.507 31.286 68.7737 31.2248 69.036 31.1024V32.3615C68.66 32.5101 68.201 32.5844 67.6589 32.5844ZM78.3618 32.5844C77.6273 32.5844 76.9803 32.4533 76.4207 32.191C75.8698 31.9199 75.4414 31.5352 75.1353 31.0368C74.8293 30.5297 74.6763 29.9307 74.6763 29.24C74.6763 28.5667 74.8249 27.9809 75.1222 27.4825C75.4283 26.9753 75.8611 26.5862 76.4207 26.3152C76.9803 26.0354 77.6273 25.8955 78.3618 25.8955C79.0962 25.8955 79.7389 26.0354 80.2898 26.3152C80.8494 26.5862 81.2822 26.9753 81.5882 27.4825C81.8942 27.9809 82.0473 28.5667 82.0473 29.24C82.0473 29.9307 81.8942 30.5297 81.5882 31.0368C81.2822 31.5352 80.8494 31.9199 80.2898 32.191C79.7389 32.4533 79.0962 32.5844 78.3618 32.5844ZM78.3618 31.286C78.9651 31.286 79.446 31.098 79.8045 30.722C80.163 30.3373 80.3422 29.8433 80.3422 29.24C80.3422 28.6017 80.163 28.1033 79.8045 27.7448C79.4547 27.3775 78.9738 27.1939 78.3618 27.1939C77.7497 27.1939 77.2644 27.3775 76.9059 27.7448C76.5562 28.1033 76.3813 28.6017 76.3813 29.24C76.3813 29.8433 76.5606 30.3373 76.9191 30.722C77.2776 31.098 77.7585 31.286 78.3618 31.286ZM83.3536 26.0922H84.9537V26.9447C85.251 26.5862 85.6051 26.3239 86.016 26.1578C86.427 25.9829 86.8598 25.8955 87.3145 25.8955C88.1626 25.8955 88.7966 26.1272 89.2162 26.5906C89.6359 27.0453 89.8458 27.653 89.8458 28.4137V32.3877H88.1932V28.5711C88.1932 27.653 87.7648 27.1939 86.9079 27.1939C86.5319 27.1939 86.1778 27.2857 85.8455 27.4694C85.5133 27.6442 85.2335 27.9109 85.0061 28.2694V32.3877H83.3536V26.0922ZM94.8999 32.5844C93.7282 32.5844 92.8014 32.2915 92.1194 31.7057C91.4374 31.1199 91.0964 30.3023 91.0964 29.2531C91.0964 28.2213 91.398 27.4038 92.0014 26.8005C92.6047 26.1971 93.4659 25.8955 94.5851 25.8955C95.3196 25.8955 95.9448 26.0354 96.4607 26.3152C96.9853 26.595 97.3787 26.9797 97.6411 27.4694C97.9034 27.9503 98.0345 28.5011 98.0345 29.1219V29.8826H92.6703C92.7839 30.8182 93.5971 31.286 95.1098 31.286C95.512 31.286 95.9229 31.251 96.3426 31.1811C96.7623 31.1111 97.1296 31.0149 97.4443 30.8925V32.1647C97.147 32.2871 96.7623 32.3877 96.2902 32.4664C95.8267 32.5451 95.3633 32.5844 94.8999 32.5844ZM96.4738 28.7547C96.4563 28.2563 96.277 27.8716 95.936 27.6005C95.6038 27.3295 95.1447 27.1939 94.5589 27.1939C93.9818 27.1939 93.5271 27.3338 93.1949 27.6136C92.8626 27.8934 92.6877 28.2738 92.6703 28.7547H96.4738ZM106.609 32.5844C105.918 32.5844 105.393 32.3921 105.035 32.0073C104.676 31.6226 104.497 31.0805 104.497 30.381V27.3513H103.553V26.0922H104.497V24.2036H106.149V26.0922H107.658V27.3513H106.149V30.1712C106.149 30.5734 106.224 30.8619 106.372 31.0368C106.521 31.2029 106.792 31.286 107.186 31.286C107.457 31.286 107.723 31.2248 107.986 31.1024V32.3615C107.61 32.5101 107.151 32.5844 106.609 32.5844ZM110.093 24.9905C109.831 24.9905 109.608 24.9031 109.424 24.7282C109.25 24.5533 109.162 24.3347 109.162 24.0724C109.162 23.8101 109.25 23.5915 109.424 23.4166C109.608 23.233 109.831 23.1412 110.093 23.1412C110.356 23.1412 110.579 23.233 110.762 23.4166C110.946 23.5915 111.038 23.8101 111.038 24.0724C111.038 24.3347 110.946 24.5533 110.762 24.7282C110.579 24.9031 110.356 24.9905 110.093 24.9905ZM109.254 26.0922H110.933V32.3877H109.254V26.0922ZM112.607 26.0922H114.155V26.9185C114.435 26.5862 114.763 26.3327 115.139 26.1578C115.515 25.9829 115.895 25.8955 116.28 25.8955C116.769 25.8955 117.163 25.9785 117.46 26.1447C117.758 26.3021 117.98 26.5425 118.129 26.866C118.409 26.5513 118.746 26.3108 119.139 26.1447C119.541 25.9785 119.939 25.8955 120.333 25.8955C121.119 25.8955 121.683 26.0922 122.024 26.4857C122.365 26.8792 122.536 27.4562 122.536 28.2169V32.3877H120.949V28.4399C120.949 27.994 120.857 27.6748 120.674 27.4825C120.499 27.2901 120.215 27.1939 119.821 27.1939C119.541 27.1939 119.283 27.2508 119.047 27.3644C118.82 27.4694 118.61 27.653 118.418 27.9153C118.435 28.1951 118.444 28.4224 118.444 28.5973V32.3877H116.844V28.4137C116.844 27.959 116.769 27.6442 116.621 27.4694C116.472 27.2857 116.201 27.1939 115.808 27.1939C115.213 27.1939 114.68 27.5306 114.208 28.2038V32.3877H112.607V26.0922ZM127.586 32.5844C126.415 32.5844 125.488 32.2915 124.806 31.7057C124.124 31.1199 123.783 30.3023 123.783 29.2531C123.783 28.2213 124.085 27.4038 124.688 26.8005C125.291 26.1971 126.152 25.8955 127.272 25.8955C128.006 25.8955 128.631 26.0354 129.147 26.3152C129.672 26.595 130.065 26.9797 130.328 27.4694C130.59 27.9503 130.721 28.5011 130.721 29.1219V29.8826H125.357C125.47 30.8182 126.284 31.286 127.796 31.286C128.198 31.286 128.609 31.251 129.029 31.1811C129.449 31.1111 129.816 31.0149 130.131 30.8925V32.1647C129.834 32.2871 129.449 32.3877 128.977 32.4664C128.513 32.5451 128.05 32.5844 127.586 32.5844ZM129.16 28.7547C129.143 28.2563 128.964 27.8716 128.623 27.6005C128.29 27.3295 127.831 27.1939 127.245 27.1939C126.668 27.1939 126.214 27.3338 125.881 27.6136C125.549 27.8934 125.374 28.2738 125.357 28.7547H129.16ZM136.764 26.0922H138.364V26.8529C138.705 26.5294 139.076 26.289 139.479 26.1316C139.881 25.9742 140.34 25.8955 140.856 25.8955C141.494 25.8955 142.062 26.0354 142.561 26.3152C143.068 26.5862 143.461 26.9753 143.741 27.4825C144.03 27.9809 144.174 28.5623 144.174 29.2268C144.174 29.8826 144.03 30.4641 143.741 30.9712C143.461 31.4783 143.068 31.8762 142.561 32.1647C142.062 32.4445 141.494 32.5844 140.856 32.5844C140.375 32.5844 139.92 32.5189 139.492 32.3877C139.072 32.2478 138.714 32.0423 138.416 31.7713V35.26H136.764V26.0922ZM140.449 31.286C141.044 31.286 141.533 31.0936 141.918 30.7089C142.303 30.3242 142.495 29.8302 142.495 29.2268C142.495 28.6235 142.303 28.1339 141.918 27.7579C141.533 27.3819 141.044 27.1939 140.449 27.1939C139.977 27.1939 139.557 27.3207 139.19 27.5743C138.823 27.8278 138.565 28.1689 138.416 28.5973V29.8695C138.556 30.2979 138.81 30.6433 139.177 30.9056C139.553 31.1592 139.977 31.286 140.449 31.286ZM147.461 32.5844C146.709 32.5844 146.093 32.3877 145.612 31.9942C145.131 31.592 144.891 31.0543 144.891 30.381C144.891 29.6815 145.118 29.135 145.573 28.7416C146.027 28.3481 146.666 28.1514 147.488 28.1514C148.283 28.1514 148.97 28.3131 149.547 28.6366V28.4661C149.547 28.0202 149.407 27.6967 149.127 27.4956C148.856 27.2945 148.414 27.1939 147.802 27.1939C147.418 27.1939 147.037 27.2333 146.661 27.312C146.285 27.3819 145.953 27.4825 145.665 27.6136V26.3152C145.927 26.1928 146.277 26.0922 146.714 26.0135C147.16 25.9348 147.588 25.8955 147.999 25.8955C149.092 25.8955 149.901 26.1316 150.426 26.6037C150.95 27.0671 151.212 27.7142 151.212 28.5448V32.3877H149.652V31.7713C149.381 32.0336 149.07 32.2347 148.72 32.3746C148.379 32.5145 147.96 32.5844 147.461 32.5844ZM147.868 31.3778C148.235 31.3778 148.567 31.3078 148.865 31.1679C149.162 31.0193 149.389 30.8182 149.547 30.5646V29.8695C149.066 29.5285 148.515 29.358 147.894 29.358C147.011 29.358 146.57 29.699 146.57 30.381C146.57 30.7133 146.679 30.9625 146.897 31.1286C147.125 31.2947 147.448 31.3778 147.868 31.3778ZM153.642 34.9846C153.414 34.9846 153.174 34.9671 152.92 34.9321C152.676 34.9059 152.483 34.8665 152.343 34.8141V33.555C152.562 33.6424 152.833 33.6861 153.157 33.6861C153.489 33.6861 153.738 33.6118 153.904 33.4632C154.07 33.3145 154.215 33.0784 154.337 32.7549L154.586 32.0992L151.871 26.0922H153.537L155.478 30.6827L157.301 26.0922H158.954L156.199 32.9517C155.92 33.6424 155.579 34.1539 155.176 34.4862C154.783 34.8184 154.271 34.9846 153.642 34.9846ZM159.998 26.0922H161.545V26.9185C161.825 26.5862 162.153 26.3327 162.529 26.1578C162.905 25.9829 163.285 25.8955 163.67 25.8955C164.16 25.8955 164.553 25.9785 164.851 26.1447C165.148 26.3021 165.371 26.5425 165.519 26.866C165.799 26.5513 166.136 26.3108 166.529 26.1447C166.932 25.9785 167.329 25.8955 167.723 25.8955C168.51 25.8955 169.074 26.0922 169.415 26.4857C169.756 26.8792 169.926 27.4562 169.926 28.2169V32.3877H168.339V28.4399C168.339 27.994 168.247 27.6748 168.064 27.4825C167.889 27.2901 167.605 27.1939 167.211 27.1939C166.932 27.1939 166.674 27.2508 166.437 27.3644C166.21 27.4694 166 27.653 165.808 27.9153C165.825 28.1951 165.834 28.4224 165.834 28.5973V32.3877H164.234V28.4137C164.234 27.959 164.16 27.6442 164.011 27.4694C163.862 27.2857 163.591 27.1939 163.198 27.1939C162.603 27.1939 162.07 27.5306 161.598 28.2038V32.3877H159.998V26.0922ZM174.977 32.5844C173.805 32.5844 172.878 32.2915 172.196 31.7057C171.514 31.1199 171.173 30.3023 171.173 29.2531C171.173 28.2213 171.475 27.4038 172.078 26.8005C172.681 26.1971 173.543 25.8955 174.662 25.8955C175.396 25.8955 176.022 26.0354 176.537 26.3152C177.062 26.595 177.455 26.9797 177.718 27.4694C177.98 27.9503 178.111 28.5011 178.111 29.1219V29.8826H172.747C172.861 30.8182 173.674 31.286 175.187 31.286C175.589 31.286 176 31.251 176.419 31.1811C176.839 31.1111 177.206 31.0149 177.521 30.8925V32.1647C177.224 32.2871 176.839 32.3877 176.367 32.4664C175.903 32.5451 175.44 32.5844 174.977 32.5844ZM176.551 28.7547C176.533 28.2563 176.354 27.8716 176.013 27.6005C175.681 27.3295 175.221 27.1939 174.636 27.1939C174.059 27.1939 173.604 27.3338 173.272 27.6136C172.939 27.8934 172.764 28.2738 172.747 28.7547H176.551ZM179.428 26.0922H181.028V26.9447C181.325 26.5862 181.679 26.3239 182.09 26.1578C182.501 25.9829 182.934 25.8955 183.389 25.8955C184.237 25.8955 184.871 26.1272 185.29 26.5906C185.71 27.0453 185.92 27.653 185.92 28.4137V32.3877H184.267V28.5711C184.267 27.653 183.839 27.1939 182.982 27.1939C182.606 27.1939 182.252 27.2857 181.92 27.4694C181.587 27.6442 181.308 27.9109 181.08 28.2694V32.3877H179.428V26.0922ZM189.964 32.5844C189.273 32.5844 188.749 32.3921 188.39 32.0073C188.032 31.6226 187.853 31.0805 187.853 30.381V27.3513H186.908V26.0922H187.853V24.2036H189.505V26.0922H191.013V27.3513H189.505V30.1712C189.505 30.5734 189.579 30.8619 189.728 31.0368C189.877 31.2029 190.148 31.286 190.541 31.286C190.812 31.286 191.079 31.2248 191.341 31.1024V32.3615C190.965 32.5101 190.506 32.5844 189.964 32.5844Z" fill="white"/>
<path d="M264.627 28.3751L267.803 31.5515C267.889 31.6369 267.889 31.7308 267.803 31.8333L267.214 32.4225C267.112 32.5079 267.018 32.5079 266.932 32.4225L266.394 31.8589L263.756 29.2461L260.58 32.4225C260.494 32.5079 260.4 32.5079 260.298 32.4225L259.709 31.8333C259.623 31.7308 259.623 31.6369 259.709 31.5515L262.885 28.3751L259.709 25.1987C259.623 25.1133 259.623 25.0194 259.709 24.9169L260.298 24.3277C260.4 24.2423 260.494 24.2423 260.58 24.3277L263.756 27.5041L266.932 24.3277C267.018 24.2423 267.112 24.2423 267.214 24.3277L267.803 24.9169C267.889 25.0194 267.889 25.1133 267.803 25.1987L267.24 25.7366L264.627 28.3751Z" fill="white"/>
<path d="M18.0566 50.02H18.9572V56.1318H18.0566V50.02ZM20.0974 51.9349H20.9543V52.5382C21.1525 52.2875 21.3944 52.1039 21.68 51.9873C21.9715 51.8649 22.2746 51.8037 22.5894 51.8037C23.149 51.8037 23.5657 51.9523 23.8397 52.2496C24.1137 52.5469 24.2507 52.9462 24.2507 53.4475V56.1318H23.3675V53.535C23.3675 52.8529 23.0411 52.5119 22.3882 52.5119C22.1084 52.5119 21.8461 52.579 21.6013 52.713C21.3623 52.8413 21.1554 53.0395 20.9805 53.3076V56.1318H20.0974V51.9349ZM24.7726 51.9349H25.7081L26.941 54.9514L28.1739 51.9349H29.1094L27.3257 56.1318H26.5563L24.7726 51.9349ZM30.5866 51.1129C30.4408 51.1129 30.3184 51.0634 30.2193 50.9643C30.1202 50.8652 30.0707 50.7428 30.0707 50.5971C30.0707 50.4513 30.1202 50.3289 30.2193 50.2298C30.3184 50.1307 30.4408 50.0812 30.5866 50.0812C30.7381 50.0812 30.8635 50.1307 30.9626 50.2298C31.0675 50.3289 31.1199 50.4513 31.1199 50.5971C31.1199 50.7428 31.0675 50.8652 30.9626 50.9643C30.8635 51.0634 30.7381 51.1129 30.5866 51.1129ZM30.1406 51.9349H31.0413V56.1318H30.1406V51.9349ZM33.8742 56.263C33.4487 56.263 33.1193 56.1406 32.8862 55.8958C32.6588 55.6509 32.5452 55.3041 32.5452 54.8553V52.6169H31.9069V51.9349H32.5452V50.6758H33.437V51.9349H34.4688V52.6169H33.437V54.794C33.437 55.0738 33.4895 55.272 33.5944 55.3886C33.7052 55.5052 33.9034 55.5635 34.189 55.5635C34.358 55.5635 34.5271 55.5256 34.6961 55.4498V56.1493C34.4746 56.2251 34.2006 56.263 33.8742 56.263ZM37.8353 56.263C37.06 56.263 36.4509 56.0706 36.0079 55.6859C35.5707 55.2954 35.3521 54.7474 35.3521 54.0421C35.3521 53.3542 35.5474 52.8092 35.9379 52.407C36.3343 52.0048 36.8968 51.8037 37.6255 51.8037C38.1093 51.8037 38.5202 51.897 38.8583 52.0835C39.1964 52.2642 39.45 52.5178 39.619 52.8442C39.7939 53.1648 39.8814 53.532 39.8814 53.9459V54.3831H36.1915C36.2207 54.7795 36.3868 55.0768 36.6899 55.275C36.9988 55.4673 37.4156 55.5635 37.9402 55.5635C38.2084 55.5635 38.4794 55.5402 38.7534 55.4935C39.0274 55.4411 39.2693 55.374 39.4791 55.2924V56.0007C39.2926 56.0765 39.0449 56.1377 38.7359 56.1843C38.4328 56.2368 38.1326 56.263 37.8353 56.263ZM39.0507 53.7623C39.039 53.3659 38.9079 53.0599 38.6572 52.8442C38.4124 52.6227 38.0627 52.5119 37.608 52.5119C37.165 52.5119 36.8211 52.6256 36.5762 52.8529C36.3314 53.0803 36.2032 53.3834 36.1915 53.7623H39.0507ZM45.7004 56.263C45.2749 56.263 44.9456 56.1406 44.7124 55.8958C44.4851 55.6509 44.3714 55.3041 44.3714 54.8553V52.6169H43.7331V51.9349H44.3714V50.6758H45.2632V51.9349H46.295V52.6169H45.2632V54.794C45.2632 55.0738 45.3157 55.272 45.4206 55.3886C45.5314 55.5052 45.7296 55.5635 46.0152 55.5635C46.1843 55.5635 46.3533 55.5256 46.5223 55.4498V56.1493C46.3008 56.2251 46.0269 56.263 45.7004 56.263ZM49.5227 56.263C49.0505 56.263 48.6337 56.1756 48.2723 56.0007C47.9167 55.82 47.6369 55.5635 47.4329 55.2312C47.2347 54.8931 47.1356 54.4968 47.1356 54.0421C47.1356 53.5932 47.2347 53.1998 47.4329 52.8617C47.6311 52.5236 47.9109 52.2642 48.2723 52.0835C48.6337 51.897 49.0505 51.8037 49.5227 51.8037C49.9948 51.8037 50.4116 51.897 50.773 52.0835C51.1344 52.2642 51.4142 52.5236 51.6124 52.8617C51.8164 53.1998 51.9184 53.5932 51.9184 54.0421C51.9184 54.4968 51.8164 54.8931 51.6124 55.2312C51.4142 55.5635 51.1344 55.82 50.773 56.0007C50.4116 56.1756 49.9948 56.263 49.5227 56.263ZM49.5227 55.5635C49.9773 55.5635 50.3387 55.4236 50.6069 55.1438C50.875 54.864 51.0091 54.4968 51.0091 54.0421C51.0091 53.5699 50.875 53.1969 50.6069 52.9229C50.3387 52.6489 49.9773 52.5119 49.5227 52.5119C49.068 52.5119 48.7066 52.6489 48.4384 52.9229C48.1703 53.1969 48.0362 53.5699 48.0362 54.0421C48.0362 54.4968 48.1703 54.864 48.4384 55.1438C48.7066 55.4236 49.068 55.5635 49.5227 55.5635ZM56.114 51.9349H56.9709V52.6868C57.1458 52.4303 57.3906 52.2409 57.7054 52.1185C58.026 51.9961 58.3961 51.9349 58.8158 51.9349V52.6256C58.367 52.6256 57.9822 52.6985 57.6616 52.8442C57.341 52.9899 57.1195 53.2202 56.9971 53.535V56.1318H56.114V51.9349ZM61.65 56.263C60.8747 56.263 60.2656 56.0706 59.8226 55.6859C59.3854 55.2954 59.1668 54.7474 59.1668 54.0421C59.1668 53.3542 59.3621 52.8092 59.7526 52.407C60.149 52.0048 60.7115 51.8037 61.4402 51.8037C61.924 51.8037 62.3349 51.897 62.673 52.0835C63.0111 52.2642 63.2647 52.5178 63.4337 52.8442C63.6086 53.1648 63.696 53.532 63.696 53.9459V54.3831H60.0062C60.0353 54.7795 60.2015 55.0768 60.5046 55.275C60.8135 55.4673 61.2303 55.5635 61.7549 55.5635C62.0231 55.5635 62.2941 55.5402 62.5681 55.4935C62.8421 55.4411 63.084 55.374 63.2938 55.2924V56.0007C63.1073 56.0765 62.8596 56.1377 62.5506 56.1843C62.2475 56.2368 61.9473 56.263 61.65 56.263ZM62.8654 53.7623C62.8537 53.3659 62.7226 53.0599 62.4719 52.8442C62.2271 52.6227 61.8773 52.5119 61.4227 52.5119C60.9797 52.5119 60.6357 52.6256 60.3909 52.8529C60.1461 53.0803 60.0178 53.3834 60.0062 53.7623H62.8654ZM68.4124 55.5722C68.22 55.7996 67.9723 55.9715 67.6692 56.0881C67.366 56.2047 67.0396 56.263 66.6899 56.263C66.2643 56.263 65.8854 56.1697 65.5532 55.9832C65.2209 55.7967 64.9586 55.5343 64.7662 55.1963C64.5797 54.8582 64.4865 54.4705 64.4865 54.0333C64.4865 53.5903 64.5797 53.2027 64.7662 52.8704C64.9586 52.5323 65.2209 52.27 65.5532 52.0835C65.8913 51.897 66.2702 51.8037 66.6899 51.8037C67.4243 51.8037 68.0073 52.0543 68.4386 52.5557V51.9349H69.2955V58.0467H68.4124V55.5722ZM66.891 55.5635C67.2466 55.5635 67.5642 55.4673 67.844 55.275C68.1238 55.0826 68.3133 54.8261 68.4124 54.5055V53.5612C68.2958 53.2348 68.1005 52.9783 67.8266 52.7917C67.5584 52.6052 67.2466 52.5119 66.891 52.5119C66.6053 52.5119 66.3459 52.5761 66.1128 52.7043C65.8854 52.8267 65.7047 53.0045 65.5707 53.2377C65.4424 53.465 65.3783 53.7302 65.3783 54.0333C65.3783 54.3365 65.4424 54.6046 65.5707 54.8378C65.7047 55.0709 65.8854 55.2516 66.1128 55.3799C66.3459 55.5023 66.6053 55.5635 66.891 55.5635ZM72.1036 56.263C71.5382 56.263 71.1097 56.1114 70.8183 55.8083C70.5326 55.5052 70.3898 55.1001 70.3898 54.5929V51.9349H71.2729V54.558C71.2729 55.2283 71.6081 55.5635 72.2785 55.5635C72.8672 55.5635 73.3277 55.2983 73.66 54.7678V51.9349H74.5431V56.1318H73.6862V55.5373C73.488 55.7879 73.2519 55.9715 72.978 56.0881C72.7098 56.2047 72.4184 56.263 72.1036 56.263ZM77.9847 56.263C77.2094 56.263 76.6003 56.0706 76.1573 55.6859C75.7201 55.2954 75.5015 54.7474 75.5015 54.0421C75.5015 53.3542 75.6968 52.8092 76.0873 52.407C76.4837 52.0048 77.0462 51.8037 77.7749 51.8037C78.2587 51.8037 78.6696 51.897 79.0077 52.0835C79.3458 52.2642 79.5994 52.5178 79.7684 52.8442C79.9433 53.1648 80.0307 53.532 80.0307 53.9459V54.3831H76.3409C76.37 54.7795 76.5362 55.0768 76.8393 55.275C77.1482 55.4673 77.565 55.5635 78.0896 55.5635C78.3578 55.5635 78.6288 55.5402 78.9028 55.4935C79.1768 55.4411 79.4187 55.374 79.6285 55.2924V56.0007C79.442 56.0765 79.1942 56.1377 78.8853 56.1843C78.5822 56.2368 78.282 56.263 77.9847 56.263ZM79.2001 53.7623C79.1884 53.3659 79.0573 53.0599 78.8066 52.8442C78.5618 52.6227 78.212 52.5119 77.7574 52.5119C77.3143 52.5119 76.9704 52.6256 76.7256 52.8529C76.4808 53.0803 76.3525 53.3834 76.3409 53.7623H79.2001ZM82.5437 56.263C82.2522 56.263 81.9433 56.2251 81.6168 56.1493C81.2904 56.0794 81.0339 55.9832 80.8474 55.8608V55.1088C81.0747 55.2429 81.337 55.3536 81.6343 55.4411C81.9316 55.5227 82.2201 55.5635 82.4999 55.5635C82.8147 55.5635 83.045 55.5256 83.1907 55.4498C83.3364 55.374 83.4093 55.2516 83.4093 55.0826C83.4093 54.9543 83.3743 54.8523 83.3044 54.7766C83.2402 54.695 83.1266 54.6221 82.9634 54.558C82.806 54.4938 82.567 54.4181 82.2464 54.3306C81.9025 54.2315 81.6285 54.1324 81.4245 54.0333C81.2263 53.9284 81.0747 53.7973 80.9698 53.6399C80.8707 53.4825 80.8211 53.2785 80.8211 53.0278C80.8211 52.6256 80.9785 52.3225 81.2933 52.1185C81.6139 51.9086 82.0424 51.8037 82.5786 51.8037C82.8584 51.8037 83.1324 51.8299 83.4005 51.8824C83.6687 51.9349 83.8844 52.0077 84.0476 52.101V52.8355C83.8785 52.7364 83.6687 52.6577 83.418 52.5994C83.1732 52.5411 82.9226 52.5119 82.6661 52.5119C82.3571 52.5119 82.121 52.5498 81.9578 52.6256C81.7946 52.7014 81.713 52.8355 81.713 53.0278C81.713 53.1502 81.748 53.2493 81.8179 53.3251C81.8879 53.4009 81.9986 53.4679 82.1502 53.5262C82.3076 53.5787 82.5553 53.6486 82.8934 53.7361C83.4239 53.8818 83.7911 54.0537 83.9951 54.2519C84.205 54.4501 84.3099 54.7241 84.3099 55.0738C84.3099 55.4353 84.1612 55.7238 83.864 55.9395C83.5667 56.1552 83.1266 56.263 82.5437 56.263ZM86.7635 56.263C86.3379 56.263 86.0086 56.1406 85.7754 55.8958C85.5481 55.6509 85.4344 55.3041 85.4344 54.8553V52.6169H84.7961V51.9349H85.4344V50.6758H86.3263V51.9349H87.358V52.6169H86.3263V54.794C86.3263 55.0738 86.3787 55.272 86.4837 55.3886C86.5944 55.5052 86.7926 55.5635 87.0782 55.5635C87.2473 55.5635 87.4163 55.5256 87.5854 55.4498V56.1493C87.3639 56.2251 87.0899 56.263 86.7635 56.263ZM91.6524 51.9349H92.5093V52.5557C92.9407 52.0543 93.5236 51.8037 94.2581 51.8037C94.6778 51.8037 95.0537 51.897 95.386 52.0835C95.7241 52.27 95.9864 52.5323 96.1729 52.8704C96.3653 53.2027 96.4615 53.5903 96.4615 54.0333C96.4615 54.4705 96.3653 54.8582 96.1729 55.1963C95.9864 55.5343 95.727 55.7967 95.3947 55.9832C95.0625 56.1697 94.6836 56.263 94.2581 56.263C93.9083 56.263 93.5819 56.2047 93.2788 56.0881C92.9756 55.9715 92.7279 55.7996 92.5355 55.5722V58.0467H91.6524V51.9349ZM94.057 55.5635C94.3426 55.5635 94.5991 55.5023 94.8264 55.3799C95.0596 55.2516 95.2403 55.0709 95.3685 54.8378C95.5026 54.6046 95.5696 54.3365 95.5696 54.0333C95.5696 53.7302 95.5026 53.465 95.3685 53.2377C95.2403 53.0045 95.0596 52.8267 94.8264 52.7043C94.5991 52.5761 94.3426 52.5119 94.057 52.5119C93.7014 52.5119 93.3866 52.6052 93.1126 52.7917C92.8445 52.9783 92.6521 53.2348 92.5355 53.5612V54.5055C92.6346 54.8261 92.8241 55.0826 93.1039 55.275C93.3837 55.4673 93.7014 55.5635 94.057 55.5635ZM98.7066 56.263C98.1994 56.263 97.7914 56.1348 97.4824 55.8783C97.1793 55.616 97.0278 55.2633 97.0278 54.8203C97.0278 54.3539 97.1735 53.9955 97.465 53.7448C97.7622 53.4883 98.1819 53.3601 98.724 53.3601C99.3011 53.3601 99.7908 53.4767 100.193 53.7098V53.4912C100.193 53.159 100.091 52.9141 99.887 52.7568C99.6888 52.5935 99.374 52.5119 98.9426 52.5119C98.6862 52.5119 98.4355 52.5382 98.1907 52.5906C97.9517 52.6373 97.736 52.7043 97.5436 52.7917V52.0748C97.7185 51.9931 97.9459 51.929 98.2257 51.8824C98.5055 51.8299 98.7765 51.8037 99.0388 51.8037C99.7325 51.8037 100.245 51.9582 100.578 52.2671C100.916 52.5702 101.085 52.9928 101.085 53.535V56.1318H100.254V55.6597C100.073 55.8579 99.8578 56.0094 99.6072 56.1143C99.3623 56.2134 99.0621 56.263 98.7066 56.263ZM98.9252 55.5897C99.205 55.5897 99.4585 55.5343 99.6859 55.4236C99.9132 55.3128 100.082 55.1584 100.193 54.9602V54.3918C99.8141 54.147 99.3915 54.0246 98.9252 54.0246C98.5871 54.0246 98.3335 54.0916 98.1645 54.2257C98.0012 54.3539 97.9196 54.5521 97.9196 54.8203C97.9196 55.3332 98.2548 55.5897 98.9252 55.5897ZM102.68 57.8631C102.365 57.8631 102.103 57.831 101.893 57.7669V57.0762C102.044 57.1344 102.231 57.1636 102.452 57.1636C102.657 57.1636 102.817 57.1111 102.933 57.0062C103.05 56.9071 103.155 56.7439 103.248 56.5166L103.449 56.0269L101.613 51.9349H102.522L103.921 55.1613L105.224 51.9349H106.134L104.245 56.604C104.07 57.0412 103.86 57.3589 103.615 57.5571C103.376 57.7611 103.065 57.8631 102.68 57.8631ZM106.92 51.9349H107.759V52.5382C107.957 52.2933 108.182 52.1097 108.432 51.9873C108.683 51.8649 108.942 51.8037 109.211 51.8037C109.549 51.8037 109.817 51.862 110.015 51.9786C110.213 52.0893 110.359 52.2613 110.452 52.4944C110.639 52.2671 110.866 52.0952 111.134 51.9786C111.408 51.862 111.682 51.8037 111.956 51.8037C112.469 51.8037 112.839 51.9349 113.067 52.1972C113.294 52.4536 113.408 52.8355 113.408 53.3426V56.1318H112.551V53.4563C112.551 53.1123 112.487 52.8704 112.358 52.7305C112.23 52.5848 112.012 52.5119 111.703 52.5119C111.26 52.5119 110.898 52.7043 110.618 53.089C110.63 53.1765 110.636 53.3193 110.636 53.5175V56.1318H109.779V53.4563C109.779 53.1123 109.721 52.8704 109.604 52.7305C109.488 52.5848 109.278 52.5119 108.975 52.5119C108.532 52.5119 108.135 52.7626 107.785 53.2639V56.1318H106.92V51.9349ZM116.811 56.263C116.035 56.263 115.426 56.0706 114.983 55.6859C114.546 55.2954 114.327 54.7474 114.327 54.0421C114.327 53.3542 114.523 52.8092 114.913 52.407C115.31 52.0048 115.872 51.8037 116.601 51.8037C117.085 51.8037 117.495 51.897 117.834 52.0835C118.172 52.2642 118.425 52.5178 118.594 52.8442C118.769 53.1648 118.857 53.532 118.857 53.9459V54.3831H115.167C115.196 54.7795 115.362 55.0768 115.665 55.275C115.974 55.4673 116.391 55.5635 116.915 55.5635C117.184 55.5635 117.455 55.5402 117.729 55.4935C118.003 55.4411 118.245 55.374 118.454 55.2924V56.0007C118.268 56.0765 118.02 56.1377 117.711 56.1843C117.408 56.2368 117.108 56.263 116.811 56.263ZM118.026 53.7623C118.014 53.3659 117.883 53.0599 117.632 52.8442C117.388 52.6227 117.038 52.5119 116.583 52.5119C116.14 52.5119 115.796 52.6256 115.551 52.8529C115.307 53.0803 115.178 53.3834 115.167 53.7623H118.026ZM119.822 51.9349H120.679V52.5382C120.877 52.2875 121.119 52.1039 121.405 51.9873C121.696 51.8649 121.999 51.8037 122.314 51.8037C122.873 51.8037 123.29 51.9523 123.564 52.2496C123.838 52.5469 123.975 52.9462 123.975 53.4475V56.1318H123.092V53.535C123.092 52.8529 122.766 52.5119 122.113 52.5119C121.833 52.5119 121.571 52.579 121.326 52.713C121.087 52.8413 120.88 53.0395 120.705 53.3076V56.1318H119.822V51.9349ZM126.682 56.263C126.257 56.263 125.927 56.1406 125.694 55.8958C125.467 55.6509 125.353 55.3041 125.353 54.8553V52.6169H124.715V51.9349H125.353V50.6758H126.245V51.9349H127.277V52.6169H126.245V54.794C126.245 55.0738 126.298 55.272 126.402 55.3886C126.513 55.5052 126.711 55.5635 126.997 55.5635C127.166 55.5635 127.335 55.5256 127.504 55.4498V56.1493C127.283 56.2251 127.009 56.263 126.682 56.263ZM134.177 56.263C133.798 56.263 133.469 56.2047 133.189 56.0881C132.915 55.9657 132.661 55.7763 132.428 55.5198V56.1318H131.571V49.6702H132.454V52.4944C132.647 52.2671 132.894 52.0952 133.198 51.9786C133.501 51.862 133.827 51.8037 134.177 51.8037C134.597 51.8037 134.973 51.8999 135.305 52.0922C135.643 52.2788 135.905 52.5411 136.092 52.8792C136.284 53.2173 136.38 53.6049 136.38 54.0421C136.38 54.4851 136.284 54.8757 136.092 55.2137C135.905 55.546 135.643 55.8054 135.305 55.9919C134.973 56.1726 134.597 56.263 134.177 56.263ZM133.976 55.5635C134.261 55.5635 134.518 55.5023 134.745 55.3799C134.978 55.2516 135.159 55.0709 135.287 54.8378C135.421 54.6046 135.488 54.3394 135.488 54.0421C135.488 53.7448 135.421 53.4796 135.287 53.2464C135.159 53.0132 134.978 52.8325 134.745 52.7043C134.518 52.5761 134.261 52.5119 133.976 52.5119C133.62 52.5119 133.303 52.6081 133.023 52.8005C132.743 52.9928 132.553 53.2493 132.454 53.5699V54.5142C132.565 54.8349 132.755 55.0913 133.023 55.2837C133.297 55.4702 133.614 55.5635 133.976 55.5635ZM137.663 57.8631C137.348 57.8631 137.086 57.831 136.876 57.7669V57.0762C137.028 57.1344 137.214 57.1636 137.436 57.1636C137.64 57.1636 137.8 57.1111 137.917 57.0062C138.033 56.9071 138.138 56.7439 138.232 56.5166L138.433 56.0269L136.597 51.9349H137.506L138.905 55.1613L140.208 51.9349H141.117L139.228 56.604C139.053 57.0412 138.844 57.3589 138.599 57.5571C138.36 57.7611 138.048 57.8631 137.663 57.8631ZM146.687 56.263C146.396 56.263 146.087 56.2251 145.76 56.1493C145.434 56.0794 145.177 55.9832 144.991 55.8608V55.1088C145.218 55.2429 145.48 55.3536 145.778 55.4411C146.075 55.5227 146.364 55.5635 146.643 55.5635C146.958 55.5635 147.188 55.5256 147.334 55.4498C147.48 55.374 147.553 55.2516 147.553 55.0826C147.553 54.9543 147.518 54.8523 147.448 54.7766C147.384 54.695 147.27 54.6221 147.107 54.558C146.949 54.4938 146.71 54.4181 146.39 54.3306C146.046 54.2315 145.772 54.1324 145.568 54.0333C145.37 53.9284 145.218 53.7973 145.113 53.6399C145.014 53.4825 144.965 53.2785 144.965 53.0278C144.965 52.6256 145.122 52.3225 145.437 52.1185C145.757 51.9086 146.186 51.8037 146.722 51.8037C147.002 51.8037 147.276 51.8299 147.544 51.8824C147.812 51.9349 148.028 52.0077 148.191 52.101V52.8355C148.022 52.7364 147.812 52.6577 147.561 52.5994C147.317 52.5411 147.066 52.5119 146.809 52.5119C146.5 52.5119 146.264 52.5498 146.101 52.6256C145.938 52.7014 145.856 52.8355 145.856 53.0278C145.856 53.1502 145.891 53.2493 145.961 53.3251C146.031 53.4009 146.142 53.4679 146.294 53.5262C146.451 53.5787 146.699 53.6486 147.037 53.7361C147.567 53.8818 147.934 54.0537 148.138 54.2519C148.348 54.4501 148.453 54.7241 148.453 55.0738C148.453 55.4353 148.305 55.7238 148.007 55.9395C147.71 56.1552 147.27 56.263 146.687 56.263ZM149.417 49.6702H150.3V52.5119C150.703 52.0398 151.239 51.8037 151.909 51.8037C152.469 51.8037 152.886 51.9523 153.16 52.2496C153.434 52.5469 153.571 52.9462 153.571 53.4475V56.1318H152.687V53.535C152.687 52.8529 152.361 52.5119 151.708 52.5119C151.428 52.5119 151.166 52.579 150.921 52.713C150.682 52.8413 150.475 53.0395 150.3 53.3076V56.1318H149.417V49.6702ZM156.036 56.263C155.529 56.263 155.121 56.1348 154.812 55.8783C154.509 55.616 154.357 55.2633 154.357 54.8203C154.357 54.3539 154.503 53.9955 154.794 53.7448C155.092 53.4883 155.511 53.3601 156.053 53.3601C156.631 53.3601 157.12 53.4767 157.522 53.7098V53.4912C157.522 53.159 157.42 52.9141 157.216 52.7568C157.018 52.5935 156.703 52.5119 156.272 52.5119C156.016 52.5119 155.765 52.5382 155.52 52.5906C155.281 52.6373 155.065 52.7043 154.873 52.7917V52.0748C155.048 51.9931 155.275 51.929 155.555 51.8824C155.835 51.8299 156.106 51.8037 156.368 51.8037C157.062 51.8037 157.575 51.9582 157.907 52.2671C158.245 52.5702 158.414 52.9928 158.414 53.535V56.1318H157.584V55.6597C157.403 55.8579 157.187 56.0094 156.937 56.1143C156.692 56.2134 156.392 56.263 156.036 56.263ZM156.255 55.5897C156.534 55.5897 156.788 55.5343 157.015 55.4236C157.243 55.3128 157.412 55.1584 157.522 54.9602V54.3918C157.144 54.147 156.721 54.0246 156.255 54.0246C155.916 54.0246 155.663 54.0916 155.494 54.2257C155.331 54.3539 155.249 54.5521 155.249 54.8203C155.249 55.3332 155.584 55.5897 156.255 55.5897ZM159.51 51.9349H160.367V52.6868C160.542 52.4303 160.787 52.2409 161.102 52.1185C161.422 51.9961 161.792 51.9349 162.212 51.9349V52.6256C161.763 52.6256 161.378 52.6985 161.058 52.8442C160.737 52.9899 160.516 53.2202 160.393 53.535V56.1318H159.51V51.9349ZM163.518 51.1129C163.373 51.1129 163.25 51.0634 163.151 50.9643C163.052 50.8652 163.003 50.7428 163.003 50.5971C163.003 50.4513 163.052 50.3289 163.151 50.2298C163.25 50.1307 163.373 50.0812 163.518 50.0812C163.67 50.0812 163.795 50.1307 163.894 50.2298C163.999 50.3289 164.052 50.4513 164.052 50.5971C164.052 50.7428 163.999 50.8652 163.894 50.9643C163.795 51.0634 163.67 51.1129 163.518 51.1129ZM163.072 51.9349H163.973V56.1318H163.072V51.9349ZM165.188 51.9349H166.045V52.5382C166.244 52.2875 166.485 52.1039 166.771 51.9873C167.063 51.8649 167.366 51.8037 167.68 51.8037C168.24 51.8037 168.657 51.9523 168.931 52.2496C169.205 52.5469 169.342 52.9462 169.342 53.4475V56.1318H168.459V53.535C168.459 52.8529 168.132 52.5119 167.479 52.5119C167.2 52.5119 166.937 52.579 166.692 52.713C166.453 52.8413 166.246 53.0395 166.072 53.3076V56.1318H165.188V51.9349ZM172.626 58.1429C172.34 58.1429 172.061 58.1196 171.787 58.0729C171.518 58.0263 171.291 57.9593 171.105 57.8718V57.1461C171.542 57.3443 172.049 57.4434 172.626 57.4434C173.168 57.4434 173.562 57.3239 173.806 57.0849C174.057 56.8517 174.182 56.4962 174.182 56.0182V55.5722C173.798 56.0327 173.232 56.263 172.486 56.263C172.061 56.263 171.679 56.1697 171.341 55.9832C171.003 55.7967 170.737 55.5343 170.545 55.1963C170.353 54.8582 170.256 54.4705 170.256 54.0333C170.256 53.5903 170.35 53.2027 170.536 52.8704C170.729 52.5323 170.991 52.27 171.323 52.0835C171.661 51.897 172.04 51.8037 172.46 51.8037C172.85 51.8037 173.18 51.862 173.448 51.9786C173.722 52.0893 173.975 52.2759 174.209 52.5382V51.9349H175.065V55.922C175.065 56.639 174.864 57.1869 174.462 57.5658C174.066 57.9505 173.454 58.1429 172.626 58.1429ZM172.661 55.5635C173.022 55.5635 173.34 55.4673 173.614 55.275C173.894 55.0826 174.083 54.8261 174.182 54.5055V53.5612C174.072 53.2348 173.879 52.9783 173.605 52.7917C173.337 52.6052 173.022 52.5119 172.661 52.5119C172.375 52.5119 172.116 52.5761 171.883 52.7043C171.655 52.8267 171.475 53.0045 171.341 53.2377C171.212 53.4708 171.148 53.7361 171.148 54.0333C171.148 54.3365 171.212 54.6046 171.341 54.8378C171.475 55.0651 171.655 55.2429 171.883 55.3711C172.116 55.4994 172.375 55.5635 172.661 55.5635ZM179.44 49.6702H180.323V56.1318H179.44V49.6702ZM181.979 51.1129C181.834 51.1129 181.711 51.0634 181.612 50.9643C181.513 50.8652 181.463 50.7428 181.463 50.5971C181.463 50.4513 181.513 50.3289 181.612 50.2298C181.711 50.1307 181.834 50.0812 181.979 50.0812C182.131 50.0812 182.256 50.1307 182.355 50.2298C182.46 50.3289 182.513 50.4513 182.513 50.5971C182.513 50.7428 182.46 50.8652 182.355 50.9643C182.256 51.0634 182.131 51.1129 181.979 51.1129ZM181.533 51.9349H182.434V56.1318H181.533V51.9349ZM183.649 51.9349H184.506V52.5382C184.704 52.2875 184.946 52.1039 185.232 51.9873C185.523 51.8649 185.827 51.8037 186.141 51.8037C186.701 51.8037 187.118 51.9523 187.392 52.2496C187.666 52.5469 187.803 52.9462 187.803 53.4475V56.1318H186.919V53.535C186.919 52.8529 186.593 52.5119 185.94 52.5119C185.66 52.5119 185.398 52.579 185.153 52.713C184.914 52.8413 184.707 53.0395 184.532 53.3076V56.1318H183.649V51.9349ZM188.892 49.6702H189.775V56.1318H188.892V49.6702ZM189.784 54.0071L191.716 51.9349H192.792L190.851 54.0071L192.993 56.1318H191.917L189.784 54.0071Z" fill="#A6A9AB"/>
<path d="M20.5384 91.745L17.9473 87.3177H19.0592L21.0484 90.7555L23.0682 87.3177H24.1699L21.5483 91.745V94.4482H20.5384V91.745ZM26.4005 94.6013C25.8497 94.6013 25.3634 94.4992 24.9418 94.2952C24.5269 94.0844 24.2005 93.7852 23.9625 93.3975C23.7313 93.0031 23.6157 92.5407 23.6157 92.0102C23.6157 91.4866 23.7313 91.0275 23.9625 90.6331C24.1937 90.2386 24.5201 89.936 24.9418 89.7252C25.3634 89.5076 25.8497 89.3987 26.4005 89.3987C26.9514 89.3987 27.4376 89.5076 27.8593 89.7252C28.2809 89.936 28.6074 90.2386 28.8386 90.6331C29.0766 91.0275 29.1956 91.4866 29.1956 92.0102C29.1956 92.5407 29.0766 93.0031 28.8386 93.3975C28.6074 93.7852 28.2809 94.0844 27.8593 94.2952C27.4376 94.4992 26.9514 94.6013 26.4005 94.6013ZM26.4005 93.7852C26.931 93.7852 27.3526 93.622 27.6655 93.2955C27.9783 92.9691 28.1347 92.5407 28.1347 92.0102C28.1347 91.4593 27.9783 91.0241 27.6655 90.7045C27.3526 90.3848 26.931 90.225 26.4005 90.225C25.8701 90.225 25.4484 90.3848 25.1356 90.7045C24.8228 91.0241 24.6664 91.4593 24.6664 92.0102C24.6664 92.5407 24.8228 92.9691 25.1356 93.2955C25.4484 93.622 25.8701 93.7852 26.4005 93.7852ZM32.2632 94.6013C31.6036 94.6013 31.1037 94.4244 30.7637 94.0708C30.4305 93.7172 30.2638 93.2445 30.2638 92.6529V89.5518H31.2941V92.6121C31.2941 93.3941 31.6852 93.7852 32.4673 93.7852C33.1541 93.7852 33.6914 93.4757 34.079 92.8569V89.5518H35.1093V94.4482H34.1096V93.7546C33.8784 94.047 33.603 94.2612 33.2833 94.3972C32.9705 94.5333 32.6305 94.6013 32.2632 94.6013ZM36.4315 89.5518H37.4312V90.429C37.6352 90.1298 37.9208 89.9088 38.2881 89.766C38.6621 89.6232 39.0939 89.5518 39.5836 89.5518V90.3576C39.0599 90.3576 38.6111 90.4426 38.237 90.6127C37.863 90.7827 37.6046 91.0513 37.4618 91.4185V94.4482H36.4315V89.5518ZM44.2815 89.5518H45.2812V90.429C45.4852 90.1298 45.7708 89.9088 46.138 89.766C46.5121 89.6232 46.9439 89.5518 47.4336 89.5518V90.3576C46.9099 90.3576 46.4611 90.4426 46.087 90.6127C45.713 90.7827 45.4546 91.0513 45.3118 91.4185V94.4482H44.2815V89.5518ZM50.7401 94.6013C49.8356 94.6013 49.125 94.3768 48.6081 93.928C48.0981 93.4723 47.843 92.8331 47.843 92.0102C47.843 91.2077 48.0709 90.5719 48.5265 90.1026C48.989 89.6334 49.6452 89.3987 50.4953 89.3987C51.0598 89.3987 51.5392 89.5076 51.9337 89.7252C52.3281 89.936 52.6239 90.2318 52.8211 90.6127C53.0252 90.9867 53.1272 91.4151 53.1272 91.898V92.408H48.8223C48.8563 92.8705 49.0502 93.2173 49.4038 93.4485C49.7642 93.673 50.2505 93.7852 50.8625 93.7852C51.1754 93.7852 51.4916 93.758 51.8112 93.7036C52.1309 93.6424 52.4131 93.5642 52.6579 93.4689V94.2952C52.4403 94.3836 52.1513 94.455 51.7908 94.5094C51.4372 94.5707 51.087 94.6013 50.7401 94.6013ZM52.1581 91.6838C52.1445 91.2213 51.9915 90.8643 51.699 90.6127C51.4134 90.3542 51.0054 90.225 50.4749 90.225C49.9581 90.225 49.5568 90.3576 49.2712 90.6229C48.9856 90.8881 48.8359 91.2417 48.8223 91.6838H52.1581ZM58.6296 93.7954C58.4052 94.0606 58.1161 94.2612 57.7625 94.3972C57.4089 94.5333 57.028 94.6013 56.62 94.6013C56.1235 94.6013 55.6815 94.4924 55.2938 94.2748C54.9062 94.0572 54.6002 93.7512 54.3758 93.3567C54.1581 92.9623 54.0493 92.5101 54.0493 92C54.0493 91.4831 54.1581 91.0309 54.3758 90.6433C54.6002 90.2488 54.9062 89.9428 55.2938 89.7252C55.6883 89.5076 56.1303 89.3987 56.62 89.3987C57.4769 89.3987 58.1569 89.6912 58.6602 90.276V89.5518H59.6599V96.6823H58.6296V93.7954ZM56.8546 93.7852C57.2694 93.7852 57.6401 93.673 57.9665 93.4485C58.2929 93.2241 58.514 92.9249 58.6296 92.5509V91.4491C58.4936 91.0683 58.2657 90.7691 57.9461 90.5515C57.6333 90.3338 57.2694 90.225 56.8546 90.225C56.5214 90.225 56.2187 90.2998 55.9467 90.4494C55.6815 90.5923 55.4707 90.7997 55.3142 91.0717C55.1646 91.3369 55.0898 91.6464 55.0898 92C55.0898 92.3536 55.1646 92.6665 55.3142 92.9385C55.4707 93.2105 55.6815 93.4213 55.9467 93.571C56.2187 93.7138 56.5214 93.7852 56.8546 93.7852ZM62.936 94.6013C62.2763 94.6013 61.7765 94.4244 61.4364 94.0708C61.1032 93.7172 60.9366 93.2445 60.9366 92.6529V89.5518H61.9669V92.6121C61.9669 93.3941 62.3579 93.7852 63.14 93.7852C63.8269 93.7852 64.3641 93.4757 64.7518 92.8569V89.5518H65.7821V94.4482H64.7824V93.7546C64.5512 94.047 64.2757 94.2612 63.9561 94.3972C63.6433 94.5333 63.3032 94.6013 62.936 94.6013ZM69.7973 94.6013C68.8928 94.6013 68.1821 94.3768 67.6653 93.928C67.1552 93.4723 66.9002 92.8331 66.9002 92.0102C66.9002 91.2077 67.128 90.5719 67.5837 90.1026C68.0461 89.6334 68.7024 89.3987 69.5525 89.3987C70.1169 89.3987 70.5964 89.5076 70.9908 89.7252C71.3852 89.936 71.6811 90.2318 71.8783 90.6127C72.0823 90.9867 72.1843 91.4151 72.1843 91.898V92.408H67.8795C67.9135 92.8705 68.1073 93.2173 68.461 93.4485C68.8214 93.673 69.3076 93.7852 69.9197 93.7852C70.2325 93.7852 70.5488 93.758 70.8684 93.7036C71.188 93.6424 71.4703 93.5642 71.7151 93.4689V94.2952C71.4975 94.3836 71.2084 94.455 70.848 94.5094C70.4944 94.5707 70.1441 94.6013 69.7973 94.6013ZM71.2152 91.6838C71.2016 91.2213 71.0486 90.8643 70.7562 90.6127C70.4706 90.3542 70.0625 90.225 69.5321 90.225C69.0152 90.225 68.614 90.3576 68.3283 90.6229C68.0427 90.8881 67.8931 91.2417 67.8795 91.6838H71.2152ZM75.1161 94.6013C74.776 94.6013 74.4156 94.5571 74.0348 94.4686C73.6539 94.387 73.3547 94.2748 73.1371 94.132V93.2547C73.4023 93.4111 73.7083 93.5404 74.0552 93.6424C74.402 93.7376 74.7386 93.7852 75.0651 93.7852C75.4323 93.7852 75.7009 93.741 75.8709 93.6526C76.041 93.5642 76.126 93.4213 76.126 93.2241C76.126 93.0745 76.0852 92.9555 76.0036 92.8671C75.9288 92.7719 75.7961 92.6869 75.6057 92.6121C75.4221 92.5373 75.1433 92.4488 74.7692 92.3468C74.368 92.2312 74.0484 92.1156 73.8103 92C73.5791 91.8776 73.4023 91.7246 73.2799 91.541C73.1643 91.3573 73.1065 91.1193 73.1065 90.8269C73.1065 90.3576 73.2901 90.004 73.6573 89.766C74.0314 89.5212 74.5312 89.3987 75.1569 89.3987C75.4833 89.3987 75.8029 89.4293 76.1158 89.4906C76.4286 89.5518 76.6802 89.6368 76.8706 89.7456V90.6025C76.6734 90.4869 76.4286 90.395 76.1362 90.327C75.8505 90.259 75.5581 90.225 75.2589 90.225C74.8985 90.225 74.623 90.2692 74.4326 90.3576C74.2422 90.446 74.147 90.6025 74.147 90.8269C74.147 90.9697 74.1878 91.0853 74.2694 91.1737C74.351 91.2621 74.4802 91.3403 74.657 91.4083C74.8406 91.4695 75.1297 91.5512 75.5241 91.6532C76.143 91.8232 76.5714 92.0238 76.8094 92.255C77.0543 92.4862 77.1767 92.8059 77.1767 93.2139C77.1767 93.6356 77.0033 93.9722 76.6564 94.2238C76.3096 94.4754 75.7961 94.6013 75.1161 94.6013ZM80.0392 94.6013C79.5427 94.6013 79.1585 94.4584 78.8865 94.1728C78.6212 93.8872 78.4886 93.4825 78.4886 92.9589V90.3474H77.7439V89.5518H78.4886V88.0828H79.5291V89.5518H80.7328V90.3474H79.5291V92.8875C79.5291 93.2139 79.5903 93.4451 79.7127 93.5812C79.842 93.7172 80.0732 93.7852 80.4064 93.7852C80.6036 93.7852 80.8008 93.741 80.9981 93.6526V94.4686C80.7396 94.5571 80.42 94.6013 80.0392 94.6013ZM86.3448 88.5929C86.1748 88.5929 86.032 88.5351 85.9164 88.4194C85.8008 88.3038 85.743 88.161 85.743 87.991C85.743 87.821 85.8008 87.6782 85.9164 87.5626C86.032 87.447 86.1748 87.3891 86.3448 87.3891C86.5217 87.3891 86.6679 87.447 86.7835 87.5626C86.9059 87.6782 86.9671 87.821 86.9671 87.991C86.9671 88.161 86.9059 88.3038 86.7835 88.4194C86.6679 88.5351 86.5217 88.5929 86.3448 88.5929ZM85.8246 89.5518H86.8753V94.4482H85.8246V89.5518ZM90.0988 94.6013C89.7588 94.6013 89.3983 94.5571 89.0175 94.4686C88.6367 94.387 88.3374 94.2748 88.1198 94.132V93.2547C88.385 93.4111 88.6911 93.5404 89.0379 93.6424C89.3847 93.7376 89.7214 93.7852 90.0478 93.7852C90.415 93.7852 90.6837 93.741 90.8537 93.6526C91.0237 93.5642 91.1087 93.4213 91.1087 93.2241C91.1087 93.0745 91.0679 92.9555 90.9863 92.8671C90.9115 92.7719 90.7789 92.6869 90.5884 92.6121C90.4048 92.5373 90.126 92.4488 89.752 92.3468C89.3507 92.2312 89.0311 92.1156 88.7931 92C88.5618 91.8776 88.385 91.7246 88.2626 91.541C88.147 91.3573 88.0892 91.1193 88.0892 90.8269C88.0892 90.3576 88.2728 90.004 88.6401 89.766C89.0141 89.5212 89.5139 89.3987 90.1396 89.3987C90.466 89.3987 90.7857 89.4293 91.0985 89.4906C91.4113 89.5518 91.663 89.6368 91.8534 89.7456V90.6025C91.6562 90.4869 91.4113 90.395 91.1189 90.327C90.8333 90.259 90.5408 90.225 90.2416 90.225C89.8812 90.225 89.6058 90.2692 89.4153 90.3576C89.2249 90.446 89.1297 90.6025 89.1297 90.8269C89.1297 90.9697 89.1705 91.0853 89.2521 91.1737C89.3337 91.2621 89.4629 91.3403 89.6398 91.4083C89.8234 91.4695 90.1124 91.5512 90.5068 91.6532C91.1257 91.8232 91.5541 92.0238 91.7922 92.255C92.037 92.4862 92.1594 92.8059 92.1594 93.2139C92.1594 93.6356 91.986 93.9722 91.6392 94.2238C91.2923 94.4754 90.7789 94.6013 90.0988 94.6013ZM93.6412 90.6637C93.4848 90.6637 93.3522 90.6093 93.2433 90.5005C93.1345 90.3916 93.0801 90.259 93.0801 90.1026C93.0801 89.9462 93.1345 89.8136 93.2433 89.7048C93.3522 89.5892 93.4848 89.5314 93.6412 89.5314C93.7976 89.5314 93.9302 89.5892 94.039 89.7048C94.1478 89.8136 94.2022 89.9462 94.2022 90.1026C94.2022 90.2522 94.1478 90.3848 94.039 90.5005C93.9302 90.6093 93.7976 90.6637 93.6412 90.6637ZM93.6412 94.2442C93.4848 94.2442 93.3522 94.1898 93.2433 94.081C93.1345 93.9722 93.0801 93.8396 93.0801 93.6832C93.0801 93.5268 93.1345 93.3941 93.2433 93.2853C93.3522 93.1697 93.4848 93.1119 93.6412 93.1119C93.7976 93.1119 93.9302 93.1697 94.039 93.2853C94.1478 93.3941 94.2022 93.5268 94.2022 93.6832C94.2022 93.8328 94.1478 93.9654 94.039 94.081C93.9302 94.1898 93.7976 94.2442 93.6412 94.2442Z" fill="white"/>
<rect x="17.4883" y="110.106" width="255.025" height="34.7437" rx="4.37186" fill="#333638"/>
<path d="M40.0866 136.587C45.1168 136.587 49.1946 132.509 49.1946 127.479C49.1946 122.449 45.1168 118.371 40.0866 118.371C35.0563 118.371 30.9785 122.449 30.9785 127.479C30.9785 132.509 35.0563 136.587 40.0866 136.587Z" fill="#627EEA"/>
<path d="M40.3711 120.646V125.696L44.6388 127.603L40.3711 120.646Z" fill="white" fill-opacity="0.602"/>
<path d="M40.3692 120.646L36.1016 127.603L40.3692 125.696V120.646Z" fill="white"/>
<path d="M40.3711 130.875V134.306L44.6413 128.397L40.3711 130.875Z" fill="white" fill-opacity="0.602"/>
<path d="M40.3692 134.306V130.875L36.1016 128.397L40.3692 134.306Z" fill="white"/>
<path d="M40.3711 130.081L44.6388 127.604L40.3711 125.696V130.081Z" fill="white" fill-opacity="0.2"/>
<path d="M36.0996 127.604L40.3673 130.081V125.696L36.0996 127.604Z" fill="white" fill-opacity="0.602"/>
<path d="M61.3457 133.741C60.6346 133.741 59.9526 133.683 59.2997 133.566C58.6585 133.461 58.0989 133.298 57.6209 133.076V131.607C58.7051 132.097 59.871 132.342 61.1184 132.342C62.191 132.342 62.9837 132.149 63.4967 131.765C64.0213 131.368 64.2836 130.809 64.2836 130.086C64.2836 129.34 64.0155 128.809 63.4792 128.495C62.9429 128.168 62.1268 128.005 61.031 128.005H59.597V126.571H60.996C61.8704 126.571 62.5757 126.396 63.112 126.046C63.6483 125.685 63.9164 125.16 63.9164 124.472C63.9164 123.796 63.6949 123.283 63.2519 122.934C62.8089 122.584 62.1677 122.409 61.3283 122.409C60.6754 122.409 60.0866 122.485 59.562 122.636C59.0374 122.788 58.4953 123.039 57.9357 123.388V121.919C58.9616 121.301 60.1624 120.992 61.5381 120.992C62.9021 120.992 63.9397 121.296 64.6509 121.902C65.362 122.508 65.7176 123.347 65.7176 124.42C65.7176 125.073 65.5427 125.644 65.193 126.134C64.8432 126.623 64.3186 127.002 63.6191 127.27C64.4119 127.457 65.0181 127.795 65.4378 128.285C65.8692 128.774 66.0848 129.392 66.0848 130.138C66.0848 131.246 65.7059 132.126 64.9482 132.779C64.1904 133.42 62.9896 133.741 61.3457 133.741ZM74.4847 121.255H82.5464V122.759H76.2684V126.623H80.955V128.11H76.2684V131.992H82.5464V133.479H74.4847V121.255ZM87.485 122.759H83.6902V121.255H93.0809V122.759H89.2862V133.479H87.485V122.759ZM94.6533 121.255H96.437V126.501H102.82V121.255H104.604V133.479H102.82V128.005H96.437V133.479H94.6533V121.255Z" fill="white"/>
<path d="M254.296 124.953C254.118 124.775 253.83 124.775 253.652 124.953C253.474 125.131 253.474 125.419 253.652 125.597L254.296 124.953ZM255.453 127.397C255.631 127.574 255.919 127.574 256.097 127.396C256.275 127.218 256.274 126.93 256.097 126.752L255.453 127.397ZM255.132 123.689L255.454 124.011L255.454 124.011L255.132 123.689ZM250.263 128.558L250.585 128.88L250.585 128.88L250.263 128.558ZM249.77 129.478L249.324 129.388L249.324 129.388L249.77 129.478ZM249.321 131.729L248.874 131.64C248.844 131.789 248.891 131.943 248.999 132.051C249.106 132.158 249.261 132.205 249.41 132.175L249.321 131.729ZM251.572 131.278L251.482 130.832H251.482L251.572 131.278ZM252.492 130.786L252.814 131.108H252.814L252.492 130.786ZM257.36 125.917L257.038 125.595V125.595L257.36 125.917ZM257.702 125.406L257.281 125.232L257.702 125.406ZM257.702 124.2L258.122 124.026L257.702 124.2ZM257.36 123.689L257.038 124.011L257.038 124.011L257.36 123.689ZM256.849 123.348L256.675 123.769L256.675 123.769L256.849 123.348ZM255.643 123.348L255.469 122.927L255.469 122.927L255.643 123.348ZM253.652 125.597L255.453 127.397L256.097 126.752L254.296 124.953L253.652 125.597ZM254.81 123.367L249.941 128.236L250.585 128.88L255.454 124.011L254.81 123.367ZM249.942 128.236C249.626 128.55 249.411 128.951 249.324 129.388L250.217 129.567C250.269 129.307 250.397 129.068 250.585 128.88L249.942 128.236ZM249.324 129.388L248.874 131.64L249.767 131.818L250.217 129.567L249.324 129.388ZM249.41 132.175L251.661 131.725L251.482 130.832L249.231 131.282L249.41 132.175ZM251.661 131.725C252.098 131.637 252.498 131.423 252.814 131.108L252.169 130.464C251.982 130.652 251.743 130.78 251.482 130.832L251.661 131.725ZM252.814 131.108L257.682 126.239L257.038 125.595L252.169 130.464L252.814 131.108ZM257.682 126.239C257.871 126.051 258.02 125.827 258.122 125.581L257.281 125.232C257.225 125.368 257.142 125.491 257.038 125.595L257.682 126.239ZM258.122 125.581C258.224 125.334 258.277 125.07 258.277 124.803H257.366C257.366 124.95 257.337 125.096 257.281 125.232L258.122 125.581ZM258.277 124.803C258.277 124.537 258.224 124.273 258.122 124.026L257.281 124.375C257.337 124.511 257.366 124.656 257.366 124.803H258.277ZM258.122 124.026C258.02 123.78 257.871 123.556 257.682 123.367L257.038 124.011C257.142 124.115 257.225 124.239 257.281 124.375L258.122 124.026ZM257.682 123.367C257.493 123.179 257.27 123.029 257.023 122.927L256.675 123.769C256.811 123.825 256.934 123.907 257.038 124.011L257.682 123.367ZM257.023 122.927C256.777 122.825 256.513 122.772 256.246 122.772V123.683C256.393 123.683 256.539 123.712 256.675 123.769L257.023 122.927ZM256.246 122.772C255.979 122.772 255.715 122.825 255.469 122.927L255.817 123.769C255.953 123.712 256.099 123.683 256.246 123.683V122.772ZM255.469 122.927C255.222 123.029 254.998 123.179 254.81 123.367L255.454 124.011C255.558 123.907 255.681 123.825 255.817 123.769L255.469 122.927Z" fill="white"/>
<path d="M20.9158 157.275C20.7468 157.275 20.5836 157.252 20.4262 157.205C20.2688 157.159 20.0852 157.092 19.8753 157.004C19.6655 156.917 19.4818 156.853 19.3245 156.812C19.1729 156.765 19.0184 156.742 18.861 156.742C18.657 156.742 18.4734 156.783 18.3102 156.864C18.1528 156.946 18.01 157.08 17.8817 157.266V156.436C17.9634 156.29 18.0916 156.179 18.2665 156.104C18.4413 156.022 18.6395 155.981 18.861 155.981C19.0359 155.981 19.2021 156.004 19.3594 156.051C19.5168 156.098 19.7092 156.168 19.9365 156.261C20.1755 156.354 20.3591 156.421 20.4874 156.462C20.6214 156.497 20.7643 156.514 20.9158 156.514C21.1198 156.514 21.3035 156.474 21.4667 156.392C21.6299 156.31 21.7756 156.176 21.9039 155.99V156.82C21.8164 156.966 21.6853 157.08 21.5104 157.161C21.3355 157.237 21.1373 157.275 20.9158 157.275ZM27.2456 154.53L25.9253 155.483V154.635L27.368 153.568H28.1374V159.68H27.2456V154.53ZM30.422 154.53L29.1017 155.483V154.635L30.5444 153.568H31.3139V159.68H30.422V154.53ZM32.9864 159.216H33.9132L33.0826 160.974H32.2781L32.9864 159.216ZM37.0256 159.811C36.501 159.811 36.0463 159.683 35.6616 159.426C35.2827 159.17 34.9912 158.802 34.7872 158.324C34.5832 157.846 34.4812 157.281 34.4812 156.628C34.4812 155.975 34.5802 155.41 34.7784 154.932C34.9825 154.448 35.2739 154.078 35.6528 153.821C36.0375 153.565 36.4951 153.437 37.0256 153.437C37.556 153.437 38.0107 153.565 38.3896 153.821C38.7743 154.078 39.0658 154.448 39.264 154.932C39.468 155.41 39.57 155.975 39.57 156.628C39.57 157.281 39.468 157.846 39.264 158.324C39.0599 158.802 38.7656 159.17 38.3809 159.426C38.002 159.683 37.5502 159.811 37.0256 159.811ZM37.0256 159.024C37.5444 159.024 37.9495 158.811 38.241 158.386C38.5382 157.954 38.6869 157.371 38.6869 156.637C38.6869 155.902 38.5412 155.319 38.2497 154.888C37.9582 154.457 37.5502 154.241 37.0256 154.241C36.501 154.241 36.0929 154.457 35.8015 154.888C35.51 155.319 35.3643 155.902 35.3643 156.637C35.3643 157.371 35.51 157.954 35.8015 158.386C36.0987 158.811 36.5068 159.024 37.0256 159.024ZM42.0609 159.811C41.7403 159.811 41.4284 159.776 41.1253 159.706C40.8222 159.642 40.5657 159.551 40.3558 159.435V158.639C40.5948 158.785 40.8659 158.899 41.169 158.98C41.4721 159.056 41.7607 159.094 42.0346 159.094C42.5651 159.094 42.9673 158.983 43.2413 158.762C43.5152 158.534 43.6522 158.202 43.6522 157.765C43.6522 157.351 43.524 157.036 43.2675 156.82C43.0168 156.599 42.6409 156.488 42.1396 156.488C41.9297 156.488 41.7082 156.509 41.475 156.549C41.2477 156.59 41.0437 156.646 40.863 156.716L40.4695 156.488L40.6968 153.568H44.1156V154.32H41.51L41.3789 155.894C41.7403 155.818 42.1075 155.78 42.4806 155.78C43.1276 155.78 43.6347 155.961 44.002 156.322C44.3692 156.684 44.5528 157.164 44.5528 157.765C44.5528 158.424 44.3459 158.931 43.932 159.286C43.5181 159.636 42.8944 159.811 42.0609 159.811ZM47.2049 159.811C46.8493 159.811 46.5083 159.782 46.1819 159.723C45.8613 159.671 45.5815 159.589 45.3425 159.479V158.744C45.8846 158.989 46.4675 159.111 47.0912 159.111C47.6275 159.111 48.0239 159.015 48.2804 158.823C48.5427 158.625 48.6738 158.345 48.6738 157.983C48.6738 157.61 48.5398 157.345 48.2716 157.188C48.0035 157.025 47.5955 156.943 47.0475 156.943H46.3305V156.226H47.03C47.4672 156.226 47.8199 156.138 48.088 155.964C48.3562 155.783 48.4902 155.521 48.4902 155.177C48.4902 154.839 48.3795 154.582 48.158 154.407C47.9365 154.232 47.6159 154.145 47.1962 154.145C46.8697 154.145 46.5754 154.183 46.313 154.259C46.0507 154.334 45.7797 154.46 45.4999 154.635V153.9C46.0128 153.591 46.6132 153.437 47.3011 153.437C47.9831 153.437 48.5019 153.588 48.8575 153.891C49.213 154.194 49.3908 154.614 49.3908 155.15C49.3908 155.477 49.3034 155.763 49.1285 156.007C48.9536 156.252 48.6913 156.442 48.3416 156.576C48.738 156.669 49.0411 156.838 49.2509 157.083C49.4666 157.328 49.5744 157.637 49.5744 158.01C49.5744 158.563 49.385 159.004 49.0061 159.33C48.6272 159.651 48.0268 159.811 47.2049 159.811ZM50.7743 159.68C50.6577 159.68 50.5586 159.642 50.477 159.566C50.4012 159.484 50.3633 159.385 50.3633 159.269C50.3633 159.152 50.4012 159.053 50.477 158.971C50.5586 158.89 50.6577 158.849 50.7743 158.849C50.8908 158.849 50.9899 158.89 51.0715 158.971C51.1531 159.053 51.194 159.152 51.194 159.269C51.194 159.385 51.1531 159.484 51.0715 159.566C50.9899 159.642 50.8908 159.68 50.7743 159.68ZM54.5215 159.811C53.9969 159.811 53.5423 159.683 53.1575 159.426C52.7786 159.17 52.4872 158.802 52.2832 158.324C52.0791 157.846 51.9771 157.281 51.9771 156.628C51.9771 155.975 52.0762 155.41 52.2744 154.932C52.4784 154.448 52.7699 154.078 53.1488 153.821C53.5335 153.565 53.9911 153.437 54.5215 153.437C55.052 153.437 55.5067 153.565 55.8856 153.821C56.2703 154.078 56.5618 154.448 56.7599 154.932C56.964 155.41 57.066 155.975 57.066 156.628C57.066 157.281 56.964 157.846 56.7599 158.324C56.5559 158.802 56.2615 159.17 55.8768 159.426C55.4979 159.683 55.0462 159.811 54.5215 159.811ZM54.5215 159.024C55.0403 159.024 55.4455 158.811 55.7369 158.386C56.0342 157.954 56.1829 157.371 56.1829 156.637C56.1829 155.902 56.0371 155.319 55.7457 154.888C55.4542 154.457 55.0462 154.241 54.5215 154.241C53.9969 154.241 53.5889 154.457 53.2974 154.888C53.006 155.319 52.8602 155.902 52.8602 156.637C52.8602 157.371 53.006 157.954 53.2974 158.386C53.5947 158.811 54.0028 159.024 54.5215 159.024ZM60.1514 159.811C59.7142 159.811 59.3208 159.712 58.971 159.514C58.6271 159.31 58.3531 159.012 58.1491 158.622C57.9509 158.225 57.8518 157.75 57.8518 157.196C57.8518 155.984 58.0995 155.054 58.595 154.407C59.0963 153.76 59.8133 153.437 60.746 153.437C61.0666 153.437 61.3522 153.472 61.6029 153.542V154.294C61.3988 154.206 61.1365 154.162 60.8159 154.162C59.5685 154.162 58.8836 154.911 58.7612 156.41C58.936 156.188 59.1663 156.022 59.4519 155.911C59.7434 155.795 60.0611 155.736 60.405 155.736C60.8014 155.736 61.1482 155.818 61.4455 155.981C61.7428 156.144 61.973 156.377 62.1362 156.681C62.3053 156.984 62.3898 157.336 62.3898 157.739C62.3898 158.135 62.2994 158.491 62.1187 158.805C61.9439 159.12 61.6874 159.368 61.3493 159.549C61.0112 159.723 60.6119 159.811 60.1514 159.811ZM60.1514 159.12C60.5594 159.12 60.8859 158.998 61.1307 158.753C61.3814 158.502 61.5067 158.173 61.5067 157.765C61.5067 157.357 61.3814 157.033 61.1307 156.794C60.8859 156.555 60.5594 156.436 60.1514 156.436C59.9008 156.436 59.6705 156.491 59.4607 156.602C59.2566 156.713 59.0934 156.87 58.971 157.074C58.8544 157.278 58.7961 157.514 58.7961 157.782C58.7961 158.021 58.8515 158.243 58.9623 158.447C59.0788 158.651 59.2391 158.814 59.4432 158.936C59.6472 159.059 59.8833 159.12 60.1514 159.12ZM69.0743 159.811C68.2407 159.811 67.6112 159.598 67.1857 159.173C66.7601 158.741 66.5474 158.15 66.5474 157.398V153.568H67.4392V157.433C67.4392 157.951 67.585 158.345 67.8764 158.613C68.1679 158.875 68.5672 159.006 69.0743 159.006C69.5756 159.006 69.972 158.875 70.2635 158.613C70.5549 158.345 70.7006 157.951 70.7006 157.433V153.568H71.5925V157.398C71.5925 158.144 71.3797 158.732 70.9542 159.164C70.5287 159.595 69.902 159.811 69.0743 159.811ZM74.3841 159.811C74.0343 159.811 73.6875 159.779 73.3436 159.715C73.0055 159.656 72.7286 159.575 72.5129 159.47V158.665C73.0725 158.928 73.6758 159.059 74.3229 159.059C75.2322 159.059 75.6869 158.753 75.6869 158.141C75.6869 157.931 75.6373 157.762 75.5382 157.634C75.4391 157.505 75.2963 157.395 75.1098 157.301C74.9233 157.202 74.6201 157.068 74.2004 156.899C73.6234 156.666 73.2066 156.41 72.9501 156.13C72.6936 155.85 72.5654 155.497 72.5654 155.072C72.5654 154.751 72.6528 154.468 72.8277 154.224C73.0026 153.973 73.2474 153.781 73.5622 153.647C73.8769 153.507 74.2383 153.437 74.6464 153.437C74.9786 153.437 75.2788 153.463 75.547 153.515C75.8151 153.568 76.0774 153.652 76.3339 153.769V154.538C75.8268 154.311 75.3138 154.197 74.795 154.197C74.3753 154.197 74.0547 154.273 73.8332 154.425C73.6117 154.576 73.5009 154.792 73.5009 155.072C73.5009 155.264 73.5476 155.427 73.6408 155.561C73.7399 155.69 73.8828 155.806 74.0693 155.911C74.2617 156.01 74.5444 156.136 74.9174 156.287C75.3313 156.456 75.6577 156.616 75.8967 156.768C76.1357 156.92 76.3164 157.106 76.4388 157.328C76.5671 157.543 76.6312 157.814 76.6312 158.141C76.6312 158.671 76.4418 159.082 76.0629 159.374C75.684 159.665 75.1244 159.811 74.3841 159.811ZM77.589 153.568H79.5564C80.2151 153.568 80.7863 153.69 81.2702 153.935C81.754 154.18 82.1241 154.53 82.3806 154.984C82.6429 155.439 82.7741 155.975 82.7741 156.593C82.7741 157.607 82.4797 158.377 81.891 158.901C81.308 159.42 80.489 159.68 79.434 159.68H77.589V153.568ZM79.4252 158.936C80.2413 158.936 80.8534 158.735 81.2614 158.333C81.6694 157.931 81.8735 157.351 81.8735 156.593C81.8735 155.894 81.6724 155.34 81.2702 154.932C80.8738 154.524 80.3054 154.32 79.5651 154.32H78.4809V158.936H79.4252Z" fill="#A6A9AB"/>
<rect x="17.8526" y="187.36" width="254.296" height="32.6734" rx="4.00754" fill="#333638"/>
<path d="M29.4348 199.706V199.325V199.706ZM32.9449 200.889H33.321H32.9449ZM32.9449 202.468V202.848C33.1526 202.848 33.321 202.678 33.321 202.468H32.9449ZM28.2648 202.468H27.8888C27.8888 202.678 28.0571 202.848 28.2648 202.848V202.468ZM27.8748 202.848H33.3348V202.087H27.8748V202.848ZM33.3348 202.848C33.5579 202.848 33.7388 203.031 33.7388 203.257H34.4909C34.4909 202.611 33.9734 202.087 33.3348 202.087V202.848ZM33.7388 203.257V206.413H34.4909V203.257H33.7388ZM33.7388 206.413C33.7388 206.639 33.5579 206.822 33.3348 206.822V207.583C33.9734 207.583 34.4909 207.059 34.4909 206.413H33.7388ZM33.3348 206.822H27.8748V207.583H33.3348V206.822ZM27.8748 206.822C27.6517 206.822 27.4709 206.639 27.4709 206.413H26.7188C26.7188 207.059 27.2363 207.583 27.8748 207.583V206.822ZM27.4709 206.413V203.257H26.7188V206.413H27.4709ZM27.4709 203.257C27.4709 203.031 27.6517 202.848 27.8748 202.848V202.087C27.2363 202.087 26.7188 202.611 26.7188 203.257H27.4709ZM28.6409 200.889C28.6409 200.676 28.7246 200.472 28.8734 200.321L28.3416 199.783C28.0516 200.077 27.8888 200.475 27.8888 200.889H28.6409ZM28.8734 200.321C29.0223 200.171 29.2243 200.086 29.4348 200.086V199.325C29.0248 199.325 28.6315 199.49 28.3416 199.783L28.8734 200.321ZM29.4348 200.086H31.7748V199.325H29.4348V200.086ZM31.7748 200.086C31.9854 200.086 32.1874 200.171 32.3362 200.321L32.8681 199.783C32.5781 199.49 32.1849 199.325 31.7748 199.325V200.086ZM32.3362 200.321C32.4852 200.472 32.5688 200.676 32.5688 200.889H33.321C33.321 200.475 33.158 200.077 32.8681 199.783L32.3362 200.321ZM32.5688 200.889V202.468H33.321V200.889H32.5688ZM32.9449 202.087H28.2648V202.848H32.9449V202.087ZM28.6409 202.468V200.889H27.8888V202.468H28.6409Z" fill="#C4C7C9"/>
<path d="M44.2871 199.736H45.1702V202.577C45.5724 202.105 46.1087 201.869 46.7791 201.869C47.3386 201.869 47.7554 202.018 48.0294 202.315C48.3034 202.612 48.4404 203.012 48.4404 203.513V206.197H47.5572V203.6C47.5572 202.918 47.2308 202.577 46.5779 202.577C46.2981 202.577 46.0358 202.644 45.791 202.778C45.552 202.907 45.3451 203.105 45.1702 203.373V206.197H44.2871V199.736ZM51.1475 206.328C50.722 206.328 50.3926 206.206 50.1595 205.961C49.9321 205.716 49.8184 205.37 49.8184 204.921V202.682H49.1802V202H49.8184V200.741H50.7103V202H51.7421V202.682H50.7103V204.859C50.7103 205.139 50.7628 205.337 50.8677 205.454C50.9784 205.571 51.1766 205.629 51.4623 205.629C51.6313 205.629 51.8004 205.591 51.9694 205.515V206.215C51.7479 206.291 51.4739 206.328 51.1475 206.328ZM54.1958 206.328C53.7703 206.328 53.441 206.206 53.2078 205.961C52.9805 205.716 52.8668 205.37 52.8668 204.921V202.682H52.2285V202H52.8668V200.741H53.7587V202H54.7904V202.682H53.7587V204.859C53.7587 205.139 53.8111 205.337 53.916 205.454C54.0268 205.571 54.225 205.629 54.5106 205.629C54.6797 205.629 54.8487 205.591 55.0178 205.515V206.215C54.7962 206.291 54.5223 206.328 54.1958 206.328ZM55.8486 202H56.7055V202.621C57.1369 202.12 57.7198 201.869 58.4542 201.869C58.8739 201.869 59.2499 201.962 59.5822 202.149C59.9203 202.335 60.1826 202.598 60.3691 202.936C60.5615 203.268 60.6577 203.656 60.6577 204.099C60.6577 204.536 60.5615 204.924 60.3691 205.262C60.1826 205.6 59.9232 205.862 59.5909 206.049C59.2587 206.235 58.8798 206.328 58.4542 206.328C58.1045 206.328 57.7781 206.27 57.4749 206.154C57.1718 206.037 56.9241 205.865 56.7317 205.638V208.112H55.8486V202ZM58.2531 205.629C58.5388 205.629 58.7952 205.568 59.0226 205.445C59.2557 205.317 59.4364 205.136 59.5647 204.903C59.6988 204.67 59.7658 204.402 59.7658 204.099C59.7658 203.796 59.6988 203.53 59.5647 203.303C59.4364 203.07 59.2557 202.892 59.0226 202.77C58.7952 202.641 58.5388 202.577 58.2531 202.577C57.8976 202.577 57.5828 202.671 57.3088 202.857C57.0407 203.044 56.8483 203.3 56.7317 203.627V204.571C56.8308 204.892 57.0203 205.148 57.3001 205.34C57.5799 205.533 57.8976 205.629 58.2531 205.629ZM63.0404 206.328C62.7489 206.328 62.44 206.291 62.1136 206.215C61.7871 206.145 61.5306 206.049 61.3441 205.926V205.174C61.5714 205.308 61.8338 205.419 62.131 205.507C62.4283 205.588 62.7169 205.629 62.9967 205.629C63.3114 205.629 63.5417 205.591 63.6874 205.515C63.8331 205.439 63.906 205.317 63.906 205.148C63.906 205.02 63.871 204.918 63.8011 204.842C63.737 204.76 63.6233 204.688 63.4601 204.623C63.3027 204.559 63.0637 204.483 62.7431 204.396C62.3992 204.297 62.1252 204.198 61.9212 204.099C61.723 203.994 61.5714 203.863 61.4665 203.705C61.3674 203.548 61.3179 203.344 61.3179 203.093C61.3179 202.691 61.4753 202.388 61.79 202.184C62.1106 201.974 62.5391 201.869 63.0754 201.869C63.3552 201.869 63.6291 201.895 63.8973 201.948C64.1654 202 64.3811 202.073 64.5443 202.166V202.901C64.3753 202.802 64.1654 202.723 63.9148 202.665C63.6699 202.607 63.4193 202.577 63.1628 202.577C62.8539 202.577 62.6178 202.615 62.4546 202.691C62.2913 202.767 62.2097 202.901 62.2097 203.093C62.2097 203.216 62.2447 203.315 62.3147 203.391C62.3846 203.466 62.4954 203.533 62.6469 203.592C62.8043 203.644 63.052 203.714 63.3901 203.801C63.9206 203.947 64.2878 204.119 64.4918 204.317C64.7017 204.516 64.8066 204.79 64.8066 205.139C64.8066 205.501 64.658 205.789 64.3607 206.005C64.0634 206.221 63.6233 206.328 63.0404 206.328ZM66.0767 202.953C65.9426 202.953 65.829 202.907 65.7357 202.813C65.6424 202.72 65.5958 202.607 65.5958 202.472C65.5958 202.338 65.6424 202.225 65.7357 202.131C65.829 202.032 65.9426 201.983 66.0767 201.983C66.2108 201.983 66.3244 202.032 66.4177 202.131C66.511 202.225 66.5576 202.338 66.5576 202.472C66.5576 202.601 66.511 202.714 66.4177 202.813C66.3244 202.907 66.2108 202.953 66.0767 202.953ZM66.0767 206.022C65.9426 206.022 65.829 205.976 65.7357 205.882C65.6424 205.789 65.5958 205.676 65.5958 205.541C65.5958 205.407 65.6424 205.294 65.7357 205.2C65.829 205.101 65.9426 205.052 66.0767 205.052C66.2108 205.052 66.3244 205.101 66.4177 205.2C66.511 205.294 66.5576 205.407 66.5576 205.541C66.5576 205.67 66.511 205.783 66.4177 205.882C66.3244 205.976 66.2108 206.022 66.0767 206.022ZM69.8382 199.954H70.7301L68.2381 206.197H67.3463L69.8382 199.954ZM74.0051 199.954H74.897L72.405 206.197H71.5132L74.0051 199.954ZM75.6801 202H76.5807L77.525 205.113L78.4606 202H79.2563L80.1919 205.113L81.1362 202H82.0455L80.6815 206.197H79.8334L78.8628 203.067L77.8923 206.197H77.0354L75.6801 202ZM83.5264 201.178C83.3806 201.178 83.2582 201.129 83.1591 201.03C83.06 200.931 83.0105 200.808 83.0105 200.662C83.0105 200.517 83.06 200.394 83.1591 200.295C83.2582 200.196 83.3806 200.147 83.5264 200.147C83.6779 200.147 83.8033 200.196 83.9024 200.295C84.0073 200.394 84.0597 200.517 84.0597 200.662C84.0597 200.808 84.0073 200.931 83.9024 201.03C83.8033 201.129 83.6779 201.178 83.5264 201.178ZM83.0804 202H83.981V206.197H83.0804V202ZM86.7441 206.328C86.4526 206.328 86.1437 206.291 85.8172 206.215C85.4908 206.145 85.2343 206.049 85.0478 205.926V205.174C85.2751 205.308 85.5374 205.419 85.8347 205.507C86.132 205.588 86.4205 205.629 86.7003 205.629C87.0151 205.629 87.2454 205.591 87.3911 205.515C87.5368 205.439 87.6097 205.317 87.6097 205.148C87.6097 205.02 87.5747 204.918 87.5048 204.842C87.4406 204.76 87.327 204.688 87.1638 204.623C87.0064 204.559 86.7674 204.483 86.4468 204.396C86.1029 204.297 85.8289 204.198 85.6249 204.099C85.4267 203.994 85.2751 203.863 85.1702 203.705C85.0711 203.548 85.0215 203.344 85.0215 203.093C85.0215 202.691 85.1789 202.388 85.4937 202.184C85.8143 201.974 86.2428 201.869 86.779 201.869C87.0588 201.869 87.3328 201.895 87.6009 201.948C87.8691 202 88.0848 202.073 88.248 202.166V202.901C88.0789 202.802 87.8691 202.723 87.6184 202.665C87.3736 202.607 87.123 202.577 86.8665 202.577C86.5575 202.577 86.3214 202.615 86.1582 202.691C85.995 202.767 85.9134 202.901 85.9134 203.093C85.9134 203.216 85.9484 203.315 86.0183 203.391C86.0883 203.466 86.199 203.533 86.3506 203.592C86.508 203.644 86.7557 203.714 87.0938 203.801C87.6243 203.947 87.9915 204.119 88.1955 204.317C88.4054 204.516 88.5103 204.79 88.5103 205.139C88.5103 205.501 88.3616 205.789 88.0644 206.005C87.7671 206.221 87.327 206.328 86.7441 206.328ZM89.4744 202H90.3312V202.621C90.7626 202.12 91.3455 201.869 92.08 201.869C92.4997 201.869 92.8757 201.962 93.2079 202.149C93.546 202.335 93.8083 202.598 93.9949 202.936C94.1872 203.268 94.2834 203.656 94.2834 204.099C94.2834 204.536 94.1872 204.924 93.9949 205.262C93.8083 205.6 93.5489 205.862 93.2167 206.049C92.8844 206.235 92.5055 206.328 92.08 206.328C91.7302 206.328 91.4038 206.27 91.1007 206.154C90.7976 206.037 90.5498 205.865 90.3575 205.638V208.112H89.4744V202ZM91.8789 205.629C92.1645 205.629 92.421 205.568 92.6483 205.445C92.8815 205.317 93.0622 205.136 93.1904 204.903C93.3245 204.67 93.3915 204.402 93.3915 204.099C93.3915 203.796 93.3245 203.53 93.1904 203.303C93.0622 203.07 92.8815 202.892 92.6483 202.77C92.421 202.641 92.1645 202.577 91.8789 202.577C91.5233 202.577 91.2085 202.671 90.9346 202.857C90.6664 203.044 90.4741 203.3 90.3575 203.627V204.571C90.4566 204.892 90.646 205.148 90.9258 205.34C91.2056 205.533 91.5233 205.629 91.8789 205.629ZM95.4827 206.197C95.3661 206.197 95.267 206.159 95.1854 206.084C95.1096 206.002 95.0717 205.903 95.0717 205.786C95.0717 205.67 95.1096 205.571 95.1854 205.489C95.267 205.407 95.3661 205.367 95.4827 205.367C95.5992 205.367 95.6983 205.407 95.7799 205.489C95.8616 205.571 95.9024 205.67 95.9024 205.786C95.9024 205.903 95.8616 206.002 95.7799 206.084C95.6983 206.159 95.5992 206.197 95.4827 206.197ZM97.1489 202.682H96.5107V202H97.1489V201.205C97.1489 200.721 97.3034 200.348 97.6124 200.085C97.9213 199.823 98.306 199.692 98.7665 199.692C98.9997 199.692 99.227 199.727 99.4485 199.797V200.514C99.2853 200.45 99.1163 200.418 98.9414 200.418C98.6441 200.418 98.4168 200.491 98.2594 200.636C98.1078 200.776 98.0321 200.983 98.0321 201.257V202H100.865V206.197H99.9819V202.682H98.0321V206.197H97.1489V202.682ZM100.419 201.178C100.268 201.178 100.142 201.129 100.043 201.03C99.944 200.931 99.8945 200.808 99.8945 200.662C99.8945 200.517 99.944 200.394 100.043 200.295C100.148 200.196 100.273 200.147 100.419 200.147C100.565 200.147 100.687 200.196 100.786 200.295C100.891 200.394 100.944 200.517 100.944 200.662C100.944 200.808 100.891 200.931 100.786 201.03C100.687 201.129 100.565 201.178 100.419 201.178ZM102.078 202H102.934V202.604C103.133 202.353 103.375 202.169 103.66 202.053C103.952 201.93 104.255 201.869 104.57 201.869C105.129 201.869 105.546 202.018 105.82 202.315C106.094 202.612 106.231 203.012 106.231 203.513V206.197H105.348V203.6C105.348 202.918 105.021 202.577 104.368 202.577C104.089 202.577 103.826 202.644 103.582 202.778C103.343 202.907 103.136 203.105 102.961 203.373V206.197H102.078V202ZM108.696 206.328C108.189 206.328 107.781 206.2 107.472 205.944C107.169 205.681 107.017 205.329 107.017 204.886C107.017 204.419 107.163 204.061 107.455 203.81C107.752 203.554 108.172 203.426 108.714 203.426C109.291 203.426 109.78 203.542 110.183 203.775V203.557C110.183 203.224 110.081 202.98 109.877 202.822C109.678 202.659 109.364 202.577 108.932 202.577C108.676 202.577 108.425 202.604 108.18 202.656C107.941 202.703 107.726 202.77 107.533 202.857V202.14C107.708 202.059 107.936 201.994 108.215 201.948C108.495 201.895 108.766 201.869 109.029 201.869C109.722 201.869 110.235 202.024 110.567 202.333C110.906 202.636 111.075 203.058 111.075 203.6V206.197H110.244V205.725C110.063 205.923 109.848 206.075 109.597 206.18C109.352 206.279 109.052 206.328 108.696 206.328ZM108.915 205.655C109.195 205.655 109.448 205.6 109.676 205.489C109.903 205.378 110.072 205.224 110.183 205.026V204.457C109.804 204.212 109.381 204.09 108.915 204.09C108.577 204.09 108.323 204.157 108.154 204.291C107.991 204.419 107.909 204.618 107.909 204.886C107.909 205.399 108.244 205.655 108.915 205.655ZM112.17 202H113.027V202.604C113.226 202.353 113.467 202.169 113.753 202.053C114.045 201.93 114.348 201.869 114.662 201.869C115.222 201.869 115.639 202.018 115.913 202.315C116.187 202.612 116.324 203.012 116.324 203.513V206.197H115.441V203.6C115.441 202.918 115.114 202.577 114.461 202.577C114.182 202.577 113.919 202.644 113.674 202.778C113.435 202.907 113.228 203.105 113.054 203.373V206.197H112.17V202ZM119.625 206.328C119.159 206.328 118.745 206.241 118.384 206.066C118.022 205.891 117.74 205.638 117.536 205.305C117.337 204.967 117.238 204.568 117.238 204.108C117.238 203.647 117.337 203.251 117.536 202.918C117.74 202.58 118.022 202.321 118.384 202.14C118.751 201.959 119.171 201.869 119.643 201.869C120.284 201.869 120.797 201.994 121.182 202.245V202.971C120.803 202.709 120.319 202.577 119.73 202.577C119.252 202.577 118.865 202.709 118.567 202.971C118.276 203.227 118.13 203.606 118.13 204.108C118.13 204.609 118.276 204.988 118.567 205.244C118.859 205.501 119.241 205.629 119.713 205.629C120.302 205.629 120.809 205.489 121.234 205.209V205.926C121.03 206.066 120.797 206.168 120.535 206.232C120.278 206.296 119.975 206.328 119.625 206.328ZM124.503 206.328C123.728 206.328 123.119 206.136 122.676 205.751C122.239 205.361 122.02 204.813 122.02 204.108C122.02 203.42 122.215 202.875 122.606 202.472C123.002 202.07 123.565 201.869 124.293 201.869C124.777 201.869 125.188 201.962 125.526 202.149C125.864 202.33 126.118 202.583 126.287 202.91C126.462 203.23 126.549 203.597 126.549 204.011V204.449H122.86C122.889 204.845 123.055 205.142 123.358 205.34C123.667 205.533 124.084 205.629 124.608 205.629C124.876 205.629 125.147 205.606 125.421 205.559C125.695 205.507 125.937 205.439 126.147 205.358V206.066C125.961 206.142 125.713 206.203 125.404 206.25C125.101 206.302 124.801 206.328 124.503 206.328ZM125.719 203.828C125.707 203.431 125.576 203.125 125.325 202.91C125.08 202.688 124.731 202.577 124.276 202.577C123.833 202.577 123.489 202.691 123.244 202.918C122.999 203.146 122.871 203.449 122.86 203.828H125.719ZM129.832 199.954H130.724L128.232 206.197H127.34L129.832 199.954ZM131.682 202H132.538V202.621C132.97 202.12 133.553 201.869 134.287 201.869C134.707 201.869 135.083 201.962 135.415 202.149C135.753 202.335 136.016 202.598 136.202 202.936C136.394 203.268 136.491 203.656 136.491 204.099C136.491 204.536 136.394 204.924 136.202 205.262C136.016 205.6 135.756 205.862 135.424 206.049C135.092 206.235 134.713 206.328 134.287 206.328C133.937 206.328 133.611 206.27 133.308 206.154C133.005 206.037 132.757 205.865 132.565 205.638V208.112H131.682V202ZM134.086 205.629C134.372 205.629 134.628 205.568 134.856 205.445C135.089 205.317 135.269 205.136 135.398 204.903C135.532 204.67 135.599 204.402 135.599 204.099C135.599 203.796 135.532 203.53 135.398 203.303C135.269 203.07 135.089 202.892 134.856 202.77C134.628 202.641 134.372 202.577 134.086 202.577C133.731 202.577 133.416 202.671 133.142 202.857C132.874 203.044 132.681 203.3 132.565 203.627V204.571C132.664 204.892 132.853 205.148 133.133 205.34C133.413 205.533 133.731 205.629 134.086 205.629ZM138.736 206.328C138.229 206.328 137.821 206.2 137.512 205.944C137.208 205.681 137.057 205.329 137.057 204.886C137.057 204.419 137.203 204.061 137.494 203.81C137.791 203.554 138.211 203.426 138.753 203.426C139.33 203.426 139.82 203.542 140.222 203.775V203.557C140.222 203.224 140.12 202.98 139.916 202.822C139.718 202.659 139.403 202.577 138.972 202.577C138.715 202.577 138.465 202.604 138.22 202.656C137.981 202.703 137.765 202.77 137.573 202.857V202.14C137.748 202.059 137.975 201.994 138.255 201.948C138.535 201.895 138.806 201.869 139.068 201.869C139.762 201.869 140.275 202.024 140.607 202.333C140.945 202.636 141.114 203.058 141.114 203.6V206.197H140.283V205.725C140.103 205.923 139.887 206.075 139.636 206.18C139.391 206.279 139.091 206.328 138.736 206.328ZM138.954 205.655C139.234 205.655 139.488 205.6 139.715 205.489C139.942 205.378 140.111 205.224 140.222 205.026V204.457C139.843 204.212 139.421 204.09 138.954 204.09C138.616 204.09 138.363 204.157 138.194 204.291C138.03 204.419 137.949 204.618 137.949 204.886C137.949 205.399 138.284 205.655 138.954 205.655ZM142.709 207.929C142.394 207.929 142.132 207.896 141.922 207.832V207.142C142.074 207.2 142.26 207.229 142.482 207.229C142.686 207.229 142.846 207.177 142.963 207.072C143.079 206.973 143.184 206.809 143.277 206.582L143.478 206.092L141.642 202H142.552L143.951 205.227L145.253 202H146.163L144.274 206.669C144.099 207.107 143.889 207.424 143.645 207.622C143.406 207.827 143.094 207.929 142.709 207.929ZM149.266 199.954H150.158L147.666 206.197H146.774L149.266 199.954ZM151.116 200.085H152.008L154.185 204.851L156.362 200.085H157.254V206.197H156.388V201.852L154.403 206.197H153.966L151.973 201.852V206.197H151.116V200.085ZM157.909 200.085H158.835L160.199 204.728L161.546 200.085H162.246L163.583 204.728L164.947 200.085H165.874L164.09 206.197H163.242L161.887 201.581L160.54 206.197H159.692L157.909 200.085ZM166.836 200.085H170.867V200.837H167.728V202.77H170.071V203.513H167.728V205.454H170.867V206.197H166.836V200.085ZM173.476 206.328C173.12 206.328 172.779 206.299 172.453 206.241C172.132 206.189 171.852 206.107 171.613 205.996V205.262C172.156 205.507 172.738 205.629 173.362 205.629C173.898 205.629 174.295 205.533 174.551 205.34C174.814 205.142 174.945 204.862 174.945 204.501C174.945 204.128 174.811 203.863 174.543 203.705C174.274 203.542 173.866 203.46 173.318 203.46H172.601V202.743H173.301C173.738 202.743 174.091 202.656 174.359 202.481C174.627 202.3 174.761 202.038 174.761 201.694C174.761 201.356 174.65 201.1 174.429 200.925C174.207 200.75 173.887 200.662 173.467 200.662C173.141 200.662 172.846 200.7 172.584 200.776C172.322 200.852 172.051 200.977 171.771 201.152V200.418C172.284 200.109 172.884 199.954 173.572 199.954C174.254 199.954 174.773 200.106 175.128 200.409C175.484 200.712 175.662 201.132 175.662 201.668C175.662 201.994 175.574 202.28 175.399 202.525C175.225 202.77 174.962 202.959 174.612 203.093C175.009 203.187 175.312 203.356 175.522 203.6C175.738 203.845 175.845 204.154 175.845 204.527C175.845 205.081 175.656 205.521 175.277 205.848C174.898 206.168 174.298 206.328 173.476 206.328ZM176.809 200.085H177.701L179.878 204.851L182.055 200.085H182.947V206.197H182.082V201.852L180.097 206.197H179.66L177.666 201.852V206.197H176.809V200.085ZM183.909 205.611L185.23 204.344C185.346 204.227 185.509 204.075 185.719 203.889C186.051 203.586 186.305 203.341 186.48 203.154C186.655 202.968 186.798 202.77 186.908 202.56C187.019 202.344 187.074 202.114 187.074 201.869C187.074 201.508 186.97 201.234 186.76 201.047C186.55 200.855 186.244 200.759 185.842 200.759C185.568 200.759 185.285 200.808 184.993 200.907C184.708 201.006 184.44 201.152 184.189 201.345V200.488C184.679 200.132 185.276 199.954 185.982 199.954C186.611 199.954 187.101 200.123 187.45 200.461C187.8 200.794 187.975 201.248 187.975 201.825C187.975 202.105 187.914 202.373 187.791 202.63C187.675 202.886 187.509 203.14 187.293 203.391C187.077 203.635 186.786 203.936 186.419 204.291L185.23 205.454H188.202V206.197H183.909V205.611ZM191.788 204.693H188.815V204.125L191.779 200.085H192.688V203.994H193.633V204.693H192.688V206.197H191.788V204.693ZM191.893 203.994V201.152L189.82 203.994H191.893ZM194.652 206.197C194.536 206.197 194.436 206.159 194.355 206.084C194.279 206.002 194.241 205.903 194.241 205.786C194.241 205.67 194.279 205.571 194.355 205.489C194.436 205.407 194.536 205.367 194.652 205.367C194.769 205.367 194.868 205.407 194.949 205.489C195.031 205.571 195.072 205.67 195.072 205.786C195.072 205.903 195.031 206.002 194.949 206.084C194.868 206.159 194.769 206.197 194.652 206.197ZM196.266 206.197C196.149 206.197 196.05 206.159 195.969 206.084C195.893 206.002 195.855 205.903 195.855 205.786C195.855 205.67 195.893 205.571 195.969 205.489C196.05 205.407 196.149 205.367 196.266 205.367C196.383 205.367 196.482 205.407 196.563 205.489C196.645 205.571 196.686 205.67 196.686 205.786C196.686 205.903 196.645 206.002 196.563 206.084C196.482 206.159 196.383 206.197 196.266 206.197ZM197.88 206.197C197.763 206.197 197.664 206.159 197.582 206.084C197.507 206.002 197.469 205.903 197.469 205.786C197.469 205.67 197.507 205.571 197.582 205.489C197.664 205.407 197.763 205.367 197.88 205.367C197.996 205.367 198.095 205.407 198.177 205.489C198.259 205.571 198.299 205.67 198.299 205.786C198.299 205.903 198.259 206.002 198.177 206.084C198.095 206.159 197.996 206.197 197.88 206.197Z" fill="white"/>
<rect x="210.578" y="192.825" width="56.1055" height="21.7437" rx="4.37186" fill="#147BDA"/>
<path d="M222.074 200.135V204.992C222.074 205.207 222.16 205.413 222.311 205.565C222.463 205.717 222.669 205.802 222.884 205.802H226.122C226.337 205.802 226.543 205.717 226.695 205.565C226.847 205.413 226.932 205.207 226.932 204.992V201.447C226.932 201.339 226.91 201.233 226.868 201.133C226.827 201.034 226.765 200.944 226.688 200.868L225.346 199.556C225.195 199.408 224.992 199.325 224.78 199.325H222.884C222.669 199.325 222.463 199.41 222.311 199.562C222.16 199.714 222.074 199.92 222.074 200.135V200.135Z" stroke="white" stroke-width="0.910804" stroke-linecap="round" stroke-linejoin="round"/>
<path d="M225.151 206.127V206.936C225.151 207.151 225.065 207.357 224.913 207.509C224.762 207.661 224.556 207.746 224.341 207.746H221.103C220.888 207.746 220.682 207.661 220.53 207.509C220.378 207.357 220.293 207.151 220.293 206.936V202.483C220.293 202.269 220.378 202.063 220.53 201.911C220.682 201.759 220.888 201.674 221.103 201.674H221.912" stroke="white" stroke-width="0.910804" stroke-linecap="round" stroke-linejoin="round"/>
<path d="M239.568 206.328C238.939 206.328 238.379 206.197 237.889 205.935C237.4 205.673 237.018 205.302 236.744 204.825C236.47 204.341 236.333 203.781 236.333 203.146C236.333 202.51 236.47 201.951 236.744 201.467C237.018 200.983 237.4 200.61 237.889 200.348C238.379 200.085 238.939 199.954 239.568 199.954C240.407 199.954 241.11 200.167 241.675 200.593V201.449C241.168 201.001 240.492 200.776 239.647 200.776C239.175 200.776 238.755 200.872 238.388 201.065C238.026 201.257 237.744 201.534 237.54 201.895C237.336 202.251 237.234 202.668 237.234 203.146C237.234 203.624 237.336 204.043 237.54 204.405C237.749 204.766 238.035 205.043 238.396 205.235C238.764 205.428 239.18 205.524 239.647 205.524C240.078 205.524 240.463 205.469 240.801 205.358C241.145 205.241 241.463 205.058 241.754 204.807V205.673C241.229 206.11 240.501 206.328 239.568 206.328ZM244.706 206.328C244.233 206.328 243.817 206.241 243.455 206.066C243.1 205.885 242.82 205.629 242.616 205.297C242.418 204.959 242.319 204.562 242.319 204.108C242.319 203.659 242.418 203.265 242.616 202.927C242.814 202.589 243.094 202.33 243.455 202.149C243.817 201.962 244.233 201.869 244.706 201.869C245.178 201.869 245.595 201.962 245.956 202.149C246.317 202.33 246.597 202.589 246.795 202.927C246.999 203.265 247.101 203.659 247.101 204.108C247.101 204.562 246.999 204.959 246.795 205.297C246.597 205.629 246.317 205.885 245.956 206.066C245.595 206.241 245.178 206.328 244.706 206.328ZM244.706 205.629C245.16 205.629 245.522 205.489 245.79 205.209C246.058 204.929 246.192 204.562 246.192 204.108C246.192 203.635 246.058 203.262 245.79 202.988C245.522 202.714 245.16 202.577 244.706 202.577C244.251 202.577 243.89 202.714 243.621 202.988C243.353 203.262 243.219 203.635 243.219 204.108C243.219 204.562 243.353 204.929 243.621 205.209C243.89 205.489 244.251 205.629 244.706 205.629ZM248.061 202H248.918V202.621C249.349 202.12 249.932 201.869 250.666 201.869C251.086 201.869 251.462 201.962 251.794 202.149C252.132 202.335 252.395 202.598 252.581 202.936C252.774 203.268 252.87 203.656 252.87 204.099C252.87 204.536 252.774 204.924 252.581 205.262C252.395 205.6 252.135 205.862 251.803 206.049C251.471 206.235 251.092 206.328 250.666 206.328C250.317 206.328 249.99 206.27 249.687 206.154C249.384 206.037 249.136 205.865 248.944 205.638V208.112H248.061V202ZM250.465 205.629C250.751 205.629 251.007 205.568 251.235 205.445C251.468 205.317 251.649 205.136 251.777 204.903C251.911 204.67 251.978 204.402 251.978 204.099C251.978 203.796 251.911 203.53 251.777 203.303C251.649 203.07 251.468 202.892 251.235 202.77C251.007 202.641 250.751 202.577 250.465 202.577C250.11 202.577 249.795 202.671 249.521 202.857C249.253 203.044 249.06 203.3 248.944 203.627V204.571C249.043 204.892 249.232 205.148 249.512 205.34C249.792 205.533 250.11 205.629 250.465 205.629ZM254.153 207.929C253.838 207.929 253.576 207.896 253.366 207.832V207.142C253.517 207.2 253.704 207.229 253.925 207.229C254.129 207.229 254.29 207.177 254.406 207.072C254.523 206.973 254.628 206.809 254.721 206.582L254.922 206.092L253.086 202H253.995L255.394 205.227L256.697 202H257.607L255.718 206.669C255.543 207.107 255.333 207.424 255.088 207.622C254.849 207.827 254.537 207.929 254.153 207.929Z" fill="white"/>
<rect x="17.8526" y="187.36" width="254.296" height="32.6734" rx="4.00754" stroke="#494B4D" stroke-width="0.728643"/>
<rect x="-0.182161" y="0.71823" width="290.364" height="237.349" rx="4.55402" stroke="url(#paint0_linear_340_9901)" stroke-width="0.364322"/>
<rect x="-0.182161" y="0.71823" width="290.364" height="237.349" rx="4.55402" stroke="url(#paint1_radial_340_9901)" stroke-width="0.364322"/>
<defs>
<linearGradient id="paint0_linear_340_9901" x1="19.1806" y1="69.0943" x2="76.0884" y2="182.449" gradientUnits="userSpaceOnUse">
<stop stop-color="#4B4B4B"/>
<stop offset="1" stop-color="#523E35" stop-opacity="0"/>
</linearGradient>
<radialGradient id="paint1_radial_340_9901" cx="0" cy="0" r="1" gradientTransform="translate(351.206 309.843) rotate(-153.564) scale(233.573 103.258)">
<stop stop-color="white"/>
<stop offset="1" stop-color="white" stop-opacity="0"/>
</radialGradient>
</defs>
</svg>
