<svg width="307" height="199" viewBox="0 0 307 199" fill="none" xmlns="http://www.w3.org/2000/svg">
<rect x="0.808417" y="0.808417" width="305.383" height="197.192" rx="4.78957" fill="#27292B"/>
<path d="M25.1033 34.599C24.0917 34.599 23.1951 34.3967 22.4135 33.9921C21.6318 33.5782 21.0249 32.9943 20.5927 32.2402C20.1604 31.477 19.9443 30.5896 19.9443 29.578C19.9443 28.5664 20.1604 27.6836 20.5927 26.9296C21.0249 26.1663 21.6318 25.5777 22.4135 25.1639C23.1951 24.7501 24.0917 24.5432 25.1033 24.5432C26.4367 24.5432 27.5494 24.8605 28.4414 25.495V27.164C27.6414 26.4835 26.5792 26.1433 25.255 26.1433C24.5469 26.1433 23.9262 26.2858 23.3928 26.5709C22.8595 26.8468 22.4456 27.2422 22.1514 27.7572C21.8571 28.2722 21.71 28.8791 21.71 29.578C21.71 30.2769 21.8571 30.8838 22.1514 31.3988C22.4548 31.9138 22.8733 32.3138 23.4066 32.5989C23.94 32.8748 24.5561 33.0127 25.255 33.0127C25.9355 33.0127 26.5425 32.9299 27.0758 32.7644C27.6092 32.5897 28.1012 32.3138 28.5518 31.9368V33.6058C27.7057 34.2679 26.5562 34.599 25.1033 34.599ZM33.1826 34.599C32.4101 34.599 31.7296 34.4611 31.1411 34.1852C30.5617 33.9001 30.1111 33.4955 29.7892 32.9713C29.4674 32.4379 29.3065 31.808 29.3065 31.0815C29.3065 30.3734 29.4628 29.7573 29.7755 29.2331C30.0973 28.6998 30.5525 28.2906 31.1411 28.0055C31.7296 27.7112 32.4101 27.5641 33.1826 27.5641C33.955 27.5641 34.6309 27.7112 35.2103 28.0055C35.7988 28.2906 36.254 28.6998 36.5759 29.2331C36.8977 29.7573 37.0587 30.3734 37.0587 31.0815C37.0587 31.808 36.8977 32.4379 36.5759 32.9713C36.254 33.4955 35.7988 33.9001 35.2103 34.1852C34.6309 34.4611 33.955 34.599 33.1826 34.599ZM33.1826 33.2334C33.8171 33.2334 34.3229 33.0357 34.6999 32.6403C35.0769 32.2356 35.2655 31.7161 35.2655 31.0815C35.2655 30.4102 35.0769 29.8861 34.6999 29.509C34.3321 29.1228 33.8263 28.9297 33.1826 28.9297C32.5388 28.9297 32.0285 29.1228 31.6514 29.509C31.2836 29.8861 31.0997 30.4102 31.0997 31.0815C31.0997 31.7161 31.2882 32.2356 31.6652 32.6403C32.0423 33.0357 32.548 33.2334 33.1826 33.2334ZM38.4326 27.771H40.1154V28.6676C40.4281 28.2906 40.8005 28.0147 41.2327 27.84C41.665 27.656 42.1202 27.5641 42.5983 27.5641C43.4904 27.5641 44.1571 27.8078 44.5985 28.2952C45.0399 28.7733 45.2606 29.4125 45.2606 30.2125V34.3921H43.5225V30.378C43.5225 29.4125 43.0719 28.9297 42.1707 28.9297C41.7753 28.9297 41.4029 29.0262 41.0534 29.2194C40.704 29.4033 40.4097 29.6837 40.1706 30.0608V34.3921H38.4326V27.771ZM46.8517 27.771H48.5346V28.6676C48.8473 28.2906 49.2197 28.0147 49.6519 27.84C50.0841 27.656 50.5393 27.5641 51.0175 27.5641C51.9095 27.5641 52.5762 27.8078 53.0176 28.2952C53.4591 28.7733 53.6798 29.4125 53.6798 30.2125V34.3921H51.9417V30.378C51.9417 29.4125 51.4911 28.9297 50.5899 28.9297C50.1945 28.9297 49.822 29.0262 49.4726 29.2194C49.1231 29.4033 48.8289 29.6837 48.5898 30.0608V34.3921H46.8517V27.771ZM58.9953 34.599C57.763 34.599 56.7882 34.2909 56.071 33.6748C55.3537 33.0587 54.995 32.1988 54.995 31.0953C54.995 30.0102 55.3123 29.1504 55.9468 28.5159C56.5813 27.8813 57.4871 27.5641 58.6642 27.5641C59.4367 27.5641 60.0942 27.7112 60.6368 28.0055C61.1885 28.2998 61.6023 28.7044 61.8782 29.2194C62.1541 29.7251 62.292 30.3045 62.292 30.9574V31.7574H56.6503C56.7699 32.7414 57.6251 33.2334 59.216 33.2334C59.639 33.2334 60.0712 33.1966 60.5126 33.123C60.954 33.0495 61.3403 32.9483 61.6713 32.8196V34.1576C61.3586 34.2863 60.954 34.3921 60.4574 34.4749C59.9701 34.5576 59.4827 34.599 58.9953 34.599ZM60.6506 30.5712C60.6322 30.047 60.4436 29.6424 60.085 29.3573C59.7356 29.0722 59.2528 28.9297 58.6366 28.9297C58.0297 28.9297 57.5515 29.0768 57.2021 29.3711C56.8526 29.6654 56.6687 30.0654 56.6503 30.5712H60.6506ZM67.2768 34.599C66.5044 34.599 65.8239 34.4611 65.2353 34.1852C64.656 33.9093 64.2054 33.5093 63.8835 32.9851C63.5617 32.4609 63.4007 31.831 63.4007 31.0953C63.4007 30.3597 63.5617 29.7297 63.8835 29.2056C64.2146 28.6722 64.6698 28.2676 65.2491 27.9917C65.8377 27.7066 66.5228 27.5641 67.3044 27.5641C68.3344 27.5641 69.1574 27.7664 69.7735 28.171V29.5642C69.1758 29.1412 68.4125 28.9297 67.4837 28.9297C66.7757 28.9297 66.2101 29.109 65.7871 29.4676C65.3733 29.8171 65.1664 30.3597 65.1664 31.0953C65.1664 31.8218 65.3733 32.3598 65.7871 32.7092C66.2101 33.0587 66.7665 33.2334 67.4562 33.2334C68.385 33.2334 69.185 33.0127 69.8563 32.5713V33.9507C69.5253 34.1714 69.1482 34.3323 68.7252 34.4335C68.3114 34.5438 67.8286 34.599 67.2768 34.599ZM73.8959 34.599C73.1694 34.599 72.6177 34.3967 72.2406 33.9921C71.8636 33.5874 71.6751 33.0173 71.6751 32.2816V29.0952H70.6819V27.771H71.6751V25.7847H73.4131V27.771H74.9994V29.0952H73.4131V32.0609C73.4131 32.4839 73.4913 32.7874 73.6476 32.9713C73.8039 33.146 74.089 33.2334 74.5028 33.2334C74.7879 33.2334 75.0684 33.169 75.3443 33.0403V34.3645C74.9488 34.5208 74.466 34.599 73.8959 34.599ZM83.9799 34.599C83.1891 34.599 82.5408 34.3921 82.035 33.9783C81.5292 33.5553 81.2763 32.9897 81.2763 32.2816C81.2763 31.5459 81.5154 30.9712 81.9936 30.5574C82.4718 30.1435 83.1431 29.9366 84.0075 29.9366C84.8444 29.9366 85.5662 30.1068 86.1732 30.447V30.2677C86.1732 29.7987 86.026 29.4584 85.7318 29.2469C85.4467 29.0354 84.9823 28.9297 84.3386 28.9297C83.934 28.9297 83.5339 28.9711 83.1385 29.0538C82.7431 29.1274 82.3936 29.2331 82.0902 29.3711V28.0055C82.366 27.8767 82.7339 27.771 83.1937 27.6882C83.6627 27.6055 84.1133 27.5641 84.5455 27.5641C85.695 27.5641 86.5456 27.8124 87.0974 28.3089C87.6491 28.7963 87.925 29.4768 87.925 30.3505V34.3921H86.2835V33.7438C85.9985 34.0197 85.672 34.2312 85.3042 34.3783C84.9455 34.5254 84.5041 34.599 83.9799 34.599ZM84.4075 33.33C84.7938 33.33 85.1432 33.2564 85.4559 33.1093C85.7686 32.9529 86.0076 32.7414 86.1732 32.4747V31.7436C85.6674 31.385 85.088 31.2057 84.4351 31.2057C83.5063 31.2057 83.0419 31.5643 83.0419 32.2816C83.0419 32.6311 83.1569 32.8931 83.3868 33.0679C83.6259 33.2426 83.9661 33.33 84.4075 33.33ZM94.2082 24.7501H96.029L97.9463 31.5643L99.8361 24.7501H101.188L103.078 31.5643L104.995 24.7501H106.816L104.071 34.3921H102.443L100.512 27.6882L98.5809 34.3921H96.9532L94.2082 24.7501ZM109.588 34.599C108.797 34.599 108.149 34.3921 107.643 33.9783C107.137 33.5553 106.884 32.9897 106.884 32.2816C106.884 31.5459 107.123 30.9712 107.601 30.5574C108.08 30.1435 108.751 29.9366 109.615 29.9366C110.452 29.9366 111.174 30.1068 111.781 30.447V30.2677C111.781 29.7987 111.634 29.4584 111.34 29.2469C111.054 29.0354 110.59 28.9297 109.946 28.9297C109.542 28.9297 109.142 28.9711 108.746 29.0538C108.351 29.1274 108.001 29.2331 107.698 29.3711V28.0055C107.974 27.8767 108.342 27.771 108.801 27.6882C109.27 27.6055 109.721 27.5641 110.153 27.5641C111.303 27.5641 112.153 27.8124 112.705 28.3089C113.257 28.7963 113.533 29.4768 113.533 30.3505V34.3921H111.891V33.7438C111.606 34.0197 111.28 34.2312 110.912 34.3783C110.553 34.5254 110.112 34.599 109.588 34.599ZM110.015 33.33C110.402 33.33 110.751 33.2564 111.064 33.1093C111.376 32.9529 111.615 32.7414 111.781 32.4747V31.7436C111.275 31.385 110.696 31.2057 110.043 31.2057C109.114 31.2057 108.65 31.5643 108.65 32.2816C108.65 32.6311 108.765 32.8931 108.995 33.0679C109.234 33.2426 109.574 33.33 110.015 33.33ZM115.121 24.1983H116.859V34.3921H115.121V24.1983ZM118.516 24.1983H120.254V34.3921H118.516V24.1983ZM125.635 34.599C124.402 34.599 123.428 34.2909 122.71 33.6748C121.993 33.0587 121.634 32.1988 121.634 31.0953C121.634 30.0102 121.952 29.1504 122.586 28.5159C123.221 27.8813 124.127 27.5641 125.304 27.5641C126.076 27.5641 126.734 27.7112 127.276 28.0055C127.828 28.2998 128.242 28.7044 128.518 29.2194C128.794 29.7251 128.931 30.3045 128.931 30.9574V31.7574H123.29C123.409 32.7414 124.265 33.2334 125.855 33.2334C126.278 33.2334 126.711 33.1966 127.152 33.123C127.593 33.0495 127.98 32.9483 128.311 32.8196V34.1576C127.998 34.2863 127.593 34.3921 127.097 34.4749C126.609 34.5576 126.122 34.599 125.635 34.599ZM127.29 30.5712C127.272 30.047 127.083 29.6424 126.724 29.3573C126.375 29.0722 125.892 28.9297 125.276 28.9297C124.669 28.9297 124.191 29.0768 123.841 29.3711C123.492 29.6654 123.308 30.0654 123.29 30.5712H127.29ZM132.978 34.599C132.252 34.599 131.7 34.3967 131.323 33.9921C130.946 33.5874 130.757 33.0173 130.757 32.2816V29.0952H129.764V27.771H130.757V25.7847H132.495V27.771H134.082V29.0952H132.495V32.0609C132.495 32.4839 132.574 32.7874 132.73 32.9713C132.886 33.146 133.171 33.2334 133.585 33.2334C133.87 33.2334 134.151 33.169 134.427 33.0403V34.3645C134.031 34.5208 133.548 34.599 132.978 34.599Z" fill="white"/>
<path d="M19.9903 53.1599H22.9422C23.5124 53.1599 23.9538 53.307 24.2664 53.6013C24.5791 53.8956 24.7354 54.3247 24.7354 54.8887C24.7354 55.2075 24.6588 55.4895 24.5055 55.7348C24.3584 55.9739 24.1622 56.1517 23.917 56.2681C24.6036 56.4705 24.947 56.9701 24.947 57.7671C24.947 58.1411 24.8642 58.466 24.6987 58.7419C24.5393 59.0116 24.3186 59.2201 24.0365 59.3672C23.7545 59.5143 23.4419 59.5879 23.0986 59.5879H19.9903V53.1599ZM22.8227 55.9187C23.1231 55.9187 23.3591 55.8359 23.5308 55.6704C23.7024 55.5049 23.7883 55.2596 23.7883 54.9347C23.7883 54.5608 23.7024 54.3002 23.5308 54.1531C23.3652 53.9998 23.1078 53.9232 22.7583 53.9232H20.9283V55.9187H22.8227ZM22.8871 58.8246C23.2488 58.8246 23.5246 58.7449 23.7147 58.5855C23.9047 58.4261 23.9998 58.1533 23.9998 57.7671C23.9998 57.3809 23.8986 57.105 23.6963 56.9394C23.5001 56.7739 23.2028 56.6912 22.8043 56.6912H20.9283V58.8246H22.8871ZM26.4872 61.4087C26.1562 61.4087 25.8803 61.375 25.6596 61.3075V60.5811C25.819 60.6424 26.0151 60.673 26.2481 60.673C26.4627 60.673 26.6313 60.6178 26.7539 60.5075C26.8765 60.4033 26.9869 60.2316 27.0849 59.9925L27.2965 59.4775L25.3653 55.1738H26.3217L27.793 58.5671L29.1632 55.1738H30.1196L28.1333 60.0845C27.9494 60.5443 27.7287 60.8784 27.4712 61.0868C27.2198 61.3014 26.8918 61.4087 26.4872 61.4087ZM36.6766 59.7258C36.1862 59.7258 35.7509 59.6339 35.3708 59.45C34.9907 59.266 34.6934 58.9993 34.4788 58.6499C34.2704 58.2943 34.1661 57.8744 34.1661 57.3901C34.1661 56.9057 34.2704 56.4888 34.4788 56.1394C34.6934 55.7838 34.9907 55.511 35.3708 55.321C35.757 55.1309 36.1984 55.0359 36.695 55.0359C37.3694 55.0359 37.9089 55.1677 38.3135 55.4313V56.1946C37.915 55.9187 37.4062 55.7808 36.787 55.7808C36.2843 55.7808 35.8766 55.9187 35.5639 56.1946C35.2574 56.4643 35.1041 56.8628 35.1041 57.3901C35.1041 57.9173 35.2574 58.3158 35.5639 58.5855C35.8705 58.8553 36.272 58.9902 36.7686 58.9902C37.3878 58.9902 37.9212 58.843 38.3687 58.5487V59.3028C38.1541 59.45 37.9089 59.5572 37.633 59.6247C37.3633 59.6921 37.0445 59.7258 36.6766 59.7258ZM41.571 59.7258C41.0744 59.7258 40.6361 59.6339 40.256 59.45C39.882 59.2599 39.5877 58.9902 39.3731 58.6407C39.1647 58.2851 39.0605 57.8682 39.0605 57.3901C39.0605 56.918 39.1647 56.5042 39.3731 56.1486C39.5816 55.793 39.8759 55.5202 40.256 55.3302C40.6361 55.134 41.0744 55.0359 41.571 55.0359C42.0676 55.0359 42.5059 55.134 42.886 55.3302C43.2661 55.5202 43.5604 55.793 43.7688 56.1486C43.9834 56.5042 44.0907 56.918 44.0907 57.3901C44.0907 57.8682 43.9834 58.2851 43.7688 58.6407C43.5604 58.9902 43.2661 59.2599 42.886 59.45C42.5059 59.6339 42.0676 59.7258 41.571 59.7258ZM41.571 58.9902C42.0492 58.9902 42.4293 58.843 42.7113 58.5487C42.9933 58.2545 43.1343 57.8682 43.1343 57.3901C43.1343 56.8935 42.9933 56.5011 42.7113 56.213C42.4293 55.9248 42.0492 55.7808 41.571 55.7808C41.0928 55.7808 40.7127 55.9248 40.4307 56.213C40.1487 56.5011 40.0077 56.8935 40.0077 57.3901C40.0077 57.8682 40.1487 58.2545 40.4307 58.5487C40.7127 58.843 41.0928 58.9902 41.571 58.9902ZM45.0997 55.1738H46.0009V55.8083C46.2093 55.5447 46.4637 55.3516 46.7641 55.229C47.0707 55.1003 47.3895 55.0359 47.7205 55.0359C48.3091 55.0359 48.7474 55.1922 49.0355 55.5049C49.3237 55.8175 49.4677 56.2375 49.4677 56.7647V59.5879H48.539V56.8567C48.539 56.1394 48.1956 55.7808 47.509 55.7808C47.2147 55.7808 46.9389 55.8513 46.6814 55.9923C46.43 56.1271 46.2124 56.3356 46.0284 56.6176V59.5879H45.0997V55.1738ZM50.6137 55.1738H51.5149V55.8083C51.7233 55.5447 51.9777 55.3516 52.2781 55.229C52.5847 55.1003 52.9035 55.0359 53.2345 55.0359C53.823 55.0359 54.2614 55.1922 54.5495 55.5049C54.8377 55.8175 54.9817 56.2375 54.9817 56.7647V59.5879H54.0529V56.8567C54.0529 56.1394 53.7096 55.7808 53.023 55.7808C52.7287 55.7808 52.4528 55.8513 52.1954 55.9923C51.944 56.1271 51.7264 56.3356 51.5424 56.6176V59.5879H50.6137V55.1738ZM58.5554 59.7258C57.74 59.7258 57.0994 59.5235 56.6334 59.1189C56.1736 58.7081 55.9437 58.1319 55.9437 57.3901C55.9437 56.6666 56.1491 56.0934 56.5599 55.6704C56.9767 55.2474 57.5684 55.0359 58.3347 55.0359C58.8435 55.0359 59.2757 55.134 59.6313 55.3302C59.9869 55.5202 60.2536 55.7869 60.4314 56.1302C60.6153 56.4674 60.7072 56.8536 60.7072 57.2889V57.7487H56.8265C56.8572 58.1656 57.0319 58.4782 57.3507 58.6867C57.6756 58.889 58.114 58.9902 58.6657 58.9902C58.9478 58.9902 59.2328 58.9656 59.521 58.9166C59.8091 58.8614 60.0635 58.7909 60.2842 58.7051V59.45C60.0881 59.5296 59.8275 59.594 59.5026 59.6431C59.1838 59.6982 58.8681 59.7258 58.5554 59.7258ZM59.8336 57.0958C59.8214 56.6789 59.6834 56.357 59.4198 56.1302C59.1623 55.8972 58.7945 55.7808 58.3163 55.7808C57.8504 55.7808 57.4887 55.9003 57.2312 56.1394C56.9737 56.3785 56.8388 56.6973 56.8265 57.0958H59.8336ZM64.0491 59.7258C63.5586 59.7258 63.1233 59.6339 62.7432 59.45C62.3631 59.266 62.0658 58.9993 61.8512 58.6499C61.6428 58.2943 61.5385 57.8744 61.5385 57.3901C61.5385 56.9057 61.6428 56.4888 61.8512 56.1394C62.0658 55.7838 62.3631 55.511 62.7432 55.321C63.1295 55.1309 63.5709 55.0359 64.0674 55.0359C64.7418 55.0359 65.2813 55.1677 65.6859 55.4313V56.1946C65.2874 55.9187 64.7786 55.7808 64.1594 55.7808C63.6567 55.7808 63.249 55.9187 62.9363 56.1946C62.6298 56.4643 62.4765 56.8628 62.4765 57.3901C62.4765 57.9173 62.6298 58.3158 62.9363 58.5855C63.2429 58.8553 63.6444 58.9902 64.141 58.9902C64.7602 58.9902 65.2936 58.843 65.7411 58.5487V59.3028C65.5265 59.45 65.2813 59.5572 65.0054 59.6247C64.7357 59.6921 64.4169 59.7258 64.0491 59.7258ZM68.4528 59.7258C68.0052 59.7258 67.6589 59.5971 67.4136 59.3396C67.1745 59.0821 67.055 58.7173 67.055 58.2453V55.8911H66.3837V55.1738H67.055V53.8496H67.993V55.1738H69.0781V55.8911H67.993V58.1809C67.993 58.4752 68.0482 58.6836 68.1585 58.8062C68.275 58.9288 68.4834 58.9902 68.7838 58.9902C68.9616 58.9902 69.1394 58.9503 69.3172 58.8706V59.6063C69.0842 59.686 68.7961 59.7258 68.4528 59.7258ZM70.7336 54.3094C70.5803 54.3094 70.4516 54.2573 70.3474 54.1531C70.2431 54.0488 70.191 53.9201 70.191 53.7668C70.191 53.6136 70.2431 53.4848 70.3474 53.3806C70.4516 53.2764 70.5803 53.2243 70.7336 53.2243C70.893 53.2243 71.0248 53.2764 71.129 53.3806C71.2394 53.4848 71.2946 53.6136 71.2946 53.7668C71.2946 53.9201 71.2394 54.0488 71.129 54.1531C71.0248 54.2573 70.893 54.3094 70.7336 54.3094ZM70.2646 55.1738H71.2118V59.5879H70.2646V55.1738ZM72.49 55.1738H73.3912V55.8083C73.5997 55.5447 73.8541 55.3516 74.1545 55.229C74.461 55.1003 74.7798 55.0359 75.1109 55.0359C75.6994 55.0359 76.1378 55.1922 76.4259 55.5049C76.7141 55.8175 76.8581 56.2375 76.8581 56.7647V59.5879H75.9293V56.8567C75.9293 56.1394 75.586 55.7808 74.8994 55.7808C74.6051 55.7808 74.3292 55.8513 74.0717 55.9923C73.8204 56.1271 73.6027 56.3356 73.4188 56.6176V59.5879H72.49V55.1738ZM80.3122 61.703C80.0118 61.703 79.7175 61.6784 79.4294 61.6294C79.1474 61.5804 78.9083 61.5099 78.7121 61.4179V60.6546C79.1719 60.8631 79.7053 60.9673 80.3122 60.9673C80.8824 60.9673 81.2962 60.8416 81.5537 60.5903C81.8173 60.345 81.9491 59.9711 81.9491 59.4683V58.9993C81.5445 59.4837 80.9498 59.7258 80.1651 59.7258C79.7175 59.7258 79.316 59.6277 78.9604 59.4316C78.6048 59.2354 78.3259 58.9595 78.1236 58.6039C77.9213 58.2483 77.8201 57.8407 77.8201 57.3809C77.8201 56.9149 77.9182 56.5072 78.1144 56.1578C78.3167 55.8022 78.5926 55.5263 78.942 55.3302C79.2976 55.134 79.6961 55.0359 80.1375 55.0359C80.5482 55.0359 80.8946 55.0972 81.1766 55.2198C81.4648 55.3363 81.7315 55.5325 81.9767 55.8083V55.1738H82.8779V59.3672C82.8779 60.1213 82.6664 60.6975 82.2434 61.096C81.8265 61.5007 81.1828 61.703 80.3122 61.703ZM80.349 58.9902C80.7291 58.9902 81.0632 58.889 81.3514 58.6867C81.6456 58.4844 81.8449 58.2146 81.9491 57.8774V56.8843C81.8326 56.541 81.6303 56.2712 81.3422 56.075C81.0602 55.8788 80.7291 55.7808 80.349 55.7808C80.0486 55.7808 79.7758 55.8482 79.5306 55.9831C79.2915 56.1118 79.1014 56.2988 78.9604 56.544C78.8255 56.7892 78.7581 57.0682 78.7581 57.3809C78.7581 57.6996 78.8255 57.9817 78.9604 58.2269C79.1014 58.466 79.2915 58.653 79.5306 58.7878C79.7758 58.9227 80.0486 58.9902 80.349 58.9902ZM88.4164 61.4087C88.0853 61.4087 87.8095 61.375 87.5888 61.3075V60.5811C87.7481 60.6424 87.9443 60.673 88.1773 60.673C88.3919 60.673 88.5605 60.6178 88.6831 60.5075C88.8057 60.4033 88.916 60.2316 89.0141 59.9925L89.2256 59.4775L87.2945 55.1738H88.2509L89.7222 58.5671L91.0924 55.1738H92.0488L90.0625 60.0845C89.8786 60.5443 89.6578 60.8784 89.4004 61.0868C89.149 61.3014 88.821 61.4087 88.4164 61.4087ZM94.6005 59.7258C94.104 59.7258 93.6656 59.6339 93.2855 59.45C92.9116 59.2599 92.6173 58.9902 92.4027 58.6407C92.1943 58.2851 92.09 57.8682 92.09 57.3901C92.09 56.918 92.1943 56.5042 92.4027 56.1486C92.6111 55.793 92.9054 55.5202 93.2855 55.3302C93.6656 55.134 94.104 55.0359 94.6005 55.0359C95.0971 55.0359 95.5355 55.134 95.9156 55.3302C96.2957 55.5202 96.5899 55.793 96.7984 56.1486C97.013 56.5042 97.1202 56.918 97.1202 57.3901C97.1202 57.8682 97.013 58.2851 96.7984 58.6407C96.5899 58.9902 96.2957 59.2599 95.9156 59.45C95.5355 59.6339 95.0971 59.7258 94.6005 59.7258ZM94.6005 58.9902C95.0787 58.9902 95.4588 58.843 95.7408 58.5487C96.0229 58.2545 96.1639 57.8682 96.1639 57.3901C96.1639 56.8935 96.0229 56.5011 95.7408 56.213C95.4588 55.9248 95.0787 55.7808 94.6005 55.7808C94.1224 55.7808 93.7423 55.9248 93.4602 56.213C93.1782 56.5011 93.0372 56.8935 93.0372 57.3901C93.0372 57.8682 93.1782 58.2545 93.4602 58.5487C93.7423 58.843 94.1224 58.9902 94.6005 58.9902ZM99.8857 59.7258C99.291 59.7258 98.8404 59.5664 98.5338 59.2476C98.2334 58.9288 98.0832 58.5028 98.0832 57.9694V55.1738H99.012V57.9326C99.012 58.6376 99.3645 58.9902 100.07 58.9902C100.689 58.9902 101.173 58.7112 101.523 58.1533V55.1738H102.451V59.5879H101.55V58.9626C101.342 59.2262 101.093 59.4193 100.805 59.5419C100.523 59.6645 100.217 59.7258 99.8857 59.7258ZM103.643 55.1738H104.544V55.9647C104.728 55.6949 104.986 55.4957 105.317 55.3669C105.654 55.2382 106.043 55.1738 106.485 55.1738V55.9003C106.013 55.9003 105.608 55.9769 105.271 56.1302C104.934 56.2835 104.701 56.5256 104.572 56.8567V59.5879H103.643V55.1738ZM110.536 55.1738H111.483L112.476 58.4476L113.46 55.1738H114.297L115.281 58.4476L116.274 55.1738H117.231L115.796 59.5879H114.904L113.883 56.2957L112.862 59.5879H111.961L110.536 55.1738ZM119.324 59.7258C118.791 59.7258 118.362 59.591 118.037 59.3212C117.718 59.0453 117.559 58.6744 117.559 58.2085C117.559 57.718 117.712 57.341 118.018 57.0774C118.331 56.8076 118.772 56.6728 119.343 56.6728C119.95 56.6728 120.465 56.7954 120.888 57.0406V56.8107C120.888 56.4613 120.78 56.2038 120.566 56.0382C120.357 55.8666 120.026 55.7808 119.573 55.7808C119.303 55.7808 119.039 55.8083 118.782 55.8635C118.53 55.9126 118.303 55.9831 118.101 56.075V55.321C118.285 55.2351 118.524 55.1677 118.818 55.1186C119.113 55.0635 119.398 55.0359 119.674 55.0359C120.403 55.0359 120.943 55.1983 121.292 55.5233C121.648 55.8421 121.826 56.2865 121.826 56.8567V59.5879H120.952V59.0913C120.762 59.2997 120.535 59.4591 120.271 59.5695C120.014 59.6737 119.698 59.7258 119.324 59.7258ZM119.554 59.0177C119.848 59.0177 120.115 58.9595 120.354 58.843C120.593 58.7265 120.771 58.5641 120.888 58.3556V57.7579C120.489 57.5004 120.045 57.3717 119.554 57.3717C119.199 57.3717 118.932 57.4422 118.754 57.5832C118.582 57.718 118.497 57.9265 118.497 58.2085C118.497 58.748 118.849 59.0177 119.554 59.0177ZM122.978 52.7921H123.907V59.5879H122.978V52.7921ZM125.106 52.7921H126.035V59.5879H125.106V52.7921ZM129.663 59.7258C128.847 59.7258 128.207 59.5235 127.741 59.1189C127.281 58.7081 127.051 58.1319 127.051 57.3901C127.051 56.6666 127.256 56.0934 127.667 55.6704C128.084 55.2474 128.676 55.0359 129.442 55.0359C129.951 55.0359 130.383 55.134 130.739 55.3302C131.094 55.5202 131.361 55.7869 131.539 56.1302C131.722 56.4674 131.814 56.8536 131.814 57.2889V57.7487H127.934C127.964 58.1656 128.139 58.4782 128.458 58.6867C128.783 58.889 129.221 58.9902 129.773 58.9902C130.055 58.9902 130.34 58.9656 130.628 58.9166C130.916 58.8614 131.171 58.7909 131.391 58.7051V59.45C131.195 59.5296 130.935 59.594 130.61 59.6431C130.291 59.6982 129.975 59.7258 129.663 59.7258ZM130.941 57.0958C130.929 56.6789 130.791 56.357 130.527 56.1302C130.27 55.8972 129.902 55.7808 129.423 55.7808C128.958 55.7808 128.596 55.9003 128.338 56.1394C128.081 56.3785 127.946 56.6973 127.934 57.0958H130.941ZM134.531 59.7258C134.083 59.7258 133.737 59.5971 133.492 59.3396C133.253 59.0821 133.133 58.7173 133.133 58.2453V55.8911H132.462V55.1738H133.133V53.8496H134.071V55.1738H135.156V55.8911H134.071V58.1809C134.071 58.4752 134.126 58.6836 134.237 58.8062C134.353 58.9288 134.562 58.9902 134.862 58.9902C135.04 58.9902 135.218 58.9503 135.395 58.8706V59.6063C135.162 59.686 134.874 59.7258 134.531 59.7258ZM136.83 59.1005H137.805L136.931 60.9489H136.085L136.83 59.1005ZM143.161 61.4087C142.83 61.4087 142.554 61.375 142.334 61.3075V60.5811C142.493 60.6424 142.689 60.673 142.922 60.673C143.137 60.673 143.305 60.6178 143.428 60.5075C143.551 60.4033 143.661 60.2316 143.759 59.9925L143.97 59.4775L142.039 55.1738H142.996L144.467 58.5671L145.837 55.1738H146.794L144.807 60.0845C144.623 60.5443 144.403 60.8784 144.145 61.0868C143.894 61.3014 143.566 61.4087 143.161 61.4087ZM149.345 59.7258C148.849 59.7258 148.41 59.6339 148.03 59.45C147.656 59.2599 147.362 58.9902 147.148 58.6407C146.939 58.2851 146.835 57.8682 146.835 57.3901C146.835 56.918 146.939 56.5042 147.148 56.1486C147.356 55.793 147.65 55.5202 148.03 55.3302C148.41 55.134 148.849 55.0359 149.345 55.0359C149.842 55.0359 150.28 55.134 150.66 55.3302C151.04 55.5202 151.335 55.793 151.543 56.1486C151.758 56.5042 151.865 56.918 151.865 57.3901C151.865 57.8682 151.758 58.2851 151.543 58.6407C151.335 58.9902 151.04 59.2599 150.66 59.45C150.28 59.6339 149.842 59.7258 149.345 59.7258ZM149.345 58.9902C149.824 58.9902 150.204 58.843 150.486 58.5487C150.768 58.2545 150.909 57.8682 150.909 57.3901C150.909 56.8935 150.768 56.5011 150.486 56.213C150.204 55.9248 149.824 55.7808 149.345 55.7808C148.867 55.7808 148.487 55.9248 148.205 56.213C147.923 56.5011 147.782 56.8935 147.782 57.3901C147.782 57.8682 147.923 58.2545 148.205 58.5487C148.487 58.843 148.867 58.9902 149.345 58.9902ZM154.63 59.7258C154.036 59.7258 153.585 59.5664 153.279 59.2476C152.978 58.9288 152.828 58.5028 152.828 57.9694V55.1738H153.757V57.9326C153.757 58.6376 154.109 58.9902 154.814 58.9902C155.434 58.9902 155.918 58.7112 156.267 58.1533V55.1738H157.196V59.5879H156.295V58.9626C156.087 59.2262 155.838 59.4193 155.55 59.5419C155.268 59.6645 154.962 59.7258 154.63 59.7258ZM163.373 59.7258C162.84 59.7258 162.411 59.591 162.086 59.3212C161.767 59.0453 161.608 58.6744 161.608 58.2085C161.608 57.718 161.761 57.341 162.068 57.0774C162.38 56.8076 162.822 56.6728 163.392 56.6728C163.999 56.6728 164.514 56.7954 164.937 57.0406V56.8107C164.937 56.4613 164.829 56.2038 164.615 56.0382C164.406 55.8666 164.075 55.7808 163.622 55.7808C163.352 55.7808 163.088 55.8083 162.831 55.8635C162.579 55.9126 162.353 55.9831 162.15 56.075V55.321C162.334 55.2351 162.573 55.1677 162.868 55.1186C163.162 55.0635 163.447 55.0359 163.723 55.0359C164.452 55.0359 164.992 55.1983 165.341 55.5233C165.697 55.8421 165.875 56.2865 165.875 56.8567V59.5879H165.001V59.0913C164.811 59.2997 164.584 59.4591 164.321 59.5695C164.063 59.6737 163.747 59.7258 163.373 59.7258ZM163.603 59.0177C163.898 59.0177 164.164 58.9595 164.403 58.843C164.642 58.7265 164.82 58.5641 164.937 58.3556V57.7579C164.538 57.5004 164.094 57.3717 163.603 57.3717C163.248 57.3717 162.981 57.4422 162.803 57.5832C162.632 57.718 162.546 57.9265 162.546 58.2085C162.546 58.748 162.898 59.0177 163.603 59.0177ZM169.335 61.703C169.035 61.703 168.741 61.6784 168.453 61.6294C168.171 61.5804 167.931 61.5099 167.735 61.4179V60.6546C168.195 60.8631 168.728 60.9673 169.335 60.9673C169.906 60.9673 170.319 60.8416 170.577 60.5903C170.84 60.345 170.972 59.9711 170.972 59.4683V58.9993C170.568 59.4837 169.973 59.7258 169.188 59.7258C168.741 59.7258 168.339 59.6277 167.984 59.4316C167.628 59.2354 167.349 58.9595 167.147 58.6039C166.944 58.2483 166.843 57.8407 166.843 57.3809C166.843 56.9149 166.941 56.5072 167.138 56.1578C167.34 55.8022 167.616 55.5263 167.965 55.3302C168.321 55.134 168.719 55.0359 169.161 55.0359C169.571 55.0359 169.918 55.0972 170.2 55.2198C170.488 55.3363 170.755 55.5325 171 55.8083V55.1738H171.901V59.3672C171.901 60.1213 171.69 60.6975 171.267 61.096C170.85 61.5007 170.206 61.703 169.335 61.703ZM169.372 58.9902C169.752 58.9902 170.086 58.889 170.375 58.6867C170.669 58.4844 170.868 58.2146 170.972 57.8774V56.8843C170.856 56.541 170.654 56.2712 170.365 56.075C170.083 55.8788 169.752 55.7808 169.372 55.7808C169.072 55.7808 168.799 55.8482 168.554 55.9831C168.315 56.1118 168.125 56.2988 167.984 56.544C167.849 56.7892 167.781 57.0682 167.781 57.3809C167.781 57.6996 167.849 57.9817 167.984 58.2269C168.125 58.466 168.315 58.653 168.554 58.7878C168.799 58.9227 169.072 58.9902 169.372 58.9902ZM173.098 55.1738H173.999V55.9647C174.183 55.6949 174.441 55.4957 174.772 55.3669C175.109 55.2382 175.498 55.1738 175.94 55.1738V55.9003C175.468 55.9003 175.063 55.9769 174.726 56.1302C174.389 56.2835 174.156 56.5256 174.027 56.8567V59.5879H173.098V55.1738ZM178.92 59.7258C178.105 59.7258 177.464 59.5235 176.998 59.1189C176.539 58.7081 176.309 58.1319 176.309 57.3901C176.309 56.6666 176.514 56.0934 176.925 55.6704C177.342 55.2474 177.933 55.0359 178.7 55.0359C179.209 55.0359 179.641 55.134 179.996 55.3302C180.352 55.5202 180.619 55.7869 180.796 56.1302C180.98 56.4674 181.072 56.8536 181.072 57.2889V57.7487H177.192C177.222 58.1656 177.397 58.4782 177.716 58.6867C178.041 58.889 178.479 58.9902 179.031 58.9902C179.313 58.9902 179.598 58.9656 179.886 58.9166C180.174 58.8614 180.429 58.7909 180.649 58.7051V59.45C180.453 59.5296 180.192 59.594 179.868 59.6431C179.549 59.6982 179.233 59.7258 178.92 59.7258ZM180.199 57.0958C180.186 56.6789 180.048 56.357 179.785 56.1302C179.527 55.8972 179.159 55.7808 178.681 55.7808C178.215 55.7808 177.854 55.9003 177.596 56.1394C177.339 56.3785 177.204 56.6973 177.192 57.0958H180.199ZM184.515 59.7258C183.7 59.7258 183.059 59.5235 182.593 59.1189C182.133 58.7081 181.904 58.1319 181.904 57.3901C181.904 56.6666 182.109 56.0934 182.52 55.6704C182.937 55.2474 183.528 55.0359 184.294 55.0359C184.803 55.0359 185.236 55.134 185.591 55.3302C185.947 55.5202 186.213 55.7869 186.391 56.1302C186.575 56.4674 186.667 56.8536 186.667 57.2889V57.7487H182.786C182.817 58.1656 182.992 58.4782 183.311 58.6867C183.635 58.889 184.074 58.9902 184.626 58.9902C184.908 58.9902 185.193 58.9656 185.481 58.9166C185.769 58.8614 186.023 58.7909 186.244 58.7051V59.45C186.048 59.5296 185.787 59.594 185.462 59.6431C185.144 59.6982 184.828 59.7258 184.515 59.7258ZM185.793 57.0958C185.781 56.6789 185.643 56.357 185.38 56.1302C185.122 55.8972 184.754 55.7808 184.276 55.7808C183.81 55.7808 183.448 55.9003 183.191 56.1394C182.933 56.3785 182.799 56.6973 182.786 57.0958H185.793ZM192.787 59.7258C192.34 59.7258 191.993 59.5971 191.748 59.3396C191.509 59.0821 191.389 58.7173 191.389 58.2453V55.8911H190.718V55.1738H191.389V53.8496H192.327V55.1738H193.412V55.8911H192.327V58.1809C192.327 58.4752 192.382 58.6836 192.493 58.8062C192.609 58.9288 192.818 58.9902 193.118 58.9902C193.296 58.9902 193.474 58.9503 193.652 58.8706V59.6063C193.419 59.686 193.13 59.7258 192.787 59.7258ZM196.807 59.7258C196.31 59.7258 195.872 59.6339 195.492 59.45C195.118 59.2599 194.824 58.9902 194.609 58.6407C194.401 58.2851 194.297 57.8682 194.297 57.3901C194.297 56.918 194.401 56.5042 194.609 56.1486C194.818 55.793 195.112 55.5202 195.492 55.3302C195.872 55.134 196.31 55.0359 196.807 55.0359C197.304 55.0359 197.742 55.134 198.122 55.3302C198.502 55.5202 198.796 55.793 199.005 56.1486C199.219 56.5042 199.327 56.918 199.327 57.3901C199.327 57.8682 199.219 58.2851 199.005 58.6407C198.796 58.9902 198.502 59.2599 198.122 59.45C197.742 59.6339 197.304 59.7258 196.807 59.7258ZM196.807 58.9902C197.285 58.9902 197.665 58.843 197.947 58.5487C198.229 58.2545 198.37 57.8682 198.37 57.3901C198.37 56.8935 198.229 56.5011 197.947 56.213C197.665 55.9248 197.285 55.7808 196.807 55.7808C196.329 55.7808 195.949 55.9248 195.667 56.213C195.385 56.5011 195.244 56.8935 195.244 57.3901C195.244 57.8682 195.385 58.2545 195.667 58.5487C195.949 58.843 196.329 58.9902 196.807 58.9902ZM203.555 53.1599H204.53L205.965 58.043L207.381 53.1599H208.117L209.524 58.043L210.958 53.1599H211.933L210.057 59.5879H209.165L207.74 54.7324L206.323 59.5879H205.431L203.555 53.1599ZM213.164 54.3094C213.01 54.3094 212.882 54.2573 212.777 54.1531C212.673 54.0488 212.621 53.9201 212.621 53.7668C212.621 53.6136 212.673 53.4848 212.777 53.3806C212.882 53.2764 213.01 53.2243 213.164 53.2243C213.323 53.2243 213.455 53.2764 213.559 53.3806C213.669 53.4848 213.724 53.6136 213.724 53.7668C213.724 53.9201 213.669 54.0488 213.559 54.1531C213.455 54.2573 213.323 54.3094 213.164 54.3094ZM212.695 55.1738H213.642V59.5879H212.695V55.1738ZM216.548 59.7258C216.241 59.7258 215.916 59.686 215.573 59.6063C215.23 59.5327 214.96 59.4316 214.764 59.3028V58.512C215.003 58.653 215.279 58.7694 215.591 58.8614C215.904 58.9472 216.207 58.9902 216.502 58.9902C216.833 58.9902 217.075 58.9503 217.228 58.8706C217.381 58.7909 217.458 58.6622 217.458 58.4844C217.458 58.3495 217.421 58.2422 217.348 58.1625C217.28 58.0767 217.161 58.0001 216.989 57.9326C216.824 57.8652 216.572 57.7855 216.235 57.6935C215.873 57.5893 215.585 57.4851 215.371 57.3809C215.162 57.2705 215.003 57.1326 214.892 56.967C214.788 56.8015 214.736 56.5869 214.736 56.3233C214.736 55.9003 214.902 55.5815 215.233 55.3669C215.57 55.1462 216.02 55.0359 216.584 55.0359C216.879 55.0359 217.167 55.0635 217.449 55.1186C217.731 55.1738 217.958 55.2505 218.129 55.3485V56.121C217.952 56.0168 217.731 55.934 217.467 55.8727C217.21 55.8114 216.946 55.7808 216.676 55.7808C216.351 55.7808 216.103 55.8206 215.932 55.9003C215.76 55.98 215.674 56.121 215.674 56.3233C215.674 56.4521 215.711 56.5563 215.784 56.636C215.858 56.7157 215.974 56.7862 216.134 56.8475C216.299 56.9027 216.56 56.9762 216.916 57.0682C217.473 57.2215 217.86 57.4023 218.074 57.6108C218.295 57.8192 218.405 58.1073 218.405 58.4752C218.405 58.8553 218.249 59.1587 217.936 59.3856C217.624 59.6124 217.161 59.7258 216.548 59.7258ZM219.419 55.1738H220.32V55.8267C220.774 55.2995 221.387 55.0359 222.16 55.0359C222.601 55.0359 222.996 55.134 223.346 55.3302C223.701 55.5263 223.977 55.8022 224.174 56.1578C224.376 56.5072 224.477 56.9149 224.477 57.3809C224.477 57.8407 224.376 58.2483 224.174 58.6039C223.977 58.9595 223.705 59.2354 223.355 59.4316C223.006 59.6277 222.607 59.7258 222.16 59.7258C221.792 59.7258 221.448 59.6645 221.13 59.5419C220.811 59.4193 220.55 59.2384 220.348 58.9993V61.6018H219.419V55.1738ZM221.948 58.9902C222.248 58.9902 222.518 58.9258 222.757 58.797C223.003 58.6622 223.193 58.4721 223.327 58.2269C223.468 57.9817 223.539 57.6996 223.539 57.3809C223.539 57.0621 223.468 56.7831 223.327 56.544C223.193 56.2988 223.003 56.1118 222.757 55.9831C222.518 55.8482 222.248 55.7808 221.948 55.7808C221.574 55.7808 221.243 55.8788 220.955 56.075C220.673 56.2712 220.471 56.541 220.348 56.8843V57.8774C220.452 58.2146 220.651 58.4844 220.946 58.6867C221.24 58.889 221.574 58.9902 221.948 58.9902ZM225.913 53.022H226.833L226.106 54.8152H225.306L225.913 53.022ZM229.147 59.7258C228.841 59.7258 228.516 59.686 228.172 59.6063C227.829 59.5327 227.559 59.4316 227.363 59.3028V58.512C227.602 58.653 227.878 58.7694 228.191 58.8614C228.504 58.9472 228.807 58.9902 229.101 58.9902C229.432 58.9902 229.674 58.9503 229.828 58.8706C229.981 58.7909 230.058 58.6622 230.058 58.4844C230.058 58.3495 230.021 58.2422 229.947 58.1625C229.88 58.0767 229.76 58.0001 229.589 57.9326C229.423 57.8652 229.172 57.7855 228.835 57.6935C228.473 57.5893 228.185 57.4851 227.97 57.3809C227.762 57.2705 227.602 57.1326 227.492 56.967C227.388 56.8015 227.336 56.5869 227.336 56.3233C227.336 55.9003 227.501 55.5815 227.832 55.3669C228.169 55.1462 228.62 55.0359 229.184 55.0359C229.478 55.0359 229.766 55.0635 230.048 55.1186C230.33 55.1738 230.557 55.2505 230.729 55.3485V56.121C230.551 56.0168 230.33 55.934 230.067 55.8727C229.809 55.8114 229.546 55.7808 229.276 55.7808C228.951 55.7808 228.703 55.8206 228.531 55.9003C228.359 55.98 228.274 56.121 228.274 56.3233C228.274 56.4521 228.31 56.5563 228.384 56.636C228.458 56.7157 228.574 56.7862 228.733 56.8475C228.899 56.9027 229.159 56.9762 229.515 57.0682C230.073 57.2215 230.459 57.4023 230.674 57.6108C230.894 57.8192 231.005 58.1073 231.005 58.4752C231.005 58.8553 230.848 59.1587 230.536 59.3856C230.223 59.6124 229.76 59.7258 229.147 59.7258ZM237.05 53.9508H235.054V53.1599H239.993V53.9508H237.997V59.5879H237.05V53.9508ZM242.188 59.7258C241.372 59.7258 240.732 59.5235 240.266 59.1189C239.806 58.7081 239.576 58.1319 239.576 57.3901C239.576 56.6666 239.781 56.0934 240.192 55.6704C240.609 55.2474 241.201 55.0359 241.967 55.0359C242.476 55.0359 242.908 55.134 243.264 55.3302C243.619 55.5202 243.886 55.7869 244.064 56.1302C244.248 56.4674 244.339 56.8536 244.339 57.2889V57.7487H240.459C240.489 58.1656 240.664 58.4782 240.983 58.6867C241.308 58.889 241.746 58.9902 242.298 58.9902C242.58 58.9902 242.865 58.9656 243.153 58.9166C243.441 58.8614 243.696 58.7909 243.916 58.7051V59.45C243.72 59.5296 243.46 59.594 243.135 59.6431C242.816 59.6982 242.5 59.7258 242.188 59.7258ZM243.466 57.0958C243.454 56.6789 243.316 56.357 243.052 56.1302C242.795 55.8972 242.427 55.7808 241.949 55.7808C241.483 55.7808 241.121 55.9003 240.863 56.1394C240.606 56.3785 240.471 56.6973 240.459 57.0958H243.466ZM245.355 55.1738H246.256V55.9647C246.44 55.6949 246.697 55.4957 247.028 55.3669C247.366 55.2382 247.755 55.1738 248.196 55.1738V55.9003C247.724 55.9003 247.32 55.9769 246.982 56.1302C246.645 56.2835 246.412 56.5256 246.284 56.8567V59.5879H245.355V55.1738ZM249.028 55.1738H249.911V55.8083C250.119 55.5509 250.355 55.3577 250.619 55.229C250.882 55.1003 251.155 55.0359 251.437 55.0359C251.793 55.0359 252.075 55.0972 252.283 55.2198C252.492 55.3363 252.645 55.5171 252.743 55.7624C252.939 55.5233 253.178 55.3424 253.46 55.2198C253.748 55.0972 254.036 55.0359 254.325 55.0359C254.864 55.0359 255.253 55.1738 255.492 55.4497C255.732 55.7194 255.851 56.121 255.851 56.6544V59.5879H254.95V56.7739C254.95 56.4122 254.882 56.1578 254.748 56.0107C254.613 55.8574 254.383 55.7808 254.058 55.7808C253.592 55.7808 253.212 55.9831 252.918 56.3877C252.93 56.4796 252.936 56.6298 252.936 56.8383V59.5879H252.035V56.7739C252.035 56.4122 251.973 56.1578 251.851 56.0107C251.728 55.8574 251.508 55.7808 251.189 55.7808C250.723 55.7808 250.306 56.0444 249.938 56.5716V59.5879H249.028V55.1738ZM258.63 59.7258C258.324 59.7258 257.999 59.686 257.655 59.6063C257.312 59.5327 257.042 59.4316 256.846 59.3028V58.512C257.085 58.653 257.361 58.7694 257.674 58.8614C257.986 58.9472 258.29 58.9902 258.584 58.9902C258.915 58.9902 259.157 58.9503 259.311 58.8706C259.464 58.7909 259.54 58.6622 259.54 58.4844C259.54 58.3495 259.504 58.2422 259.43 58.1625C259.363 58.0767 259.243 58.0001 259.071 57.9326C258.906 57.8652 258.655 57.7855 258.317 57.6935C257.956 57.5893 257.668 57.4851 257.453 57.3809C257.245 57.2705 257.085 57.1326 256.975 56.967C256.871 56.8015 256.818 56.5869 256.818 56.3233C256.818 55.9003 256.984 55.5815 257.315 55.3669C257.652 55.1462 258.103 55.0359 258.667 55.0359C258.961 55.0359 259.249 55.0635 259.531 55.1186C259.813 55.1738 260.04 55.2505 260.212 55.3485V56.121C260.034 56.0168 259.813 55.934 259.55 55.8727C259.292 55.8114 259.029 55.7808 258.759 55.7808C258.434 55.7808 258.186 55.8206 258.014 55.9003C257.842 55.98 257.756 56.121 257.756 56.3233C257.756 56.4521 257.793 56.5563 257.867 56.636C257.94 56.7157 258.057 56.7862 258.216 56.8475C258.382 56.9027 258.642 56.9762 258.998 57.0682C259.556 57.2215 259.942 57.4023 260.157 57.6108C260.377 57.8192 260.488 58.1073 260.488 58.4752C260.488 58.8553 260.331 59.1587 260.019 59.3856C259.706 59.6124 259.243 59.7258 258.63 59.7258ZM262.063 59.1005H263.037L262.164 60.9489H261.318L262.063 59.1005ZM19.9903 67.1599H22.464C23.1568 67.1599 23.7024 67.3346 24.1009 67.6841C24.5055 68.0274 24.7079 68.5178 24.7079 69.1554C24.7079 69.8053 24.5086 70.2988 24.1101 70.636C23.7116 70.967 23.1629 71.1326 22.464 71.1326H20.9283V73.5879H19.9903V67.1599ZM22.3629 70.3509C22.792 70.3509 23.1323 70.262 23.3836 70.0842C23.635 69.9064 23.7607 69.5968 23.7607 69.1554C23.7607 68.714 23.635 68.4044 23.3836 68.2266C23.1323 68.0427 22.792 67.9508 22.3629 67.9508H20.9283V70.3509H22.3629ZM25.5313 69.1738H26.4325V69.9647C26.6164 69.6949 26.8739 69.4957 27.2049 69.3669C27.5421 69.2382 27.9314 69.1738 28.3728 69.1738V69.9003C27.9008 69.9003 27.4961 69.9769 27.1589 70.1302C26.8218 70.2835 26.5888 70.5256 26.46 70.8567V73.5879H25.5313V69.1738ZM29.7468 68.3094C29.5936 68.3094 29.4648 68.2573 29.3606 68.1531C29.2564 68.0488 29.2043 67.9201 29.2043 67.7668C29.2043 67.6136 29.2564 67.4848 29.3606 67.3806C29.4648 67.2764 29.5936 67.2243 29.7468 67.2243C29.9062 67.2243 30.038 67.2764 30.1422 67.3806C30.2526 67.4848 30.3078 67.6136 30.3078 67.7668C30.3078 67.9201 30.2526 68.0488 30.1422 68.1531C30.038 68.2573 29.9062 68.3094 29.7468 68.3094ZM29.2778 69.1738H30.225V73.5879H29.2778V69.1738ZM31.3193 69.1738H32.3033L33.5999 72.3464L34.8966 69.1738H35.8805L34.0046 73.5879H33.1953L31.3193 69.1738ZM38.0601 73.7258C37.5268 73.7258 37.0976 73.591 36.7727 73.3212C36.4539 73.0453 36.2945 72.6744 36.2945 72.2085C36.2945 71.718 36.4478 71.341 36.7543 71.0774C37.067 70.8076 37.5084 70.6728 38.0785 70.6728C38.6855 70.6728 39.2004 70.7954 39.6235 71.0406V70.8107C39.6235 70.4613 39.5162 70.2038 39.3016 70.0382C39.0931 69.8666 38.7621 69.7808 38.3084 69.7808C38.0387 69.7808 37.7751 69.8083 37.5176 69.8635C37.2662 69.9126 37.0394 69.9831 36.8371 70.075V69.321C37.021 69.2351 37.2601 69.1677 37.5544 69.1186C37.8486 69.0635 38.1337 69.0359 38.4096 69.0359C39.1391 69.0359 39.6786 69.1983 40.0281 69.5233C40.3837 69.8421 40.5614 70.2865 40.5614 70.8567V73.5879H39.6878V73.0913C39.4978 73.2997 39.2709 73.4591 39.0073 73.5695C38.7498 73.6737 38.4341 73.7258 38.0601 73.7258ZM38.29 73.0177C38.5843 73.0177 38.851 72.9595 39.0901 72.843C39.3292 72.7265 39.507 72.5641 39.6235 72.3556V71.7579C39.225 71.5004 38.7805 71.3717 38.29 71.3717C37.9345 71.3717 37.6678 71.4422 37.49 71.5832C37.3183 71.718 37.2325 71.9265 37.2325 72.2085C37.2325 72.748 37.585 73.0177 38.29 73.0177ZM43.861 73.7258C43.3705 73.7258 42.9353 73.6339 42.5552 73.45C42.1751 73.266 41.8777 72.9993 41.6632 72.6499C41.4547 72.2943 41.3505 71.8744 41.3505 71.3901C41.3505 70.9057 41.4547 70.4888 41.6632 70.1394C41.8777 69.7838 42.1751 69.511 42.5552 69.321C42.9414 69.1309 43.3828 69.0359 43.8794 69.0359C44.5538 69.0359 45.0933 69.1677 45.4979 69.4313V70.1946C45.0994 69.9187 44.5905 69.7808 43.9714 69.7808C43.4686 69.7808 43.0609 69.9187 42.7483 70.1946C42.4418 70.4643 42.2885 70.8628 42.2885 71.3901C42.2885 71.9173 42.4418 72.3158 42.7483 72.5855C43.0548 72.8553 43.4564 72.9902 43.953 72.9902C44.5722 72.9902 45.1055 72.843 45.5531 72.5487V73.3028C45.3385 73.45 45.0933 73.5572 44.8174 73.6247C44.5476 73.6921 44.2288 73.7258 43.861 73.7258ZM47.268 75.4087C46.9369 75.4087 46.661 75.375 46.4403 75.3075V74.5811C46.5997 74.6424 46.7959 74.673 47.0289 74.673C47.2434 74.673 47.412 74.6178 47.5347 74.5075C47.6573 74.4033 47.7676 74.2316 47.8657 73.9925L48.0772 73.4775L46.1461 69.1738H47.1024L48.5738 72.5671L49.944 69.1738H50.9004L48.914 74.0845C48.7301 74.5443 48.5094 74.8784 48.2519 75.0868C48.0006 75.3014 47.6726 75.4087 47.268 75.4087ZM55.1308 67.1599H57.6045C58.2973 67.1599 58.8429 67.3346 59.2414 67.6841C59.646 68.0274 59.8484 68.5178 59.8484 69.1554C59.8484 69.8053 59.6491 70.2988 59.2506 70.636C58.8521 70.967 58.3034 71.1326 57.6045 71.1326H56.0688V73.5879H55.1308V67.1599ZM57.5034 70.3509C57.9325 70.3509 58.2728 70.262 58.5241 70.0842C58.7755 69.9064 58.9012 69.5968 58.9012 69.1554C58.9012 68.714 58.7755 68.4044 58.5241 68.2266C58.2728 68.0427 57.9325 67.9508 57.5034 67.9508H56.0688V70.3509H57.5034ZM62.4954 73.7258C61.9989 73.7258 61.5605 73.6339 61.1804 73.45C60.8064 73.2599 60.5122 72.9902 60.2976 72.6407C60.0892 72.2851 59.9849 71.8682 59.9849 71.3901C59.9849 70.918 60.0892 70.5042 60.2976 70.1486C60.506 69.793 60.8003 69.5202 61.1804 69.3302C61.5605 69.134 61.9989 69.0359 62.4954 69.0359C62.992 69.0359 63.4304 69.134 63.8105 69.3302C64.1906 69.5202 64.4848 69.793 64.6933 70.1486C64.9078 70.5042 65.0151 70.918 65.0151 71.3901C65.0151 71.8682 64.9078 72.2851 64.6933 72.6407C64.4848 72.9902 64.1906 73.2599 63.8105 73.45C63.4304 73.6339 62.992 73.7258 62.4954 73.7258ZM62.4954 72.9902C62.9736 72.9902 63.3537 72.843 63.6357 72.5487C63.9177 72.2545 64.0588 71.8682 64.0588 71.3901C64.0588 70.8935 63.9177 70.5011 63.6357 70.213C63.3537 69.9248 62.9736 69.7808 62.4954 69.7808C62.0172 69.7808 61.6371 69.9248 61.3551 70.213C61.0731 70.5011 60.9321 70.8935 60.9321 71.3901C60.9321 71.8682 61.0731 72.2545 61.3551 72.5487C61.6371 72.843 62.0172 72.9902 62.4954 72.9902ZM66.0241 66.7921H66.9529V73.5879H66.0241V66.7921ZM68.695 68.3094C68.5418 68.3094 68.413 68.2573 68.3088 68.1531C68.2046 68.0488 68.1525 67.9201 68.1525 67.7668C68.1525 67.6136 68.2046 67.4848 68.3088 67.3806C68.413 67.2764 68.5418 67.2243 68.695 67.2243C68.8544 67.2243 68.9862 67.2764 69.0905 67.3806C69.2008 67.4848 69.256 67.6136 69.256 67.7668C69.256 67.9201 69.2008 68.0488 69.0905 68.1531C68.9862 68.2573 68.8544 68.3094 68.695 68.3094ZM68.226 69.1738H69.1732V73.5879H68.226V69.1738ZM72.7781 73.7258C72.2876 73.7258 71.8523 73.6339 71.4722 73.45C71.0921 73.266 70.7948 72.9993 70.5802 72.6499C70.3718 72.2943 70.2675 71.8744 70.2675 71.3901C70.2675 70.9057 70.3718 70.4888 70.5802 70.1394C70.7948 69.7838 71.0921 69.511 71.4722 69.321C71.8585 69.1309 72.2999 69.0359 72.7964 69.0359C73.4708 69.0359 74.0103 69.1677 74.4149 69.4313V70.1946C74.0164 69.9187 73.5076 69.7808 72.8884 69.7808C72.3857 69.7808 71.978 69.9187 71.6653 70.1946C71.3588 70.4643 71.2055 70.8628 71.2055 71.3901C71.2055 71.9173 71.3588 72.3158 71.6653 72.5855C71.9719 72.8553 72.3734 72.9902 72.87 72.9902C73.4892 72.9902 74.0226 72.843 74.4701 72.5487V73.3028C74.2555 73.45 74.0103 73.5572 73.7344 73.6247C73.4647 73.6921 73.1459 73.7258 72.7781 73.7258ZM76.185 75.4087C75.854 75.4087 75.5781 75.375 75.3574 75.3075V74.5811C75.5168 74.6424 75.713 74.673 75.9459 74.673C76.1605 74.673 76.3291 74.6178 76.4517 74.5075C76.5743 74.4033 76.6847 74.2316 76.7828 73.9925L76.9943 73.4775L75.0631 69.1738H76.0195L77.4908 72.5671L78.861 69.1738H79.8174L77.8311 74.0845C77.6472 74.5443 77.4265 74.8784 77.169 75.0868C76.9176 75.3014 76.5896 75.4087 76.185 75.4087ZM81.2052 73.1005H82.18L81.3064 74.9489H80.4604L81.2052 73.1005ZM88.18 73.7258C87.6467 73.7258 87.2175 73.591 86.8926 73.3212C86.5738 73.0453 86.4144 72.6744 86.4144 72.2085C86.4144 71.718 86.5677 71.341 86.8742 71.0774C87.1869 70.8076 87.6283 70.6728 88.1984 70.6728C88.8054 70.6728 89.3203 70.7954 89.7433 71.0406V70.8107C89.7433 70.4613 89.6361 70.2038 89.4215 70.0382C89.213 69.8666 88.882 69.7808 88.4283 69.7808C88.1586 69.7808 87.895 69.8083 87.6375 69.8635C87.3861 69.9126 87.1593 69.9831 86.957 70.075V69.321C87.1409 69.2351 87.38 69.1677 87.6742 69.1186C87.9685 69.0635 88.2536 69.0359 88.5295 69.0359C89.259 69.0359 89.7985 69.1983 90.148 69.5233C90.5035 69.8421 90.6813 70.2865 90.6813 70.8567V73.5879H89.8077V73.0913C89.6177 73.2997 89.3908 73.4591 89.1272 73.5695C88.8697 73.6737 88.554 73.7258 88.18 73.7258ZM88.4099 73.0177C88.7042 73.0177 88.9709 72.9595 89.21 72.843C89.4491 72.7265 89.6269 72.5641 89.7433 72.3556V71.7579C89.3449 71.5004 88.9004 71.3717 88.4099 71.3717C88.0543 71.3717 87.7877 71.4422 87.6099 71.5832C87.4382 71.718 87.3524 71.9265 87.3524 72.2085C87.3524 72.748 87.7049 73.0177 88.4099 73.0177ZM91.8339 69.1738H92.7351V69.8083C92.9436 69.5447 93.198 69.3516 93.4984 69.229C93.8049 69.1003 94.1237 69.0359 94.4548 69.0359C95.0433 69.0359 95.4817 69.1922 95.7698 69.5049C96.0579 69.8175 96.202 70.2375 96.202 70.7647V73.5879H95.2732V70.8567C95.2732 70.1394 94.9299 69.7808 94.2433 69.7808C93.949 69.7808 93.6731 69.8513 93.4156 69.9923C93.1643 70.1271 92.9466 70.3356 92.7627 70.6176V73.5879H91.8339V69.1738ZM99.4814 73.7258C99.04 73.7258 98.6415 73.6308 98.2859 73.4408C97.9365 73.2446 97.6606 72.9718 97.4583 72.6223C97.2621 72.2667 97.164 71.856 97.164 71.3901C97.164 70.9303 97.2621 70.5226 97.4583 70.167C97.6606 69.8114 97.9365 69.5355 98.2859 69.3393C98.6415 69.137 99.04 69.0359 99.4814 69.0359C100.278 69.0359 100.882 69.278 101.293 69.7624V66.7921H102.222V73.5879H101.321V72.9442C101.075 73.2139 100.806 73.4132 100.511 73.5419C100.223 73.6645 99.8799 73.7258 99.4814 73.7258ZM99.6929 72.9902C100.073 72.9902 100.404 72.8921 100.686 72.6959C100.974 72.4936 101.177 72.2238 101.293 71.8866V70.8935C101.189 70.5563 100.99 70.2865 100.695 70.0842C100.407 69.8819 100.073 69.7808 99.6929 69.7808C99.3925 69.7808 99.1197 69.8482 98.8744 69.9831C98.6354 70.1179 98.4453 70.308 98.3043 70.5532C98.1694 70.7984 98.102 71.0774 98.102 71.3901C98.102 71.7027 98.1694 71.9817 98.3043 72.2269C98.4453 72.4721 98.6354 72.6622 98.8744 72.797C99.1197 72.9258 99.3925 72.9902 99.6929 72.9902ZM110.041 73.7258C109.379 73.7258 108.79 73.5879 108.275 73.312C107.76 73.0361 107.359 72.6468 107.071 72.1441C106.782 71.6353 106.638 71.0467 106.638 70.3785C106.638 69.7103 106.782 69.1217 107.071 68.6129C107.359 68.104 107.76 67.7117 108.275 67.4358C108.79 67.1599 109.379 67.022 110.041 67.022C110.924 67.022 111.662 67.2457 112.257 67.6933V68.5945C111.724 68.1224 111.013 67.8864 110.124 67.8864C109.627 67.8864 109.186 67.9875 108.799 68.1898C108.419 68.3922 108.122 68.6834 107.907 69.0635C107.693 69.4374 107.586 69.8758 107.586 70.3785C107.586 70.8812 107.693 71.3226 107.907 71.7027C108.128 72.0828 108.429 72.374 108.809 72.5763C109.195 72.7786 109.633 72.8798 110.124 72.8798C110.577 72.8798 110.982 72.8216 111.338 72.7051C111.699 72.5825 112.033 72.3893 112.34 72.1257V73.0361C111.788 73.4959 111.022 73.7258 110.041 73.7258ZM115.444 73.7258C114.948 73.7258 114.509 73.6339 114.129 73.45C113.755 73.2599 113.461 72.9902 113.246 72.6407C113.038 72.2851 112.934 71.8682 112.934 71.3901C112.934 70.918 113.038 70.5042 113.246 70.1486C113.455 69.793 113.749 69.5202 114.129 69.3302C114.509 69.134 114.948 69.0359 115.444 69.0359C115.941 69.0359 116.379 69.134 116.759 69.3302C117.139 69.5202 117.434 69.793 117.642 70.1486C117.857 70.5042 117.964 70.918 117.964 71.3901C117.964 71.8682 117.857 72.2851 117.642 72.6407C117.434 72.9902 117.139 73.2599 116.759 73.45C116.379 73.6339 115.941 73.7258 115.444 73.7258ZM115.444 72.9902C115.922 72.9902 116.302 72.843 116.584 72.5487C116.866 72.2545 117.007 71.8682 117.007 71.3901C117.007 70.8935 116.866 70.5011 116.584 70.213C116.302 69.9248 115.922 69.7808 115.444 69.7808C114.966 69.7808 114.586 69.9248 114.304 70.213C114.022 70.5011 113.881 70.8935 113.881 71.3901C113.881 71.8682 114.022 72.2545 114.304 72.5487C114.586 72.843 114.966 72.9902 115.444 72.9902ZM118.973 69.1738H119.856V69.8083C120.064 69.5509 120.3 69.3577 120.564 69.229C120.827 69.1003 121.1 69.0359 121.382 69.0359C121.738 69.0359 122.02 69.0972 122.228 69.2198C122.437 69.3363 122.59 69.5171 122.688 69.7624C122.884 69.5233 123.123 69.3424 123.405 69.2198C123.693 69.0972 123.982 69.0359 124.27 69.0359C124.809 69.0359 125.199 69.1738 125.438 69.4497C125.677 69.7194 125.796 70.121 125.796 70.6544V73.5879H124.895V70.7739C124.895 70.4122 124.828 70.1578 124.693 70.0107C124.558 69.8574 124.328 69.7808 124.003 69.7808C123.537 69.7808 123.157 69.9831 122.863 70.3877C122.875 70.4796 122.881 70.6298 122.881 70.8383V73.5879H121.98V70.7739C121.98 70.4122 121.919 70.1578 121.796 70.0107C121.673 69.8574 121.453 69.7808 121.134 69.7808C120.668 69.7808 120.251 70.0444 119.883 70.5716V73.5879H118.973V69.1738ZM126.947 69.1738H127.83V69.8083C128.039 69.5509 128.275 69.3577 128.538 69.229C128.802 69.1003 129.075 69.0359 129.357 69.0359C129.712 69.0359 129.994 69.0972 130.203 69.2198C130.411 69.3363 130.565 69.5171 130.663 69.7624C130.859 69.5233 131.098 69.3424 131.38 69.2198C131.668 69.0972 131.956 69.0359 132.244 69.0359C132.784 69.0359 133.173 69.1738 133.412 69.4497C133.651 69.7194 133.771 70.121 133.771 70.6544V73.5879H132.87V70.7739C132.87 70.4122 132.802 70.1578 132.667 70.0107C132.533 69.8574 132.303 69.7808 131.978 69.7808C131.512 69.7808 131.132 69.9831 130.837 70.3877C130.85 70.4796 130.856 70.6298 130.856 70.8383V73.5879H129.955V70.7739C129.955 70.4122 129.893 70.1578 129.771 70.0107C129.648 69.8574 129.427 69.7808 129.109 69.7808C128.643 69.7808 128.226 70.0444 127.858 70.5716V73.5879H126.947V69.1738ZM136.679 73.7258C136.084 73.7258 135.633 73.5664 135.327 73.2476C135.026 72.9288 134.876 72.5028 134.876 71.9694V69.1738H135.805V71.9326C135.805 72.6376 136.157 72.9902 136.862 72.9902C137.482 72.9902 137.966 72.7112 138.315 72.1533V69.1738H139.244V73.5879H138.343V72.9626C138.135 73.2262 137.886 73.4193 137.598 73.5419C137.316 73.6645 137.01 73.7258 136.679 73.7258ZM140.436 69.1738H141.337V69.8083C141.546 69.5447 141.8 69.3516 142.101 69.229C142.407 69.1003 142.726 69.0359 143.057 69.0359C143.646 69.0359 144.084 69.1922 144.372 69.5049C144.66 69.8175 144.804 70.2375 144.804 70.7647V73.5879H143.875V70.8567C143.875 70.1394 143.532 69.7808 142.845 69.7808C142.551 69.7808 142.275 69.8513 142.018 69.9923C141.766 70.1271 141.549 70.3356 141.365 70.6176V73.5879H140.436V69.1738ZM146.493 68.3094C146.339 68.3094 146.211 68.2573 146.106 68.1531C146.002 68.0488 145.95 67.9201 145.95 67.7668C145.95 67.6136 146.002 67.4848 146.106 67.3806C146.211 67.2764 146.339 67.2243 146.493 67.2243C146.652 67.2243 146.784 67.2764 146.888 67.3806C146.998 67.4848 147.054 67.6136 147.054 67.7668C147.054 67.9201 146.998 68.0488 146.888 68.1531C146.784 68.2573 146.652 68.3094 146.493 68.3094ZM146.024 69.1738H146.971V73.5879H146.024V69.1738ZM149.95 73.7258C149.503 73.7258 149.156 73.5971 148.911 73.3396C148.672 73.0821 148.553 72.7173 148.553 72.2453V69.8911H147.881V69.1738H148.553V67.8496H149.491V69.1738H150.576V69.8911H149.491V72.1809C149.491 72.4752 149.546 72.6836 149.656 72.8062C149.773 72.9288 149.981 72.9902 150.281 72.9902C150.459 72.9902 150.637 72.9503 150.815 72.8706V73.6063C150.582 73.686 150.294 73.7258 149.95 73.7258ZM152.258 75.4087C151.927 75.4087 151.651 75.375 151.431 75.3075V74.5811C151.59 74.6424 151.786 74.673 152.019 74.673C152.234 74.673 152.402 74.6178 152.525 74.5075C152.648 74.4033 152.758 74.2316 152.856 73.9925L153.068 73.4775L151.137 69.1738H152.093L153.564 72.5671L154.934 69.1738H155.891L153.904 74.0845C153.721 74.5443 153.5 74.8784 153.242 75.0868C152.991 75.3014 152.663 75.4087 152.258 75.4087ZM161.905 73.7258C161.537 73.7258 161.173 73.6921 160.811 73.6247C160.455 73.5634 160.164 73.4775 159.937 73.3672V72.5212C160.526 72.797 161.16 72.935 161.841 72.935C162.797 72.935 163.275 72.6131 163.275 71.9694C163.275 71.7487 163.223 71.5709 163.119 71.436C163.015 71.3012 162.865 71.1847 162.669 71.0866C162.472 70.9824 162.154 70.8414 161.712 70.6636C161.105 70.4183 160.667 70.1486 160.397 69.8543C160.127 69.5601 159.993 69.1891 159.993 68.7416C159.993 68.4044 160.084 68.1071 160.268 67.8496C160.452 67.586 160.71 67.3837 161.041 67.2427C161.372 67.0955 161.752 67.022 162.181 67.022C162.531 67.022 162.846 67.0495 163.128 67.1047C163.41 67.1599 163.686 67.2488 163.956 67.3714V68.1807C163.423 67.9416 162.883 67.822 162.337 67.822C161.896 67.822 161.559 67.9017 161.326 68.0611C161.093 68.2205 160.976 68.4473 160.976 68.7416C160.976 68.9439 161.026 69.1156 161.124 69.2566C161.228 69.3915 161.378 69.5141 161.574 69.6244C161.777 69.7286 162.074 69.8605 162.466 70.0198C162.902 70.1976 163.245 70.3662 163.496 70.5256C163.748 70.685 163.938 70.8812 164.066 71.1142C164.201 71.341 164.269 71.6261 164.269 71.9694C164.269 72.5273 164.069 72.9595 163.671 73.266C163.272 73.5726 162.684 73.7258 161.905 73.7258ZM166.654 73.7258C166.206 73.7258 165.86 73.5971 165.615 73.3396C165.376 73.0821 165.256 72.7173 165.256 72.2453V69.8911H164.585V69.1738H165.256V67.8496H166.194V69.1738H167.279V69.8911H166.194V72.1809C166.194 72.4752 166.249 72.6836 166.36 72.8062C166.476 72.9288 166.685 72.9902 166.985 72.9902C167.163 72.9902 167.341 72.9503 167.518 72.8706V73.6063C167.285 73.686 166.997 73.7258 166.654 73.7258ZM169.839 73.7258C169.306 73.7258 168.877 73.591 168.552 73.3212C168.233 73.0453 168.074 72.6744 168.074 72.2085C168.074 71.718 168.227 71.341 168.533 71.0774C168.846 70.8076 169.288 70.6728 169.858 70.6728C170.465 70.6728 170.98 70.7954 171.403 71.0406V70.8107C171.403 70.4613 171.295 70.2038 171.081 70.0382C170.872 69.8666 170.541 69.7808 170.088 69.7808C169.818 69.7808 169.554 69.8083 169.297 69.8635C169.045 69.9126 168.819 69.9831 168.616 70.075V69.321C168.8 69.2351 169.039 69.1677 169.333 69.1186C169.628 69.0635 169.913 69.0359 170.189 69.0359C170.918 69.0359 171.458 69.1983 171.807 69.5233C172.163 69.8421 172.341 70.2865 172.341 70.8567V73.5879H171.467V73.0913C171.277 73.2997 171.05 73.4591 170.786 73.5695C170.529 73.6737 170.213 73.7258 169.839 73.7258ZM170.069 73.0177C170.363 73.0177 170.63 72.9595 170.869 72.843C171.108 72.7265 171.286 72.5641 171.403 72.3556V71.7579C171.004 71.5004 170.56 71.3717 170.069 71.3717C169.714 71.3717 169.447 71.4422 169.269 71.5832C169.097 71.718 169.012 71.9265 169.012 72.2085C169.012 72.748 169.364 73.0177 170.069 73.0177ZM173.493 69.1738H174.394V69.8083C174.603 69.5447 174.857 69.3516 175.158 69.229C175.464 69.1003 175.783 69.0359 176.114 69.0359C176.703 69.0359 177.141 69.1922 177.429 69.5049C177.717 69.8175 177.861 70.2375 177.861 70.7647V73.5879H176.932V70.8567C176.932 70.1394 176.589 69.7808 175.903 69.7808C175.608 69.7808 175.332 69.8513 175.075 69.9923C174.824 70.1271 174.606 70.3356 174.422 70.6176V73.5879H173.493V69.1738ZM181.141 73.7258C180.699 73.7258 180.301 73.6308 179.945 73.4408C179.596 73.2446 179.32 72.9718 179.117 72.6223C178.921 72.2667 178.823 71.856 178.823 71.3901C178.823 70.9303 178.921 70.5226 179.117 70.167C179.32 69.8114 179.596 69.5355 179.945 69.3393C180.301 69.137 180.699 69.0359 181.141 69.0359C181.938 69.0359 182.541 69.278 182.952 69.7624V66.7921H183.881V73.5879H182.98V72.9442C182.735 73.2139 182.465 73.4132 182.171 73.5419C181.882 73.6645 181.539 73.7258 181.141 73.7258ZM181.352 72.9902C181.732 72.9902 182.063 72.8921 182.345 72.6959C182.633 72.4936 182.836 72.2238 182.952 71.8866V70.8935C182.848 70.5563 182.649 70.2865 182.354 70.0842C182.066 69.8819 181.732 69.7808 181.352 69.7808C181.052 69.7808 180.779 69.8482 180.534 69.9831C180.295 70.1179 180.105 70.308 179.964 70.5532C179.829 70.7984 179.761 71.0774 179.761 71.3901C179.761 71.7027 179.829 71.9817 179.964 72.2269C180.105 72.4721 180.295 72.6622 180.534 72.797C180.779 72.9258 181.052 72.9902 181.352 72.9902ZM186.525 73.7258C185.992 73.7258 185.562 73.591 185.237 73.3212C184.919 73.0453 184.759 72.6744 184.759 72.2085C184.759 71.718 184.913 71.341 185.219 71.0774C185.532 70.8076 185.973 70.6728 186.543 70.6728C187.15 70.6728 187.665 70.7954 188.088 71.0406V70.8107C188.088 70.4613 187.981 70.2038 187.766 70.0382C187.558 69.8666 187.227 69.7808 186.773 69.7808C186.503 69.7808 186.24 69.8083 185.982 69.8635C185.731 69.9126 185.504 69.9831 185.302 70.075V69.321C185.486 69.2351 185.725 69.1677 186.019 69.1186C186.313 69.0635 186.599 69.0359 186.874 69.0359C187.604 69.0359 188.143 69.1983 188.493 69.5233C188.848 69.8421 189.026 70.2865 189.026 70.8567V73.5879H188.153V73.0913C187.963 73.2997 187.736 73.4591 187.472 73.5695C187.215 73.6737 186.899 73.7258 186.525 73.7258ZM186.755 73.0177C187.049 73.0177 187.316 72.9595 187.555 72.843C187.794 72.7265 187.972 72.5641 188.088 72.3556V71.7579C187.69 71.5004 187.245 71.3717 186.755 71.3717C186.399 71.3717 186.133 71.4422 185.955 71.5832C185.783 71.718 185.697 71.9265 185.697 72.2085C185.697 72.748 186.05 73.0177 186.755 73.0177ZM190.179 69.1738H191.08V69.9647C191.264 69.6949 191.521 69.4957 191.852 69.3669C192.19 69.2382 192.579 69.1738 193.02 69.1738V69.9003C192.548 69.9003 192.144 69.9769 191.807 70.1302C191.469 70.2835 191.236 70.5256 191.108 70.8567V73.5879H190.179V69.1738ZM195.851 73.7258C195.409 73.7258 195.011 73.6308 194.655 73.4408C194.306 73.2446 194.03 72.9718 193.827 72.6223C193.631 72.2667 193.533 71.856 193.533 71.3901C193.533 70.9303 193.631 70.5226 193.827 70.167C194.03 69.8114 194.306 69.5355 194.655 69.3393C195.011 69.137 195.409 69.0359 195.851 69.0359C196.648 69.0359 197.251 69.278 197.662 69.7624V66.7921H198.591V73.5879H197.69V72.9442C197.445 73.2139 197.175 73.4132 196.881 73.5419C196.592 73.6645 196.249 73.7258 195.851 73.7258ZM196.062 72.9902C196.442 72.9902 196.773 72.8921 197.055 72.6959C197.343 72.4936 197.546 72.2238 197.662 71.8866V70.8935C197.558 70.5563 197.359 70.2865 197.064 70.0842C196.776 69.8819 196.442 69.7808 196.062 69.7808C195.762 69.7808 195.489 69.8482 195.244 69.9831C195.005 70.1179 194.815 70.308 194.674 70.5532C194.539 70.7984 194.471 71.0774 194.471 71.3901C194.471 71.7027 194.539 71.9817 194.674 72.2269C194.815 72.4721 195.005 72.6622 195.244 72.797C195.489 72.9258 195.762 72.9902 196.062 72.9902ZM201.416 73.7258C201.109 73.7258 200.784 73.686 200.441 73.6063C200.098 73.5327 199.828 73.4316 199.632 73.3028V72.512C199.871 72.653 200.147 72.7694 200.459 72.8614C200.772 72.9472 201.075 72.9902 201.37 72.9902C201.701 72.9902 201.943 72.9503 202.096 72.8706C202.249 72.7909 202.326 72.6622 202.326 72.4844C202.326 72.3495 202.289 72.2422 202.216 72.1625C202.148 72.0767 202.029 72.0001 201.857 71.9326C201.691 71.8652 201.44 71.7855 201.103 71.6935C200.741 71.5893 200.453 71.4851 200.239 71.3809C200.03 71.2705 199.871 71.1326 199.76 70.967C199.656 70.8015 199.604 70.5869 199.604 70.3233C199.604 69.9003 199.77 69.5815 200.101 69.3669C200.438 69.1462 200.888 69.0359 201.452 69.0359C201.747 69.0359 202.035 69.0635 202.317 69.1186C202.599 69.1738 202.826 69.2505 202.997 69.3485V70.121C202.82 70.0168 202.599 69.934 202.335 69.8727C202.078 69.8114 201.814 69.7808 201.544 69.7808C201.219 69.7808 200.971 69.8206 200.799 69.9003C200.628 69.98 200.542 70.121 200.542 70.3233C200.542 70.4521 200.579 70.5563 200.652 70.636C200.726 70.7157 200.842 70.7862 201.002 70.8475C201.167 70.9027 201.428 70.9762 201.783 71.0682C202.341 71.2215 202.728 71.4023 202.942 71.6108C203.163 71.8192 203.273 72.1073 203.273 72.4752C203.273 72.8553 203.117 73.1587 202.804 73.3856C202.492 73.6124 202.029 73.7258 201.416 73.7258ZM204.535 73.5879C204.413 73.5879 204.309 73.548 204.223 73.4683C204.143 73.3825 204.103 73.2783 204.103 73.1557C204.103 73.0331 204.143 72.9288 204.223 72.843C204.309 72.7572 204.413 72.7143 204.535 72.7143C204.658 72.7143 204.762 72.7572 204.848 72.843C204.934 72.9288 204.977 73.0331 204.977 73.1557C204.977 73.2783 204.934 73.3825 204.848 73.4683C204.762 73.548 204.658 73.5879 204.535 73.5879Z" fill="#A6A9AB"/>
<rect x="19.3926" y="102.11" width="268.216" height="36.7839" rx="4.59799" fill="#333638"/>
<path d="M38.4825 117.004H39.5768L42.2483 122.851L44.9197 117.004H46.014V124.503H44.9519V119.171L42.5165 124.503H41.9801L39.5339 119.171V124.503H38.4825V117.004ZM50.2414 124.664C49.2902 124.664 48.5427 124.428 47.9992 123.956C47.4627 123.477 47.1945 122.804 47.1945 121.939C47.1945 121.095 47.4341 120.426 47.9133 119.933C48.3997 119.439 49.0899 119.192 49.984 119.192C50.5776 119.192 51.0819 119.307 51.4967 119.536C51.9115 119.757 52.2227 120.068 52.4301 120.469C52.6447 120.862 52.7519 121.313 52.7519 121.821V122.357H48.2245C48.2602 122.844 48.4641 123.208 48.836 123.452C49.2151 123.688 49.7265 123.806 50.3702 123.806C50.6992 123.806 51.0318 123.777 51.368 123.72C51.7041 123.655 52.0009 123.573 52.2584 123.473V124.342C52.0296 124.435 51.7256 124.51 51.3465 124.567C50.9746 124.632 50.6062 124.664 50.2414 124.664ZM51.7327 121.595C51.7184 121.109 51.5575 120.734 51.2499 120.469C50.9495 120.197 50.5204 120.061 49.9625 120.061C49.4189 120.061 48.9969 120.201 48.6965 120.48C48.3961 120.759 48.2388 121.131 48.2245 121.595H51.7327ZM55.9212 124.664C55.399 124.664 54.9949 124.514 54.7088 124.213C54.4299 123.913 54.2904 123.487 54.2904 122.937V120.19H53.5072V119.353H54.2904V117.808H55.3847V119.353H56.6507V120.19H55.3847V122.861C55.3847 123.205 55.4491 123.448 55.5779 123.591C55.7138 123.734 55.9569 123.806 56.3074 123.806C56.5148 123.806 56.7222 123.759 56.9297 123.666V124.524C56.6579 124.617 56.3217 124.664 55.9212 124.664ZM59.6373 124.664C59.015 124.664 58.5144 124.507 58.1353 124.192C57.7634 123.87 57.5774 123.437 57.5774 122.894C57.5774 122.321 57.7562 121.882 58.1138 121.574C58.4786 121.259 58.9936 121.102 59.6588 121.102C60.3669 121.102 60.9677 121.245 61.4612 121.531V121.263C61.4612 120.855 61.336 120.555 61.0857 120.362C60.8425 120.161 60.4563 120.061 59.927 120.061C59.6123 120.061 59.3047 120.093 59.0043 120.158C58.7111 120.215 58.4464 120.297 58.2104 120.405V119.525C58.425 119.425 58.7039 119.346 59.0472 119.289C59.3905 119.224 59.7231 119.192 60.045 119.192C60.8961 119.192 61.5255 119.382 61.9332 119.761C62.3481 120.133 62.5555 120.651 62.5555 121.317V124.503H61.5363V123.924C61.3146 124.167 61.0499 124.353 60.7424 124.481C60.442 124.603 60.0736 124.664 59.6373 124.664ZM59.9055 123.838C60.2488 123.838 60.56 123.77 60.8389 123.634C61.1179 123.498 61.3253 123.308 61.4612 123.065V122.368C60.9963 122.068 60.4777 121.917 59.9055 121.917C59.4907 121.917 59.1796 122 58.9721 122.164C58.7719 122.321 58.6717 122.565 58.6717 122.894C58.6717 123.523 59.083 123.838 59.9055 123.838ZM63.9002 119.353H64.9301V120.093C65.1733 119.793 65.4487 119.568 65.7562 119.418C66.0638 119.267 66.3821 119.192 66.7111 119.192C67.1259 119.192 67.4549 119.264 67.6981 119.407C67.9413 119.543 68.1201 119.754 68.2346 120.04C68.4634 119.761 68.7424 119.55 69.0714 119.407C69.4076 119.264 69.7437 119.192 70.0799 119.192C70.7093 119.192 71.1635 119.353 71.4424 119.675C71.7214 119.99 71.8608 120.458 71.8608 121.08V124.503H70.8094V121.22C70.8094 120.798 70.7308 120.501 70.5734 120.329C70.416 120.151 70.1478 120.061 69.7688 120.061C69.2252 120.061 68.7817 120.297 68.4384 120.769C68.4527 120.877 68.4599 121.052 68.4599 121.295V124.503H67.4085V121.22C67.4085 120.798 67.3369 120.501 67.1939 120.329C67.0508 120.151 66.7933 120.061 66.4214 120.061C65.8778 120.061 65.3915 120.369 64.9623 120.984V124.503H63.9002V119.353ZM74.8921 124.664C74.2698 124.664 73.7692 124.507 73.3901 124.192C73.0182 123.87 72.8322 123.437 72.8322 122.894C72.8322 122.321 73.011 121.882 73.3686 121.574C73.7334 121.259 74.2484 121.102 74.9136 121.102C75.6216 121.102 76.2224 121.245 76.716 121.531V121.263C76.716 120.855 76.5908 120.555 76.3405 120.362C76.0973 120.161 75.711 120.061 75.1818 120.061C74.8671 120.061 74.5595 120.093 74.2591 120.158C73.9659 120.215 73.7012 120.297 73.4652 120.405V119.525C73.6798 119.425 73.9587 119.346 74.302 119.289C74.6453 119.224 74.9779 119.192 75.2998 119.192C76.1509 119.192 76.7803 119.382 77.188 119.761C77.6029 120.133 77.8103 120.651 77.8103 121.317V124.503H76.7911V123.924C76.5693 124.167 76.3047 124.353 75.9971 124.481C75.6967 124.603 75.3284 124.664 74.8921 124.664ZM75.1603 123.838C75.5036 123.838 75.8148 123.77 76.0937 123.634C76.3726 123.498 76.5801 123.308 76.716 123.065V122.368C76.2511 122.068 75.7325 121.917 75.1603 121.917C74.7455 121.917 74.4343 122 74.2269 122.164C74.0267 122.321 73.9265 122.565 73.9265 122.894C73.9265 123.523 74.3378 123.838 75.1603 123.838ZM80.8968 124.664C80.5392 124.664 80.1601 124.617 79.7595 124.524C79.359 124.439 79.0443 124.321 78.8154 124.17V123.248C79.0944 123.412 79.4162 123.548 79.781 123.655C80.1458 123.756 80.4998 123.806 80.8431 123.806C81.2294 123.806 81.5119 123.759 81.6907 123.666C81.8695 123.573 81.9589 123.423 81.9589 123.215C81.9589 123.058 81.916 122.933 81.8302 122.84C81.7515 122.74 81.612 122.65 81.4118 122.572C81.2186 122.493 80.9254 122.4 80.532 122.293C80.11 122.171 79.7739 122.05 79.5235 121.928C79.2803 121.799 79.0944 121.638 78.9656 121.445C78.844 121.252 78.7832 121.002 78.7832 120.694C78.7832 120.201 78.9764 119.829 79.3626 119.578C79.756 119.321 80.2817 119.192 80.9397 119.192C81.283 119.192 81.6192 119.224 81.9482 119.289C82.2772 119.353 82.5418 119.443 82.7421 119.557V120.458C82.5347 120.337 82.2772 120.24 81.9696 120.169C81.6692 120.097 81.3617 120.061 81.047 120.061C80.6679 120.061 80.3782 120.108 80.178 120.201C79.9777 120.294 79.8776 120.458 79.8776 120.694C79.8776 120.844 79.9205 120.966 80.0063 121.059C80.0921 121.152 80.228 121.234 80.414 121.306C80.6071 121.37 80.9111 121.456 81.3259 121.563C81.9768 121.742 82.4274 121.953 82.6777 122.196C82.9352 122.439 83.064 122.776 83.064 123.205C83.064 123.648 82.8816 124.002 82.5168 124.267C82.152 124.532 81.612 124.664 80.8968 124.664ZM84.2469 116.574H85.3305V124.503H84.2469V116.574ZM85.3412 121.896L87.7122 119.353H89.0319L86.6501 121.896L89.2786 124.503H87.959L85.3412 121.896Z" fill="white"/>
<g clip-path="url(#clip0_340_20178)">
<path d="M265.869 114.372L260.607 118.525L261.586 116.077L265.869 114.372Z" fill="#E17726"/>
<path d="M254.186 114.377L258.458 116.078L259.387 118.557L254.186 114.377ZM263.75 123.203L266.075 123.25L265.262 126.195L262.425 125.362L263.75 123.203ZM256.291 123.203L257.611 125.362L254.778 126.195L253.971 123.25L256.291 123.203Z" fill="#E27625"/>
<path d="M259.26 117.925L259.355 121.199L256.512 121.061L257.321 119.759L257.331 119.747L259.26 117.925ZM260.751 117.889L262.71 119.747L262.72 119.76L263.529 121.061L260.686 121.199L260.751 117.889ZM257.694 123.212L259.247 124.503L257.443 125.432L257.694 123.212ZM262.347 123.212L262.592 125.432L260.794 124.503L262.347 123.212Z" fill="#E27625"/>
<path d="M260.833 124.382L262.659 125.325L260.961 126.185L260.978 125.616L260.833 124.382ZM259.207 124.382L259.067 125.607L259.079 126.185L257.377 125.325L259.207 124.382Z" fill="#D5BFB2"/>
<path d="M258.68 121.627L259.157 122.696L257.533 122.189L258.68 121.627ZM261.362 121.627L262.514 122.189L260.885 122.696L261.362 121.627Z" fill="#233447"/>
<path d="M257.82 123.201L257.557 125.502L256.15 123.252L257.82 123.201ZM262.224 123.201L263.893 123.252L262.481 125.502L262.224 123.201ZM263.571 120.931L262.356 122.251L261.42 121.795L260.971 122.8L260.677 121.071L263.571 120.931ZM256.471 120.931L259.366 121.071L259.072 122.8L258.623 121.795L257.692 122.251L256.471 120.931Z" fill="#CC6228"/>
<path d="M256.389 120.66L257.763 122.148L257.811 123.616L256.389 120.66ZM263.654 120.657L262.23 123.619L262.283 122.148L263.654 120.657ZM259.298 120.751L259.353 121.122L259.49 122.047L259.402 124.889L258.987 122.606L258.986 122.583L259.298 120.751ZM260.743 120.745L261.055 122.583L261.055 122.606L260.639 124.895L260.622 124.322L260.557 122.03L260.743 120.745Z" fill="#E27525"/>
<path d="M262.405 122.089L262.358 123.365L260.908 124.57L260.615 124.349L260.944 122.544L262.405 122.089ZM257.641 122.089L259.097 122.544L259.425 124.349L259.132 124.57L257.682 123.365L257.641 122.089Z" fill="#F5841F"/>
<path d="M257.098 125.042L258.953 125.98L258.945 125.579L259.1 125.434H260.936L261.097 125.579L261.085 125.979L262.928 125.044L262.031 125.835L260.947 126.63H259.085L258.001 125.832L257.098 125.042Z" fill="#C0AC9D"/>
<path d="M260.699 124.257L260.962 124.454L261.115 125.763L260.893 125.562H259.146L258.928 125.767L259.076 124.455L259.339 124.257H260.699Z" fill="#161616"/>
<path d="M265.518 114.487L266.15 116.508L265.756 118.552L266.036 118.783L265.656 119.092L265.942 119.327L265.564 119.695L265.796 119.874L265.18 120.642L262.652 119.857L262.63 119.844L260.809 118.205L265.518 114.487ZM254.52 114.487L259.23 118.205L257.408 119.844L257.386 119.857L254.859 120.642L254.243 119.874L254.475 119.695L254.097 119.327L254.382 119.092L253.996 118.782L254.287 118.551L253.889 116.508L254.52 114.487Z" fill="#763E1A"/>
<path d="M262.529 119.685L265.207 120.516L266.077 123.376H263.781L262.2 123.398L263.35 121.006L262.529 119.685ZM257.51 119.685L256.689 121.006L257.839 123.398L256.258 123.376H253.967L254.832 120.516L257.51 119.685ZM261.714 116.063L260.965 118.221L260.806 121.137L260.745 122.05L260.74 124.384H259.298L259.294 122.055L259.233 121.136L259.073 118.221L258.325 116.063H261.714Z" fill="#F5841F"/>
</g>
<path d="M20.0899 167.918H21.1306L24.95 173.572V167.918H26.0551V175.417H25.0037L21.1843 169.763V175.417H20.0899V167.918ZM30.2773 175.578C29.326 175.578 28.5786 175.342 28.035 174.87C27.4986 174.391 27.2304 173.718 27.2304 172.853C27.2304 172.009 27.47 171.34 27.9492 170.847C28.4355 170.353 29.1257 170.106 30.0198 170.106C30.6135 170.106 31.1177 170.221 31.5325 170.45C31.9474 170.671 32.2585 170.982 32.4659 171.383C32.6805 171.776 32.7878 172.227 32.7878 172.735V173.271H28.2603C28.2961 173.758 28.4999 174.122 28.8718 174.366C29.2509 174.602 29.7623 174.72 30.406 174.72C30.735 174.72 31.0676 174.691 31.4038 174.634C31.74 174.569 32.0368 174.487 32.2943 174.387V175.256C32.0654 175.349 31.7614 175.424 31.3823 175.481C31.0104 175.546 30.6421 175.578 30.2773 175.578ZM31.7686 172.51C31.7543 172.023 31.5933 171.648 31.2858 171.383C30.9854 171.111 30.5562 170.975 29.9983 170.975C29.4548 170.975 29.0328 171.115 28.7324 171.394C28.432 171.673 28.2746 172.045 28.2603 172.51H31.7686ZM33.4329 170.267H34.5379L35.6966 174.087L36.8446 170.267H37.8209L38.9688 174.087L40.1275 170.267H41.2433L39.5696 175.417H38.529L37.3381 171.576L36.1472 175.417H35.0958L33.4329 170.267ZM48.383 175.578C47.8608 175.578 47.4567 175.428 47.1706 175.127C46.8917 174.827 46.7522 174.401 46.7522 173.851V171.104H45.969V170.267H46.7522V168.722H47.8465V170.267H49.1125V171.104H47.8465V173.776C47.8465 174.119 47.9109 174.362 48.0397 174.505C48.1755 174.648 48.4187 174.72 48.7692 174.72C48.9766 174.72 49.184 174.673 49.3915 174.58V175.438C49.1197 175.531 48.7835 175.578 48.383 175.578ZM53.0729 175.578C52.4935 175.578 51.9821 175.471 51.5387 175.256C51.1024 175.034 50.7591 174.72 50.5087 174.312C50.2656 173.897 50.144 173.411 50.144 172.853C50.144 172.302 50.2656 171.819 50.5087 171.404C50.7519 170.99 51.0952 170.671 51.5387 170.45C51.9821 170.221 52.4935 170.106 53.0729 170.106C53.6522 170.106 54.1636 170.221 54.6071 170.45C55.0505 170.671 55.3939 170.99 55.637 171.404C55.8874 171.819 56.0125 172.302 56.0125 172.853C56.0125 173.411 55.8874 173.897 55.637 174.312C55.3939 174.72 55.0505 175.034 54.6071 175.256C54.1636 175.471 53.6522 175.578 53.0729 175.578ZM53.0729 174.72C53.6308 174.72 54.0742 174.548 54.4032 174.205C54.7323 173.861 54.8968 173.411 54.8968 172.853C54.8968 172.273 54.7323 171.816 54.4032 171.48C54.0742 171.143 53.6308 170.975 53.0729 170.975C52.515 170.975 52.0716 171.143 51.7425 171.48C51.4135 171.816 51.249 172.273 51.249 172.853C51.249 173.411 51.4135 173.861 51.7425 174.205C52.0716 174.548 52.515 174.72 53.0729 174.72ZM63.8749 175.578C63.3027 175.578 62.7949 175.471 62.3514 175.256C61.908 175.041 61.5611 174.73 61.3107 174.323C61.0675 173.908 60.946 173.418 60.946 172.853C60.946 172.288 61.0675 171.801 61.3107 171.394C61.5611 170.979 61.908 170.661 62.3514 170.439C62.802 170.217 63.317 170.106 63.8963 170.106C64.6831 170.106 65.3125 170.26 65.7846 170.568V171.458C65.3197 171.136 64.726 170.975 64.0036 170.975C63.4171 170.975 62.9415 171.136 62.5767 171.458C62.2191 171.773 62.0403 172.238 62.0403 172.853C62.0403 173.468 62.2191 173.933 62.5767 174.248C62.9343 174.562 63.4028 174.72 63.9822 174.72C64.7046 174.72 65.3268 174.548 65.8489 174.205V175.084C65.5986 175.256 65.3125 175.381 64.9907 175.46C64.6759 175.539 64.304 175.578 63.8749 175.578ZM67.0278 170.267H68.0792V171.19C68.2937 170.875 68.5941 170.643 68.9804 170.493C69.3738 170.342 69.8279 170.267 70.3429 170.267V171.115C69.7922 171.115 69.3201 171.204 68.9267 171.383C68.5333 171.562 68.2616 171.844 68.1113 172.231V175.417H67.0278V170.267ZM72.2501 177.541C71.8639 177.541 71.542 177.502 71.2845 177.423V176.576C71.4705 176.647 71.6994 176.683 71.9711 176.683C72.2215 176.683 72.4182 176.619 72.5612 176.49C72.7043 176.368 72.833 176.168 72.9475 175.889L73.1942 175.288L70.9412 170.267H72.057L73.7736 174.226L75.3721 170.267H76.4879L74.1705 175.996C73.9559 176.533 73.6985 176.923 73.3981 177.166C73.1048 177.416 72.7222 177.541 72.2501 177.541ZM77.1802 170.267H78.2316V171.029C78.7608 170.414 79.4761 170.106 80.3773 170.106C80.8923 170.106 81.3536 170.221 81.7613 170.45C82.1761 170.679 82.498 171 82.7269 171.415C82.9629 171.823 83.0809 172.299 83.0809 172.842C83.0809 173.379 82.9629 173.854 82.7269 174.269C82.498 174.684 82.1797 175.006 81.772 175.235C81.3643 175.463 80.8994 175.578 80.3773 175.578C79.9481 175.578 79.5476 175.506 79.1757 175.363C78.8038 175.22 78.4998 175.009 78.2637 174.73V177.767H77.1802V170.267ZM80.1305 174.72C80.481 174.72 80.7957 174.645 81.0747 174.494C81.3607 174.337 81.5825 174.115 81.7398 173.829C81.9043 173.543 81.9866 173.214 81.9866 172.842C81.9866 172.47 81.9043 172.145 81.7398 171.866C81.5825 171.58 81.3607 171.362 81.0747 171.211C80.7957 171.054 80.481 170.975 80.1305 170.975C79.6942 170.975 79.308 171.09 78.9718 171.319C78.6428 171.548 78.4068 171.862 78.2637 172.263V173.421C78.3853 173.815 78.6178 174.13 78.9611 174.366C79.3044 174.602 79.6942 174.72 80.1305 174.72ZM85.8704 175.578C85.3482 175.578 84.9441 175.428 84.658 175.127C84.3791 174.827 84.2396 174.401 84.2396 173.851V171.104H83.4564V170.267H84.2396V168.722H85.3339V170.267H86.5999V171.104H85.3339V173.776C85.3339 174.119 85.3983 174.362 85.527 174.505C85.6629 174.648 85.9061 174.72 86.2566 174.72C86.464 174.72 86.6714 174.673 86.8788 174.58V175.438C86.6071 175.531 86.2709 175.578 85.8704 175.578ZM90.5603 175.578C89.9809 175.578 89.4695 175.471 89.0261 175.256C88.5898 175.034 88.2465 174.72 87.9961 174.312C87.753 173.897 87.6314 173.411 87.6314 172.853C87.6314 172.302 87.753 171.819 87.9961 171.404C88.2393 170.99 88.5826 170.671 89.0261 170.45C89.4695 170.221 89.9809 170.106 90.5603 170.106C91.1396 170.106 91.651 170.221 92.0945 170.45C92.5379 170.671 92.8812 170.99 93.1244 171.404C93.3748 171.819 93.4999 172.302 93.4999 172.853C93.4999 173.411 93.3748 173.897 93.1244 174.312C92.8812 174.72 92.5379 175.034 92.0945 175.256C91.651 175.471 91.1396 175.578 90.5603 175.578ZM90.5603 174.72C91.1182 174.72 91.5616 174.548 91.8906 174.205C92.2196 173.861 92.3842 173.411 92.3842 172.853C92.3842 172.273 92.2196 171.816 91.8906 171.48C91.5616 171.143 91.1182 170.975 90.5603 170.975C90.0024 170.975 89.5589 171.143 89.2299 171.48C88.9009 171.816 88.7364 172.273 88.7364 172.853C88.7364 173.411 88.9009 173.861 89.2299 174.205C89.5589 174.548 90.0024 174.72 90.5603 174.72ZM95.7607 173.057C95.7607 172.62 95.8429 172.256 96.0074 171.962C96.1719 171.669 96.4509 171.387 96.8442 171.115C97.1303 170.915 97.3449 170.757 97.488 170.643C97.631 170.521 97.7419 170.389 97.8206 170.246C97.9064 170.096 97.9493 169.92 97.9493 169.72C97.9493 169.398 97.8206 169.144 97.5631 168.958C97.3056 168.772 96.9337 168.679 96.4473 168.679C95.732 168.679 95.0704 168.822 94.4625 169.109V168.164C94.7486 168.043 95.0597 167.946 95.3959 167.875C95.7392 167.796 96.0897 167.757 96.4473 167.757C97.2341 167.757 97.8599 167.932 98.3248 168.282C98.7897 168.633 99.0222 169.112 99.0222 169.72C99.0222 170.092 98.9256 170.41 98.7325 170.675C98.5394 170.94 98.2354 171.222 97.8206 171.522C97.5202 171.737 97.3056 171.909 97.1768 172.037C97.0481 172.159 96.9551 172.299 96.8979 172.456C96.8407 172.606 96.8121 172.81 96.8121 173.067V173.282H95.7607V173.057ZM96.2756 175.578C96.0968 175.578 95.9466 175.517 95.825 175.396C95.7034 175.274 95.6426 175.124 95.6426 174.945C95.6426 174.766 95.7034 174.616 95.825 174.494C95.9466 174.373 96.0968 174.312 96.2756 174.312C96.4544 174.312 96.6046 174.373 96.7262 174.494C96.855 174.616 96.9193 174.766 96.9193 174.945C96.9193 175.124 96.855 175.274 96.7262 175.396C96.6046 175.517 96.4544 175.578 96.2756 175.578Z" fill="white"/>
<path d="M110.285 167.918H111.38V174.505H115.178V175.417H110.285V167.918ZM118.545 175.578C117.594 175.578 116.846 175.342 116.303 174.87C115.766 174.391 115.498 173.718 115.498 172.853C115.498 172.009 115.737 171.34 116.217 170.847C116.703 170.353 117.393 170.106 118.287 170.106C118.881 170.106 119.385 170.221 119.8 170.45C120.215 170.671 120.526 170.982 120.733 171.383C120.948 171.776 121.055 172.227 121.055 172.735V173.271H116.528C116.564 173.758 116.767 174.122 117.139 174.366C117.518 174.602 118.03 174.72 118.674 174.72C119.003 174.72 119.335 174.691 119.671 174.634C120.007 174.569 120.304 174.487 120.562 174.387V175.256C120.333 175.349 120.029 175.424 119.65 175.481C119.278 175.546 118.91 175.578 118.545 175.578ZM120.036 172.51C120.022 172.023 119.861 171.648 119.553 171.383C119.253 171.111 118.824 170.975 118.266 170.975C117.722 170.975 117.3 171.115 117 171.394C116.699 171.673 116.542 172.045 116.528 172.51H120.036ZM124.085 175.578C123.463 175.578 122.962 175.421 122.583 175.106C122.211 174.784 122.025 174.351 122.025 173.808C122.025 173.236 122.204 172.796 122.562 172.488C122.926 172.173 123.441 172.016 124.107 172.016C124.815 172.016 125.415 172.159 125.909 172.445V172.177C125.909 171.769 125.784 171.469 125.533 171.276C125.29 171.075 124.904 170.975 124.375 170.975C124.06 170.975 123.752 171.008 123.452 171.072C123.159 171.129 122.894 171.211 122.658 171.319V170.439C122.873 170.339 123.152 170.26 123.495 170.203C123.838 170.138 124.171 170.106 124.493 170.106C125.344 170.106 125.973 170.296 126.381 170.675C126.796 171.047 127.003 171.565 127.003 172.231V175.417H125.984V174.838C125.762 175.081 125.498 175.267 125.19 175.396C124.89 175.517 124.521 175.578 124.085 175.578ZM124.353 174.752C124.697 174.752 125.008 174.684 125.287 174.548C125.566 174.412 125.773 174.223 125.909 173.979V173.282C125.444 172.982 124.925 172.831 124.353 172.831C123.938 172.831 123.627 172.914 123.42 173.078C123.22 173.236 123.119 173.479 123.119 173.808C123.119 174.437 123.531 174.752 124.353 174.752ZM128.348 170.267H129.399V171.19C129.614 170.875 129.914 170.643 130.301 170.493C130.694 170.342 131.148 170.267 131.663 170.267V171.115C131.112 171.115 130.64 171.204 130.247 171.383C129.854 171.562 129.582 171.844 129.432 172.231V175.417H128.348V170.267ZM132.633 170.267H133.685V171.008C133.928 170.7 134.225 170.475 134.575 170.332C134.933 170.181 135.305 170.106 135.691 170.106C136.377 170.106 136.889 170.289 137.225 170.653C137.561 171.018 137.729 171.508 137.729 172.123V175.417H136.646V172.231C136.646 171.394 136.245 170.975 135.444 170.975C135.101 170.975 134.779 171.058 134.478 171.222C134.185 171.379 133.931 171.623 133.717 171.952V175.417H132.633V170.267ZM143.037 170.267H144.067V171.008C144.31 170.707 144.585 170.482 144.893 170.332C145.201 170.181 145.519 170.106 145.848 170.106C146.263 170.106 146.592 170.178 146.835 170.321C147.078 170.457 147.257 170.668 147.371 170.954C147.6 170.675 147.879 170.464 148.208 170.321C148.544 170.178 148.88 170.106 149.217 170.106C149.846 170.106 150.3 170.267 150.579 170.589C150.858 170.904 150.998 171.372 150.998 171.995V175.417H149.946V172.134C149.946 171.712 149.868 171.415 149.71 171.244C149.553 171.065 149.285 170.975 148.906 170.975C148.362 170.975 147.918 171.211 147.575 171.683C147.589 171.791 147.597 171.966 147.597 172.209V175.417H146.545V172.134C146.545 171.712 146.474 171.415 146.331 171.244C146.188 171.065 145.93 170.975 145.558 170.975C145.015 170.975 144.528 171.283 144.099 171.898V175.417H143.037V170.267ZM154.898 175.578C154.319 175.578 153.807 175.471 153.364 175.256C152.927 175.034 152.584 174.72 152.334 174.312C152.091 173.897 151.969 173.411 151.969 172.853C151.969 172.302 152.091 171.819 152.334 171.404C152.577 170.99 152.92 170.671 153.364 170.45C153.807 170.221 154.319 170.106 154.898 170.106C155.477 170.106 155.989 170.221 156.432 170.45C156.876 170.671 157.219 170.99 157.462 171.404C157.712 171.819 157.838 172.302 157.838 172.853C157.838 173.411 157.712 173.897 157.462 174.312C157.219 174.72 156.876 175.034 156.432 175.256C155.989 175.471 155.477 175.578 154.898 175.578ZM154.898 174.72C155.456 174.72 155.899 174.548 156.228 174.205C156.557 173.861 156.722 173.411 156.722 172.853C156.722 172.273 156.557 171.816 156.228 171.48C155.899 171.143 155.456 170.975 154.898 170.975C154.34 170.975 153.897 171.143 153.568 171.48C153.239 171.816 153.074 172.273 153.074 172.853C153.074 173.411 153.239 173.861 153.568 174.205C153.897 174.548 154.34 174.72 154.898 174.72ZM159.015 170.267H160.066V171.19C160.281 170.875 160.581 170.643 160.967 170.493C161.361 170.342 161.815 170.267 162.33 170.267V171.115C161.779 171.115 161.307 171.204 160.914 171.383C160.52 171.562 160.248 171.844 160.098 172.231V175.417H159.015V170.267ZM165.807 175.578C164.856 175.578 164.109 175.342 163.565 174.87C163.029 174.391 162.76 173.718 162.76 172.853C162.76 172.009 163 171.34 163.479 170.847C163.966 170.353 164.656 170.106 165.55 170.106C166.144 170.106 166.648 170.221 167.063 170.45C167.477 170.671 167.789 170.982 167.996 171.383C168.211 171.776 168.318 172.227 168.318 172.735V173.271H163.79C163.826 173.758 164.03 174.122 164.402 174.366C164.781 174.602 165.292 174.72 165.936 174.72C166.265 174.72 166.598 174.691 166.934 174.634C167.27 174.569 167.567 174.487 167.824 174.387V175.256C167.596 175.349 167.292 175.424 166.912 175.481C166.541 175.546 166.172 175.578 165.807 175.578ZM167.299 172.51C167.284 172.023 167.123 171.648 166.816 171.383C166.515 171.111 166.086 170.975 165.528 170.975C164.985 170.975 164.563 171.115 164.262 171.394C163.962 171.673 163.805 172.045 163.79 172.51H167.299ZM175.319 175.578C174.696 175.578 174.196 175.421 173.817 175.106C173.445 174.784 173.259 174.351 173.259 173.808C173.259 173.236 173.437 172.796 173.795 172.488C174.16 172.173 174.675 172.016 175.34 172.016C176.048 172.016 176.649 172.159 177.142 172.445V172.177C177.142 171.769 177.017 171.469 176.767 171.276C176.524 171.075 176.137 170.975 175.608 170.975C175.293 170.975 174.986 171.008 174.686 171.072C174.392 171.129 174.128 171.211 173.892 171.319V170.439C174.106 170.339 174.385 170.26 174.728 170.203C175.072 170.138 175.404 170.106 175.726 170.106C176.577 170.106 177.207 170.296 177.614 170.675C178.029 171.047 178.237 171.565 178.237 172.231V175.417H177.217V174.838C176.996 175.081 176.731 175.267 176.424 175.396C176.123 175.517 175.755 175.578 175.319 175.578ZM175.587 174.752C175.93 174.752 176.241 174.684 176.52 174.548C176.799 174.412 177.006 174.223 177.142 173.979V173.282C176.677 172.982 176.159 172.831 175.587 172.831C175.172 172.831 174.861 172.914 174.653 173.078C174.453 173.236 174.353 173.479 174.353 173.808C174.353 174.437 174.764 174.752 175.587 174.752ZM182.779 175.578C182.314 175.578 181.91 175.506 181.566 175.363C181.23 175.213 180.919 174.981 180.633 174.666V175.417H179.581V167.489H180.665V170.954C180.901 170.675 181.205 170.464 181.577 170.321C181.949 170.178 182.349 170.106 182.779 170.106C183.294 170.106 183.755 170.224 184.163 170.46C184.577 170.689 184.899 171.011 185.128 171.426C185.364 171.841 185.482 172.316 185.482 172.853C185.482 173.396 185.364 173.876 185.128 174.29C184.899 174.698 184.577 175.016 184.163 175.245C183.755 175.467 183.294 175.578 182.779 175.578ZM182.532 174.72C182.882 174.72 183.197 174.645 183.476 174.494C183.762 174.337 183.984 174.115 184.141 173.829C184.306 173.543 184.388 173.218 184.388 172.853C184.388 172.488 184.306 172.163 184.141 171.877C183.984 171.59 183.762 171.369 183.476 171.211C183.197 171.054 182.882 170.975 182.532 170.975C182.095 170.975 181.706 171.093 181.362 171.329C181.019 171.565 180.787 171.88 180.665 172.273V173.432C180.801 173.826 181.033 174.14 181.362 174.376C181.699 174.605 182.088 174.72 182.532 174.72ZM189.106 175.578C188.527 175.578 188.015 175.471 187.572 175.256C187.135 175.034 186.792 174.72 186.542 174.312C186.299 173.897 186.177 173.411 186.177 172.853C186.177 172.302 186.299 171.819 186.542 171.404C186.785 170.99 187.128 170.671 187.572 170.45C188.015 170.221 188.527 170.106 189.106 170.106C189.685 170.106 190.197 170.221 190.64 170.45C191.084 170.671 191.427 170.99 191.67 171.404C191.92 171.819 192.046 172.302 192.046 172.853C192.046 173.411 191.92 173.897 191.67 174.312C191.427 174.72 191.084 175.034 190.64 175.256C190.197 175.471 189.685 175.578 189.106 175.578ZM189.106 174.72C189.664 174.72 190.107 174.548 190.436 174.205C190.765 173.861 190.93 173.411 190.93 172.853C190.93 172.273 190.765 171.816 190.436 171.48C190.107 171.143 189.664 170.975 189.106 170.975C188.548 170.975 188.105 171.143 187.776 171.48C187.447 171.816 187.282 172.273 187.282 172.853C187.282 173.411 187.447 173.861 187.776 174.205C188.105 174.548 188.548 174.72 189.106 174.72ZM195.272 175.578C194.578 175.578 194.052 175.392 193.695 175.02C193.344 174.648 193.169 174.151 193.169 173.529V170.267H194.253V173.486C194.253 174.308 194.664 174.72 195.486 174.72C196.209 174.72 196.774 174.394 197.182 173.743V170.267H198.265V175.417H197.214V174.687C196.971 174.995 196.681 175.22 196.345 175.363C196.016 175.506 195.658 175.578 195.272 175.578ZM201.64 175.578C201.118 175.578 200.714 175.428 200.428 175.127C200.149 174.827 200.01 174.401 200.01 173.851V171.104H199.227V170.267H200.01V168.722H201.104V170.267H202.37V171.104H201.104V173.776C201.104 174.119 201.168 174.362 201.297 174.505C201.433 174.648 201.676 174.72 202.027 174.72C202.234 174.72 202.442 174.673 202.649 174.58V175.438C202.377 175.531 202.041 175.578 201.64 175.578ZM207.425 170.267H208.53L209.688 174.087L210.836 170.267H211.813L212.961 174.087L214.119 170.267H215.235L213.562 175.417H212.521L211.33 171.576L210.139 175.417H209.088L207.425 170.267ZM217.678 175.578C217.056 175.578 216.555 175.421 216.176 175.106C215.804 174.784 215.618 174.351 215.618 173.808C215.618 173.236 215.797 172.796 216.154 172.488C216.519 172.173 217.034 172.016 217.699 172.016C218.407 172.016 219.008 172.159 219.502 172.445V172.177C219.502 171.769 219.376 171.469 219.126 171.276C218.883 171.075 218.497 170.975 217.967 170.975C217.653 170.975 217.345 171.008 217.045 171.072C216.752 171.129 216.487 171.211 216.251 171.319V170.439C216.465 170.339 216.744 170.26 217.088 170.203C217.431 170.138 217.764 170.106 218.085 170.106C218.937 170.106 219.566 170.296 219.974 170.675C220.389 171.047 220.596 171.565 220.596 172.231V175.417H219.577V174.838C219.355 175.081 219.09 175.267 218.783 175.396C218.482 175.517 218.114 175.578 217.678 175.578ZM217.946 174.752C218.289 174.752 218.6 174.684 218.879 174.548C219.158 174.412 219.366 174.223 219.502 173.979V173.282C219.037 172.982 218.518 172.831 217.946 172.831C217.531 172.831 217.22 172.914 217.013 173.078C216.812 173.236 216.712 173.479 216.712 173.808C216.712 174.437 217.123 174.752 217.946 174.752ZM221.941 167.489H223.024V175.417H221.941V167.489ZM224.424 167.489H225.507V175.417H224.424V167.489ZM229.739 175.578C228.788 175.578 228.041 175.342 227.497 174.87C226.961 174.391 226.692 173.718 226.692 172.853C226.692 172.009 226.932 171.34 227.411 170.847C227.897 170.353 228.588 170.106 229.482 170.106C230.075 170.106 230.58 170.221 230.994 170.45C231.409 170.671 231.72 170.982 231.928 171.383C232.142 171.776 232.25 172.227 232.25 172.735V173.271H227.722C227.758 173.758 227.962 174.122 228.334 174.366C228.713 174.602 229.224 174.72 229.868 174.72C230.197 174.72 230.53 174.691 230.866 174.634C231.202 174.569 231.499 174.487 231.756 174.387V175.256C231.527 175.349 231.223 175.424 230.844 175.481C230.472 175.546 230.104 175.578 229.739 175.578ZM231.231 172.51C231.216 172.023 231.055 171.648 230.748 171.383C230.447 171.111 230.018 170.975 229.46 170.975C228.917 170.975 228.495 171.115 228.194 171.394C227.894 171.673 227.737 172.045 227.722 172.51H231.231ZM235.419 175.578C234.897 175.578 234.493 175.428 234.207 175.127C233.928 174.827 233.788 174.401 233.788 173.851V171.104H233.005V170.267H233.788V168.722H234.883V170.267H236.149V171.104H234.883V173.776C234.883 174.119 234.947 174.362 235.076 174.505C235.212 174.648 235.455 174.72 235.805 174.72C236.013 174.72 236.22 174.673 236.427 174.58V175.438C236.156 175.531 235.819 175.578 235.419 175.578ZM239.136 175.578C238.779 175.578 238.4 175.531 237.999 175.438C237.599 175.353 237.284 175.235 237.055 175.084V174.162C237.334 174.326 237.656 174.462 238.021 174.569C238.385 174.67 238.739 174.72 239.083 174.72C239.469 174.72 239.751 174.673 239.93 174.58C240.109 174.487 240.198 174.337 240.198 174.13C240.198 173.972 240.156 173.847 240.07 173.754C239.991 173.654 239.852 173.565 239.651 173.486C239.458 173.407 239.165 173.314 238.772 173.207C238.35 173.085 238.013 172.964 237.763 172.842C237.52 172.713 237.334 172.552 237.205 172.359C237.084 172.166 237.023 171.916 237.023 171.608C237.023 171.115 237.216 170.743 237.602 170.493C237.996 170.235 238.521 170.106 239.179 170.106C239.523 170.106 239.859 170.138 240.188 170.203C240.517 170.267 240.781 170.357 240.982 170.471V171.372C240.774 171.251 240.517 171.154 240.209 171.083C239.909 171.011 239.601 170.975 239.287 170.975C238.907 170.975 238.618 171.022 238.418 171.115C238.217 171.208 238.117 171.372 238.117 171.608C238.117 171.759 238.16 171.88 238.246 171.973C238.332 172.066 238.468 172.148 238.654 172.22C238.847 172.284 239.151 172.37 239.565 172.477C240.216 172.656 240.667 172.867 240.917 173.11C241.175 173.354 241.304 173.69 241.304 174.119C241.304 174.562 241.121 174.916 240.756 175.181C240.392 175.446 239.852 175.578 239.136 175.578Z" fill="#147BDA"/>
<rect x="0.808417" y="0.808417" width="305.383" height="197.192" rx="4.78957" stroke="url(#paint0_linear_340_20178)" stroke-width="0.383166"/>
<rect x="0.808417" y="0.808417" width="305.383" height="197.192" rx="4.78957" stroke="url(#paint1_radial_340_20178)" stroke-width="0.383166"/>
<defs>
<linearGradient id="paint0_linear_340_20178" x1="21.1727" y1="57.633" x2="61.5509" y2="159.49" gradientUnits="userSpaceOnUse">
<stop stop-color="#4B4B4B"/>
<stop offset="1" stop-color="#523E35" stop-opacity="0"/>
</linearGradient>
<radialGradient id="paint1_radial_340_20178" cx="0" cy="0" r="1" gradientTransform="translate(370.372 257.567) rotate(-158.565) scale(236.312 89.1431)">
<stop stop-color="white"/>
<stop offset="1" stop-color="white" stop-opacity="0"/>
</radialGradient>
<clipPath id="clip0_340_20178">
<rect width="12.2613" height="12.2613" fill="white" transform="translate(253.891 114.372)"/>
</clipPath>
</defs>
</svg>
