<svg width="214" height="143" viewBox="0 0 214 143" fill="none" xmlns="http://www.w3.org/2000/svg">
<rect x="144.071" y="13.1357" width="72.0367" height="83.2357" rx="5.5" transform="rotate(18.3218 144.071 13.1357)" stroke="#5F5F61"/>
<rect x="150.139" y="27.999" width="36.7965" height="3.2708" rx="1.6354" transform="rotate(18.3218 150.139 27.999)" fill="#D9D9D9"/>
<rect x="144.998" y="43.5244" width="35.0128" height="3.2708" rx="1.6354" transform="rotate(18.3218 144.998 43.5244)" fill="#C8C8C8"/>
<rect x="141.914" y="52.8398" width="51.5151" height="3.2708" rx="1.6354" transform="rotate(18.3218 141.914 52.8398)" fill="#C8C8C8"/>
<rect x="138.828" y="62.1543" width="34.2126" height="3.2708" rx="1.6354" transform="rotate(18.3218 138.828 62.1543)" fill="#C8C8C8"/>
<rect x="135.744" y="71.4697" width="51.5151" height="3.2708" rx="1.6354" transform="rotate(18.3218 135.744 71.4697)" fill="#C8C8C8"/>
<rect x="132.66" y="80.7842" width="46.72" height="3.2708" rx="1.6354" transform="rotate(18.3218 132.66 80.7842)" fill="#C8C8C8"/>
<rect x="1.84143" y="40.9256" width="72.0367" height="83.2357" rx="5.5" transform="rotate(-24.8182 1.84143 40.9256)" stroke="#5F5F61"/>
<rect x="16.4277" y="47.627" width="36.7965" height="3.2708" rx="1.6354" transform="rotate(-24.8182 16.4277 47.627)" fill="#D9D9D9"/>
<rect x="23.293" y="62.4707" width="51.5151" height="3.2708" rx="1.6354" transform="rotate(-24.8182 23.293 62.4707)" fill="#C8C8C8"/>
<rect x="27.4121" y="71.377" width="51.5151" height="3.2708" rx="1.6354" transform="rotate(-24.8182 27.4121 71.377)" fill="#C8C8C8"/>
<rect x="31.5312" y="80.2832" width="51.5151" height="3.2708" rx="1.6354" transform="rotate(-24.8182 31.5312 80.2832)" fill="#C8C8C8"/>
<rect x="35.6484" y="89.1895" width="51.5151" height="3.2708" rx="1.6354" transform="rotate(-24.8182 35.6484 89.1895)" fill="#C8C8C8"/>
<rect x="39.7676" y="98.0957" width="51.5151" height="3.2708" rx="1.6354" transform="rotate(-24.8182 39.7676 98.0957)" fill="#C8C8C8"/>
<mask id="path-16-inside-1_271_26892" fill="white">
<path fill-rule="evenodd" clip-rule="evenodd" d="M126.627 30.7783L64.327 33.335C61.0161 33.4709 58.4422 36.2651 58.5781 39.576L62.2162 128.228C62.352 131.539 65.1462 134.113 68.4571 133.977L143.729 130.888C147.04 130.752 149.614 127.958 149.478 124.647L146.377 49.0916L126.627 30.7783Z"/>
</mask>
<path fill-rule="evenodd" clip-rule="evenodd" d="M126.627 30.7783L64.327 33.335C61.0161 33.4709 58.4422 36.2651 58.5781 39.576L62.2162 128.228C62.352 131.539 65.1462 134.113 68.4571 133.977L143.729 130.888C147.04 130.752 149.614 127.958 149.478 124.647L146.377 49.0916L126.627 30.7783Z" fill="#313131"/>
<path d="M126.627 30.7783L127.405 29.9394L127.056 29.6157L126.58 29.6352L126.627 30.7783ZM149.478 124.647L148.335 124.694L149.478 124.647ZM146.377 49.0916L147.52 49.0447L147.501 48.5734L147.155 48.2527L146.377 49.0916ZM64.3739 34.4781L126.674 31.9214L126.58 29.6352L64.2801 32.1919L64.3739 34.4781ZM59.7212 39.5291C59.6112 36.8495 61.6943 34.5881 64.3739 34.4781L64.2801 32.1919C60.3378 32.3537 57.2732 35.6807 57.4349 39.6229L59.7212 39.5291ZM63.3593 128.181L59.7212 39.5291L57.4349 39.6229L61.0731 128.275L63.3593 128.181ZM68.4102 132.834C65.7306 132.944 63.4692 130.86 63.3593 128.181L61.0731 128.275C61.2348 132.217 64.5618 135.282 68.5041 135.12L68.4102 132.834ZM143.682 129.745L68.4102 132.834L68.5041 135.12L143.776 132.031L143.682 129.745ZM148.335 124.694C148.445 127.373 146.361 129.635 143.682 129.745L143.776 132.031C147.718 131.869 150.783 128.542 150.621 124.6L148.335 124.694ZM145.234 49.1385L148.335 124.694L150.621 124.6L147.52 49.0447L145.234 49.1385ZM147.155 48.2527L127.405 29.9394L125.849 31.6172L145.599 49.9305L147.155 48.2527Z" fill="#5F5F61" mask="url(#path-16-inside-1_271_26892)"/>
<rect x="71.9414" y="48.1797" width="44" height="3.91112" rx="1.95556" transform="rotate(-2.35 71.9414 48.1797)" fill="#D9D9D9"/>
<rect x="72.7441" y="67.7188" width="42.9825" height="3.91112" rx="1.95556" transform="rotate(-2.35 72.7441 67.7188)" fill="#9B9A9D"/>
<rect x="73.2246" y="79.4424" width="61.6001" height="3.91112" rx="1.95556" transform="rotate(-2.35 73.2246 79.4424)" fill="#9B9A9D"/>
<rect x="73.707" y="91.166" width="56.3175" height="3.91112" rx="1.95556" transform="rotate(-2.35 73.707 91.166)" fill="#9B9A9D"/>
<rect x="74.1875" y="102.89" width="33.0934" height="3.91112" rx="1.95556" transform="rotate(-2.35 74.1875 102.89)" fill="#9B9A9D"/>
<rect x="74.668" y="114.613" width="27.7059" height="3.91112" rx="1.95556" transform="rotate(-2.35 74.668 114.613)" fill="#9B9A9D"/>
<path d="M131.651 49.6156C129.514 49.686 127.699 48.0627 127.532 45.9307L126.355 30.9345L146.118 49.1395L131.651 49.6156Z" fill="#D9D9D9"/>
<circle cx="125.816" cy="109.484" r="9.11764" transform="rotate(-2.35 125.816 109.484)" fill="#147BDA"/>
<path d="M122.575 109.638L125.121 111.983L128.997 106.925" stroke="white" stroke-width="1.5" stroke-linecap="round" stroke-linejoin="round"/>
</svg>
