<svg width="16" height="18" viewBox="0 0 16 18" fill="none" xmlns="http://www.w3.org/2000/svg">
<path d="M7.084 0.364457C7.33156 0.130408 7.65932 0 8 0C8.34068 0 8.66844 0.130408 8.916 0.364457L15.3747 6.46979C15.7747 6.84712 16 7.37379 16 7.92312V15.3498C16 15.8802 15.7893 16.3889 15.4142 16.764C15.0391 17.1391 14.5304 17.3498 14 17.3498H11.3333C11.0706 17.3498 10.8104 17.298 10.5677 17.1974C10.3249 17.0968 10.1044 16.9494 9.91865 16.7635C9.73291 16.5777 9.58562 16.357 9.48519 16.1142C9.38476 15.8714 9.33316 15.6112 9.33333 15.3485V12.0151C9.33333 11.8383 9.2631 11.6687 9.13807 11.5437C9.01305 11.4187 8.84348 11.3485 8.66667 11.3485H7.33333C7.15652 11.3485 6.98695 11.4187 6.86193 11.5437C6.73691 11.6687 6.66667 11.8383 6.66667 12.0151V15.3485C6.66667 15.8789 6.45595 16.3876 6.08088 16.7627C5.70581 17.1377 5.1971 17.3485 4.66667 17.3485H2C1.46957 17.3485 0.960859 17.1377 0.585787 16.7627C0.210714 16.3876 0 15.8789 0 15.3485V7.92179C0 7.37246 0.226667 6.84579 0.626667 6.46846L7.084 0.36179V0.364457ZM8 1.33246L1.54133 7.43912C1.47577 7.50128 1.42352 7.57612 1.38776 7.65909C1.35201 7.74207 1.33349 7.83144 1.33333 7.92179V15.3485C1.33333 15.5253 1.40357 15.6948 1.5286 15.8199C1.65362 15.9449 1.82319 16.0151 2 16.0151H4.66667C4.84348 16.0151 5.01305 15.9449 5.13807 15.8199C5.2631 15.6948 5.33333 15.5253 5.33333 15.3485V12.0151C5.33333 11.4847 5.54405 10.976 5.91912 10.6009C6.29419 10.2258 6.8029 10.0151 7.33333 10.0151H8.66667C9.1971 10.0151 9.70581 10.2258 10.0809 10.6009C10.456 10.976 10.6667 11.4847 10.6667 12.0151V15.3485C10.6667 15.5253 10.7369 15.6948 10.8619 15.8199C10.987 15.9449 11.1565 16.0151 11.3333 16.0151H14C14.1768 16.0151 14.3464 15.9449 14.4714 15.8199C14.5964 15.6948 14.6667 15.5253 14.6667 15.3485V7.92179C14.6667 7.83122 14.6483 7.74159 14.6125 7.65837C14.5767 7.57516 14.5244 7.5001 14.4587 7.43779L8 1.33246Z" fill="#363636"/>
</svg>
