<svg width="24" height="24" viewBox="0 0 24 24" fill="none" xmlns="http://www.w3.org/2000/svg">
<path d="M11.084 3.36446C11.3316 3.13041 11.6593 3 12 3C12.3407 3 12.6684 3.13041 12.916 3.36446L19.3747 9.46979C19.7747 9.84712 20 10.3738 20 10.9231V18.3498C20 18.8802 19.7893 19.3889 19.4142 19.764C19.0391 20.1391 18.5304 20.3498 18 20.3498H15.3333C15.0706 20.3498 14.8104 20.298 14.5677 20.1974C14.3249 20.0968 14.1044 19.9494 13.9186 19.7635C13.7329 19.5777 13.5856 19.357 13.4852 19.1142C13.3848 18.8714 13.3332 18.6112 13.3333 18.3485V15.0151C13.3333 14.8383 13.2631 14.6687 13.1381 14.5437C13.013 14.4187 12.8435 14.3485 12.6667 14.3485H11.3333C11.1565 14.3485 10.987 14.4187 10.8619 14.5437C10.7369 14.6687 10.6667 14.8383 10.6667 15.0151V18.3485C10.6667 18.8789 10.456 19.3876 10.0809 19.7627C9.70581 20.1377 9.1971 20.3485 8.66667 20.3485H6C5.46957 20.3485 4.96086 20.1377 4.58579 19.7627C4.21071 19.3876 4 18.8789 4 18.3485V10.9218C4 10.3725 4.22667 9.84579 4.62667 9.46846L11.084 3.36179V3.36446ZM12 4.33246L5.54133 10.4391C5.47577 10.5013 5.42352 10.5761 5.38776 10.6591C5.35201 10.7421 5.33349 10.8314 5.33333 10.9218V18.3485C5.33333 18.5253 5.40357 18.6948 5.5286 18.8199C5.65362 18.9449 5.82319 19.0151 6 19.0151H8.66667C8.84348 19.0151 9.01305 18.9449 9.13807 18.8199C9.2631 18.6948 9.33333 18.5253 9.33333 18.3485V15.0151C9.33333 14.4847 9.54405 13.976 9.91912 13.6009C10.2942 13.2258 10.8029 13.0151 11.3333 13.0151H12.6667C13.1971 13.0151 13.7058 13.2258 14.0809 13.6009C14.456 13.976 14.6667 14.4847 14.6667 15.0151V18.3485C14.6667 18.5253 14.7369 18.6948 14.8619 18.8199C14.987 18.9449 15.1565 19.0151 15.3333 19.0151H18C18.1768 19.0151 18.3464 18.9449 18.4714 18.8199C18.5964 18.6948 18.6667 18.5253 18.6667 18.3485V10.9218C18.6667 10.8312 18.6483 10.7416 18.6125 10.6584C18.5767 10.5752 18.5244 10.5001 18.4587 10.4378L12 4.33246Z" fill="white"/>
</svg>
