<svg width="67" height="24" viewBox="0 0 67 24" fill="none" xmlns="http://www.w3.org/2000/svg">
<path fill-rule="evenodd" clip-rule="evenodd" d="M3.20778 2.2693C4.23221 2.91937 5.66703 3.35527 8.27978 3.81039C12.4535 4.53738 14.9556 5.64672 16.6849 7.53697C18.4143 9.42722 19.1883 11.325 19.1883 13.9019C19.1883 16.604 17.7367 18.9088 17.7367 18.9088C14.5679 23.8705 7.76432 24.5945 3.62937 20.4099C2.33482 19.0996 1.45962 17.4682 1.14925 15.7873C1.044 15.2169 0.911351 13.6898 0.854532 12.3936C0.770887 10.4864 0.794922 10.1039 0.981028 10.3876C2.37673 12.5162 3.05651 12.977 4.26126 12.6116C5.15994 12.3391 6.08563 11.3182 6.25311 10.415C6.45207 9.34144 6.05359 8.68024 4.66478 7.77924C2.27315 6.22778 1.30424 4.60865 1.30424 2.16335V0.861328L2.00284 1.40468C2.38716 1.70351 2.92928 2.09265 3.20778 2.2693ZM3.57259 16.8962C3.2914 15.9102 4.14758 15.0634 5.17289 15.0634C6.1982 15.0634 6.99097 15.9699 7.59085 16.8014C7.68326 16.9295 7.78632 17.0508 7.89943 17.1639C8.45653 17.721 9.2121 18.034 9.99995 18.034C10.7878 18.034 11.5434 17.721 12.1005 17.1639C12.2136 17.0508 12.3166 16.9295 12.409 16.8014C13.0089 15.9699 13.8017 15.0634 14.827 15.0634C15.8523 15.0634 16.7085 15.9102 16.4273 16.8962C16.1182 17.9801 15.5371 18.9782 14.7259 19.7894C13.4725 21.0428 11.7725 21.747 9.99995 21.747C8.22736 21.747 6.52738 21.0428 5.27397 19.7894C4.46281 18.9782 3.88169 17.9801 3.57259 16.8962ZM13.6362 17.0297L15.0117 16.7344L14.7163 18.1099L13.3408 18.4053L13.6362 17.0297ZM4.98633 16.7344L6.36184 17.0297L6.65721 18.4053L5.2817 18.1099L4.98633 16.7344Z" fill="#147BDA"/>
<path d="M30.5034 18.5L27.7674 5.9H29.5674L31.5654 15.746L34.4814 5.9H36.1734L39.0894 15.71L41.1054 5.9H42.8334L40.0974 18.5H38.2974L35.3094 8.402L32.3214 18.5H30.5034ZM44.496 18.5V9.374H46.17V18.5H44.496ZM45.342 7.826C45.054 7.826 44.802 7.724 44.586 7.52C44.382 7.304 44.28 7.052 44.28 6.764C44.28 6.476 44.382 6.23 44.586 6.026C44.802 5.822 45.054 5.72 45.342 5.72C45.63 5.72 45.876 5.822 46.08 6.026C46.284 6.23 46.386 6.482 46.386 6.782C46.386 7.058 46.284 7.304 46.08 7.52C45.876 7.724 45.63 7.826 45.342 7.826ZM51.406 18.68C50.626 18.68 49.894 18.56 49.21 18.32C48.538 18.08 47.95 17.744 47.446 17.312L48.382 16.214C48.838 16.586 49.318 16.874 49.822 17.078C50.326 17.282 50.836 17.384 51.352 17.384C52.024 17.384 52.57 17.252 52.99 16.988C53.41 16.712 53.62 16.364 53.62 15.944C53.62 15.596 53.494 15.326 53.242 15.134C53.002 14.93 52.618 14.786 52.09 14.702L50.452 14.486C49.54 14.342 48.856 14.06 48.4 13.64C47.956 13.22 47.734 12.65 47.734 11.93C47.734 11.39 47.884 10.916 48.184 10.508C48.484 10.1 48.898 9.782 49.426 9.554C49.954 9.314 50.572 9.194 51.28 9.194C51.94 9.194 52.57 9.29 53.17 9.482C53.77 9.674 54.352 9.974 54.916 10.382L54.07 11.498C53.566 11.15 53.074 10.898 52.594 10.742C52.126 10.586 51.646 10.508 51.154 10.508C50.59 10.508 50.128 10.634 49.768 10.886C49.42 11.126 49.246 11.444 49.246 11.84C49.246 12.2 49.366 12.476 49.606 12.668C49.858 12.848 50.26 12.98 50.812 13.064L52.432 13.298C53.344 13.418 54.028 13.694 54.484 14.126C54.952 14.546 55.186 15.11 55.186 15.818C55.186 16.358 55.018 16.844 54.682 17.276C54.358 17.708 53.908 18.05 53.332 18.302C52.768 18.554 52.126 18.68 51.406 18.68ZM56.6073 22.172V9.374H58.2633V10.292C59.0313 9.584 59.9793 9.23 61.1073 9.23C61.9713 9.23 62.7453 9.44 63.4293 9.86C64.1253 10.28 64.6773 10.844 65.0853 11.552C65.4933 12.26 65.6973 13.052 65.6973 13.928C65.6973 14.816 65.4933 15.614 65.0853 16.322C64.6773 17.03 64.1253 17.594 63.4293 18.014C62.7333 18.434 61.9473 18.644 61.0713 18.644C60.5553 18.644 60.0573 18.56 59.5773 18.392C59.1093 18.224 58.6773 17.99 58.2813 17.69V22.172H56.6073ZM60.8913 17.186C61.4913 17.186 62.0313 17.048 62.5113 16.772C62.9913 16.484 63.3693 16.094 63.6453 15.602C63.9213 15.11 64.0593 14.558 64.0593 13.946C64.0593 13.334 63.9213 12.782 63.6453 12.29C63.3693 11.786 62.9913 11.396 62.5113 11.12C62.0313 10.832 61.4913 10.688 60.8913 10.688C60.3633 10.688 59.8713 10.79 59.4153 10.994C58.9593 11.186 58.5813 11.468 58.2813 11.84V16.052C58.5813 16.412 58.9593 16.694 59.4153 16.898C59.8833 17.09 60.3753 17.186 60.8913 17.186Z" fill="black"/>
</svg>
