<svg width="96" height="33" viewBox="0 0 96 33" fill="none" xmlns="http://www.w3.org/2000/svg">
<path fill-rule="evenodd" clip-rule="evenodd" d="M4.97116 2.12635C6.48415 3.08645 8.60327 3.73023 12.4621 4.40241C18.6263 5.47612 22.3218 7.11453 24.8759 9.90628C27.43 12.698 28.5732 15.5009 28.5732 19.3068C28.5732 23.2976 26.4293 26.7016 26.4293 26.7016C21.7492 34.0296 11.7008 35.0989 5.5938 28.9187C3.68185 26.9834 2.38925 24.574 1.93086 22.0913C1.77541 21.249 1.5795 18.9935 1.49558 17.0792C1.37204 14.2624 1.40754 13.6974 1.68241 14.1165C3.74376 17.2602 4.74773 17.9407 6.52706 17.4011C7.85434 16.9987 9.22151 15.4909 9.46886 14.1568C9.76271 12.5713 9.17419 11.5948 7.12302 10.2641C3.59077 7.97271 2.15977 5.58138 2.15977 1.96986V0.046875L3.19155 0.849369C3.75916 1.29071 4.55982 1.86544 4.97116 2.12635ZM5.50922 23.7293C5.09393 22.273 6.35844 21.0224 7.87274 21.0224C9.38704 21.0224 10.5579 22.3613 11.4439 23.5893C11.5804 23.7785 11.7326 23.9577 11.8996 24.1247C12.7224 24.9475 13.8384 25.4098 15.0019 25.4098C16.1655 25.4098 17.2815 24.9475 18.1042 24.1247C18.2713 23.9577 18.4235 23.7785 18.56 23.5893C19.446 22.3613 20.6168 21.0224 22.1311 21.0224C23.6454 21.0224 24.9099 22.273 24.4947 23.7293C24.0381 25.3301 23.1799 26.8043 21.9818 28.0024C20.1307 29.8535 17.6199 30.8935 15.0019 30.8935C12.384 30.8935 9.87322 29.8535 8.02203 28.0024C6.82401 26.8043 5.96574 25.3301 5.50922 23.7293ZM20.3728 23.9275L22.4043 23.4912L21.9681 25.5227L19.9365 25.959L20.3728 23.9275ZM7.59766 23.4912L9.62918 23.9275L10.0654 25.959L8.0339 25.5227L7.59766 23.4912Z" fill="#147BDA"/>
<path d="M41.4638 26L37.423 7.39077H40.0814L43.0323 21.9326L47.339 7.39077H49.838L54.1447 21.8794L57.1222 7.39077H59.6743L55.6334 26H52.975L48.5619 11.086L44.1489 26H41.4638ZM62.1298 26V12.5216H64.6022V26H62.1298ZM63.3793 10.2353C62.954 10.2353 62.5818 10.0847 62.2628 9.78338C61.9615 9.46437 61.8108 9.09218 61.8108 8.66683C61.8108 8.24147 61.9615 7.87815 62.2628 7.57686C62.5818 7.27557 62.954 7.12492 63.3793 7.12492C63.8047 7.12492 64.168 7.27557 64.4693 7.57686C64.7706 7.87815 64.9212 8.25034 64.9212 8.69341C64.9212 9.10104 64.7706 9.46437 64.4693 9.78338C64.168 10.0847 63.8047 10.2353 63.3793 10.2353ZM72.3354 26.2658C71.1834 26.2658 70.1023 26.0886 69.0921 25.7342C68.0996 25.3797 67.2312 24.8834 66.4868 24.2454L67.8692 22.6238C68.5427 23.1732 69.2516 23.5985 69.996 23.8998C70.7404 24.2011 71.4936 24.3518 72.2557 24.3518C73.2482 24.3518 74.0546 24.1568 74.6749 23.7669C75.2952 23.3593 75.6053 22.8453 75.6053 22.225C75.6053 21.711 75.4192 21.3122 75.0471 21.0287C74.6926 20.7274 74.1255 20.5147 73.3456 20.3906L70.9264 20.0716C69.5795 19.859 68.5693 19.4425 67.8958 18.8222C67.24 18.2018 66.9122 17.36 66.9122 16.2966C66.9122 15.4991 67.1337 14.799 67.5768 14.1964C68.0199 13.5938 68.6313 13.1242 69.4111 12.7874C70.1909 12.433 71.1037 12.2558 72.1493 12.2558C73.1241 12.2558 74.0546 12.3975 74.9407 12.6811C75.8269 12.9647 76.6864 13.4078 77.5194 14.0103L76.27 15.6586C75.5256 15.1446 74.7989 14.7724 74.09 14.542C73.3988 14.3116 72.6899 14.1964 71.9632 14.1964C71.1303 14.1964 70.4479 14.3825 69.9162 14.7547C69.4023 15.1092 69.1453 15.5788 69.1453 16.1637C69.1453 16.6954 69.3225 17.103 69.677 17.3866C70.0492 17.6524 70.6429 17.8474 71.4581 17.9714L73.8508 18.317C75.1977 18.4943 76.2079 18.9019 76.8814 19.5399C77.5726 20.1602 77.9182 20.9932 77.9182 22.0389C77.9182 22.8364 77.6701 23.5542 77.1738 24.1922C76.6953 24.8303 76.0307 25.3354 75.18 25.7076C74.347 26.0798 73.3988 26.2658 72.3354 26.2658ZM80.0173 31.4233V12.5216H82.4631V13.8774C83.5974 12.8318 84.9975 12.3089 86.6635 12.3089C87.9396 12.3089 89.0827 12.6191 90.0929 13.2394C91.1209 13.8597 91.9361 14.6927 92.5387 15.7383C93.1413 16.784 93.4426 17.9537 93.4426 19.2475C93.4426 20.559 93.1413 21.7376 92.5387 22.7833C91.9361 23.8289 91.1209 24.6619 90.0929 25.2822C89.065 25.9025 87.9041 26.2127 86.6103 26.2127C85.8482 26.2127 85.1127 26.0886 84.4038 25.8405C83.7126 25.5924 83.0746 25.2468 82.4897 24.8037V31.4233H80.0173ZM86.3445 24.0593C87.2306 24.0593 88.0282 23.8555 88.7371 23.4479C89.446 23.0225 90.0043 22.4465 90.4119 21.7199C90.8196 20.9932 91.0234 20.178 91.0234 19.2741C91.0234 18.3702 90.8196 17.555 90.4119 16.8283C90.0043 16.0839 89.446 15.5079 88.7371 15.1003C88.0282 14.675 87.2306 14.4623 86.3445 14.4623C85.5647 14.4623 84.838 14.6129 84.1645 14.9142C83.4911 15.1978 82.9328 15.6143 82.4897 16.1637V22.3845C82.9328 22.9162 83.4911 23.3327 84.1645 23.634C84.8557 23.9175 85.5824 24.0593 86.3445 24.0593Z" fill="black"/>
</svg>
