<svg width="56" height="35" viewBox="0 0 56 35" fill="none" xmlns="http://www.w3.org/2000/svg">
<path d="M0.639376 8.52989C4.21012 9.62306 7.26099 11.834 9.57189 14.0798C12.5032 16.9284 12.9504 21.3359 10.7518 24.7568C10.3974 25.2288 9.53888 24.8671 9.33413 24.5199L0.072455 9.24724C-0.158423 8.8558 0.198125 8.39481 0.639376 8.52989Z" fill="#147BDA"/>
<path fill-rule="evenodd" clip-rule="evenodd" d="M18.1974 14.3286C19.1498 15.2663 20.7532 15.2034 21.5492 14.1356L24.8785 9.66899C25.0871 9.38915 25.5328 9.63142 25.3994 9.95213L19.5678 23.9678C19.2677 24.6893 18.2447 24.7471 17.8614 24.0642L9.06754 9.74465C8.81502 9.33346 9.14568 8.83138 9.62409 8.93846C12.7324 9.6342 15.7726 11.9412 18.1974 14.3286Z" fill="#147BDA"/>
<path d="M27.6445 13.8231C27.6445 13.2358 28.1206 12.7598 28.7078 12.7598H29.4167C30.0039 12.7598 30.48 13.2358 30.48 13.8231V23.7471C30.48 24.3343 30.0039 24.8104 29.4167 24.8104H28.7078C28.1206 24.8104 27.6445 24.3343 27.6445 23.7471V13.8231Z" fill="black"/>
<path d="M27.6445 8.83455C27.6445 8.26146 28.1091 7.79688 28.6822 7.79688H29.7067C30.1338 7.79688 30.48 8.14309 30.48 8.57018V10.9749C30.48 11.3236 30.1317 11.565 29.8051 11.4425L29.3278 11.2636C28.3153 10.8839 27.6445 9.91592 27.6445 8.83455V8.83455Z" fill="black"/>
<path fill-rule="evenodd" clip-rule="evenodd" d="M49.852 12.7578H48.5265C46.3909 12.7578 44.6597 14.489 44.6597 16.6246V16.6343C44.6587 16.6695 44.6582 16.7049 44.6582 16.7404V32.0745C44.6582 32.7596 45.2136 33.315 45.8987 33.315C46.5838 33.315 47.1392 32.7596 47.1392 32.0745V24.3141C47.5604 24.4732 48.0169 24.5602 48.4938 24.5602H49.852C53.1112 24.5602 55.7533 21.9182 55.7533 18.659C55.7533 15.3999 53.1112 12.7578 49.852 12.7578ZM47.1392 21.3163C47.367 21.8384 47.8878 22.2033 48.4938 22.2033H49.852C51.8095 22.2033 53.3963 20.6165 53.3963 18.659C53.3963 16.7016 51.8095 15.1147 49.852 15.1147H48.5265C47.9046 15.1147 47.3706 15.4906 47.1392 16.0276V17.8973V21.3163Z" fill="black"/>
<path d="M37.7832 24.8104C36.8081 24.8104 35.9304 24.648 35.1503 24.3233C34.3852 23.9844 33.7776 23.5326 33.3275 22.9679C33.0376 22.595 32.8349 22.1958 32.7193 21.7702C32.6135 21.381 32.9437 21.0406 33.3471 21.0406H34.6156C34.9822 21.0406 35.2725 21.3336 35.4448 21.6572C35.5698 21.8919 35.7567 22.1029 36.0055 22.2901C36.4705 22.6149 37.0481 22.7773 37.7382 22.7773C38.4583 22.7773 39.0134 22.6502 39.4035 22.396C39.8086 22.1277 40.0111 21.7889 40.0111 21.3795C40.0111 20.9417 39.786 20.617 39.336 20.4052C38.9009 20.1934 38.2033 19.9605 37.2431 19.7063C36.313 19.4663 35.5554 19.2333 34.9703 19.0074C34.3852 18.7815 33.8751 18.4356 33.44 17.9697C33.02 17.5038 32.81 16.8896 32.81 16.1272C32.81 15.5059 33.005 14.9412 33.395 14.4329C33.7851 13.9105 34.3402 13.501 35.0603 13.2045C35.7954 12.908 36.6356 12.7598 37.5807 12.7598C38.9909 12.7598 40.1236 13.0986 40.9787 13.7763C41.6545 14.2917 42.0859 14.9561 42.2731 15.7695C42.3641 16.1651 42.0333 16.5084 41.6274 16.5084H40.459C40.0911 16.5084 39.8026 16.215 39.6455 15.8823C39.5316 15.6411 39.3609 15.4333 39.1334 15.2588C38.7284 14.9482 38.1808 14.7929 37.4907 14.7929C36.8156 14.7929 36.298 14.9129 35.9379 15.1529C35.5779 15.393 35.3979 15.7106 35.3979 16.106C35.3979 16.4166 35.5179 16.6778 35.7579 16.8896C35.998 17.1014 36.2905 17.2708 36.6356 17.3979C36.9806 17.5108 37.4907 17.6591 38.1658 17.8426C39.0659 18.0685 39.8011 18.3015 40.3711 18.5415C40.9562 18.7674 41.4588 19.1063 41.8788 19.5581C42.2989 20.0099 42.5164 20.61 42.5315 21.3582C42.5315 22.0218 42.3365 22.6149 41.9464 23.1372C41.5563 23.6597 41.0012 24.0691 40.2811 24.3656C39.576 24.6621 38.7434 24.8104 37.7832 24.8104Z" fill="black"/>
</svg>
