<svg width="24" height="24" viewBox="0 0 24 24" fill="none" xmlns="http://www.w3.org/2000/svg">
<path fill-rule="evenodd" clip-rule="evenodd" d="M5.20974 2.2693C6.23416 2.91937 7.66898 3.35527 10.2817 3.81039C14.4554 4.53738 16.9575 5.64672 18.6869 7.53697C20.4163 9.42722 21.1903 11.325 21.1903 13.9019C21.1903 16.604 19.7387 18.9088 19.7387 18.9088C16.5699 23.8705 9.76627 24.5945 5.63132 20.4099C4.33677 19.0996 3.46157 17.4682 3.15121 15.7873C3.04595 15.2169 2.9133 13.6898 2.85649 12.3936C2.77284 10.4864 2.79687 10.1039 2.98298 10.3876C4.37869 12.5162 5.05846 12.977 6.26322 12.6116C7.16189 12.3391 8.08758 11.3182 8.25506 10.415C8.45402 9.34144 8.05554 8.68024 6.66673 7.77924C4.2751 6.22778 3.3062 4.60865 3.3062 2.16335V0.861328L4.00479 1.40468C4.38912 1.70351 4.93123 2.09265 5.20974 2.2693ZM5.57454 16.8962C5.29336 15.9102 6.14953 15.0634 7.17484 15.0634C8.20015 15.0634 8.99293 15.9699 9.59281 16.8014C9.68522 16.9295 9.78827 17.0508 9.90139 17.1639C10.4585 17.721 11.2141 18.034 12.0019 18.034C12.7897 18.034 13.5453 17.721 14.1024 17.1639C14.2155 17.0508 14.3186 16.9295 14.411 16.8014C15.0109 15.9699 15.8037 15.0634 16.829 15.0634C17.8543 15.0634 18.7105 15.9102 18.4293 16.8962C18.1202 17.9801 17.539 18.9782 16.7279 19.7894C15.4745 21.0428 13.7745 21.747 12.0019 21.747C10.2293 21.747 8.52933 21.0428 7.27592 19.7894C6.46476 18.9782 5.88364 17.9801 5.57454 16.8962ZM15.6382 17.0297L17.0137 16.7344L16.7183 18.1099L15.3428 18.4053L15.6382 17.0297ZM6.98828 16.7344L8.36379 17.0297L8.65917 18.4053L7.28366 18.1099L6.98828 16.7344Z" fill="#147BDA"/>
</svg>
