<svg width="24" height="24" viewBox="0 0 24 24" fill="none" xmlns="http://www.w3.org/2000/svg">
<path fill-rule="evenodd" clip-rule="evenodd" d="M5.20974 2.26882C6.23416 2.91888 7.66898 3.35478 10.2817 3.8099C14.4554 4.53689 16.9575 5.64623 18.6869 7.53648C20.4163 9.42673 21.1903 11.3245 21.1903 13.9014C21.1903 16.6035 19.7387 18.9083 19.7387 18.9083C16.5699 23.87 9.76627 24.594 5.63132 20.4095C4.33677 19.0991 3.46157 17.4677 3.15121 15.7868C3.04595 15.2164 2.9133 13.6893 2.85649 12.3931C2.77284 10.4859 2.79687 10.1034 2.98298 10.3871C4.37869 12.5157 5.05846 12.9765 6.26322 12.6111C7.16189 12.3387 8.08758 11.3177 8.25506 10.4145C8.45402 9.34095 8.05554 8.67975 6.66673 7.77875C4.2751 6.22729 3.3062 4.60816 3.3062 2.16286V0.86084L4.00479 1.4042C4.38912 1.70302 4.93123 2.09216 5.20974 2.26882ZM5.57454 16.8957C5.29336 15.9097 6.14953 15.0629 7.17484 15.0629C8.20015 15.0629 8.99293 15.9694 9.59281 16.8009C9.68522 16.929 9.78827 17.0503 9.90139 17.1635C10.4585 17.7205 11.2141 18.0335 12.0019 18.0335C12.7897 18.0335 13.5453 17.7205 14.1024 17.1635C14.2155 17.0503 14.3186 16.929 14.411 16.8009C15.0109 15.9694 15.8037 15.0629 16.829 15.0629C17.8543 15.0629 18.7105 15.9097 18.4293 16.8957C18.1202 17.9796 17.539 18.9778 16.7279 19.7889C15.4745 21.0423 13.7745 21.7465 12.0019 21.7465C10.2293 21.7465 8.52933 21.0423 7.27592 19.7889C6.46476 18.9778 5.88364 17.9796 5.57454 16.8957ZM15.6382 17.0293L17.0137 16.7339L16.7183 18.1094L15.3428 18.4048L15.6382 17.0293ZM6.98828 16.7339L8.36379 17.0293L8.65917 18.4048L7.28366 18.1094L6.98828 16.7339Z" fill="white"/>
</svg>
