<svg width="24" height="24" viewBox="0 0 24 24" fill="none" xmlns="http://www.w3.org/2000/svg">
<path d="M9.7136 19.6898L9.49903 20.4084C9.89024 20.5253 10.303 20.3077 10.4277 19.9189L9.7136 19.6898ZM6.2352 17.5682L5.66181 17.0848C5.41438 17.3782 5.42846 17.8111 5.69445 18.0879L6.2352 17.5682ZM4.1624 13.633L3.42756 13.783C3.50449 14.1599 3.85403 14.4174 4.23676 14.3793L4.1624 13.633ZM4 12.0214L4.75 12.0218V12.0214H4ZM4.3664 9.62144V8.87144C4.03891 8.87144 3.74929 9.08393 3.65099 9.39631L4.3664 9.62144ZM4.4 9.62144L4.40024 8.87144H4.4V9.62144ZM6.554 6.16144L6.0429 5.61255C5.80068 5.8381 5.73494 6.19575 5.88112 6.49269L6.554 6.16144ZM9.8608 4.31064L10.5291 3.97026C10.3672 3.65242 10.0039 3.49256 9.66021 3.58796L9.8608 4.31064ZM12 5.62144L12.0002 4.87144H11.9998L12 5.62144ZM14.1392 4.31064L14.3398 3.58796C13.9961 3.49256 13.6328 3.65242 13.4709 3.97026L14.1392 4.31064ZM17.446 6.16144L18.1188 6.49277C18.2651 6.19582 18.1993 5.83812 17.9571 5.61255L17.446 6.16144ZM19.6336 9.62144L20.3492 9.39701C20.25 9.08047 19.9545 8.86675 19.6228 8.87152L19.6336 9.62144ZM20 12.0214L19.25 12.0208V12.0214H20ZM19.8376 13.633L19.7632 14.3793C20.1459 14.4174 20.4954 14.16 20.5724 13.7832L19.8376 13.633ZM17.7648 17.5682L18.3055 18.0879C18.5715 17.8111 18.5856 17.3782 18.3382 17.0848L17.7648 17.5682ZM14.2864 19.6898L13.5723 19.9189C13.697 20.3077 14.1098 20.5253 14.501 20.4084L14.2864 19.6898ZM12 14.8214V15.5714V14.8214ZM12 9.22149V8.47149V9.22149ZM9.20002 12.0215H8.45002H9.20002ZM9.92817 18.9711C8.72907 18.6131 7.64309 17.9508 6.77595 17.0485L5.69445 18.0879C6.74105 19.1769 8.05178 19.9763 9.49903 20.4084L9.92817 18.9711ZM6.80859 18.0516C7.21267 17.5724 7.46457 16.9835 7.53204 16.3602L6.04075 16.1988C6.00541 16.5252 5.87347 16.8337 5.66181 17.0848L6.80859 18.0516ZM7.53204 16.3602C7.59951 15.737 7.4795 15.1078 7.18735 14.5532L5.8602 15.2522C6.01323 15.5427 6.0761 15.8723 6.04075 16.1988L7.53204 16.3602ZM7.18735 14.5532C6.89521 13.9985 6.44422 13.5437 5.8921 13.2468L5.18174 14.5679C5.47094 14.7234 5.70717 14.9617 5.8602 15.2522L7.18735 14.5532ZM5.8921 13.2468C5.33997 12.95 4.71183 12.8246 4.08805 12.8867L4.23676 14.3793C4.5635 14.3467 4.89253 14.4124 5.18174 14.5679L5.8921 13.2468ZM4.89724 13.483C4.79908 13.0022 4.74974 12.5126 4.75 12.0218L3.25 12.021C3.24969 12.6129 3.30918 13.2032 3.42756 13.783L4.89724 13.483ZM4.75 12.0214C4.75 11.2624 4.86617 10.5319 5.08182 9.84656L3.65099 9.39631C3.38983 10.2262 3.25 11.1085 3.25 12.0214H4.75ZM4.3664 10.3714H4.4V8.87144H4.3664V10.3714ZM4.39976 10.3714C4.93513 10.3716 5.46171 10.2353 5.92979 9.97546L5.20168 8.66402C4.9565 8.80014 4.68067 8.87153 4.40024 8.87144L4.39976 10.3714ZM5.92979 9.97546C6.39786 9.71559 6.79197 9.3407 7.07491 8.88621L5.80151 8.09346C5.6533 8.33153 5.44686 8.5279 5.20168 8.66402L5.92979 9.97546ZM7.07491 8.88621C7.35786 8.43171 7.52029 7.9126 7.54688 7.37789L6.04873 7.30339C6.03481 7.58348 5.94972 7.85539 5.80151 8.09346L7.07491 8.88621ZM7.54688 7.37789C7.57347 6.84318 7.46334 6.31051 7.22689 5.83019L5.88112 6.49269C6.00497 6.74429 6.06266 7.0233 6.04873 7.30339L7.54688 7.37789ZM7.0651 6.71033C7.91487 5.91906 8.94256 5.34387 10.0614 5.03332L9.66021 3.58796C8.30949 3.96287 7.0688 4.65728 6.0429 5.61255L7.0651 6.71033ZM9.19248 4.65101C9.45623 5.16888 9.8581 5.60368 10.3536 5.90731L11.1373 4.62833C10.8778 4.46928 10.6673 4.24152 10.5291 3.97026L9.19248 4.65101ZM10.3536 5.90731C10.8492 6.21095 11.419 6.37158 12.0002 6.37144L11.9998 4.87144C11.6954 4.87151 11.3969 4.78737 11.1373 4.62833L10.3536 5.90731ZM11.9998 6.37144C12.581 6.37158 13.1508 6.21095 13.6464 5.90731L12.8627 4.62833C12.6031 4.78737 12.3046 4.87151 12.0002 4.87144L11.9998 6.37144ZM13.6464 5.90731C14.1419 5.60368 14.5438 5.16888 14.8075 4.65101L13.4709 3.97026C13.3327 4.24152 13.1222 4.46928 12.8627 4.62833L13.6464 5.90731ZM13.9386 5.03332C15.0574 5.34387 16.0851 5.91906 16.9349 6.71033L17.9571 5.61255C16.9312 4.65728 15.6905 3.96287 14.3398 3.58796L13.9386 5.03332ZM16.7732 5.83011C16.535 6.3138 16.4249 6.85053 16.4535 7.38892L17.9514 7.30928C17.9364 7.02727 17.9941 6.74613 18.1188 6.49277L16.7732 5.83011ZM16.4535 7.38892C16.4822 7.92731 16.6485 8.44934 16.9366 8.90505L18.2045 8.10345C18.0536 7.86475 17.9664 7.5913 17.9514 7.30928L16.4535 7.38892ZM16.9366 8.90505C17.2248 9.36076 17.625 9.73489 18.0991 9.99162L18.8134 8.67261C18.5651 8.53812 18.3554 8.34215 18.2045 8.10345L16.9366 8.90505ZM18.0991 9.99162C18.5732 10.2484 19.1053 10.3791 19.6444 10.3714L19.6228 8.87152C19.3404 8.87558 19.0617 8.80709 18.8134 8.67261L18.0991 9.99162ZM18.918 9.84587C19.1387 10.5497 19.2507 11.2831 19.25 12.0208L20.75 12.0221C20.7508 11.1318 20.6157 10.2465 20.3492 9.39701L18.918 9.84587ZM19.25 12.0214C19.25 12.5226 19.1992 13.0115 19.1028 13.4828L20.5724 13.7832C20.6888 13.2138 20.75 12.6243 20.75 12.0214H19.25ZM19.912 12.8867C19.2882 12.8246 18.66 12.95 18.1079 13.2468L18.8183 14.5679C19.1075 14.4124 19.4365 14.3467 19.7632 14.3793L19.912 12.8867ZM18.1079 13.2468C17.5558 13.5437 17.1048 13.9985 16.8126 14.5532L18.1398 15.2522C18.2928 14.9617 18.5291 14.7234 18.8183 14.5679L18.1079 13.2468ZM16.8126 14.5532C16.5205 15.1078 16.4005 15.737 16.468 16.3602L17.9592 16.1988C17.9239 15.8723 17.9868 15.5427 18.1398 15.2522L16.8126 14.5532ZM16.468 16.3602C16.5354 16.9835 16.7873 17.5724 17.1914 18.0516L18.3382 17.0848C18.1265 16.8337 17.9946 16.5252 17.9592 16.1988L16.468 16.3602ZM17.224 17.0485C16.3569 17.9508 15.2709 18.6131 14.0718 18.9711L14.501 20.4084C15.9482 19.9763 17.2589 19.1769 18.3055 18.0879L17.224 17.0485ZM15.0005 19.4607C14.7966 18.8251 14.3962 18.2707 13.8569 17.8774L12.973 19.0893C13.2556 19.2954 13.4654 19.5859 13.5723 19.9189L15.0005 19.4607ZM13.8569 17.8774C13.3177 17.4841 12.6674 17.2722 12 17.2722V18.7722C12.3497 18.7722 12.6904 18.8832 12.973 19.0893L13.8569 17.8774ZM12 17.2722C11.3325 17.2722 10.6823 17.4841 10.1431 17.8774L11.027 19.0893C11.3096 18.8832 11.6503 18.7722 12 18.7722V17.2722ZM10.1431 17.8774C9.60381 18.2707 9.20337 18.8251 8.99946 19.4607L10.4277 19.9189C10.5346 19.5859 10.7444 19.2954 11.027 19.0893L10.1431 17.8774ZM12 15.5714C12.4662 15.5714 12.9278 15.4796 13.3585 15.3012L12.7845 13.9154C12.5358 14.0184 12.2692 14.0714 12 14.0714V15.5714ZM13.3585 15.3012C13.7893 15.1228 14.1806 14.8613 14.5103 14.5317L13.4496 13.471C13.2592 13.6614 13.0332 13.8124 12.7845 13.9154L13.3585 15.3012ZM14.5103 14.5317C14.8399 14.202 15.1014 13.8107 15.2798 13.38L13.894 12.806C13.791 13.0547 13.64 13.2807 13.4496 13.471L14.5103 14.5317ZM15.2798 13.38C15.4582 12.9493 15.55 12.4877 15.55 12.0215H14.05C14.05 12.2907 13.997 12.5573 13.894 12.806L15.2798 13.38ZM15.55 12.0215C15.55 11.5553 15.4582 11.0937 15.2798 10.663L13.894 11.237C13.997 11.4857 14.05 11.7523 14.05 12.0215H15.55ZM15.2798 10.663C15.1014 10.2322 14.8399 9.8409 14.5103 9.51126L13.4496 10.5719C13.64 10.7623 13.791 10.9883 13.894 11.237L15.2798 10.663ZM14.5103 9.51126C14.1806 9.18161 13.7893 8.92012 13.3585 8.74171L12.7845 10.1275C13.0332 10.2306 13.2592 10.3816 13.4496 10.5719L14.5103 9.51126ZM13.3585 8.74171C12.9278 8.56331 12.4662 8.47149 12 8.47149V9.97149C12.2692 9.97149 12.5358 10.0245 12.7845 10.1275L13.3585 8.74171ZM12 8.47149C11.0585 8.47149 10.1556 8.8455 9.48979 9.51126L10.5504 10.5719C10.9349 10.1875 11.4563 9.97149 12 9.97149V8.47149ZM9.48979 9.51126C8.82404 10.177 8.45002 11.08 8.45002 12.0215H9.95002C9.95002 11.4778 10.166 10.9564 10.5504 10.5719L9.48979 9.51126ZM8.45002 12.0215C8.45002 12.963 8.82404 13.8659 9.48979 14.5317L10.5504 13.471C10.166 13.0866 9.95002 12.5652 9.95002 12.0215H8.45002ZM9.48979 14.5317C10.1556 15.1974 11.0585 15.5714 12 15.5714V14.0714C11.4563 14.0714 10.9349 13.8555 10.5504 13.471L9.48979 14.5317Z" fill="#363636"/>
</svg>
