<svg width="24" height="24" viewBox="0 0 24 24" fill="none" xmlns="http://www.w3.org/2000/svg">
<path d="M9.7136 19.6893L9.49903 20.4079C9.89024 20.5248 10.303 20.3072 10.4277 19.9184L9.7136 19.6893ZM6.2352 17.5677L5.66181 17.0843C5.41438 17.3777 5.42846 17.8106 5.69445 18.0874L6.2352 17.5677ZM4.1624 13.6325L3.42756 13.7825C3.50449 14.1594 3.85403 14.4169 4.23676 14.3788L4.1624 13.6325ZM4 12.0209L4.75 12.0213V12.0209H4ZM4.3664 9.62095V8.87095C4.03891 8.87095 3.74929 9.08344 3.65099 9.39582L4.3664 9.62095ZM4.4 9.62095L4.40024 8.87095H4.4V9.62095ZM6.554 6.16095L6.0429 5.61206C5.80068 5.83761 5.73494 6.19526 5.88112 6.4922L6.554 6.16095ZM9.8608 4.31015L10.5291 3.96977C10.3672 3.65193 10.0039 3.49207 9.66021 3.58747L9.8608 4.31015ZM12 5.62095L12.0002 4.87095H11.9998L12 5.62095ZM14.1392 4.31015L14.3398 3.58747C13.9961 3.49207 13.6328 3.65193 13.4709 3.96977L14.1392 4.31015ZM17.446 6.16095L18.1188 6.49228C18.2651 6.19533 18.1993 5.83763 17.9571 5.61206L17.446 6.16095ZM19.6336 9.62095L20.3492 9.39652C20.25 9.07998 19.9545 8.86626 19.6228 8.87103L19.6336 9.62095ZM20 12.0209L19.25 12.0203V12.0209H20ZM19.8376 13.6325L19.7632 14.3788C20.1459 14.4169 20.4954 14.1595 20.5724 13.7827L19.8376 13.6325ZM17.7648 17.5677L18.3055 18.0874C18.5715 17.8106 18.5856 17.3777 18.3382 17.0843L17.7648 17.5677ZM14.2864 19.6893L13.5723 19.9184C13.697 20.3072 14.1098 20.5248 14.501 20.4079L14.2864 19.6893ZM12 14.8209V15.5709V14.8209ZM12 9.221V8.471V9.221ZM9.20002 12.021H8.45002H9.20002ZM9.92817 18.9706C8.72907 18.6126 7.64309 17.9503 6.77595 17.048L5.69445 18.0874C6.74105 19.1764 8.05178 19.9758 9.49903 20.4079L9.92817 18.9706ZM6.80859 18.0511C7.21267 17.5719 7.46457 16.983 7.53204 16.3597L6.04075 16.1983C6.00541 16.5247 5.87347 16.8332 5.66181 17.0843L6.80859 18.0511ZM7.53204 16.3597C7.59951 15.7365 7.4795 15.1073 7.18735 14.5527L5.8602 15.2517C6.01323 15.5422 6.0761 15.8718 6.04075 16.1983L7.53204 16.3597ZM7.18735 14.5527C6.89521 13.998 6.44422 13.5432 5.8921 13.2463L5.18174 14.5674C5.47094 14.7229 5.70717 14.9612 5.8602 15.2517L7.18735 14.5527ZM5.8921 13.2463C5.33997 12.9495 4.71183 12.8241 4.08805 12.8862L4.23676 14.3788C4.5635 14.3462 4.89253 14.4119 5.18174 14.5674L5.8921 13.2463ZM4.89724 13.4825C4.79908 13.0017 4.74974 12.5121 4.75 12.0213L3.25 12.0206C3.24969 12.6124 3.30918 13.2027 3.42756 13.7825L4.89724 13.4825ZM4.75 12.0209C4.75 11.2619 4.86617 10.5314 5.08182 9.84607L3.65099 9.39582C3.38983 10.2257 3.25 11.108 3.25 12.0209H4.75ZM4.3664 10.3709H4.4V8.87095H4.3664V10.3709ZM4.39976 10.3709C4.93513 10.3711 5.46171 10.2348 5.92979 9.97497L5.20168 8.66353C4.9565 8.79965 4.68067 8.87104 4.40024 8.87095L4.39976 10.3709ZM5.92979 9.97497C6.39786 9.7151 6.79197 9.34021 7.07491 8.88572L5.80151 8.09297C5.6533 8.33104 5.44686 8.52741 5.20168 8.66353L5.92979 9.97497ZM7.07491 8.88572C7.35786 8.43122 7.52029 7.91211 7.54688 7.3774L6.04873 7.3029C6.03481 7.58299 5.94972 7.8549 5.80151 8.09297L7.07491 8.88572ZM7.54688 7.3774C7.57347 6.84269 7.46334 6.31002 7.22689 5.8297L5.88112 6.4922C6.00497 6.7438 6.06266 7.02281 6.04873 7.3029L7.54688 7.3774ZM7.0651 6.70984C7.91487 5.91857 8.94256 5.34338 10.0614 5.03283L9.66021 3.58747C8.30949 3.96238 7.0688 4.65679 6.0429 5.61206L7.0651 6.70984ZM9.19248 4.65052C9.45623 5.16839 9.8581 5.60319 10.3536 5.90682L11.1373 4.62784C10.8778 4.46879 10.6673 4.24103 10.5291 3.96977L9.19248 4.65052ZM10.3536 5.90682C10.8492 6.21046 11.419 6.37109 12.0002 6.37095L11.9998 4.87095C11.6954 4.87102 11.3969 4.78688 11.1373 4.62784L10.3536 5.90682ZM11.9998 6.37095C12.581 6.37109 13.1508 6.21046 13.6464 5.90682L12.8627 4.62784C12.6031 4.78688 12.3046 4.87102 12.0002 4.87095L11.9998 6.37095ZM13.6464 5.90682C14.1419 5.60319 14.5438 5.16839 14.8075 4.65052L13.4709 3.96977C13.3327 4.24103 13.1222 4.46879 12.8627 4.62784L13.6464 5.90682ZM13.9386 5.03283C15.0574 5.34338 16.0851 5.91857 16.9349 6.70984L17.9571 5.61206C16.9312 4.65679 15.6905 3.96238 14.3398 3.58747L13.9386 5.03283ZM16.7732 5.82962C16.535 6.31331 16.4249 6.85004 16.4535 7.38843L17.9514 7.30879C17.9364 7.02678 17.9941 6.74564 18.1188 6.49228L16.7732 5.82962ZM16.4535 7.38843C16.4822 7.92682 16.6485 8.44885 16.9366 8.90456L18.2045 8.10296C18.0536 7.86426 17.9664 7.59081 17.9514 7.30879L16.4535 7.38843ZM16.9366 8.90456C17.2248 9.36027 17.625 9.7344 18.0991 9.99113L18.8134 8.67212C18.5651 8.53763 18.3554 8.34166 18.2045 8.10296L16.9366 8.90456ZM18.0991 9.99113C18.5732 10.2479 19.1053 10.3786 19.6444 10.3709L19.6228 8.87103C19.3404 8.87509 19.0617 8.8066 18.8134 8.67212L18.0991 9.99113ZM18.918 9.84538C19.1387 10.5492 19.2507 11.2826 19.25 12.0203L20.75 12.0216C20.7508 11.1313 20.6157 10.246 20.3492 9.39652L18.918 9.84538ZM19.25 12.0209C19.25 12.5221 19.1992 13.011 19.1028 13.4823L20.5724 13.7827C20.6888 13.2133 20.75 12.6238 20.75 12.0209H19.25ZM19.912 12.8862C19.2882 12.8241 18.66 12.9495 18.1079 13.2463L18.8183 14.5674C19.1075 14.4119 19.4365 14.3462 19.7632 14.3788L19.912 12.8862ZM18.1079 13.2463C17.5558 13.5432 17.1048 13.998 16.8126 14.5527L18.1398 15.2517C18.2928 14.9612 18.5291 14.7229 18.8183 14.5674L18.1079 13.2463ZM16.8126 14.5527C16.5205 15.1073 16.4005 15.7365 16.468 16.3597L17.9592 16.1983C17.9239 15.8718 17.9868 15.5422 18.1398 15.2517L16.8126 14.5527ZM16.468 16.3597C16.5354 16.983 16.7873 17.5719 17.1914 18.0511L18.3382 17.0843C18.1265 16.8332 17.9946 16.5247 17.9592 16.1983L16.468 16.3597ZM17.224 17.048C16.3569 17.9503 15.2709 18.6126 14.0718 18.9706L14.501 20.4079C15.9482 19.9758 17.2589 19.1764 18.3055 18.0874L17.224 17.048ZM15.0005 19.4602C14.7966 18.8246 14.3962 18.2702 13.8569 17.8769L12.973 19.0888C13.2556 19.2949 13.4654 19.5854 13.5723 19.9184L15.0005 19.4602ZM13.8569 17.8769C13.3177 17.4836 12.6674 17.2717 12 17.2717V18.7717C12.3497 18.7717 12.6904 18.8827 12.973 19.0888L13.8569 17.8769ZM12 17.2717C11.3325 17.2717 10.6823 17.4836 10.1431 17.8769L11.027 19.0888C11.3096 18.8827 11.6503 18.7717 12 18.7717V17.2717ZM10.1431 17.8769C9.60381 18.2702 9.20337 18.8246 8.99946 19.4602L10.4277 19.9184C10.5346 19.5854 10.7444 19.2949 11.027 19.0888L10.1431 17.8769ZM12 15.5709C12.4662 15.5709 12.9278 15.4791 13.3585 15.3007L12.7845 13.9149C12.5358 14.0179 12.2692 14.0709 12 14.0709V15.5709ZM13.3585 15.3007C13.7893 15.1223 14.1806 14.8608 14.5103 14.5312L13.4496 13.4705C13.2592 13.6609 13.0332 13.8119 12.7845 13.9149L13.3585 15.3007ZM14.5103 14.5312C14.8399 14.2015 15.1014 13.8102 15.2798 13.3795L13.894 12.8055C13.791 13.0542 13.64 13.2802 13.4496 13.4705L14.5103 14.5312ZM15.2798 13.3795C15.4582 12.9488 15.55 12.4872 15.55 12.021H14.05C14.05 12.2902 13.997 12.5568 13.894 12.8055L15.2798 13.3795ZM15.55 12.021C15.55 11.5548 15.4582 11.0932 15.2798 10.6625L13.894 11.2365C13.997 11.4852 14.05 11.7518 14.05 12.021H15.55ZM15.2798 10.6625C15.1014 10.2318 14.8399 9.84041 14.5103 9.51077L13.4496 10.5714C13.64 10.7618 13.791 10.9878 13.894 11.2365L15.2798 10.6625ZM14.5103 9.51077C14.1806 9.18112 13.7893 8.91963 13.3585 8.74122L12.7845 10.127C13.0332 10.2301 13.2592 10.3811 13.4496 10.5714L14.5103 9.51077ZM13.3585 8.74122C12.9278 8.56282 12.4662 8.471 12 8.471V9.971C12.2692 9.971 12.5358 10.024 12.7845 10.127L13.3585 8.74122ZM12 8.471C11.0585 8.471 10.1556 8.84501 9.48979 9.51077L10.5504 10.5714C10.9349 10.187 11.4563 9.971 12 9.971V8.471ZM9.48979 9.51077C8.82404 10.1765 8.45002 11.0795 8.45002 12.021H9.95002C9.95002 11.4773 10.166 10.9559 10.5504 10.5714L9.48979 9.51077ZM8.45002 12.021C8.45002 12.9625 8.82404 13.8654 9.48979 14.5312L10.5504 13.4705C10.166 13.0861 9.95002 12.5647 9.95002 12.021H8.45002ZM9.48979 14.5312C10.1556 15.1969 11.0585 15.5709 12 15.5709V14.0709C11.4563 14.0709 10.9349 13.855 10.5504 13.4705L9.48979 14.5312Z" fill="white"/>
</svg>
