<svg width="24" height="24" viewBox="0 0 24 24" fill="none" xmlns="http://www.w3.org/2000/svg">
<g clip-path="url(#clip0_555_22631)">
<path d="M19.7935 16.5013C20.8855 14.6099 21.2525 12.3861 20.8261 10.2442C20.3998 8.10233 19.2091 6.18855 17.4762 4.85955C15.7432 3.53056 13.5861 2.87703 11.4069 3.02078C9.22775 3.16452 7.17519 4.09574 5.63179 5.64085C4.0884 7.18597 3.15948 9.23957 3.01817 11.4189C2.87685 13.5982 3.53279 15.7546 4.86372 17.4861C6.19465 19.2176 8.10976 20.4061 10.2521 20.83C12.3945 21.254 14.6179 20.8845 16.508 19.7905" stroke="#8F8F8F" stroke-width="1.5" stroke-linecap="round"/>
<path d="M10 8.5L8.08536 10.4146C8.05386 10.4461 8.07617 10.5 8.12071 10.5H16" stroke="#8F8F8F" stroke-width="1.5" stroke-linecap="round"/>
<path d="M14 15.5L15.9146 13.5854C15.9461 13.5539 15.9238 13.5 15.8793 13.5H8" stroke="#8F8F8F" stroke-width="1.5" stroke-linecap="round"/>
</g>
<defs>
<clipPath id="clip0_555_22631">
<rect width="24" height="24" fill="white"/>
</clipPath>
</defs>
</svg>
