<svg width="10" height="10" viewBox="0 0 10 10" fill="none" xmlns="http://www.w3.org/2000/svg">
<path d="M5.98145 4.98535L9.61426 8.61816C9.71191 8.71582 9.71191 8.82324 9.61426 8.94043L8.94043 9.61426C8.82324 9.71191 8.71582 9.71191 8.61816 9.61426L8.00293 8.96973L4.98535 5.98145L1.35254 9.61426C1.25488 9.71191 1.14746 9.71191 1.03027 9.61426L0.356445 8.94043C0.258789 8.82324 0.258789 8.71582 0.356445 8.61816L3.98926 4.98535L0.356445 1.35254C0.258789 1.25488 0.258789 1.14746 0.356445 1.03027L1.03027 0.356445C1.14746 0.258789 1.25488 0.258789 1.35254 0.356445L4.98535 3.98926L8.61816 0.356445C8.71582 0.258789 8.82324 0.258789 8.94043 0.356445L9.61426 1.03027C9.71191 1.14746 9.71191 1.25488 9.61426 1.35254L8.96973 1.96777L5.98145 4.98535Z" fill="white"/>
</svg>
