<svg width="24" height="24" viewBox="0 0 24 24" fill="none" xmlns="http://www.w3.org/2000/svg">
<path d="M7.11805 13.98L4.62305 13.3563C4.62305 13.3563 4.62305 11.485 5.2468 9.61375C5.87055 7.7425 10.2368 7.7425 10.2368 7.7425L7.11805 13.98ZM9.61305 16.475L10.2368 18.97C10.2368 18.97 12.108 18.97 13.9793 18.3463C15.8505 17.7225 15.8505 13.3563 15.8505 13.3563L9.61305 16.475ZM7.11805 13.98L9.61305 16.475C9.61305 16.475 15.8505 13.98 17.7218 10.8613C19.593 7.7425 19.593 4 19.593 4C19.593 4 15.8505 4 12.7318 5.87125C9.61305 7.7425 7.11805 13.98 7.11805 13.98Z" stroke="white" stroke-width="1.3" stroke-linecap="round" stroke-linejoin="round"/>
<path d="M4 19.5936L6.495 18.3461L5.2475 17.0986L4 19.5936Z" fill="white" stroke="white" stroke-linecap="round" stroke-linejoin="round"/>
<path d="M14.6042 9.61371C14.9487 9.61371 15.228 9.33445 15.228 8.98996C15.228 8.64547 14.9487 8.36621 14.6042 8.36621C14.2597 8.36621 13.9805 8.64547 13.9805 8.98996C13.9805 9.33445 14.2597 9.61371 14.6042 9.61371Z" fill="white" stroke="white" stroke-width="1.5" stroke-linecap="round" stroke-linejoin="round"/>
</svg>
