<svg width="167" height="138" viewBox="0 0 167 138" fill="none" xmlns="http://www.w3.org/2000/svg">
<rect x="8.98407" y="81.0553" width="43.0383" height="76.4074" rx="5.04917" transform="rotate(-57.6194 8.98407 81.0553)" fill="#313131" stroke="#5F5F61" stroke-width="0.786438"/>
<line x1="21.2992" y1="78.2835" x2="32.9055" y2="59.9811" stroke="#147BDA" stroke-width="3.14575" stroke-linecap="round"/>
<line x1="33.3187" y1="86.3626" x2="45.2942" y2="67.478" stroke="#9B9A9D" stroke-width="3.14575" stroke-linecap="round"/>
<line x1="45.3812" y1="94.3713" x2="57.3567" y2="75.4868" stroke="#9B9A9D" stroke-width="3.14575" stroke-linecap="round"/>
<line x1="51.7875" y1="98.4329" x2="61.917" y2="82.4593" stroke="#9B9A9D" stroke-width="3.14575" stroke-linecap="round"/>
<line x1="61.7328" y1="104.63" x2="70.6609" y2="90.5511" stroke="#9B9A9D" stroke-width="3.14575" stroke-linecap="round"/>
<line x1="67.2601" y1="108.245" x2="72.2691" y2="100.347" stroke="#9B9A9D" stroke-width="3.14575" stroke-linecap="round"/>
<line x1="38.9789" y1="90.3098" x2="46.7278" y2="78.0903" stroke="#9B9A9D" stroke-width="3.14575" stroke-linecap="round"/>
<rect x="29.044" y="37.3385" width="49.208" height="87.2748" rx="5.04917" transform="rotate(-31.2164 29.044 37.3385)" fill="#313131" stroke="#5F5F61" stroke-width="0.786438"/>
<line x1="43.0339" y1="41.078" x2="64.5563" y2="28.0351" stroke="#147BDA" stroke-width="3.14575" stroke-linecap="round"/>
<line x1="51.2175" y1="55.4285" x2="73.4124" y2="41.9781" stroke="#9B9A9D" stroke-width="3.14575" stroke-linecap="round"/>
<line x1="59.4792" y1="69.7342" x2="81.6742" y2="56.2838" stroke="#9B9A9D" stroke-width="3.14575" stroke-linecap="round"/>
<line x1="63.9597" y1="77.1326" x2="82.7918" y2="65.7202" stroke="#9B9A9D" stroke-width="3.14575" stroke-linecap="round"/>
<line x1="70.9831" y1="88.5096" x2="87.6265" y2="78.4235" stroke="#9B9A9D" stroke-width="3.14575" stroke-linecap="round"/>
<line x1="74.7956" y1="95.0057" x2="84.2994" y2="89.2463" stroke="#9B9A9D" stroke-width="3.14575" stroke-linecap="round"/>
<line x1="54.9948" y1="62.3348" x2="69.4901" y2="53.5505" stroke="#9B9A9D" stroke-width="3.14575" stroke-linecap="round"/>
<rect x="72.3203" y="27.7988" width="39.4594" height="39.7855" rx="4.40144" transform="rotate(-5.18362 72.3203 27.7988)" fill="#595959"/>
<path d="M97.8377 40.9916C97.5863 39.3729 96.1057 38.9309 94.2659 38.9071L94.1412 36.6457L92.7225 36.748L92.844 38.9498C92.471 38.9767 92.0902 39.0113 91.7119 39.0459L91.5899 36.8296L90.172 36.9316L90.2961 39.1924C89.9893 39.2206 89.6879 39.2479 89.3938 39.2693L89.3932 39.2623L87.4365 39.4025L87.5179 40.8726C87.5179 40.8726 88.5645 40.7778 88.5481 40.7978C89.1227 40.7566 89.3276 41.0668 89.3974 41.3422L89.5395 43.9183C89.5792 43.9157 89.631 43.9136 89.69 43.9171C89.6427 43.9206 89.5921 43.9239 89.5401 43.9281L89.7387 47.5371C89.7231 47.7144 89.6323 48.0018 89.2308 48.0314C89.2498 48.0457 88.1995 48.1054 88.1995 48.1054L88.0083 49.7696L89.8545 49.6366C90.1981 49.6122 90.5364 49.5935 90.8684 49.5717L90.9951 51.8587L92.4122 51.7569L92.2874 49.494C92.677 49.4737 93.0537 49.4496 93.4213 49.4228L93.5449 51.6754L94.9635 51.5731L94.8381 49.29C97.2159 48.9854 98.8531 48.2822 98.9406 46.0941C99.0115 44.3322 98.1201 43.6125 96.7488 43.3946C97.549 42.929 98.0238 42.1759 97.8377 40.9916ZM96.1225 46.025C96.2174 47.7341 93.1905 47.7569 92.229 47.8271L92.0624 44.7967C93.0241 44.7277 96.0243 44.2422 96.1225 46.025ZM95.227 41.7972C95.3123 43.3522 92.7867 43.3519 91.9859 43.4096L91.8345 40.6613C92.6353 40.6036 95.1374 40.1753 95.227 41.7972Z" fill="white"/>
<rect x="108.355" y="36.1318" width="39.4594" height="27.0672" rx="4.40144" transform="rotate(7.90201 108.355 36.1318)" fill="#898989"/>
<path d="M126.766 51.4589L126.767 51.4573C126.702 51.4536 126.368 51.4302 125.631 51.3318C125.041 51.2531 124.629 51.1803 124.484 51.1528L124.484 51.1544C122.229 50.7447 120.588 50.0967 120.648 49.5896C120.708 49.0841 122.451 48.8861 124.73 49.0812L124.534 50.7337C124.68 50.7646 125.102 50.8486 125.689 50.9268C126.394 51.0209 126.75 51.0359 126.816 51.0382L127.012 49.3873C129.262 49.7981 130.899 50.4454 130.839 50.9509C130.779 51.4564 129.041 51.6535 126.766 51.4605L126.766 51.4589ZM127.032 49.2162L127.208 47.7381L130.365 48.1593L130.632 45.9053L122.037 44.7585L121.769 47.0125L124.927 47.4337L124.751 48.9119C122.17 48.6959 120.177 48.9824 120.1 49.6351C120.022 50.2878 121.888 51.0892 124.437 51.5593L123.875 56.2976L126.158 56.6022L126.72 51.8639C129.296 52.0793 131.287 51.7923 131.364 51.1396C131.441 50.4885 129.58 49.6861 127.034 49.218" fill="white"/>
<path d="M65.0892 67.2916C65.0973 63.2729 68.3616 60.0216 72.3802 60.0297L149.342 60.1833C153.361 60.1913 156.612 63.4556 156.604 67.4743L156.51 114.434C156.502 118.453 153.238 121.704 149.219 121.696L72.2574 121.542C68.2388 121.534 64.9875 118.27 64.9955 114.251L65.0892 67.2916Z" fill="#313131" stroke="#5F5F61" stroke-width="1.10036"/>
<path d="M135.693 92.2426C135.703 87.3522 139.676 83.3956 144.566 83.4053L160.54 83.4372C161.649 83.4394 162.547 84.3405 162.545 85.4498L162.517 99.1425C162.515 100.252 161.614 101.149 160.505 101.147L144.531 101.115C139.64 101.105 135.684 97.133 135.693 92.2426Z" fill="#313131" stroke="#5F5F61" stroke-width="1.33906"/>
<circle cx="144.551" cy="92.2573" r="5.15909" transform="rotate(0.114378 144.551 92.2573)" fill="white"/>
</svg>
