<svg width="24" height="24" viewBox="0 0 24 24" fill="none" xmlns="http://www.w3.org/2000/svg">
<g clip-path="url(#clip0_241_5604)">
<path d="M19.7935 16.5003C20.8855 14.609 21.2525 12.3851 20.8261 10.2432C20.3998 8.10135 19.2091 6.18757 17.4762 4.85857C15.7432 3.52958 13.5861 2.87605 11.4069 3.0198C9.22775 3.16355 7.17519 4.09476 5.63179 5.63988C4.0884 7.18499 3.15948 9.23859 3.01817 11.4179C2.87685 13.5973 3.53279 15.7536 4.86372 17.4851C6.19465 19.2166 8.10976 20.4051 10.2521 20.8291C12.3945 21.253 14.6179 20.8835 16.508 19.7895" stroke="white" stroke-width="1.5" stroke-linecap="round"/>
<path d="M10 8.5L8.08536 10.4146C8.05386 10.4461 8.07617 10.5 8.12071 10.5H16" stroke="white" stroke-width="1.5" stroke-linecap="round"/>
<path d="M14 15.5L15.9146 13.5854C15.9461 13.5539 15.9238 13.5 15.8793 13.5H8" stroke="white" stroke-width="1.5" stroke-linecap="round"/>
</g>
<defs>
<clipPath id="clip0_241_5604">
<rect width="24" height="24" fill="white"/>
</clipPath>
</defs>
</svg>
